  0
SECTION
  2
HEADER
  9
$ACADVER
  1
AC1024
  9
$ACADMAINTVER
 70
     6
  9
$DWGCODEPAGE
  3
UNDEFINED
  9
$INSBASE
 10
0.0
 20
0.0
 30
0.0
  9
$EXTMIN
 10
1.000000000000000E+20
 20
1.000000000000000E+20
 30
1.000000000000000E+20
  9
$EXTMAX
 10
-1.000000000000000E+20
 20
-1.000000000000000E+20
 30
-1.000000000000000E+20
  9
$LIMMIN
 10
0.0
 20
0.0
  9
$LIMMAX
 10
12.0
 20
9.0
  9
$ORTHOMODE
 70
     0
  9
$REGENMODE
 70
     1
  9
$FILLMODE
 70
     1
  9
$QTEXTMODE
 70
     0
  9
$MIRRTEXT
 70
     1
  9
$LTSCALE
 40
1.0
  9
$ATTMODE
 70
     1
  9
$TEXTSIZE
 40
0.2
  9
$TRACEWID
 40
0.05
  9
$TEXTSTYLE
  7
Standard
  9
$CLAYER
  8
0
  9
$CELTYPE
  6
ByLayer
  9
$CECOLOR
 62
   256
  9
$CELTSCALE
 40
1.0
  9
$DISPSILH
 70
     0
  9
$DIMSCALE
 40
1.0
  9
$DIMASZ
 40
0.18
  9
$DIMEXO
 40
0.0625
  9
$DIMDLI
 40
0.38
  9
$DIMRND
 40
0.0
  9
$DIMDLE
 40
0.0
  9
$DIMEXE
 40
0.18
  9
$DIMTP
 40
0.0
  9
$DIMTM
 40
0.0
  9
$DIMTXT
 40
0.18
  9
$DIMCEN
 40
0.09
  9
$DIMTSZ
 40
0.0
  9
$DIMTOL
 70
     0
  9
$DIMLIM
 70
     0
  9
$DIMTIH
 70
     1
  9
$DIMTOH
 70
     1
  9
$DIMSE1
 70
     0
  9
$DIMSE2
 70
     0
  9
$DIMTAD
 70
     0
  9
$DIMZIN
 70
     0
  9
$DIMBLK
  1

  9
$DIMASO
 70
     1
  9
$DIMSHO
 70
     1
  9
$DIMPOST
  1

  9
$DIMAPOST
  1

  9
$DIMALT
 70
     0
  9
$DIMALTD
 70
     2
  9
$DIMALTF
 40
25.4
  9
$DIMLFAC
 40
1.0
  9
$DIMTOFL
 70
     0
  9
$DIMTVP
 40
0.0
  9
$DIMTIX
 70
     0
  9
$DIMSOXD
 70
     0
  9
$DIMSAH
 70
     0
  9
$DIMBLK1
  1

  9
$DIMBLK2
  1

  9
$DIMSTYLE
  2
Standard
  9
$DIMCLRD
 70
     0
  9
$DIMCLRE
 70
     0
  9
$DIMCLRT
 70
     0
  9
$DIMTFAC
 40
1.0
  9
$DIMGAP
 40
0.09
  9
$DIMJUST
 70
     0
  9
$DIMSD1
 70
     0
  9
$DIMSD2
 70
     0
  9
$DIMTOLJ
 70
     1
  9
$DIMTZIN
 70
     0
  9
$DIMALTZ
 70
     0
  9
$DIMALTTZ
 70
     0
  9
$DIMUPT
 70
     0
  9
$DIMDEC
 70
     4
  9
$DIMTDEC
 70
     4
  9
$DIMALTU
 70
     2
  9
$DIMALTTD
 70
     2
  9
$DIMTXSTY
  7
Standard
  9
$DIMAUNIT
 70
     0
  9
$DIMADEC
 70
     0
  9
$DIMALTRND
 40
0.0
  9
$DIMAZIN
 70
     0
  9
$DIMDSEP
 70
    46
  9
$DIMATFIT
 70
     3
  9
$DIMFRAC
 70
     0
  9
$DIMLDRBLK
  1

  9
$DIMLUNIT
 70
     2
  9
$DIMLWD
 70
    -2
  9
$DIMLWE
 70
    -2
  9
$DIMTMOVE
 70
     0
  9
$DIMFXL
 40
1.0
  9
$DIMFXLON
 70
     0
  9
$DIMJOGANG
 40
0.7853981633974483
  9
$DIMTFILL
 70
     0
  9
$DIMTFILLCLR
 70
     0
  9
$DIMARCSYM
 70
     0
  9
$DIMLTYPE
  6

  9
$DIMLTEX1
  6

  9
$DIMLTEX2
  6

  9
$DIMTXTDIRECTION
 70
     0
  9
$LUNITS
 70
     2
  9
$LUPREC
 70
     4
  9
$SKETCHINC
 40
0.1
  9
$FILLETRAD
 40
0.5
  9
$AUNITS
 70
     0
  9
$AUPREC
 70
     0
  9
$MENU
  1
.
  9
$ELEVATION
 40
0.0
  9
$PELEVATION
 40
0.0
  9
$THICKNESS
 40
0.0
  9
$LIMCHECK
 70
     0
  9
$CHAMFERA
 40
0.5
  9
$CHAMFERB
 40
0.5
  9
$CHAMFERC
 40
1.0
  9
$CHAMFERD
 40
0.0
  9
$SKPOLY
 70
     0
  9
$TDCREATE
 40
2459171.758692118
  9
$TDUCREATE
 40
2459171.967025463
  9
$TDUPDATE
 40
2459171.758692118
  9
$TDUUPDATE
 40
2459171.967025463
  9
$TDINDWG
 40
0.0000000116
  9
$TDUSRTIMER
 40
0.0000000116
  9
$USRTIMER
 70
     1
  9
$ANGBASE
 50
0.0
  9
$ANGDIR
 70
     0
  9
$PDMODE
 70
     0
  9
$PDSIZE
 40
0.0
  9
$PLINEWID
 40
0.0
  9
$SPLFRAME
 70
     0
  9
$SPLINETYPE
 70
     6
  9
$SPLINESEGS
 70
     8
  9
$HANDSEED
  5
28D
  9
$SURFTAB1
 70
     6
  9
$SURFTAB2
 70
     6
  9
$SURFTYPE
 70
     6
  9
$SURFU
 70
     6
  9
$SURFV
 70
     6
  9
$UCSBASE
  2

  9
$UCSNAME
  2

  9
$UCSORG
 10
0.0
 20
0.0
 30
0.0
  9
$UCSXDIR
 10
1.0
 20
0.0
 30
0.0
  9
$UCSYDIR
 10
0.0
 20
1.0
 30
0.0
  9
$UCSORTHOREF
  2

  9
$UCSORTHOVIEW
 70
     0
  9
$UCSORGTOP
 10
0.0
 20
0.0
 30
0.0
  9
$UCSORGBOTTOM
 10
0.0
 20
0.0
 30
0.0
  9
$UCSORGLEFT
 10
0.0
 20
0.0
 30
0.0
  9
$UCSORGRIGHT
 10
0.0
 20
0.0
 30
0.0
  9
$UCSORGFRONT
 10
0.0
 20
0.0
 30
0.0
  9
$UCSORGBACK
 10
0.0
 20
0.0
 30
0.0
  9
$PUCSBASE
  2

  9
$PUCSNAME
  2

  9
$PUCSORG
 10
0.0
 20
0.0
 30
0.0
  9
$PUCSXDIR
 10
1.0
 20
0.0
 30
0.0
  9
$PUCSYDIR
 10
0.0
 20
1.0
 30
0.0
  9
$PUCSORTHOREF
  2

  9
$PUCSORTHOVIEW
 70
     0
  9
$PUCSORGTOP
 10
0.0
 20
0.0
 30
0.0
  9
$PUCSORGBOTTOM
 10
0.0
 20
0.0
 30
0.0
  9
$PUCSORGLEFT
 10
0.0
 20
0.0
 30
0.0
  9
$PUCSORGRIGHT
 10
0.0
 20
0.0
 30
0.0
  9
$PUCSORGFRONT
 10
0.0
 20
0.0
 30
0.0
  9
$PUCSORGBACK
 10
0.0
 20
0.0
 30
0.0
  9
$USERI1
 70
     0
  9
$USERI2
 70
     0
  9
$USERI3
 70
     0
  9
$USERI4
 70
     0
  9
$USERI5
 70
     0
  9
$USERR1
 40
0.0
  9
$USERR2
 40
0.0
  9
$USERR3
 40
0.0
  9
$USERR4
 40
0.0
  9
$USERR5
 40
0.0
  9
$WORLDVIEW
 70
     1
  9
$SHADEDGE
 70
     3
  9
$SHADEDIF
 70
    70
  9
$TILEMODE
 70
     1
  9
$MAXACTVP
 70
    64
  9
$PINSBASE
 10
0.0
 20
0.0
 30
0.0
  9
$PLIMCHECK
 70
     0
  9
$PEXTMIN
 10
1.000000000000000E+20
 20
1.000000000000000E+20
 30
1.000000000000000E+20
  9
$PEXTMAX
 10
-1.000000000000000E+20
 20
-1.000000000000000E+20
 30
-1.000000000000000E+20
  9
$PLIMMIN
 10
0.0
 20
0.0
  9
$PLIMMAX
 10
12.0
 20
9.0
  9
$UNITMODE
 70
     0
  9
$VISRETAIN
 70
     1
  9
$PLINEGEN
 70
     0
  9
$PSLTSCALE
 70
     1
  9
$TREEDEPTH
 70
  3020
  9
$CMLSTYLE
  2
Standard
  9
$CMLJUST
 70
     0
  9
$CMLSCALE
 40
1.0
  9
$PROXYGRAPHICS
 70
     1
  9
$MEASUREMENT
 70
     0
  9
$CELWEIGHT
370
    -1
  9
$ENDCAPS
280
     0
  9
$JOINSTYLE
280
     0
  9
$LWDISPLAY
290
     1
  9
$INSUNITS
 70
     1
  9
$HYPERLINKBASE
  1

  9
$STYLESHEET
  1

  9
$XEDIT
290
     1
  9
$CEPSNTYPE
380
     0
  9
$PSTYLEMODE
290
     1
  9
$FINGERPRINTGUID
  2
{85CC3A7B-9A50-6FFD-FCD1-31848C582DB3}
  9
$VERSIONGUID
  2
{FAEB1C32-E019-11D5-929B-00C0DF256EC4}
  9
$EXTNAMES
290
     1
  9
$PSVPSCALE
 40
0.0
  9
$OLESTARTUP
290
     0
  9
$SORTENTS
280
   127
  9
$INDEXCTL
280
     0
  9
$HIDETEXT
280
     1
  9
$XCLIPFRAME
280
     2
  9
$HALOGAP
280
     0
  9
$OBSCOLOR
 70
   257
  9
$OBSLTYPE
280
     0
  9
$INTERSECTIONDISPLAY
280
     0
  9
$INTERSECTIONCOLOR
 70
   257
  9
$DIMASSOC
280
     2
  9
$PROJECTNAME
  1

  9
$CAMERADISPLAY
290
     0
  9
$LENSLENGTH
 40
50.0
  9
$CAMERAHEIGHT
 40
0.0
  9
$STEPSPERSEC
 40
2.0
  9
$STEPSIZE
 40
6.0
  9
$3DDWFPREC
 40
2.0
  9
$PSOLWIDTH
 40
0.25
  9
$PSOLHEIGHT
 40
4.0
  9
$LOFTANG1
 40
1.570796326794897
  9
$LOFTANG2
 40
1.570796326794897
  9
$LOFTMAG1
 40
0.0
  9
$LOFTMAG2
 40
0.0
  9
$LOFTPARAM
 70
     7
  9
$LOFTNORMALS
280
     1
  9
$LATITUDE
 40
37.795
  9
$LONGITUDE
 40
-122.394
  9
$NORTHDIRECTION
 40
0.0
  9
$TIMEZONE
 70
 -8000
  9
$LIGHTGLYPHDISPLAY
280
     1
  9
$TILEMODELIGHTSYNCH
280
     1
  9
$CMATERIAL
347
3C
  9
$SOLIDHIST
280
     1
  9
$SHOWHIST
280
     1
  9
$DWFFRAME
280
     2
  9
$DGNFRAME
280
     2
  9
$REALWORLDSCALE
290
     1
  9
$INTERFERECOLOR
 62
   256
  9
$CSHADOW
280
     0
  9
$SHADOWPLANELOCATION
 40
0.0
  0
ENDSEC
  0
SECTION
  2
CLASSES
  0
CLASS
  1
ACDBDICTIONARYWDFLT
  2
AcDbDictionaryWithDefault
  3
ObjectDBX Classes
 90
        0
 91
        4
280
     0
281
     0
  0
CLASS
  1
VISUALSTYLE
  2
AcDbVisualStyle
  3
ObjectDBX Classes
 90
     4095
 91
        4
280
     0
281
     0
  0
CLASS
  1
MATERIAL
  2
AcDbMaterial
  3
ObjectDBX Classes
 90
     1153
 91
        4
280
     0
281
     0
  0
CLASS
  1
SUN
  2
AcDbSun
  3
SCENEOE
 90
     1024
 91
        4
280
     0
281
     0
  0
ENDSEC
  0
SECTION
  2
TABLES
  0
TABLE
  2
VPORT
  5
8
330
0
100
AcDbSymbolTable
 70
     1
  0
VPORT
  5
29
330
8
100
AcDbSymbolTableRecord
100
AcDbViewportTableRecord
  2
*Active
 70
     0
 10
0.0
 20
0.0
 11
1.0
 21
1.0
 12
0.0
 22
0.0
 13
0.0
 23
0.0
 14
0.5
 24
0.5
 15
0.5
 25
0.5
 16
0.0
 26
0.0
 36
1.0
 17
149.9999999624996
 27
149.9999999624997
 37
0.0
 40
299.9999999249995
 41
0.999999999999999
 42
50.0
 43
0.0
 44
0.0
 50
0.0
 51
0.0
 71
     0
 72
   100
 73
     1
 74
     3
 75
     0
 76
     0
 77
     0
 78
     0
281
     0
 65
     1
110
0.0
120
0.0
130
0.0
111
1.0
121
0.0
131
0.0
112
0.0
122
1.0
132
0.0
 79
     0
146
0.0
 60
     3
 61
     5
292
     1
282
     1
141
0.0
142
0.0
 63
   250
361
3F
  0
ENDTAB
  0
TABLE
  2
LTYPE
  5
5
330
0
100
AcDbSymbolTable
 70
     1
  0
LTYPE
  5
14
330
5
100
AcDbSymbolTableRecord
100
AcDbLinetypeTableRecord
  2
ByBlock
 70
     0
  3

 72
    65
 73
     0
 40
0.0
  0
LTYPE
  5
15
330
5
100
AcDbSymbolTableRecord
100
AcDbLinetypeTableRecord
  2
ByLayer
 70
     0
  3

 72
    65
 73
     0
 40
0.0
  0
LTYPE
  5
16
330
5
100
AcDbSymbolTableRecord
100
AcDbLinetypeTableRecord
  2
Continuous
 70
     0
  3
Solid line
 72
    65
 73
     0
 40
0.0
  0
ENDTAB
  0
TABLE
  2
LAYER
  5
2
330
0
100
AcDbSymbolTable
 70
     2
  0
LAYER
  5
10
330
2
100
AcDbSymbolTableRecord
100
AcDbLayerTableRecord
  2
0
 70
     0
 62
     7
  6
Continuous
370
    -3
390
F
347
3E
  0
LAYER
  5
40
330
2
100
AcDbSymbolTableRecord
100
AcDbLayerTableRecord
  2
Layer 1
 70
     0
 62
     7
  6
Continuous
370
    -3
390
F
347
3E
  0
ENDTAB
  0
TABLE
  2
STYLE
  5
3
330
0
100
AcDbSymbolTable
 70
     1
  0
STYLE
  5
11
330
3
100
AcDbSymbolTableRecord
100
AcDbTextStyleTableRecord
  2
Standard
 70
     0
 40
0.0
 41
1.0
 50
0.0
 71
     0
 42
0.2
  3
txt
  4

  0
ENDTAB
  0
TABLE
  2
VIEW
  5
6
330
0
100
AcDbSymbolTable
 70
     0
  0
ENDTAB
  0
TABLE
  2
UCS
  5
7
330
0
100
AcDbSymbolTable
 70
     0
  0
ENDTAB
  0
TABLE
  2
APPID
  5
9
330
0
100
AcDbSymbolTable
 70
     1
  0
APPID
  5
12
330
9
100
AcDbSymbolTableRecord
100
AcDbRegAppTableRecord
  2
ACAD
 70
     0
  0
ENDTAB
  0
TABLE
  2
DIMSTYLE
  5
A
330
0
100
AcDbSymbolTable
 70
     1
100
AcDbDimStyleTable
  0
DIMSTYLE
105
27
330
A
100
AcDbSymbolTableRecord
100
AcDbDimStyleTableRecord
  2
Standard
 70
     0
178
     0
340
11
  0
ENDTAB
  0
TABLE
  2
BLOCK_RECORD
  5
1
330
0
100
AcDbSymbolTable
 70
    47
  0
BLOCK_RECORD
  5
1F
330
1
100
AcDbSymbolTableRecord
100
AcDbBlockTableRecord
  2
*Model_Space
340
22
 70
     0
280
     1
281
     0
  0
BLOCK_RECORD
  5
1B
330
1
100
AcDbSymbolTableRecord
100
AcDbBlockTableRecord
  2
*Paper_Space
340
1E
 70
     0
280
     1
281
     0
  0
BLOCK_RECORD
  5
23
330
1
100
AcDbSymbolTableRecord
100
AcDbBlockTableRecord
  2
*Paper_Space0
340
26
 70
     0
280
     1
281
     0
  0
BLOCK_RECORD
  5
41
330
1
100
AcDbSymbolTableRecord
100
AcDbBlockTableRecord
  2
block 2
340
0
102
{BLKREFS
331
42
102
}
 70
     0
280
     1
281
     0
  0
BLOCK_RECORD
  5
46
330
1
100
AcDbSymbolTableRecord
100
AcDbBlockTableRecord
  2
block 3
340
0
102
{BLKREFS
331
47
102
}
 70
     0
280
     1
281
     0
  0
BLOCK_RECORD
  5
4B
330
1
100
AcDbSymbolTableRecord
100
AcDbBlockTableRecord
  2
block 4
340
0
102
{BLKREFS
331
4C
102
}
 70
     0
280
     1
281
     0
  0
BLOCK_RECORD
  5
50
330
1
100
AcDbSymbolTableRecord
100
AcDbBlockTableRecord
  2
block 5
340
0
102
{BLKREFS
331
51
102
}
 70
     0
280
     1
281
     0
  0
BLOCK_RECORD
  5
55
330
1
100
AcDbSymbolTableRecord
100
AcDbBlockTableRecord
  2
block 6
340
0
102
{BLKREFS
331
56
102
}
 70
     0
280
     1
281
     0
  0
BLOCK_RECORD
  5
5A
330
1
100
AcDbSymbolTableRecord
100
AcDbBlockTableRecord
  2
block 7
340
0
102
{BLKREFS
331
5B
102
}
 70
     0
280
     1
281
     0
  0
BLOCK_RECORD
  5
5F
330
1
100
AcDbSymbolTableRecord
100
AcDbBlockTableRecord
  2
block 8
340
0
102
{BLKREFS
331
60
102
}
 70
     0
280
     1
281
     0
  0
BLOCK_RECORD
  5
64
330
1
100
AcDbSymbolTableRecord
100
AcDbBlockTableRecord
  2
block 9
340
0
102
{BLKREFS
331
65
102
}
 70
     0
280
     1
281
     0
  0
BLOCK_RECORD
  5
69
330
1
100
AcDbSymbolTableRecord
100
AcDbBlockTableRecord
  2
block 10
340
0
102
{BLKREFS
331
6A
102
}
 70
     0
280
     1
281
     0
  0
BLOCK_RECORD
  5
6E
330
1
100
AcDbSymbolTableRecord
100
AcDbBlockTableRecord
  2
block 11
340
0
102
{BLKREFS
331
6F
102
}
 70
     0
280
     1
281
     0
  0
BLOCK_RECORD
  5
73
330
1
100
AcDbSymbolTableRecord
100
AcDbBlockTableRecord
  2
block 12
340
0
102
{BLKREFS
331
74
102
}
 70
     0
280
     1
281
     0
  0
BLOCK_RECORD
  5
A9
330
1
100
AcDbSymbolTableRecord
100
AcDbBlockTableRecord
  2
block 13
340
0
102
{BLKREFS
331
AA
102
}
 70
     0
280
     1
281
     0
  0
BLOCK_RECORD
  5
DC
330
1
100
AcDbSymbolTableRecord
100
AcDbBlockTableRecord
  2
block 14
340
0
102
{BLKREFS
331
DD
102
}
 70
     0
280
     1
281
     0
  0
BLOCK_RECORD
  5
104
330
1
100
AcDbSymbolTableRecord
100
AcDbBlockTableRecord
  2
block 15
340
0
102
{BLKREFS
331
105
102
}
 70
     0
280
     1
281
     0
  0
BLOCK_RECORD
  5
123
330
1
100
AcDbSymbolTableRecord
100
AcDbBlockTableRecord
  2
block 16
340
0
102
{BLKREFS
331
124
102
}
 70
     0
280
     1
281
     0
  0
BLOCK_RECORD
  5
132
330
1
100
AcDbSymbolTableRecord
100
AcDbBlockTableRecord
  2
block 17
340
0
102
{BLKREFS
331
133
102
}
 70
     0
280
     1
281
     0
  0
BLOCK_RECORD
  5
141
330
1
100
AcDbSymbolTableRecord
100
AcDbBlockTableRecord
  2
block 18
340
0
102
{BLKREFS
331
142
102
}
 70
     0
280
     1
281
     0
  0
BLOCK_RECORD
  5
14C
330
1
100
AcDbSymbolTableRecord
100
AcDbBlockTableRecord
  2
block 19
340
0
102
{BLKREFS
331
14D
102
}
 70
     0
280
     1
281
     0
  0
BLOCK_RECORD
  5
157
330
1
100
AcDbSymbolTableRecord
100
AcDbBlockTableRecord
  2
block 20
340
0
102
{BLKREFS
331
158
102
}
 70
     0
280
     1
281
     0
  0
BLOCK_RECORD
  5
162
330
1
100
AcDbSymbolTableRecord
100
AcDbBlockTableRecord
  2
block 21
340
0
102
{BLKREFS
331
163
102
}
 70
     0
280
     1
281
     0
  0
BLOCK_RECORD
  5
16D
330
1
100
AcDbSymbolTableRecord
100
AcDbBlockTableRecord
  2
block 22
340
0
102
{BLKREFS
331
16E
102
}
 70
     0
280
     1
281
     0
  0
BLOCK_RECORD
  5
178
330
1
100
AcDbSymbolTableRecord
100
AcDbBlockTableRecord
  2
block 23
340
0
102
{BLKREFS
331
179
102
}
 70
     0
280
     1
281
     0
  0
BLOCK_RECORD
  5
183
330
1
100
AcDbSymbolTableRecord
100
AcDbBlockTableRecord
  2
block 24
340
0
102
{BLKREFS
331
184
102
}
 70
     0
280
     1
281
     0
  0
BLOCK_RECORD
  5
18E
330
1
100
AcDbSymbolTableRecord
100
AcDbBlockTableRecord
  2
block 25
340
0
102
{BLKREFS
331
18F
102
}
 70
     0
280
     1
281
     0
  0
BLOCK_RECORD
  5
199
330
1
100
AcDbSymbolTableRecord
100
AcDbBlockTableRecord
  2
block 26
340
0
102
{BLKREFS
331
19A
102
}
 70
     0
280
     1
281
     0
  0
BLOCK_RECORD
  5
1A4
330
1
100
AcDbSymbolTableRecord
100
AcDbBlockTableRecord
  2
block 27
340
0
102
{BLKREFS
331
1A5
102
}
 70
     0
280
     1
281
     0
  0
BLOCK_RECORD
  5
1AF
330
1
100
AcDbSymbolTableRecord
100
AcDbBlockTableRecord
  2
block 28
340
0
102
{BLKREFS
331
1B0
102
}
 70
     0
280
     1
281
     0
  0
BLOCK_RECORD
  5
1BA
330
1
100
AcDbSymbolTableRecord
100
AcDbBlockTableRecord
  2
block 29
340
0
102
{BLKREFS
331
1BB
102
}
 70
     0
280
     1
281
     0
  0
BLOCK_RECORD
  5
1C5
330
1
100
AcDbSymbolTableRecord
100
AcDbBlockTableRecord
  2
block 30
340
0
102
{BLKREFS
331
1C6
102
}
 70
     0
280
     1
281
     0
  0
BLOCK_RECORD
  5
1D0
330
1
100
AcDbSymbolTableRecord
100
AcDbBlockTableRecord
  2
block 31
340
0
102
{BLKREFS
331
1D1
102
}
 70
     0
280
     1
281
     0
  0
BLOCK_RECORD
  5
1DB
330
1
100
AcDbSymbolTableRecord
100
AcDbBlockTableRecord
  2
block 32
340
0
102
{BLKREFS
331
1DC
102
}
 70
     0
280
     1
281
     0
  0
BLOCK_RECORD
  5
1E6
330
1
100
AcDbSymbolTableRecord
100
AcDbBlockTableRecord
  2
block 33
340
0
102
{BLKREFS
331
1E7
102
}
 70
     0
280
     1
281
     0
  0
BLOCK_RECORD
  5
1F1
330
1
100
AcDbSymbolTableRecord
100
AcDbBlockTableRecord
  2
block 34
340
0
102
{BLKREFS
331
1F2
102
}
 70
     0
280
     1
281
     0
  0
BLOCK_RECORD
  5
1FC
330
1
100
AcDbSymbolTableRecord
100
AcDbBlockTableRecord
  2
block 35
340
0
102
{BLKREFS
331
1FD
102
}
 70
     0
280
     1
281
     0
  0
BLOCK_RECORD
  5
207
330
1
100
AcDbSymbolTableRecord
100
AcDbBlockTableRecord
  2
block 36
340
0
102
{BLKREFS
331
208
102
}
 70
     0
280
     1
281
     0
  0
BLOCK_RECORD
  5
212
330
1
100
AcDbSymbolTableRecord
100
AcDbBlockTableRecord
  2
block 37
340
0
102
{BLKREFS
331
213
102
}
 70
     0
280
     1
281
     0
  0
BLOCK_RECORD
  5
21D
330
1
100
AcDbSymbolTableRecord
100
AcDbBlockTableRecord
  2
block 38
340
0
102
{BLKREFS
331
21E
102
}
 70
     0
280
     1
281
     0
  0
BLOCK_RECORD
  5
228
330
1
100
AcDbSymbolTableRecord
100
AcDbBlockTableRecord
  2
block 39
340
0
102
{BLKREFS
331
229
102
}
 70
     0
280
     1
281
     0
  0
BLOCK_RECORD
  5
233
330
1
100
AcDbSymbolTableRecord
100
AcDbBlockTableRecord
  2
block 40
340
0
102
{BLKREFS
331
234
102
}
 70
     0
280
     1
281
     0
  0
BLOCK_RECORD
  5
23E
330
1
100
AcDbSymbolTableRecord
100
AcDbBlockTableRecord
  2
block 41
340
0
102
{BLKREFS
331
23F
102
}
 70
     0
280
     1
281
     0
  0
BLOCK_RECORD
  5
249
330
1
100
AcDbSymbolTableRecord
100
AcDbBlockTableRecord
  2
block 42
340
0
102
{BLKREFS
331
24A
102
}
 70
     0
280
     1
281
     0
  0
BLOCK_RECORD
  5
254
330
1
100
AcDbSymbolTableRecord
100
AcDbBlockTableRecord
  2
block 43
340
0
102
{BLKREFS
331
255
102
}
 70
     0
280
     1
281
     0
  0
BLOCK_RECORD
  5
25F
330
1
100
AcDbSymbolTableRecord
100
AcDbBlockTableRecord
  2
block 44
340
0
102
{BLKREFS
331
260
102
}
 70
     0
280
     1
281
     0
  0
BLOCK_RECORD
  5
26A
330
1
100
AcDbSymbolTableRecord
100
AcDbBlockTableRecord
  2
block 45
340
0
102
{BLKREFS
331
26B
102
}
 70
     0
280
     1
281
     0
  0
BLOCK_RECORD
  5
275
330
1
100
AcDbSymbolTableRecord
100
AcDbBlockTableRecord
  2
block 46
340
0
102
{BLKREFS
331
276
102
}
 70
     0
280
     1
281
     0
  0
BLOCK_RECORD
  5
280
330
1
100
AcDbSymbolTableRecord
100
AcDbBlockTableRecord
  2
block 47
340
0
102
{BLKREFS
331
281
102
}
 70
     0
280
     1
281
     0
  0
ENDTAB
  0
ENDSEC
  0
SECTION
  2
BLOCKS
  0
BLOCK
  5
20
330
1F
100
AcDbEntity
  8
0
100
AcDbBlockBegin
  2
*Model_Space
 70
     0
 10
0.0
 20
0.0
 30
0.0
  3
*Model_Space
  1

  0
ENDBLK
  5
21
330
1F
100
AcDbEntity
  8
0
100
AcDbBlockEnd
  0
BLOCK
  5
1C
330
1B
100
AcDbEntity
 67
     1
  8
0
100
AcDbBlockBegin
  2
*Paper_Space
 70
     0
 10
0.0
 20
0.0
 30
0.0
  3
*Paper_Space
  1

  0
ENDBLK
  5
1D
330
1B
100
AcDbEntity
 67
     1
  8
0
100
AcDbBlockEnd
  0
BLOCK
  5
24
330
23
100
AcDbEntity
  8
0
100
AcDbBlockBegin
  2
*Paper_Space0
 70
     0
 10
0.0
 20
0.0
 30
0.0
  3
*Paper_Space0
  1

  0
ENDBLK
  5
25
330
23
100
AcDbEntity
  8
0
100
AcDbBlockEnd
  0
BLOCK
  5
43
330
41
100
AcDbEntity
  8
0
100
AcDbBlockBegin
  2
block 2
 70
     0
 10
0.0
 20
0.0
 30
0.0
  3
block 2
  1

  0
SPLINE
  5
45
330
41
100
AcDbEntity
  8
Layer 1
 62
   195
420
  7949726
370
    25
100
AcDbSpline
210
0.0
220
0.0
230
1.0
 70
    11
 71
     3
 72
    77
 73
    73
 74
     0
 42
0.0000000001
 43
0.0000000001
 12
1.0
 22
0.0
 32
0.0
 13
1.0
 23
0.0
 33
0.0
 40
0.0
 40
0.0
 40
0.0
 40
0.0
 40
1.0
 40
1.0
 40
1.0
 40
2.0
 40
2.0
 40
2.0
 40
3.0
 40
3.0
 40
3.0
 40
4.0
 40
4.0
 40
4.0
 40
5.0
 40
5.0
 40
5.0
 40
6.0
 40
6.0
 40
6.0
 40
7.0
 40
7.0
 40
7.0
 40
8.0
 40
8.0
 40
8.0
 40
9.0
 40
9.0
 40
9.0
 40
10.0
 40
10.0
 40
10.0
 40
11.0
 40
11.0
 40
11.0
 40
12.0
 40
12.0
 40
12.0
 40
13.0
 40
13.0
 40
13.0
 40
14.0
 40
14.0
 40
14.0
 40
15.0
 40
15.0
 40
15.0
 40
16.0
 40
16.0
 40
16.0
 40
17.0
 40
17.0
 40
17.0
 40
18.0
 40
18.0
 40
18.0
 40
19.0
 40
19.0
 40
19.0
 40
20.0
 40
20.0
 40
20.0
 40
21.0
 40
21.0
 40
21.0
 40
22.0
 40
22.0
 40
22.0
 40
23.0
 40
23.0
 40
23.0
 40
24.0
 40
24.0
 40
24.0
 40
24.0
 10
79.25569930744275
 20
84.39936317877014
 30
0.0
 10
79.25569930744275
 20
84.39936317877014
 30
0.0
 10
79.25569930744275
 20
126.4993631682455
 30
0.0
 10
79.25569930744275
 20
126.4993631682455
 30
0.0
 10
79.25569930744275
 20
127.6039326676302
 30
0.0
 10
78.36026880732791
 20
128.4993631677451
 30
0.0
 10
77.25569930794256
 20
128.4993631677451
 30
0.0
 10
77.25569930794256
 20
128.4993631677451
 30
0.0
 10
71.7306993093242
 20
128.4993631677451
 30
0.0
 10
71.7306993093242
 20
128.4993631677451
 30
0.0
 10
70.62612980993886
 20
128.4993631677451
 30
0.0
 10
69.730699309824
 20
129.3947936678599
 30
0.0
 10
69.730699309824
 20
130.4993631672459
 30
0.0
 10
69.730699309824
 20
130.4993631672459
 30
0.0
 10
69.730699309824
 20
145.549363163483
 30
0.0
 10
69.730699309824
 20
145.549363163483
 30
0.0
 10
69.730699309824
 20
146.6539326628677
 30
0.0
 10
68.83526880970916
 20
147.5493631629826
 30
0.0
 10
67.73069931032381
 20
147.5493631629826
 30
0.0
 10
67.73069931032381
 20
147.5493631629826
 30
0.0
 10
66.96819931051482
 20
147.5493631629826
 30
0.0
 10
66.96819931051482
 20
147.5493631629826
 30
0.0
 10
65.86362981112948
 20
147.5493631629826
 30
0.0
 10
64.96819931101463
 20
148.4447936630974
 30
0.0
 10
64.96819931101463
 20
149.5493631624834
 30
0.0
 10
64.96819931101463
 20
149.5493631624834
 30
0.0
 10
64.96819931101463
 20
164.5992478700919
 30
0.0
 10
64.96819931101463
 20
164.5992478700919
 30
0.0
 10
64.96819931101463
 20
165.7038173694772
 30
0.0
 10
65.86362981112883
 20
166.5992478695921
 30
0.0
 10
66.96819931051482
 20
166.5992478695921
 30
0.0
 10
66.96819931051482
 20
166.5992478695921
 30
0.0
 10
72.49319930913319
 20
166.5992478695921
 30
0.0
 10
72.49319930913319
 20
166.5992478695921
 30
0.0
 10
73.59776880851918
 20
166.5992478695921
 30
0.0
 10
74.49319930863338
 20
167.4946783697063
 30
0.0
 10
74.49319930863338
 20
168.5992478690916
 30
0.0
 10
74.49319930863338
 20
168.5992478690916
 30
0.0
 10
74.49319930863338
 20
183.6492478653294
 30
0.0
 10
74.49319930863338
 20
183.6492478653294
 30
0.0
 10
74.49319930863338
 20
184.7538173647147
 30
0.0
 10
75.38862980874758
 20
185.6492478648296
 30
0.0
 10
76.49319930813357
 20
185.6492478648296
 30
0.0
 10
76.49319930813357
 20
185.6492478648296
 30
0.0
 10
82.01819930675194
 20
185.6492478648296
 30
0.0
 10
82.01819930675194
 20
185.6492478648296
 30
0.0
 10
83.12276880613793
 20
185.6492478648296
 30
0.0
 10
84.01819930625213
 20
186.5446783649438
 30
0.0
 10
84.01819930625213
 20
187.6492478643291
 30
0.0
 10
84.01819930625213
 20
187.6492478643291
 30
0.0
 10
84.01819930625213
 20
215.4617478573763
 30
0.0
 10
84.01819930625213
 20
215.4617478573763
 30
0.0
 10
84.01819930625213
 20
216.5663173567617
 30
0.0
 10
84.91362980636633
 20
217.4617478568765
 30
0.0
 10
86.01819930575232
 20
217.4617478568765
 30
0.0
 10
86.01819930575232
 20
217.4617478568765
 30
0.0
 10
230.8929117261315
 20
217.4617478568765
 30
0.0
 10
230.8929117261315
 20
217.4617478568765
 30
0.0
 10
233.1020507249022
 20
217.4617478568765
 30
0.0
 10
234.8929117251312
 20
215.6708868566475
 30
0.0
 10
234.8929117251312
 20
213.4617478578768
 30
0.0
 10
234.8929117251312
 20
213.4617478578768
 30
0.0
 10
234.8929117251312
 20
86.39936317826968
 30
0.0
 10
234.8929117251312
 20
86.39936317826968
 30
0.0
 10
234.8929117251312
 20
84.19022417949901
 30
0.0
 10
233.1020507249022
 20
82.39936317926932
 30
0.0
 10
230.8929117261315
 20
82.39936317926932
 30
0.0
 10
230.8929117261315
 20
82.39936317926932
 30
0.0
 10
81.25569930694294
 20
82.39936317926932
 30
0.0
 10
81.25569930694294
 20
82.39936317926932
 30
0.0
 10
80.15112980755761
 20
82.39936317926932
 30
0.0
 10
79.25569930744275
 20
83.29479367938416
 30
0.0
 10
79.25569930744275
 20
84.39936317877014
 30
0.0
  0
ENDBLK
  5
44
330
41
100
AcDbEntity
  8
0
100
AcDbBlockEnd
  0
BLOCK
  5
48
330
46
100
AcDbEntity
  8
0
100
AcDbBlockBegin
  2
block 3
 70
     0
 10
0.0
 20
0.0
 30
0.0
  3
block 3
  1

  0
SPLINE
  5
4A
330
46
100
AcDbEntity
  8
Layer 1
 62
   195
420
  7949726
370
    25
100
AcDbSpline
210
0.0
220
0.0
230
1.0
 70
    11
 71
     3
 72
    17
 73
    13
 74
     0
 42
0.0000000001
 43
0.0000000001
 12
1.0
 22
0.0
 32
0.0
 13
1.0
 23
0.0
 33
0.0
 40
0.0
 40
0.0
 40
0.0
 40
0.0
 40
1.0
 40
1.0
 40
1.0
 40
2.0
 40
2.0
 40
2.0
 40
3.0
 40
3.0
 40
3.0
 40
4.0
 40
4.0
 40
4.0
 40
4.0
 10
157.8554440948853
 20
86.39921553914758
 30
0.0
 10
157.8554440948853
 20
85.79170231452059
 30
0.0
 10
157.3629573197885
 20
85.2992155394225
 30
0.0
 10
156.7554440951602
 20
85.2992155394225
 30
0.0
 10
156.147930870532
 20
85.2992155394225
 30
0.0
 10
155.6554440954352
 20
85.79170231452059
 30
0.0
 10
155.6554440954352
 20
86.39921553914758
 30
0.0
 10
155.6554440954352
 20
87.00672876377585
 30
0.0
 10
156.147930870532
 20
87.49921553887265
 30
0.0
 10
156.7554440951602
 20
87.49921553887265
 30
0.0
 10
157.3629573197885
 20
87.49921553887265
 30
0.0
 10
157.8554440948853
 20
87.00672876377585
 30
0.0
 10
157.8554440948853
 20
86.39921553914758
 30
0.0
  0
ENDBLK
  5
49
330
46
100
AcDbEntity
  8
0
100
AcDbBlockEnd
  0
BLOCK
  5
4D
330
4B
100
AcDbEntity
  8
0
100
AcDbBlockBegin
  2
block 4
 70
     0
 10
0.0
 20
0.0
 30
0.0
  3
block 4
  1

  0
SPLINE
  5
4F
330
4B
100
AcDbEntity
  8
Layer 1
 62
   195
420
  7949726
370
    25
100
AcDbSpline
210
0.0
220
0.0
230
1.0
 70
    11
 71
     3
 72
    17
 73
    13
 74
     0
 42
0.0000000001
 43
0.0000000001
 12
1.0
 22
0.0
 32
0.0
 13
1.0
 23
0.0
 33
0.0
 40
0.0
 40
0.0
 40
0.0
 40
0.0
 40
1.0
 40
1.0
 40
1.0
 40
2.0
 40
2.0
 40
2.0
 40
3.0
 40
3.0
 40
3.0
 40
4.0
 40
4.0
 40
4.0
 40
4.0
 10
231.2929117260314
 20
212.7617478580516
 30
0.0
 10
231.2929117260314
 20
212.154234633424
 30
0.0
 10
230.8004249509346
 20
211.6617478583266
 30
0.0
 10
230.1929117263063
 20
211.6617478583266
 30
0.0
 10
229.585398501678
 20
211.6617478583266
 30
0.0
 10
229.0929117265813
 20
212.154234633424
 30
0.0
 10
229.0929117265813
 20
212.7617478580516
 30
0.0
 10
229.0929117265813
 20
213.3692610826799
 30
0.0
 10
229.585398501678
 20
213.8617478577767
 30
0.0
 10
230.1929117263063
 20
213.8617478577767
 30
0.0
 10
230.8004249509346
 20
213.8617478577767
 30
0.0
 10
231.2929117260314
 20
213.3692610826799
 30
0.0
 10
231.2929117260314
 20
212.7617478580516
 30
0.0
  0
ENDBLK
  5
4E
330
4B
100
AcDbEntity
  8
0
100
AcDbBlockEnd
  0
BLOCK
  5
52
330
50
100
AcDbEntity
  8
0
100
AcDbBlockBegin
  2
block 5
 70
     0
 10
0.0
 20
0.0
 30
0.0
  3
block 5
  1

  0
SPLINE
  5
54
330
50
100
AcDbEntity
  8
Layer 1
 62
   195
420
  7949726
370
    25
100
AcDbSpline
210
0.0
220
0.0
230
1.0
 70
    11
 71
     3
 72
    17
 73
    13
 74
     0
 42
0.0000000001
 43
0.0000000001
 12
1.0
 22
0.0
 32
0.0
 13
1.0
 23
0.0
 33
0.0
 40
0.0
 40
0.0
 40
0.0
 40
0.0
 40
1.0
 40
1.0
 40
1.0
 40
2.0
 40
2.0
 40
2.0
 40
3.0
 40
3.0
 40
3.0
 40
4.0
 40
4.0
 40
4.0
 40
4.0
 10
231.2929117260314
 20
87.0992478894662
 30
0.0
 10
231.2929117260314
 20
86.4917346648392
 30
0.0
 10
230.8004249509346
 20
85.99924788974113
 30
0.0
 10
230.1929117263063
 20
85.99924788974113
 30
0.0
 10
229.585398501678
 20
85.99924788974113
 30
0.0
 10
229.0929117265813
 20
86.4917346648392
 30
0.0
 10
229.0929117265813
 20
87.0992478894662
 30
0.0
 10
229.0929117265813
 20
87.70676111409448
 30
0.0
 10
229.585398501678
 20
88.19924788919127
 30
0.0
 10
230.1929117263063
 20
88.19924788919127
 30
0.0
 10
230.8004249509346
 20
88.19924788919127
 30
0.0
 10
231.2929117260314
 20
87.70676111409448
 30
0.0
 10
231.2929117260314
 20
87.0992478894662
 30
0.0
  0
ENDBLK
  5
53
330
50
100
AcDbEntity
  8
0
100
AcDbBlockEnd
  0
BLOCK
  5
57
330
55
100
AcDbEntity
  8
0
100
AcDbBlockBegin
  2
block 6
 70
     0
 10
0.0
 20
0.0
 30
0.0
  3
block 6
  1

  0
SPLINE
  5
59
330
55
100
AcDbEntity
  8
Layer 1
 62
   195
420
  7949726
370
    25
100
AcDbSpline
210
0.0
220
0.0
230
1.0
 70
    11
 71
     3
 72
    17
 73
    13
 74
     0
 42
0.0000000001
 43
0.0000000001
 12
1.0
 22
0.0
 32
0.0
 13
1.0
 23
0.0
 33
0.0
 40
0.0
 40
0.0
 40
0.0
 40
0.0
 40
1.0
 40
1.0
 40
1.0
 40
2.0
 40
2.0
 40
2.0
 40
3.0
 40
3.0
 40
3.0
 40
4.0
 40
4.0
 40
4.0
 40
4.0
 10
89.1179441120694
 20
213.4617802083709
 30
0.0
 10
89.1179441120694
 20
212.8542669837433
 30
0.0
 10
88.6254573369726
 20
212.3617802086458
 30
0.0
 10
88.01794411234432
 20
212.3617802086458
 30
0.0
 10
87.41043088771605
 20
212.3617802086458
 30
0.0
 10
86.91794411261925
 20
212.8542669837433
 30
0.0
 10
86.91794411261925
 20
213.4617802083709
 30
0.0
 10
86.91794411261925
 20
214.0692934329992
 30
0.0
 10
87.41043088771605
 20
214.561780208096
 30
0.0
 10
88.01794411234432
 20
214.561780208096
 30
0.0
 10
88.6254573369726
 20
214.561780208096
 30
0.0
 10
89.1179441120694
 20
214.0692934329992
 30
0.0
 10
89.1179441120694
 20
213.4617802083709
 30
0.0
  0
ENDBLK
  5
58
330
55
100
AcDbEntity
  8
0
100
AcDbBlockEnd
  0
BLOCK
  5
5C
330
5A
100
AcDbEntity
  8
0
100
AcDbBlockBegin
  2
block 7
 70
     0
 10
0.0
 20
0.0
 30
0.0
  3
block 7
  1

  0
SPLINE
  5
5E
330
5A
100
AcDbEntity
  8
Layer 1
 62
   195
420
  7949726
370
    25
100
AcDbSpline
210
0.0
220
0.0
230
1.0
 70
    11
 71
     3
 72
    17
 73
    13
 74
     0
 42
0.0000000001
 43
0.0000000001
 12
1.0
 22
0.0
 32
0.0
 13
1.0
 23
0.0
 33
0.0
 40
0.0
 40
0.0
 40
0.0
 40
0.0
 40
1.0
 40
1.0
 40
1.0
 40
2.0
 40
2.0
 40
2.0
 40
3.0
 40
3.0
 40
3.0
 40
4.0
 40
4.0
 40
4.0
 40
4.0
 10
116.5501289052347
 20
213.4617802083709
 30
0.0
 10
116.5501289052347
 20
212.8542669837433
 30
0.0
 10
116.0576421301379
 20
212.3617802086458
 30
0.0
 10
115.4501289055096
 20
212.3617802086458
 30
0.0
 10
114.8426156808813
 20
212.3617802086458
 30
0.0
 10
114.3501289057845
 20
212.8542669837433
 30
0.0
 10
114.3501289057845
 20
213.4617802083709
 30
0.0
 10
114.3501289057845
 20
214.0692934329992
 30
0.0
 10
114.8426156808813
 20
214.561780208096
 30
0.0
 10
115.4501289055096
 20
214.561780208096
 30
0.0
 10
116.0576421301379
 20
214.561780208096
 30
0.0
 10
116.5501289052347
 20
214.0692934329992
 30
0.0
 10
116.5501289052347
 20
213.4617802083709
 30
0.0
  0
ENDBLK
  5
5D
330
5A
100
AcDbEntity
  8
0
100
AcDbBlockEnd
  0
BLOCK
  5
61
330
5F
100
AcDbEntity
  8
0
100
AcDbBlockBegin
  2
block 8
 70
     0
 10
0.0
 20
0.0
 30
0.0
  3
block 8
  1

  0
SPLINE
  5
63
330
5F
100
AcDbEntity
  8
Layer 1
 62
   195
420
  7949726
370
    25
100
AcDbSpline
210
0.0
220
0.0
230
1.0
 70
    11
 71
     3
 72
    17
 73
    13
 74
     0
 42
0.0000000001
 43
0.0000000001
 12
1.0
 22
0.0
 32
0.0
 13
1.0
 23
0.0
 33
0.0
 40
0.0
 40
0.0
 40
0.0
 40
0.0
 40
1.0
 40
1.0
 40
1.0
 40
2.0
 40
2.0
 40
2.0
 40
3.0
 40
3.0
 40
3.0
 40
4.0
 40
4.0
 40
4.0
 40
4.0
 10
134.6512407518128
 20
213.4617802083709
 30
0.0
 10
134.6512407518128
 20
212.8542669837426
 30
0.0
 10
134.1587539767161
 20
212.3617802086452
 30
0.0
 10
133.5512407520878
 20
212.3617802086452
 30
0.0
 10
132.9437275274595
 20
212.3617802086452
 30
0.0
 10
132.4512407523627
 20
212.8542669837426
 30
0.0
 10
132.4512407523627
 20
213.4617802083709
 30
0.0
 10
132.4512407523627
 20
214.0692934329985
 30
0.0
 10
132.9437275274595
 20
214.5617802080953
 30
0.0
 10
133.5512407520878
 20
214.5617802080953
 30
0.0
 10
134.1587539767161
 20
214.5617802080953
 30
0.0
 10
134.6512407518128
 20
214.0692934329985
 30
0.0
 10
134.6512407518128
 20
213.4617802083709
 30
0.0
  0
ENDBLK
  5
62
330
5F
100
AcDbEntity
  8
0
100
AcDbBlockEnd
  0
BLOCK
  5
66
330
64
100
AcDbEntity
  8
0
100
AcDbBlockBegin
  2
block 9
 70
     0
 10
0.0
 20
0.0
 30
0.0
  3
block 9
  1

  0
SPLINE
  5
68
330
64
100
AcDbEntity
  8
Layer 1
 62
   195
420
  7949726
370
    25
100
AcDbSpline
210
0.0
220
0.0
230
1.0
 70
    11
 71
     3
 72
    17
 73
    13
 74
     0
 42
0.0000000001
 43
0.0000000001
 12
1.0
 22
0.0
 32
0.0
 13
1.0
 23
0.0
 33
0.0
 40
0.0
 40
0.0
 40
0.0
 40
0.0
 40
1.0
 40
1.0
 40
1.0
 40
2.0
 40
2.0
 40
2.0
 40
3.0
 40
3.0
 40
3.0
 40
4.0
 40
4.0
 40
4.0
 40
4.0
 10
174.0709318321118
 20
213.4617802083709
 30
0.0
 10
174.0709318321118
 20
212.8542669837426
 30
0.0
 10
173.578445057015
 20
212.3617802086452
 30
0.0
 10
172.9709318323868
 20
212.3617802086452
 30
0.0
 10
172.3634186077585
 20
212.3617802086452
 30
0.0
 10
171.8709318326617
 20
212.8542669837426
 30
0.0
 10
171.8709318326617
 20
213.4617802083709
 30
0.0
 10
171.8709318326617
 20
214.0692934329985
 30
0.0
 10
172.3634186077585
 20
214.5617802080953
 30
0.0
 10
172.9709318323868
 20
214.5617802080953
 30
0.0
 10
173.578445057015
 20
214.5617802080953
 30
0.0
 10
174.0709318321118
 20
214.0692934329985
 30
0.0
 10
174.0709318321118
 20
213.4617802083709
 30
0.0
  0
ENDBLK
  5
67
330
64
100
AcDbEntity
  8
0
100
AcDbBlockEnd
  0
BLOCK
  5
6B
330
69
100
AcDbEntity
  8
0
100
AcDbBlockBegin
  2
block 10
 70
     0
 10
0.0
 20
0.0
 30
0.0
  3
block 10
  1

  0
SPLINE
  5
6D
330
69
100
AcDbEntity
  8
Layer 1
 62
   195
420
  7949726
370
    25
100
AcDbSpline
210
0.0
220
0.0
230
1.0
 70
    11
 71
     3
 72
    17
 73
    13
 74
     0
 42
0.0000000001
 43
0.0000000001
 12
1.0
 22
0.0
 32
0.0
 13
1.0
 23
0.0
 33
0.0
 40
0.0
 40
0.0
 40
0.0
 40
0.0
 40
1.0
 40
1.0
 40
1.0
 40
2.0
 40
2.0
 40
2.0
 40
3.0
 40
3.0
 40
3.0
 40
4.0
 40
4.0
 40
4.0
 40
4.0
 10
196.1903556992723
 20
213.4617802083709
 30
0.0
 10
196.1903556992723
 20
212.8542669837426
 30
0.0
 10
195.6978689241755
 20
212.3617802086452
 30
0.0
 10
195.0903556995472
 20
212.3617802086452
 30
0.0
 10
194.4828424749189
 20
212.3617802086452
 30
0.0
 10
193.9903556998221
 20
212.8542669837426
 30
0.0
 10
193.9903556998221
 20
213.4617802083709
 30
0.0
 10
193.9903556998221
 20
214.0692934329985
 30
0.0
 10
194.4828424749189
 20
214.5617802080953
 30
0.0
 10
195.0903556995472
 20
214.5617802080953
 30
0.0
 10
195.6978689241755
 20
214.5617802080953
 30
0.0
 10
196.1903556992723
 20
214.0692934329985
 30
0.0
 10
196.1903556992723
 20
213.4617802083709
 30
0.0
  0
ENDBLK
  5
6C
330
69
100
AcDbEntity
  8
0
100
AcDbBlockEnd
  0
BLOCK
  5
70
330
6E
100
AcDbEntity
  8
0
100
AcDbBlockBegin
  2
block 11
 70
     0
 10
0.0
 20
0.0
 30
0.0
  3
block 11
  1

  0
SPLINE
  5
72
330
6E
100
AcDbEntity
  8
Layer 1
 62
   195
420
  7949726
370
    25
100
AcDbSpline
210
0.0
220
0.0
230
1.0
 70
    11
 71
     3
 72
    17
 73
    13
 74
     0
 42
0.0000000001
 43
0.0000000001
 12
1.0
 22
0.0
 32
0.0
 13
1.0
 23
0.0
 33
0.0
 40
0.0
 40
0.0
 40
0.0
 40
0.0
 40
1.0
 40
1.0
 40
1.0
 40
2.0
 40
2.0
 40
2.0
 40
3.0
 40
3.0
 40
3.0
 40
4.0
 40
4.0
 40
4.0
 40
4.0
 10
84.35544411326002
 20
86.39921553914758
 30
0.0
 10
84.35544411326002
 20
85.79170231452059
 30
0.0
 10
83.86295733816323
 20
85.2992155394225
 30
0.0
 10
83.25544411353495
 20
85.2992155394225
 30
0.0
 10
82.64793088890667
 20
85.2992155394225
 30
0.0
 10
82.15544411380988
 20
85.79170231452059
 30
0.0
 10
82.15544411380988
 20
86.39921553914758
 30
0.0
 10
82.15544411380988
 20
87.00672876377585
 30
0.0
 10
82.64793088890667
 20
87.49921553887265
 30
0.0
 10
83.25544411353495
 20
87.49921553887265
 30
0.0
 10
83.86295733816323
 20
87.49921553887265
 30
0.0
 10
84.35544411326002
 20
87.00672876377585
 30
0.0
 10
84.35544411326002
 20
86.39921553914758
 30
0.0
  0
ENDBLK
  5
71
330
6E
100
AcDbEntity
  8
0
100
AcDbBlockEnd
  0
BLOCK
  5
75
330
73
100
AcDbEntity
  8
0
100
AcDbBlockBegin
  2
block 12
 70
     0
 10
0.0
 20
0.0
 30
0.0
  3
block 12
  1

  0
POLYLINE
  5
77
330
73
100
AcDbEntity
  8
Layer 1
 62
   178
420
    65793
370
    25
100
AcDb2dPolyline
 66
     1
 10
0.0
 20
0.0
 30
0.0
  0
VERTEX
  5
78
330
77
100
AcDbEntity
  8
Layer 1
 62
   178
420
    65793
370
    25
100
AcDbVertex
100
AcDb2dVertex
 10
219.6054123248248
 20
164.0742511165778
 30
0.0
  0
VERTEX
  5
79
330
77
100
AcDbEntity
  8
Layer 1
 62
   178
420
    65793
370
    25
100
AcDbVertex
100
AcDb2dVertex
 10
205.6054131164306
 20
164.0742511165778
 30
0.0
  0
VERTEX
  5
7A
330
77
100
AcDbEntity
  8
Layer 1
 62
   178
420
    65793
370
    25
100
AcDbVertex
100
AcDb2dVertex
 10
205.6054131164306
 20
162.9872493775036
 30
0.0
  0
VERTEX
  5
7B
330
77
100
AcDbEntity
  8
Layer 1
 62
   178
420
    65793
370
    25
100
AcDbVertex
100
AcDb2dVertex
 10
204.5866448634883
 20
162.9872493775036
 30
0.0
  0
VERTEX
  5
7C
330
77
100
AcDbEntity
  8
Layer 1
 62
   178
420
    65793
370
    25
100
AcDbVertex
100
AcDb2dVertex
 10
204.5866448634883
 20
159.4872495754051
 30
0.0
  0
VERTEX
  5
7D
330
77
100
AcDbEntity
  8
Layer 1
 62
   178
420
    65793
370
    25
100
AcDbVertex
100
AcDb2dVertex
 10
204.5866448634883
 20
155.9872497733066
 30
0.0
  0
VERTEX
  5
7E
330
77
100
AcDbEntity
  8
Layer 1
 62
   178
420
    65793
370
    25
100
AcDbVertex
100
AcDb2dVertex
 10
204.5866448634883
 20
145.0242529566669
 30
0.0
  0
VERTEX
  5
7F
330
77
100
AcDbEntity
  8
Layer 1
 62
   178
420
    65793
370
    25
100
AcDbVertex
100
AcDb2dVertex
 10
200.5553950914284
 20
145.0242529566669
 30
0.0
  0
VERTEX
  5
80
330
77
100
AcDbEntity
  8
Layer 1
 62
   178
420
    65793
370
    25
100
AcDbVertex
100
AcDb2dVertex
 10
198.4616452098158
 20
145.0242529566669
 30
0.0
  0
VERTEX
  5
81
330
77
100
AcDbEntity
  8
Layer 1
 62
   178
420
    65793
370
    25
100
AcDbVertex
100
AcDb2dVertex
 10
197.0236570098744
 20
145.0242529566669
 30
0.0
  0
VERTEX
  5
82
330
77
100
AcDbEntity
  8
Layer 1
 62
   178
420
    65793
370
    25
100
AcDbVertex
100
AcDb2dVertex
 10
197.0236570098744
 20
147.7742528011729
 30
0.0
  0
VERTEX
  5
83
330
77
100
AcDbEntity
  8
Layer 1
 62
   178
420
    65793
370
    25
100
AcDbVertex
100
AcDb2dVertex
 10
190.0236574056773
 20
147.7742528011729
 30
0.0
  0
VERTEX
  5
84
330
77
100
AcDbEntity
  8
Layer 1
 62
   178
420
    65793
370
    25
100
AcDbVertex
100
AcDb2dVertex
 10
190.0236574056773
 20
145.0242529566669
 30
0.0
  0
VERTEX
  5
85
330
77
100
AcDbEntity
  8
Layer 1
 62
   178
420
    65793
370
    25
100
AcDbVertex
100
AcDb2dVertex
 10
186.5553958830342
 20
145.0242529566669
 30
0.0
  0
VERTEX
  5
86
330
77
100
AcDbEntity
  8
Layer 1
 62
   178
420
    65793
370
    25
100
AcDbVertex
100
AcDb2dVertex
 10
186.5553958830342
 20
131.0242537482728
 30
0.0
  0
VERTEX
  5
87
330
77
100
AcDbEntity
  8
Layer 1
 62
   178
420
    65793
370
    25
100
AcDbVertex
100
AcDb2dVertex
 10
190.0236574056773
 20
131.0242537482728
 30
0.0
  0
VERTEX
  5
88
330
77
100
AcDbEntity
  8
Layer 1
 62
   178
420
    65793
370
    25
100
AcDbVertex
100
AcDb2dVertex
 10
190.0236574056773
 20
128.7242508265647
 30
0.0
  0
VERTEX
  5
89
330
77
100
AcDbEntity
  8
Layer 1
 62
   178
420
    65793
370
    25
100
AcDbVertex
100
AcDb2dVertex
 10
185.2611454679341
 20
128.7242508265647
 30
0.0
  0
VERTEX
  5
8A
330
77
100
AcDbEntity
  8
Layer 1
 62
   178
420
    65793
370
    25
100
AcDbVertex
100
AcDb2dVertex
 10
185.2611454679341
 20
125.9742509820587
 30
0.0
  0
VERTEX
  5
8B
330
77
100
AcDbEntity
  8
Layer 1
 62
   178
420
    65793
370
    25
100
AcDbVertex
100
AcDb2dVertex
 10
184.1741399141626
 20
125.9742509820587
 30
0.0
  0
VERTEX
  5
8C
330
77
100
AcDbEntity
  8
Layer 1
 62
   178
420
    65793
370
    25
100
AcDbVertex
100
AcDb2dVertex
 10
184.1741399141626
 20
111.9742517736645
 30
0.0
  0
VERTEX
  5
8D
330
77
100
AcDbEntity
  8
Layer 1
 62
   178
420
    65793
370
    25
100
AcDbVertex
100
AcDb2dVertex
 10
185.2611454679341
 20
111.9742517736645
 30
0.0
  0
VERTEX
  5
8E
330
77
100
AcDbEntity
  8
Layer 1
 62
   178
420
    65793
370
    25
100
AcDbVertex
100
AcDb2dVertex
 10
185.2611454679341
 20
108.5742504400322
 30
0.0
  0
VERTEX
  5
8F
330
77
100
AcDbEntity
  8
Layer 1
 62
   178
420
    65793
370
    25
100
AcDbVertex
100
AcDb2dVertex
 10
188.7611452700326
 20
108.5742504400322
 30
0.0
  0
VERTEX
  5
90
330
77
100
AcDbEntity
  8
Layer 1
 62
   178
420
    65793
370
    25
100
AcDbVertex
100
AcDb2dVertex
 10
192.2611450721312
 20
108.5742504400322
 30
0.0
  0
VERTEX
  5
91
330
77
100
AcDbEntity
  8
Layer 1
 62
   178
420
    65793
370
    25
100
AcDbVertex
100
AcDb2dVertex
 10
209.1371511979846
 20
108.5742504400322
 30
0.0
  0
VERTEX
  5
92
330
77
100
AcDbEntity
  8
Layer 1
 62
   178
420
    65793
370
    25
100
AcDbVertex
100
AcDb2dVertex
 10
212.6371510000831
 20
108.5742504400322
 30
0.0
  0
VERTEX
  5
93
330
77
100
AcDbEntity
  8
Layer 1
 62
   178
420
    65793
370
    25
100
AcDbVertex
100
AcDb2dVertex
 10
216.1371508021817
 20
108.5742504400322
 30
0.0
  0
VERTEX
  5
94
330
77
100
AcDbEntity
  8
Layer 1
 62
   178
420
    65793
370
    25
100
AcDbVertex
100
AcDb2dVertex
 10
216.1371508021817
 20
111.9742517736645
 30
0.0
  0
VERTEX
  5
95
330
77
100
AcDbEntity
  8
Layer 1
 62
   178
420
    65793
370
    25
100
AcDbVertex
100
AcDb2dVertex
 10
224.3678937449916
 20
111.9742517736645
 30
0.0
  0
VERTEX
  5
96
330
77
100
AcDbEntity
  8
Layer 1
 62
   178
420
    65793
370
    25
100
AcDbVertex
100
AcDb2dVertex
 10
224.3678937449916
 20
125.9742509820587
 30
0.0
  0
VERTEX
  5
97
330
77
100
AcDbEntity
  8
Layer 1
 62
   178
420
    65793
370
    25
100
AcDbVertex
100
AcDb2dVertex
 10
216.1371508021817
 20
125.9742509820587
 30
0.0
  0
VERTEX
  5
98
330
77
100
AcDbEntity
  8
Layer 1
 62
   178
420
    65793
370
    25
100
AcDbVertex
100
AcDb2dVertex
 10
216.1371508021817
 20
127.6242524146405
 30
0.0
  0
VERTEX
  5
99
330
77
100
AcDbEntity
  8
Layer 1
 62
   178
420
    65793
370
    25
100
AcDbVertex
100
AcDb2dVertex
 10
217.3996629378263
 20
127.6242524146405
 30
0.0
  0
VERTEX
  5
9A
330
77
100
AcDbEntity
  8
Layer 1
 62
   178
420
    65793
370
    25
100
AcDbVertex
100
AcDb2dVertex
 10
220.8996627399249
 20
127.6242524146405
 30
0.0
  0
VERTEX
  5
9B
330
77
100
AcDbEntity
  8
Layer 1
 62
   178
420
    65793
370
    25
100
AcDbVertex
100
AcDb2dVertex
 10
220.8996627399249
 20
132.1112516726496
 30
0.0
  0
VERTEX
  5
9C
330
77
100
AcDbEntity
  8
Layer 1
 62
   178
420
    65793
370
    25
100
AcDbVertex
100
AcDb2dVertex
 10
224.736637620626
 20
132.1112516726496
 30
0.0
  0
VERTEX
  5
9D
330
77
100
AcDbEntity
  8
Layer 1
 62
   178
420
    65793
370
    25
100
AcDbVertex
100
AcDb2dVertex
 10
224.736637620626
 20
139.1112512768466
 30
0.0
  0
VERTEX
  5
9E
330
77
100
AcDbEntity
  8
Layer 1
 62
   178
420
    65793
370
    25
100
AcDbVertex
100
AcDb2dVertex
 10
220.8996627399249
 20
139.1112512768466
 30
0.0
  0
VERTEX
  5
9F
330
77
100
AcDbEntity
  8
Layer 1
 62
   178
420
    65793
370
    25
100
AcDbVertex
100
AcDb2dVertex
 10
220.8996627399249
 20
140.5492547355763
 30
0.0
  0
VERTEX
  5
A0
330
77
100
AcDbEntity
  8
Layer 1
 62
   178
420
    65793
370
    25
100
AcDbVertex
100
AcDb2dVertex
 10
221.98663777612
 20
140.5492547355763
 30
0.0
  0
VERTEX
  5
A1
330
77
100
AcDbEntity
  8
Layer 1
 62
   178
420
    65793
370
    25
100
AcDbVertex
100
AcDb2dVertex
 10
221.98663777612
 20
154.5492501292743
 30
0.0
  0
VERTEX
  5
A2
330
77
100
AcDbEntity
  8
Layer 1
 62
   178
420
    65793
370
    25
100
AcDbVertex
100
AcDb2dVertex
 10
219.6054123248248
 20
154.5492501292743
 30
0.0
  0
VERTEX
  5
A3
330
77
100
AcDbEntity
  8
Layer 1
 62
   178
420
    65793
370
    25
100
AcDbVertex
100
AcDb2dVertex
 10
219.6054123248248
 20
155.9872497733066
 30
0.0
  0
VERTEX
  5
A4
330
77
100
AcDbEntity
  8
Layer 1
 62
   178
420
    65793
370
    25
100
AcDbVertex
100
AcDb2dVertex
 10
224.736637620626
 20
155.9872497733066
 30
0.0
  0
VERTEX
  5
A5
330
77
100
AcDbEntity
  8
Layer 1
 62
   178
420
    65793
370
    25
100
AcDbVertex
100
AcDb2dVertex
 10
224.736637620626
 20
162.9872493775036
 30
0.0
  0
VERTEX
  5
A6
330
77
100
AcDbEntity
  8
Layer 1
 62
   178
420
    65793
370
    25
100
AcDbVertex
100
AcDb2dVertex
 10
219.6054123248248
 20
162.9872493775036
 30
0.0
  0
VERTEX
  5
A7
330
77
100
AcDbEntity
  8
Layer 1
 62
   178
420
    65793
370
    25
100
AcDbVertex
100
AcDb2dVertex
 10
219.6054123248248
 20
164.0742511165778
 30
0.0
  0
SEQEND
  5
A8
330
77
100
AcDbEntity
  8
Layer 1
 62
   178
420
    65793
370
    25
  0
ENDBLK
  5
76
330
73
100
AcDbEntity
  8
0
100
AcDbBlockEnd
  0
BLOCK
  5
AB
330
A9
100
AcDbEntity
  8
0
100
AcDbBlockBegin
  2
block 13
 70
     0
 10
0.0
 20
0.0
 30
0.0
  3
block 13
  1

  0
POLYLINE
  5
AD
330
A9
100
AcDbEntity
  8
Layer 1
 62
   178
420
    65793
370
    25
100
AcDb2dPolyline
 66
     1
 10
0.0
 20
0.0
 30
0.0
  0
VERTEX
  5
AE
330
AD
100
AcDbEntity
  8
Layer 1
 62
   178
420
    65793
370
    25
100
AcDbVertex
100
AcDb2dVertex
 10
127.0241492491261
 20
92.92425742844975
 30
0.0
  0
VERTEX
  5
AF
330
AD
100
AcDbEntity
  8
Layer 1
 62
   178
420
    65793
370
    25
100
AcDbVertex
100
AcDb2dVertex
 10
134.1679171557409
 20
92.92425742844975
 30
0.0
  0
VERTEX
  5
B0
330
AD
100
AcDbEntity
  8
Layer 1
 62
   178
420
    65793
370
    25
100
AcDbVertex
100
AcDb2dVertex
 10
136.5491426070361
 20
92.92425742844975
 30
0.0
  0
VERTEX
  5
B1
330
AD
100
AcDbEntity
  8
Layer 1
 62
   178
420
    65793
370
    25
100
AcDbVertex
100
AcDb2dVertex
 10
138.9303985759077
 20
92.92425742844975
 30
0.0
  0
VERTEX
  5
B2
330
AD
100
AcDbEntity
  8
Layer 1
 62
   178
420
    65793
370
    25
100
AcDbVertex
100
AcDb2dVertex
 10
141.0241484575202
 20
92.92425742844975
 30
0.0
  0
VERTEX
  5
B3
330
AD
100
AcDbEntity
  8
Layer 1
 62
   178
420
    65793
370
    25
100
AcDbVertex
100
AcDb2dVertex
 10
148.167916364135
 20
92.92425742844975
 30
0.0
  0
VERTEX
  5
B4
330
AD
100
AcDbEntity
  8
Layer 1
 62
   178
420
    65793
370
    25
100
AcDbVertex
100
AcDb2dVertex
 10
150.5491418154302
 20
92.92425742844975
 30
0.0
  0
VERTEX
  5
B5
330
AD
100
AcDbEntity
  8
Layer 1
 62
   178
420
    65793
370
    25
100
AcDbVertex
100
AcDb2dVertex
 10
150.8366479026893
 20
92.92425742844975
 30
0.0
  0
VERTEX
  5
B6
330
AD
100
AcDbEntity
  8
Layer 1
 62
   178
420
    65793
370
    25
100
AcDbVertex
100
AcDb2dVertex
 10
152.9303977843018
 20
92.92425742844975
 30
0.0
  0
VERTEX
  5
B7
330
AD
100
AcDbEntity
  8
Layer 1
 62
   178
420
    65793
370
    25
100
AcDbVertex
100
AcDb2dVertex
 10
153.2179038715609
 20
92.92425742844975
 30
0.0
  0
VERTEX
  5
B8
330
AD
100
AcDbEntity
  8
Layer 1
 62
   178
420
    65793
370
    25
100
AcDbVertex
100
AcDb2dVertex
 10
160.3616412605993
 20
92.92425742844975
 30
0.0
  0
VERTEX
  5
B9
330
AD
100
AcDbEntity
  8
Layer 1
 62
   178
420
    65793
370
    25
100
AcDbVertex
100
AcDb2dVertex
 10
164.8366471110835
 20
92.92425742844975
 30
0.0
  0
VERTEX
  5
BA
330
AD
100
AcDbEntity
  8
Layer 1
 62
   178
420
    65793
370
    25
100
AcDbVertex
100
AcDb2dVertex
 10
167.2179030799551
 20
92.92425742844975
 30
0.0
  0
VERTEX
  5
BB
330
AD
100
AcDbEntity
  8
Layer 1
 62
   178
420
    65793
370
    25
100
AcDbVertex
100
AcDb2dVertex
 10
167.5054091672142
 20
92.92425742844975
 30
0.0
  0
VERTEX
  5
BC
330
AD
100
AcDbEntity
  8
Layer 1
 62
   178
420
    65793
370
    25
100
AcDbVertex
100
AcDb2dVertex
 10
172.267890587381
 20
92.92425742844975
 30
0.0
  0
VERTEX
  5
BD
330
AD
100
AcDbEntity
  8
Layer 1
 62
   178
420
    65793
370
    25
100
AcDbVertex
100
AcDb2dVertex
 10
174.3616404689935
 20
92.92425742844975
 30
0.0
  0
VERTEX
  5
BE
330
AD
100
AcDbEntity
  8
Layer 1
 62
   178
420
    65793
370
    25
100
AcDbVertex
100
AcDb2dVertex
 10
181.5054083756083
 20
92.92425742844975
 30
0.0
  0
VERTEX
  5
BF
330
AD
100
AcDbEntity
  8
Layer 1
 62
   178
420
    65793
370
    25
100
AcDbVertex
100
AcDb2dVertex
 10
184.1741399141626
 20
92.92425742844975
 30
0.0
  0
VERTEX
  5
C0
330
AD
100
AcDbEntity
  8
Layer 1
 62
   178
420
    65793
370
    25
100
AcDbVertex
100
AcDb2dVertex
 10
186.2678897957751
 20
92.92425742844975
 30
0.0
  0
VERTEX
  5
C1
330
AD
100
AcDbEntity
  8
Layer 1
 62
   178
420
    65793
370
    25
100
AcDbVertex
100
AcDb2dVertex
 10
191.3179078207774
 20
92.92425742844975
 30
0.0
  0
VERTEX
  5
C2
330
AD
100
AcDbEntity
  8
Layer 1
 62
   178
420
    65793
370
    25
100
AcDbVertex
100
AcDb2dVertex
 10
198.1741391225567
 20
92.92425742844975
 30
0.0
  0
VERTEX
  5
C3
330
AD
100
AcDbEntity
  8
Layer 1
 62
   178
420
    65793
370
    25
100
AcDbVertex
100
AcDb2dVertex
 10
205.3179070291716
 20
92.92425742844975
 30
0.0
  0
VERTEX
  5
C4
330
AD
100
AcDbEntity
  8
Layer 1
 62
   178
420
    65793
370
    25
100
AcDbVertex
100
AcDb2dVertex
 10
205.3179070291716
 20
106.9242566368439
 30
0.0
  0
VERTEX
  5
C5
330
AD
100
AcDbEntity
  8
Layer 1
 62
   178
420
    65793
370
    25
100
AcDbVertex
100
AcDb2dVertex
 10
198.1741391225567
 20
106.9242566368439
 30
0.0
  0
VERTEX
  5
C6
330
AD
100
AcDbEntity
  8
Layer 1
 62
   178
420
    65793
370
    25
100
AcDbVertex
100
AcDb2dVertex
 10
191.3179078207774
 20
106.9242566368439
 30
0.0
  0
VERTEX
  5
C7
330
AD
100
AcDbEntity
  8
Layer 1
 62
   178
420
    65793
370
    25
100
AcDbVertex
100
AcDb2dVertex
 10
186.2678897957751
 20
106.9242566368439
 30
0.0
  0
VERTEX
  5
C8
330
AD
100
AcDbEntity
  8
Layer 1
 62
   178
420
    65793
370
    25
100
AcDbVertex
100
AcDb2dVertex
 10
184.1741399141626
 20
106.9242566368439
 30
0.0
  0
VERTEX
  5
C9
330
AD
100
AcDbEntity
  8
Layer 1
 62
   178
420
    65793
370
    25
100
AcDbVertex
100
AcDb2dVertex
 10
181.5054083756083
 20
106.9242566368439
 30
0.0
  0
VERTEX
  5
CA
330
AD
100
AcDbEntity
  8
Layer 1
 62
   178
420
    65793
370
    25
100
AcDbVertex
100
AcDb2dVertex
 10
174.3616404689935
 20
106.9242566368439
 30
0.0
  0
VERTEX
  5
CB
330
AD
100
AcDbEntity
  8
Layer 1
 62
   178
420
    65793
370
    25
100
AcDbVertex
100
AcDb2dVertex
 10
172.267890587381
 20
106.9242566368439
 30
0.0
  0
VERTEX
  5
CC
330
AD
100
AcDbEntity
  8
Layer 1
 62
   178
420
    65793
370
    25
100
AcDbVertex
100
AcDb2dVertex
 10
167.5054091672142
 20
106.9242566368439
 30
0.0
  0
VERTEX
  5
CD
330
AD
100
AcDbEntity
  8
Layer 1
 62
   178
420
    65793
370
    25
100
AcDbVertex
100
AcDb2dVertex
 10
167.2179030799551
 20
106.9242566368439
 30
0.0
  0
VERTEX
  5
CE
330
AD
100
AcDbEntity
  8
Layer 1
 62
   178
420
    65793
370
    25
100
AcDbVertex
100
AcDb2dVertex
 10
164.8366471110835
 20
106.9242566368439
 30
0.0
  0
VERTEX
  5
CF
330
AD
100
AcDbEntity
  8
Layer 1
 62
   178
420
    65793
370
    25
100
AcDbVertex
100
AcDb2dVertex
 10
160.3616412605993
 20
106.9242566368439
 30
0.0
  0
VERTEX
  5
D0
330
AD
100
AcDbEntity
  8
Layer 1
 62
   178
420
    65793
370
    25
100
AcDbVertex
100
AcDb2dVertex
 10
153.2179038715609
 20
106.9242566368439
 30
0.0
  0
VERTEX
  5
D1
330
AD
100
AcDbEntity
  8
Layer 1
 62
   178
420
    65793
370
    25
100
AcDbVertex
100
AcDb2dVertex
 10
152.9303977843018
 20
106.9242566368439
 30
0.0
  0
VERTEX
  5
D2
330
AD
100
AcDbEntity
  8
Layer 1
 62
   178
420
    65793
370
    25
100
AcDbVertex
100
AcDb2dVertex
 10
150.8366479026893
 20
106.9242566368439
 30
0.0
  0
VERTEX
  5
D3
330
AD
100
AcDbEntity
  8
Layer 1
 62
   178
420
    65793
370
    25
100
AcDbVertex
100
AcDb2dVertex
 10
150.5491418154302
 20
106.9242566368439
 30
0.0
  0
VERTEX
  5
D4
330
AD
100
AcDbEntity
  8
Layer 1
 62
   178
420
    65793
370
    25
100
AcDbVertex
100
AcDb2dVertex
 10
148.167916364135
 20
106.9242566368439
 30
0.0
  0
VERTEX
  5
D5
330
AD
100
AcDbEntity
  8
Layer 1
 62
   178
420
    65793
370
    25
100
AcDbVertex
100
AcDb2dVertex
 10
141.0241484575202
 20
106.9242566368439
 30
0.0
  0
VERTEX
  5
D6
330
AD
100
AcDbEntity
  8
Layer 1
 62
   178
420
    65793
370
    25
100
AcDbVertex
100
AcDb2dVertex
 10
138.9303985759077
 20
106.9242566368439
 30
0.0
  0
VERTEX
  5
D7
330
AD
100
AcDbEntity
  8
Layer 1
 62
   178
420
    65793
370
    25
100
AcDbVertex
100
AcDb2dVertex
 10
136.5491426070361
 20
106.9242566368439
 30
0.0
  0
VERTEX
  5
D8
330
AD
100
AcDbEntity
  8
Layer 1
 62
   178
420
    65793
370
    25
100
AcDbVertex
100
AcDb2dVertex
 10
134.1679171557409
 20
106.9242566368439
 30
0.0
  0
VERTEX
  5
D9
330
AD
100
AcDbEntity
  8
Layer 1
 62
   178
420
    65793
370
    25
100
AcDbVertex
100
AcDb2dVertex
 10
127.0241492491261
 20
106.9242566368439
 30
0.0
  0
VERTEX
  5
DA
330
AD
100
AcDbEntity
  8
Layer 1
 62
   178
420
    65793
370
    25
100
AcDbVertex
100
AcDb2dVertex
 10
127.0241492491261
 20
92.92425742844975
 30
0.0
  0
SEQEND
  5
DB
330
AD
100
AcDbEntity
  8
Layer 1
 62
   178
420
    65793
370
    25
  0
ENDBLK
  5
AC
330
A9
100
AcDbEntity
  8
0
100
AcDbBlockEnd
  0
BLOCK
  5
DE
330
DC
100
AcDbEntity
  8
0
100
AcDbBlockBegin
  2
block 14
 70
     0
 10
0.0
 20
0.0
 30
0.0
  3
block 14
  1

  0
POLYLINE
  5
E0
330
DC
100
AcDbEntity
  8
Layer 1
 62
   178
420
    65793
370
    25
100
AcDb2dPolyline
 66
     1
 10
0.0
 20
0.0
 30
0.0
  0
VERTEX
  5
E1
330
E0
100
AcDbEntity
  8
Layer 1
 62
   178
420
    65793
370
    25
100
AcDbVertex
100
AcDb2dVertex
 10
107.6866564460469
 20
92.92425742844975
 30
0.0
  0
VERTEX
  5
E2
330
E0
100
AcDbEntity
  8
Layer 1
 62
   178
420
    65793
370
    25
100
AcDbVertex
100
AcDb2dVertex
 10
98.44915391660781
 20
92.92425742844975
 30
0.0
  0
VERTEX
  5
E3
330
E0
100
AcDbEntity
  8
Layer 1
 62
   178
420
    65793
370
    25
100
AcDbVertex
100
AcDb2dVertex
 10
98.16166308813692
 20
92.92425742844975
 30
0.0
  0
VERTEX
  5
E4
330
E0
100
AcDbEntity
  8
Layer 1
 62
   178
420
    65793
370
    25
100
AcDbVertex
100
AcDb2dVertex
 10
97.01115045787817
 20
92.92425742844975
 30
0.0
  0
VERTEX
  5
E5
330
E0
100
AcDbEntity
  8
Layer 1
 62
   178
420
    65793
370
    25
100
AcDbVertex
100
AcDb2dVertex
 10
97.01115045787817
 20
90.17425758394377
 30
0.0
  0
VERTEX
  5
E6
330
E0
100
AcDbEntity
  8
Layer 1
 62
   178
420
    65793
370
    25
100
AcDbVertex
100
AcDb2dVertex
 10
92.24865377892317
 20
90.17425758394377
 30
0.0
  0
VERTEX
  5
E7
330
E0
100
AcDbEntity
  8
Layer 1
 62
   178
420
    65793
370
    25
100
AcDbVertex
100
AcDb2dVertex
 10
90.0111508536811
 20
90.17425758394377
 30
0.0
  0
VERTEX
  5
E8
330
E0
100
AcDbEntity
  8
Layer 1
 62
   178
420
    65793
370
    25
100
AcDbVertex
100
AcDb2dVertex
 10
85.2486541747261
 20
90.17425758394377
 30
0.0
  0
VERTEX
  5
E9
330
E0
100
AcDbEntity
  8
Layer 1
 62
   178
420
    65793
370
    25
100
AcDbVertex
100
AcDb2dVertex
 10
85.2486541747261
 20
92.92425742844975
 30
0.0
  0
VERTEX
  5
EA
330
E0
100
AcDbEntity
  8
Layer 1
 62
   178
420
    65793
370
    25
100
AcDbVertex
100
AcDb2dVertex
 10
84.16166387974278
 20
92.92425742844975
 30
0.0
  0
VERTEX
  5
EB
330
E0
100
AcDbEntity
  8
Layer 1
 62
   178
420
    65793
370
    25
100
AcDbVertex
100
AcDb2dVertex
 10
84.16166387974278
 20
106.9242566368439
 30
0.0
  0
VERTEX
  5
EC
330
E0
100
AcDbEntity
  8
Layer 1
 62
   178
420
    65793
370
    25
100
AcDbVertex
100
AcDb2dVertex
 10
85.2486541747261
 20
106.9242566368439
 30
0.0
  0
VERTEX
  5
ED
330
E0
100
AcDbEntity
  8
Layer 1
 62
   178
420
    65793
370
    25
100
AcDbVertex
100
AcDb2dVertex
 10
85.2486541747261
 20
110.3242579704749
 30
0.0
  0
VERTEX
  5
EE
330
E0
100
AcDbEntity
  8
Layer 1
 62
   178
420
    65793
370
    25
100
AcDbVertex
100
AcDb2dVertex
 10
88.74865397682463
 20
110.3242579704749
 30
0.0
  0
VERTEX
  5
EF
330
E0
100
AcDbEntity
  8
Layer 1
 62
   178
420
    65793
370
    25
100
AcDbVertex
100
AcDb2dVertex
 10
90.0111508536811
 20
110.3242579704749
 30
0.0
  0
VERTEX
  5
F0
330
E0
100
AcDbEntity
  8
Layer 1
 62
   178
420
    65793
370
    25
100
AcDbVertex
100
AcDb2dVertex
 10
92.24865377892317
 20
110.3242579704749
 30
0.0
  0
VERTEX
  5
F1
330
E0
100
AcDbEntity
  8
Layer 1
 62
   178
420
    65793
370
    25
100
AcDbVertex
100
AcDb2dVertex
 10
93.51115065577964
 20
110.3242579704749
 30
0.0
  0
VERTEX
  5
F2
330
E0
100
AcDbEntity
  8
Layer 1
 62
   178
420
    65793
370
    25
100
AcDbVertex
100
AcDb2dVertex
 10
97.01115045787817
 20
110.3242579704749
 30
0.0
  0
VERTEX
  5
F3
330
E0
100
AcDbEntity
  8
Layer 1
 62
   178
420
    65793
370
    25
100
AcDbVertex
100
AcDb2dVertex
 10
109.1246599047766
 20
110.3242579704749
 30
0.0
  0
VERTEX
  5
F4
330
E0
100
AcDbEntity
  8
Layer 1
 62
   178
420
    65793
370
    25
100
AcDbVertex
100
AcDb2dVertex
 10
112.6246597068751
 20
110.3242579704749
 30
0.0
  0
VERTEX
  5
F5
330
E0
100
AcDbEntity
  8
Layer 1
 62
   178
420
    65793
370
    25
100
AcDbVertex
100
AcDb2dVertex
 10
113.8871565837316
 20
110.3242579704749
 30
0.0
  0
VERTEX
  5
F6
330
E0
100
AcDbEntity
  8
Layer 1
 62
   178
420
    65793
370
    25
100
AcDbVertex
100
AcDb2dVertex
 10
116.1246595089737
 20
110.3242579704749
 30
0.0
  0
VERTEX
  5
F7
330
E0
100
AcDbEntity
  8
Layer 1
 62
   178
420
    65793
370
    25
100
AcDbVertex
100
AcDb2dVertex
 10
117.3871563858301
 20
110.3242579704749
 30
0.0
  0
VERTEX
  5
F8
330
E0
100
AcDbEntity
  8
Layer 1
 62
   178
420
    65793
370
    25
100
AcDbVertex
100
AcDb2dVertex
 10
120.8871561879287
 20
110.3242579704749
 30
0.0
  0
VERTEX
  5
F9
330
E0
100
AcDbEntity
  8
Layer 1
 62
   178
420
    65793
370
    25
100
AcDbVertex
100
AcDb2dVertex
 10
120.8871561879287
 20
106.9242566368439
 30
0.0
  0
VERTEX
  5
FA
330
E0
100
AcDbEntity
  8
Layer 1
 62
   178
420
    65793
370
    25
100
AcDbVertex
100
AcDb2dVertex
 10
124.3554177105718
 20
106.9242566368439
 30
0.0
  0
VERTEX
  5
FB
330
E0
100
AcDbEntity
  8
Layer 1
 62
   178
420
    65793
370
    25
100
AcDbVertex
100
AcDb2dVertex
 10
124.3554177105718
 20
92.92425742844975
 30
0.0
  0
VERTEX
  5
FC
330
E0
100
AcDbEntity
  8
Layer 1
 62
   178
420
    65793
370
    25
100
AcDbVertex
100
AcDb2dVertex
 10
120.8871561879287
 20
92.92425742844975
 30
0.0
  0
VERTEX
  5
FD
330
E0
100
AcDbEntity
  8
Layer 1
 62
   178
420
    65793
370
    25
100
AcDbVertex
100
AcDb2dVertex
 10
120.8871561879287
 20
90.17425758394377
 30
0.0
  0
VERTEX
  5
FE
330
E0
100
AcDbEntity
  8
Layer 1
 62
   178
420
    65793
370
    25
100
AcDbVertex
100
AcDb2dVertex
 10
116.1246595089737
 20
90.17425758394377
 30
0.0
  0
VERTEX
  5
FF
330
E0
100
AcDbEntity
  8
Layer 1
 62
   178
420
    65793
370
    25
100
AcDbVertex
100
AcDb2dVertex
 10
113.8871565837316
 20
90.17425758394377
 30
0.0
  0
VERTEX
  5
100
330
E0
100
AcDbEntity
  8
Layer 1
 62
   178
420
    65793
370
    25
100
AcDbVertex
100
AcDb2dVertex
 10
109.1246599047766
 20
90.17425758394377
 30
0.0
  0
VERTEX
  5
101
330
E0
100
AcDbEntity
  8
Layer 1
 62
   178
420
    65793
370
    25
100
AcDbVertex
100
AcDb2dVertex
 10
109.1246599047766
 20
92.92425742844975
 30
0.0
  0
VERTEX
  5
102
330
E0
100
AcDbEntity
  8
Layer 1
 62
   178
420
    65793
370
    25
100
AcDbVertex
100
AcDb2dVertex
 10
107.6866564460469
 20
92.92425742844975
 30
0.0
  0
SEQEND
  5
103
330
E0
100
AcDbEntity
  8
Layer 1
 62
   178
420
    65793
370
    25
  0
ENDBLK
  5
DF
330
DC
100
AcDbEntity
  8
0
100
AcDbBlockEnd
  0
BLOCK
  5
106
330
104
100
AcDbEntity
  8
0
100
AcDbBlockBegin
  2
block 15
 70
     0
 10
0.0
 20
0.0
 30
0.0
  3
block 15
  1

  0
POLYLINE
  5
108
330
104
100
AcDbEntity
  8
Layer 1
 62
   178
420
    65793
370
    25
100
AcDb2dPolyline
 66
     1
 10
0.0
 20
0.0
 30
0.0
  0
VERTEX
  5
109
330
108
100
AcDbEntity
  8
Layer 1
 62
   178
420
    65793
370
    25
100
AcDbVertex
100
AcDb2dVertex
 10
191.3179078207774
 20
169.1242500680952
 30
0.0
  0
VERTEX
  5
10A
330
108
100
AcDbEntity
  8
Layer 1
 62
   178
420
    65793
370
    25
100
AcDbVertex
100
AcDb2dVertex
 10
192.4049133745489
 20
169.1242500680952
 30
0.0
  0
VERTEX
  5
10B
330
108
100
AcDbEntity
  8
Layer 1
 62
   178
420
    65793
370
    25
100
AcDbVertex
100
AcDb2dVertex
 10
192.4049133745489
 20
165.7242487344635
 30
0.0
  0
VERTEX
  5
10C
330
108
100
AcDbEntity
  8
Layer 1
 62
   178
420
    65793
370
    25
100
AcDbVertex
100
AcDb2dVertex
 10
195.9049131766475
 20
165.7242487344635
 30
0.0
  0
VERTEX
  5
10D
330
108
100
AcDbEntity
  8
Layer 1
 62
   178
420
    65793
370
    25
100
AcDbVertex
100
AcDb2dVertex
 10
199.404912978746
 20
165.7242487344635
 30
0.0
  0
VERTEX
  5
10E
330
108
100
AcDbEntity
  8
Layer 1
 62
   178
420
    65793
370
    25
100
AcDbVertex
100
AcDb2dVertex
 10
216.280888587023
 20
165.7242487344635
 30
0.0
  0
VERTEX
  5
10F
330
108
100
AcDbEntity
  8
Layer 1
 62
   178
420
    65793
370
    25
100
AcDbVertex
100
AcDb2dVertex
 10
219.7808883891215
 20
165.7242487344635
 30
0.0
  0
VERTEX
  5
110
330
108
100
AcDbEntity
  8
Layer 1
 62
   178
420
    65793
370
    25
100
AcDbVertex
100
AcDb2dVertex
 10
223.2808881912201
 20
165.7242487344635
 30
0.0
  0
VERTEX
  5
111
330
108
100
AcDbEntity
  8
Layer 1
 62
   178
420
    65793
370
    25
100
AcDbVertex
100
AcDb2dVertex
 10
223.2808881912201
 20
169.1242500680952
 30
0.0
  0
VERTEX
  5
112
330
108
100
AcDbEntity
  8
Layer 1
 62
   178
420
    65793
370
    25
100
AcDbVertex
100
AcDb2dVertex
 10
224.3678937449916
 20
169.1242500680952
 30
0.0
  0
VERTEX
  5
113
330
108
100
AcDbEntity
  8
Layer 1
 62
   178
420
    65793
370
    25
100
AcDbVertex
100
AcDb2dVertex
 10
224.3678937449916
 20
183.1242492764893
 30
0.0
  0
VERTEX
  5
114
330
108
100
AcDbEntity
  8
Layer 1
 62
   178
420
    65793
370
    25
100
AcDbVertex
100
AcDb2dVertex
 10
223.2808881912201
 20
183.1242492764893
 30
0.0
  0
VERTEX
  5
115
330
108
100
AcDbEntity
  8
Layer 1
 62
   178
420
    65793
370
    25
100
AcDbVertex
100
AcDb2dVertex
 10
223.2808881912201
 20
185.8742491209953
 30
0.0
  0
VERTEX
  5
116
330
108
100
AcDbEntity
  8
Layer 1
 62
   178
420
    65793
370
    25
100
AcDbVertex
100
AcDb2dVertex
 10
216.280888587023
 20
185.8742491209953
 30
0.0
  0
VERTEX
  5
117
330
108
100
AcDbEntity
  8
Layer 1
 62
   178
420
    65793
370
    25
100
AcDbVertex
100
AcDb2dVertex
 10
216.280888587023
 20
183.1242492764893
 30
0.0
  0
VERTEX
  5
118
330
108
100
AcDbEntity
  8
Layer 1
 62
   178
420
    65793
370
    25
100
AcDbVertex
100
AcDb2dVertex
 10
214.8429003870816
 20
183.1242492764893
 30
0.0
  0
VERTEX
  5
119
330
108
100
AcDbEntity
  8
Layer 1
 62
   178
420
    65793
370
    25
100
AcDbVertex
100
AcDb2dVertex
 10
210.3678945365974
 20
183.1242492764893
 30
0.0
  0
VERTEX
  5
11A
330
108
100
AcDbEntity
  8
Layer 1
 62
   178
420
    65793
370
    25
100
AcDbVertex
100
AcDb2dVertex
 10
205.3179070291716
 20
183.1242492764893
 30
0.0
  0
VERTEX
  5
11B
330
108
100
AcDbEntity
  8
Layer 1
 62
   178
420
    65793
370
    25
100
AcDbVertex
100
AcDb2dVertex
 10
200.8429011786874
 20
183.1242492764893
 30
0.0
  0
VERTEX
  5
11C
330
108
100
AcDbEntity
  8
Layer 1
 62
   178
420
    65793
370
    25
100
AcDbVertex
100
AcDb2dVertex
 10
199.404912978746
 20
183.1242492764893
 30
0.0
  0
VERTEX
  5
11D
330
108
100
AcDbEntity
  8
Layer 1
 62
   178
420
    65793
370
    25
100
AcDbVertex
100
AcDb2dVertex
 10
199.404912978746
 20
185.8742491209953
 30
0.0
  0
VERTEX
  5
11E
330
108
100
AcDbEntity
  8
Layer 1
 62
   178
420
    65793
370
    25
100
AcDbVertex
100
AcDb2dVertex
 10
192.4049133745489
 20
185.8742491209953
 30
0.0
  0
VERTEX
  5
11F
330
108
100
AcDbEntity
  8
Layer 1
 62
   178
420
    65793
370
    25
100
AcDbVertex
100
AcDb2dVertex
 10
192.4049133745489
 20
183.1242492764893
 30
0.0
  0
VERTEX
  5
120
330
108
100
AcDbEntity
  8
Layer 1
 62
   178
420
    65793
370
    25
100
AcDbVertex
100
AcDb2dVertex
 10
191.3179078207774
 20
183.1242492764893
 30
0.0
  0
VERTEX
  5
121
330
108
100
AcDbEntity
  8
Layer 1
 62
   178
420
    65793
370
    25
100
AcDbVertex
100
AcDb2dVertex
 10
191.3179078207774
 20
169.1242500680952
 30
0.0
  0
SEQEND
  5
122
330
108
100
AcDbEntity
  8
Layer 1
 62
   178
420
    65793
370
    25
  0
ENDBLK
  5
107
330
104
100
AcDbEntity
  8
0
100
AcDbBlockEnd
  0
BLOCK
  5
125
330
123
100
AcDbEntity
  8
0
100
AcDbBlockBegin
  2
block 16
 70
     0
 10
0.0
 20
0.0
 30
0.0
  3
block 16
  1

  0
POLYLINE
  5
127
330
123
100
AcDbEntity
  8
Layer 1
 62
   178
420
    65793
370
    25
100
AcDb2dPolyline
 66
     1
 10
0.0
 20
0.0
 30
0.0
  0
VERTEX
  5
128
330
127
100
AcDbEntity
  8
Layer 1
 62
   178
420
    65793
370
    25
100
AcDbVertex
100
AcDb2dVertex
 10
157.9804158093041
 20
111.9742517736645
 30
0.0
  0
VERTEX
  5
129
330
127
100
AcDbEntity
  8
Layer 1
 62
   178
420
    65793
370
    25
100
AcDbVertex
100
AcDb2dVertex
 10
165.1241531983426
 20
111.9742517736645
 30
0.0
  0
VERTEX
  5
12A
330
127
100
AcDbEntity
  8
Layer 1
 62
   178
420
    65793
370
    25
100
AcDbVertex
100
AcDb2dVertex
 10
171.9804150176983
 20
111.9742517736645
 30
0.0
  0
VERTEX
  5
12B
330
127
100
AcDbEntity
  8
Layer 1
 62
   178
420
    65793
370
    25
100
AcDbVertex
100
AcDb2dVertex
 10
179.1241524067367
 20
111.9742517736645
 30
0.0
  0
VERTEX
  5
12C
330
127
100
AcDbEntity
  8
Layer 1
 62
   178
420
    65793
370
    25
100
AcDbVertex
100
AcDb2dVertex
 10
179.1241524067367
 20
125.9742509820587
 30
0.0
  0
VERTEX
  5
12D
330
127
100
AcDbEntity
  8
Layer 1
 62
   178
420
    65793
370
    25
100
AcDbVertex
100
AcDb2dVertex
 10
171.9804150176983
 20
125.9742509820587
 30
0.0
  0
VERTEX
  5
12E
330
127
100
AcDbEntity
  8
Layer 1
 62
   178
420
    65793
370
    25
100
AcDbVertex
100
AcDb2dVertex
 10
165.1241531983426
 20
125.9742509820587
 30
0.0
  0
VERTEX
  5
12F
330
127
100
AcDbEntity
  8
Layer 1
 62
   178
420
    65793
370
    25
100
AcDbVertex
100
AcDb2dVertex
 10
157.9804158093041
 20
125.9742509820587
 30
0.0
  0
VERTEX
  5
130
330
127
100
AcDbEntity
  8
Layer 1
 62
   178
420
    65793
370
    25
100
AcDbVertex
100
AcDb2dVertex
 10
157.9804158093041
 20
111.9742517736645
 30
0.0
  0
SEQEND
  5
131
330
127
100
AcDbEntity
  8
Layer 1
 62
   178
420
    65793
370
    25
  0
ENDBLK
  5
126
330
123
100
AcDbEntity
  8
0
100
AcDbBlockEnd
  0
BLOCK
  5
134
330
132
100
AcDbEntity
  8
0
100
AcDbBlockBegin
  2
block 17
 70
     0
 10
0.0
 20
0.0
 30
0.0
  3
block 17
  1

  0
POLYLINE
  5
136
330
132
100
AcDbEntity
  8
Layer 1
 62
   178
420
    65793
370
    25
100
AcDb2dPolyline
 66
     1
 10
0.0
 20
0.0
 30
0.0
  0
VERTEX
  5
137
330
136
100
AcDbEntity
  8
Layer 1
 62
   178
420
    65793
370
    25
100
AcDbVertex
100
AcDb2dVertex
 10
207.9866385677258
 20
92.92425742844975
 30
0.0
  0
VERTEX
  5
138
330
136
100
AcDbEntity
  8
Layer 1
 62
   178
420
    65793
370
    25
100
AcDbVertex
100
AcDb2dVertex
 10
210.3678945365974
 20
92.92425742844975
 30
0.0
  0
VERTEX
  5
139
330
136
100
AcDbEntity
  8
Layer 1
 62
   178
420
    65793
370
    25
100
AcDbVertex
100
AcDb2dVertex
 10
221.98663777612
 20
92.92425742844975
 30
0.0
  0
VERTEX
  5
13A
330
136
100
AcDbEntity
  8
Layer 1
 62
   178
420
    65793
370
    25
100
AcDbVertex
100
AcDb2dVertex
 10
224.3678937449916
 20
92.92425742844975
 30
0.0
  0
VERTEX
  5
13B
330
136
100
AcDbEntity
  8
Layer 1
 62
   178
420
    65793
370
    25
100
AcDbVertex
100
AcDb2dVertex
 10
224.3678937449916
 20
106.9242566368439
 30
0.0
  0
VERTEX
  5
13C
330
136
100
AcDbEntity
  8
Layer 1
 62
   178
420
    65793
370
    25
100
AcDbVertex
100
AcDb2dVertex
 10
221.98663777612
 20
106.9242566368439
 30
0.0
  0
VERTEX
  5
13D
330
136
100
AcDbEntity
  8
Layer 1
 62
   178
420
    65793
370
    25
100
AcDbVertex
100
AcDb2dVertex
 10
210.3678945365974
 20
106.9242566368439
 30
0.0
  0
VERTEX
  5
13E
330
136
100
AcDbEntity
  8
Layer 1
 62
   178
420
    65793
370
    25
100
AcDbVertex
100
AcDb2dVertex
 10
207.9866385677258
 20
106.9242566368439
 30
0.0
  0
VERTEX
  5
13F
330
136
100
AcDbEntity
  8
Layer 1
 62
   178
420
    65793
370
    25
100
AcDbVertex
100
AcDb2dVertex
 10
207.9866385677258
 20
92.92425742844975
 30
0.0
  0
SEQEND
  5
140
330
136
100
AcDbEntity
  8
Layer 1
 62
   178
420
    65793
370
    25
  0
ENDBLK
  5
135
330
132
100
AcDbEntity
  8
0
100
AcDbBlockEnd
  0
BLOCK
  5
143
330
141
100
AcDbEntity
  8
0
100
AcDbBlockBegin
  2
block 18
 70
     0
 10
0.0
 20
0.0
 30
0.0
  3
block 18
  1

  0
POLYLINE
  5
145
330
141
100
AcDbEntity
  8
Layer 1
 62
   178
420
    65793
370
    25
100
AcDb2dPolyline
 66
     1
 10
0.0
 20
0.0
 30
0.0
  0
VERTEX
  5
146
330
145
100
AcDbEntity
  8
Layer 1
 62
   178
420
    65793
370
    25
100
AcDbVertex
100
AcDb2dVertex
 10
86.54290458982618
 20
192.9367487216584
 30
0.0
  0
VERTEX
  5
147
330
145
100
AcDbEntity
  8
Layer 1
 62
   178
420
    65793
370
    25
100
AcDbVertex
100
AcDb2dVertex
 10
100.5429037982203
 20
192.9367487216584
 30
0.0
  0
VERTEX
  5
148
330
145
100
AcDbEntity
  8
Layer 1
 62
   178
420
    65793
370
    25
100
AcDbVertex
100
AcDb2dVertex
 10
100.5429037982203
 20
206.9367479300525
 30
0.0
  0
VERTEX
  5
149
330
145
100
AcDbEntity
  8
Layer 1
 62
   178
420
    65793
370
    25
100
AcDbVertex
100
AcDb2dVertex
 10
86.54290458982618
 20
206.9367479300525
 30
0.0
  0
VERTEX
  5
14A
330
145
100
AcDbEntity
  8
Layer 1
 62
   178
420
    65793
370
    25
100
AcDbVertex
100
AcDb2dVertex
 10
86.54290458982618
 20
192.9367487216584
 30
0.0
  0
SEQEND
  5
14B
330
145
100
AcDbEntity
  8
Layer 1
 62
   178
420
    65793
370
    25
  0
ENDBLK
  5
144
330
141
100
AcDbEntity
  8
0
100
AcDbBlockEnd
  0
BLOCK
  5
14E
330
14C
100
AcDbEntity
  8
0
100
AcDbBlockBegin
  2
block 19
 70
     0
 10
0.0
 20
0.0
 30
0.0
  3
block 19
  1

  0
POLYLINE
  5
150
330
14C
100
AcDbEntity
  8
Layer 1
 62
   178
420
    65793
370
    25
100
AcDb2dPolyline
 66
     1
 10
0.0
 20
0.0
 30
0.0
  0
VERTEX
  5
151
330
150
100
AcDbEntity
  8
Layer 1
 62
   178
420
    65793
370
    25
100
AcDbVertex
100
AcDb2dVertex
 10
105.5929065644344
 20
192.9367487216584
 30
0.0
  0
VERTEX
  5
152
330
150
100
AcDbEntity
  8
Layer 1
 62
   178
420
    65793
370
    25
100
AcDbVertex
100
AcDb2dVertex
 10
119.5929057728286
 20
192.9367487216584
 30
0.0
  0
VERTEX
  5
153
330
150
100
AcDbEntity
  8
Layer 1
 62
   178
420
    65793
370
    25
100
AcDbVertex
100
AcDb2dVertex
 10
119.5929057728286
 20
206.9367479300525
 30
0.0
  0
VERTEX
  5
154
330
150
100
AcDbEntity
  8
Layer 1
 62
   178
420
    65793
370
    25
100
AcDbVertex
100
AcDb2dVertex
 10
105.5929065644344
 20
206.9367479300525
 30
0.0
  0
VERTEX
  5
155
330
150
100
AcDbEntity
  8
Layer 1
 62
   178
420
    65793
370
    25
100
AcDbVertex
100
AcDb2dVertex
 10
105.5929065644344
 20
192.9367487216584
 30
0.0
  0
SEQEND
  5
156
330
150
100
AcDbEntity
  8
Layer 1
 62
   178
420
    65793
370
    25
  0
ENDBLK
  5
14F
330
14C
100
AcDbEntity
  8
0
100
AcDbBlockEnd
  0
BLOCK
  5
159
330
157
100
AcDbEntity
  8
0
100
AcDbBlockBegin
  2
block 20
 70
     0
 10
0.0
 20
0.0
 30
0.0
  3
block 20
  1

  0
POLYLINE
  5
15B
330
157
100
AcDbEntity
  8
Layer 1
 62
   178
420
    65793
370
    25
100
AcDb2dPolyline
 66
     1
 10
0.0
 20
0.0
 30
0.0
  0
VERTEX
  5
15C
330
15B
100
AcDbEntity
  8
Layer 1
 62
   178
420
    65793
370
    25
100
AcDbVertex
100
AcDb2dVertex
 10
129.4054052179977
 20
192.9367487216584
 30
0.0
  0
VERTEX
  5
15D
330
15B
100
AcDbEntity
  8
Layer 1
 62
   178
420
    65793
370
    25
100
AcDbVertex
100
AcDb2dVertex
 10
143.4054044263918
 20
192.9367487216584
 30
0.0
  0
VERTEX
  5
15E
330
15B
100
AcDbEntity
  8
Layer 1
 62
   178
420
    65793
370
    25
100
AcDbVertex
100
AcDb2dVertex
 10
143.4054044263918
 20
206.9367479300525
 30
0.0
  0
VERTEX
  5
15F
330
15B
100
AcDbEntity
  8
Layer 1
 62
   178
420
    65793
370
    25
100
AcDbVertex
100
AcDb2dVertex
 10
129.4054052179977
 20
206.9367479300525
 30
0.0
  0
VERTEX
  5
160
330
15B
100
AcDbEntity
  8
Layer 1
 62
   178
420
    65793
370
    25
100
AcDbVertex
100
AcDb2dVertex
 10
129.4054052179977
 20
192.9367487216584
 30
0.0
  0
SEQEND
  5
161
330
15B
100
AcDbEntity
  8
Layer 1
 62
   178
420
    65793
370
    25
  0
ENDBLK
  5
15A
330
157
100
AcDbEntity
  8
0
100
AcDbBlockEnd
  0
BLOCK
  5
164
330
162
100
AcDbEntity
  8
0
100
AcDbBlockBegin
  2
block 21
 70
     0
 10
0.0
 20
0.0
 30
0.0
  3
block 21
  1

  0
POLYLINE
  5
166
330
162
100
AcDbEntity
  8
Layer 1
 62
   178
420
    65793
370
    25
100
AcDb2dPolyline
 66
     1
 10
0.0
 20
0.0
 30
0.0
  0
VERTEX
  5
167
330
166
100
AcDbEntity
  8
Layer 1
 62
   178
420
    65793
370
    25
100
AcDbVertex
100
AcDb2dVertex
 10
148.4553919338177
 20
192.9367487216584
 30
0.0
  0
VERTEX
  5
168
330
166
100
AcDbEntity
  8
Layer 1
 62
   178
420
    65793
370
    25
100
AcDbVertex
100
AcDb2dVertex
 10
162.4553911422119
 20
192.9367487216584
 30
0.0
  0
VERTEX
  5
169
330
166
100
AcDbEntity
  8
Layer 1
 62
   178
420
    65793
370
    25
100
AcDbVertex
100
AcDb2dVertex
 10
162.4553911422119
 20
206.9367479300525
 30
0.0
  0
VERTEX
  5
16A
330
166
100
AcDbEntity
  8
Layer 1
 62
   178
420
    65793
370
    25
100
AcDbVertex
100
AcDb2dVertex
 10
148.4553919338177
 20
206.9367479300525
 30
0.0
  0
VERTEX
  5
16B
330
166
100
AcDbEntity
  8
Layer 1
 62
   178
420
    65793
370
    25
100
AcDbVertex
100
AcDb2dVertex
 10
148.4553919338177
 20
192.9367487216584
 30
0.0
  0
SEQEND
  5
16C
330
166
100
AcDbEntity
  8
Layer 1
 62
   178
420
    65793
370
    25
  0
ENDBLK
  5
165
330
162
100
AcDbEntity
  8
0
100
AcDbBlockEnd
  0
BLOCK
  5
16F
330
16D
100
AcDbEntity
  8
0
100
AcDbBlockBegin
  2
block 22
 70
     0
 10
0.0
 20
0.0
 30
0.0
  3
block 22
  1

  0
POLYLINE
  5
171
330
16D
100
AcDbEntity
  8
Layer 1
 62
   178
420
    65793
370
    25
100
AcDb2dPolyline
 66
     1
 10
0.0
 20
0.0
 30
0.0
  0
VERTEX
  5
172
330
171
100
AcDbEntity
  8
Layer 1
 62
   178
420
    65793
370
    25
100
AcDbVertex
100
AcDb2dVertex
 10
167.5054091672142
 20
192.9367487216584
 30
0.0
  0
VERTEX
  5
173
330
171
100
AcDbEntity
  8
Layer 1
 62
   178
420
    65793
370
    25
100
AcDbVertex
100
AcDb2dVertex
 10
181.5054083756083
 20
192.9367487216584
 30
0.0
  0
VERTEX
  5
174
330
171
100
AcDbEntity
  8
Layer 1
 62
   178
420
    65793
370
    25
100
AcDbVertex
100
AcDb2dVertex
 10
181.5054083756083
 20
206.9367479300525
 30
0.0
  0
VERTEX
  5
175
330
171
100
AcDbEntity
  8
Layer 1
 62
   178
420
    65793
370
    25
100
AcDbVertex
100
AcDb2dVertex
 10
167.5054091672142
 20
206.9367479300525
 30
0.0
  0
VERTEX
  5
176
330
171
100
AcDbEntity
  8
Layer 1
 62
   178
420
    65793
370
    25
100
AcDbVertex
100
AcDb2dVertex
 10
167.5054091672142
 20
192.9367487216584
 30
0.0
  0
SEQEND
  5
177
330
171
100
AcDbEntity
  8
Layer 1
 62
   178
420
    65793
370
    25
  0
ENDBLK
  5
170
330
16D
100
AcDbEntity
  8
0
100
AcDbBlockEnd
  0
BLOCK
  5
17A
330
178
100
AcDbEntity
  8
0
100
AcDbBlockBegin
  2
block 23
 70
     0
 10
0.0
 20
0.0
 30
0.0
  3
block 23
  1

  0
POLYLINE
  5
17C
330
178
100
AcDbEntity
  8
Layer 1
 62
   178
420
    65793
370
    25
100
AcDb2dPolyline
 66
     1
 10
0.0
 20
0.0
 30
0.0
  0
VERTEX
  5
17D
330
17C
100
AcDbEntity
  8
Layer 1
 62
   178
420
    65793
370
    25
100
AcDbVertex
100
AcDb2dVertex
 10
186.5553958830342
 20
192.9367487216584
 30
0.0
  0
VERTEX
  5
17E
330
17C
100
AcDbEntity
  8
Layer 1
 62
   178
420
    65793
370
    25
100
AcDbVertex
100
AcDb2dVertex
 10
200.5553950914284
 20
192.9367487216584
 30
0.0
  0
VERTEX
  5
17F
330
17C
100
AcDbEntity
  8
Layer 1
 62
   178
420
    65793
370
    25
100
AcDbVertex
100
AcDb2dVertex
 10
200.5553950914284
 20
206.9367479300525
 30
0.0
  0
VERTEX
  5
180
330
17C
100
AcDbEntity
  8
Layer 1
 62
   178
420
    65793
370
    25
100
AcDbVertex
100
AcDb2dVertex
 10
186.5553958830342
 20
206.9367479300525
 30
0.0
  0
VERTEX
  5
181
330
17C
100
AcDbEntity
  8
Layer 1
 62
   178
420
    65793
370
    25
100
AcDbVertex
100
AcDb2dVertex
 10
186.5553958830342
 20
192.9367487216584
 30
0.0
  0
SEQEND
  5
182
330
17C
100
AcDbEntity
  8
Layer 1
 62
   178
420
    65793
370
    25
  0
ENDBLK
  5
17B
330
178
100
AcDbEntity
  8
0
100
AcDbBlockEnd
  0
BLOCK
  5
185
330
183
100
AcDbEntity
  8
0
100
AcDbBlockBegin
  2
block 24
 70
     0
 10
0.0
 20
0.0
 30
0.0
  3
block 24
  1

  0
POLYLINE
  5
187
330
183
100
AcDbEntity
  8
Layer 1
 62
   178
420
    65793
370
    25
100
AcDb2dPolyline
 66
     1
 10
0.0
 20
0.0
 30
0.0
  0
VERTEX
  5
188
330
187
100
AcDbEntity
  8
Layer 1
 62
   178
420
    65793
370
    25
100
AcDbVertex
100
AcDb2dVertex
 10
210.3678945365974
 20
192.9367487216584
 30
0.0
  0
VERTEX
  5
189
330
187
100
AcDbEntity
  8
Layer 1
 62
   178
420
    65793
370
    25
100
AcDbVertex
100
AcDb2dVertex
 10
224.3678937449916
 20
192.9367487216584
 30
0.0
  0
VERTEX
  5
18A
330
187
100
AcDbEntity
  8
Layer 1
 62
   178
420
    65793
370
    25
100
AcDbVertex
100
AcDb2dVertex
 10
224.3678937449916
 20
206.9367479300525
 30
0.0
  0
VERTEX
  5
18B
330
187
100
AcDbEntity
  8
Layer 1
 62
   178
420
    65793
370
    25
100
AcDbVertex
100
AcDb2dVertex
 10
210.3678945365974
 20
206.9367479300525
 30
0.0
  0
VERTEX
  5
18C
330
187
100
AcDbEntity
  8
Layer 1
 62
   178
420
    65793
370
    25
100
AcDbVertex
100
AcDb2dVertex
 10
210.3678945365974
 20
192.9367487216584
 30
0.0
  0
SEQEND
  5
18D
330
187
100
AcDbEntity
  8
Layer 1
 62
   178
420
    65793
370
    25
  0
ENDBLK
  5
186
330
183
100
AcDbEntity
  8
0
100
AcDbBlockEnd
  0
BLOCK
  5
190
330
18E
100
AcDbEntity
  8
0
100
AcDbBlockBegin
  2
block 25
 70
     0
 10
0.0
 20
0.0
 30
0.0
  3
block 25
  1

  0
POLYLINE
  5
192
330
18E
100
AcDbEntity
  8
Layer 1
 62
   178
420
    65793
370
    25
100
AcDb2dPolyline
 66
     1
 10
0.0
 20
0.0
 30
0.0
  0
VERTEX
  5
193
330
192
100
AcDbEntity
  8
Layer 1
 62
   178
420
    65793
370
    25
100
AcDbVertex
100
AcDb2dVertex
 10
77.01791123191616
 20
169.1242500680952
 30
0.0
  0
VERTEX
  5
194
330
192
100
AcDbEntity
  8
Layer 1
 62
   178
420
    65793
370
    25
100
AcDbVertex
100
AcDb2dVertex
 10
91.0179104403103
 20
169.1242500680952
 30
0.0
  0
VERTEX
  5
195
330
192
100
AcDbEntity
  8
Layer 1
 62
   178
420
    65793
370
    25
100
AcDbVertex
100
AcDb2dVertex
 10
91.0179104403103
 20
183.1242492764893
 30
0.0
  0
VERTEX
  5
196
330
192
100
AcDbEntity
  8
Layer 1
 62
   178
420
    65793
370
    25
100
AcDbVertex
100
AcDb2dVertex
 10
77.01791123191616
 20
183.1242492764893
 30
0.0
  0
VERTEX
  5
197
330
192
100
AcDbEntity
  8
Layer 1
 62
   178
420
    65793
370
    25
100
AcDbVertex
100
AcDb2dVertex
 10
77.01791123191616
 20
169.1242500680952
 30
0.0
  0
SEQEND
  5
198
330
192
100
AcDbEntity
  8
Layer 1
 62
   178
420
    65793
370
    25
  0
ENDBLK
  5
191
330
18E
100
AcDbEntity
  8
0
100
AcDbBlockEnd
  0
BLOCK
  5
19B
330
199
100
AcDbEntity
  8
0
100
AcDbBlockBegin
  2
block 26
 70
     0
 10
0.0
 20
0.0
 30
0.0
  3
block 26
  1

  0
POLYLINE
  5
19D
330
199
100
AcDbEntity
  8
Layer 1
 62
   178
420
    65793
370
    25
100
AcDb2dPolyline
 66
     1
 10
0.0
 20
0.0
 30
0.0
  0
VERTEX
  5
19E
330
19D
100
AcDbEntity
  8
Layer 1
 62
   178
420
    65793
370
    25
100
AcDbVertex
100
AcDb2dVertex
 10
96.06791320652441
 20
169.1242500680952
 30
0.0
  0
VERTEX
  5
19F
330
19D
100
AcDbEntity
  8
Layer 1
 62
   178
420
    65793
370
    25
100
AcDbVertex
100
AcDb2dVertex
 10
110.0679124149186
 20
169.1242500680952
 30
0.0
  0
VERTEX
  5
1A0
330
19D
100
AcDbEntity
  8
Layer 1
 62
   178
420
    65793
370
    25
100
AcDbVertex
100
AcDb2dVertex
 10
110.0679124149186
 20
183.1242492764893
 30
0.0
  0
VERTEX
  5
1A1
330
19D
100
AcDbEntity
  8
Layer 1
 62
   178
420
    65793
370
    25
100
AcDbVertex
100
AcDb2dVertex
 10
96.06791320652441
 20
183.1242492764893
 30
0.0
  0
VERTEX
  5
1A2
330
19D
100
AcDbEntity
  8
Layer 1
 62
   178
420
    65793
370
    25
100
AcDbVertex
100
AcDb2dVertex
 10
96.06791320652441
 20
169.1242500680952
 30
0.0
  0
SEQEND
  5
1A3
330
19D
100
AcDbEntity
  8
Layer 1
 62
   178
420
    65793
370
    25
  0
ENDBLK
  5
19C
330
199
100
AcDbEntity
  8
0
100
AcDbBlockEnd
  0
BLOCK
  5
1A6
330
1A4
100
AcDbEntity
  8
0
100
AcDbBlockBegin
  2
block 27
 70
     0
 10
0.0
 20
0.0
 30
0.0
  3
block 27
  1

  0
POLYLINE
  5
1A8
330
1A4
100
AcDbEntity
  8
Layer 1
 62
   178
420
    65793
370
    25
100
AcDb2dPolyline
 66
     1
 10
0.0
 20
0.0
 30
0.0
  0
VERTEX
  5
1A9
330
1A8
100
AcDbEntity
  8
Layer 1
 62
   178
420
    65793
370
    25
100
AcDbVertex
100
AcDb2dVertex
 10
115.1178999223444
 20
169.1242500680952
 30
0.0
  0
VERTEX
  5
1AA
330
1A8
100
AcDbEntity
  8
Layer 1
 62
   178
420
    65793
370
    25
100
AcDbVertex
100
AcDb2dVertex
 10
129.1178991307386
 20
169.1242500680952
 30
0.0
  0
VERTEX
  5
1AB
330
1A8
100
AcDbEntity
  8
Layer 1
 62
   178
420
    65793
370
    25
100
AcDbVertex
100
AcDb2dVertex
 10
129.1178991307386
 20
183.1242492764893
 30
0.0
  0
VERTEX
  5
1AC
330
1A8
100
AcDbEntity
  8
Layer 1
 62
   178
420
    65793
370
    25
100
AcDbVertex
100
AcDb2dVertex
 10
115.1178999223444
 20
183.1242492764893
 30
0.0
  0
VERTEX
  5
1AD
330
1A8
100
AcDbEntity
  8
Layer 1
 62
   178
420
    65793
370
    25
100
AcDbVertex
100
AcDb2dVertex
 10
115.1178999223444
 20
169.1242500680952
 30
0.0
  0
SEQEND
  5
1AE
330
1A8
100
AcDbEntity
  8
Layer 1
 62
   178
420
    65793
370
    25
  0
ENDBLK
  5
1A7
330
1A4
100
AcDbEntity
  8
0
100
AcDbBlockEnd
  0
BLOCK
  5
1B1
330
1AF
100
AcDbEntity
  8
0
100
AcDbBlockBegin
  2
block 28
 70
     0
 10
0.0
 20
0.0
 30
0.0
  3
block 28
  1

  0
POLYLINE
  5
1B3
330
1AF
100
AcDbEntity
  8
Layer 1
 62
   178
420
    65793
370
    25
100
AcDb2dPolyline
 66
     1
 10
0.0
 20
0.0
 30
0.0
  0
VERTEX
  5
1B4
330
1B3
100
AcDbEntity
  8
Layer 1
 62
   178
420
    65793
370
    25
100
AcDbVertex
100
AcDb2dVertex
 10
134.1679171557409
 20
169.1242500680952
 30
0.0
  0
VERTEX
  5
1B5
330
1B3
100
AcDbEntity
  8
Layer 1
 62
   178
420
    65793
370
    25
100
AcDbVertex
100
AcDb2dVertex
 10
148.167916364135
 20
169.1242500680952
 30
0.0
  0
VERTEX
  5
1B6
330
1B3
100
AcDbEntity
  8
Layer 1
 62
   178
420
    65793
370
    25
100
AcDbVertex
100
AcDb2dVertex
 10
148.167916364135
 20
183.1242492764893
 30
0.0
  0
VERTEX
  5
1B7
330
1B3
100
AcDbEntity
  8
Layer 1
 62
   178
420
    65793
370
    25
100
AcDbVertex
100
AcDb2dVertex
 10
134.1679171557409
 20
183.1242492764893
 30
0.0
  0
VERTEX
  5
1B8
330
1B3
100
AcDbEntity
  8
Layer 1
 62
   178
420
    65793
370
    25
100
AcDbVertex
100
AcDb2dVertex
 10
134.1679171557409
 20
169.1242500680952
 30
0.0
  0
SEQEND
  5
1B9
330
1B3
100
AcDbEntity
  8
Layer 1
 62
   178
420
    65793
370
    25
  0
ENDBLK
  5
1B2
330
1AF
100
AcDbEntity
  8
0
100
AcDbBlockEnd
  0
BLOCK
  5
1BC
330
1BA
100
AcDbEntity
  8
0
100
AcDbBlockBegin
  2
block 29
 70
     0
 10
0.0
 20
0.0
 30
0.0
  3
block 29
  1

  0
POLYLINE
  5
1BE
330
1BA
100
AcDbEntity
  8
Layer 1
 62
   178
420
    65793
370
    25
100
AcDb2dPolyline
 66
     1
 10
0.0
 20
0.0
 30
0.0
  0
VERTEX
  5
1BF
330
1BE
100
AcDbEntity
  8
Layer 1
 62
   178
420
    65793
370
    25
100
AcDbVertex
100
AcDb2dVertex
 10
153.2179038715609
 20
169.1242500680952
 30
0.0
  0
VERTEX
  5
1C0
330
1BE
100
AcDbEntity
  8
Layer 1
 62
   178
420
    65793
370
    25
100
AcDbVertex
100
AcDb2dVertex
 10
167.2179030799551
 20
169.1242500680952
 30
0.0
  0
VERTEX
  5
1C1
330
1BE
100
AcDbEntity
  8
Layer 1
 62
   178
420
    65793
370
    25
100
AcDbVertex
100
AcDb2dVertex
 10
167.2179030799551
 20
183.1242492764893
 30
0.0
  0
VERTEX
  5
1C2
330
1BE
100
AcDbEntity
  8
Layer 1
 62
   178
420
    65793
370
    25
100
AcDbVertex
100
AcDb2dVertex
 10
153.2179038715609
 20
183.1242492764893
 30
0.0
  0
VERTEX
  5
1C3
330
1BE
100
AcDbEntity
  8
Layer 1
 62
   178
420
    65793
370
    25
100
AcDbVertex
100
AcDb2dVertex
 10
153.2179038715609
 20
169.1242500680952
 30
0.0
  0
SEQEND
  5
1C4
330
1BE
100
AcDbEntity
  8
Layer 1
 62
   178
420
    65793
370
    25
  0
ENDBLK
  5
1BD
330
1BA
100
AcDbEntity
  8
0
100
AcDbBlockEnd
  0
BLOCK
  5
1C7
330
1C5
100
AcDbEntity
  8
0
100
AcDbBlockBegin
  2
block 30
 70
     0
 10
0.0
 20
0.0
 30
0.0
  3
block 30
  1

  0
POLYLINE
  5
1C9
330
1C5
100
AcDbEntity
  8
Layer 1
 62
   178
420
    65793
370
    25
100
AcDb2dPolyline
 66
     1
 10
0.0
 20
0.0
 30
0.0
  0
VERTEX
  5
1CA
330
1C9
100
AcDbEntity
  8
Layer 1
 62
   178
420
    65793
370
    25
100
AcDbVertex
100
AcDb2dVertex
 10
172.267890587381
 20
169.1242500680952
 30
0.0
  0
VERTEX
  5
1CB
330
1C9
100
AcDbEntity
  8
Layer 1
 62
   178
420
    65793
370
    25
100
AcDbVertex
100
AcDb2dVertex
 10
186.2678897957751
 20
169.1242500680952
 30
0.0
  0
VERTEX
  5
1CC
330
1C9
100
AcDbEntity
  8
Layer 1
 62
   178
420
    65793
370
    25
100
AcDbVertex
100
AcDb2dVertex
 10
186.2678897957751
 20
183.1242492764893
 30
0.0
  0
VERTEX
  5
1CD
330
1C9
100
AcDbEntity
  8
Layer 1
 62
   178
420
    65793
370
    25
100
AcDbVertex
100
AcDb2dVertex
 10
172.267890587381
 20
183.1242492764893
 30
0.0
  0
VERTEX
  5
1CE
330
1C9
100
AcDbEntity
  8
Layer 1
 62
   178
420
    65793
370
    25
100
AcDbVertex
100
AcDb2dVertex
 10
172.267890587381
 20
169.1242500680952
 30
0.0
  0
SEQEND
  5
1CF
330
1C9
100
AcDbEntity
  8
Layer 1
 62
   178
420
    65793
370
    25
  0
ENDBLK
  5
1C8
330
1C5
100
AcDbEntity
  8
0
100
AcDbBlockEnd
  0
BLOCK
  5
1D2
330
1D0
100
AcDbEntity
  8
0
100
AcDbBlockBegin
  2
block 31
 70
     0
 10
0.0
 20
0.0
 30
0.0
  3
block 31
  1

  0
POLYLINE
  5
1D4
330
1D0
100
AcDbEntity
  8
Layer 1
 62
   178
420
    65793
370
    25
100
AcDb2dPolyline
 66
     1
 10
0.0
 20
0.0
 30
0.0
  0
VERTEX
  5
1D5
330
1D4
100
AcDbEntity
  8
Layer 1
 62
   178
420
    65793
370
    25
100
AcDbVertex
100
AcDb2dVertex
 10
67.49290261521794
 20
150.0742519081836
 30
0.0
  0
VERTEX
  5
1D6
330
1D4
100
AcDbEntity
  8
Layer 1
 62
   178
420
    65793
370
    25
100
AcDbVertex
100
AcDb2dVertex
 10
81.49290182361209
 20
150.0742519081836
 30
0.0
  0
VERTEX
  5
1D7
330
1D4
100
AcDbEntity
  8
Layer 1
 62
   178
420
    65793
370
    25
100
AcDbVertex
100
AcDb2dVertex
 10
81.49290182361209
 20
164.0742511165778
 30
0.0
  0
VERTEX
  5
1D8
330
1D4
100
AcDbEntity
  8
Layer 1
 62
   178
420
    65793
370
    25
100
AcDbVertex
100
AcDb2dVertex
 10
67.49290261521794
 20
164.0742511165778
 30
0.0
  0
VERTEX
  5
1D9
330
1D4
100
AcDbEntity
  8
Layer 1
 62
   178
420
    65793
370
    25
100
AcDbVertex
100
AcDb2dVertex
 10
67.49290261521794
 20
150.0742519081836
 30
0.0
  0
SEQEND
  5
1DA
330
1D4
100
AcDbEntity
  8
Layer 1
 62
   178
420
    65793
370
    25
  0
ENDBLK
  5
1D3
330
1D0
100
AcDbEntity
  8
0
100
AcDbBlockEnd
  0
BLOCK
  5
1DD
330
1DB
100
AcDbEntity
  8
0
100
AcDbBlockBegin
  2
block 32
 70
     0
 10
0.0
 20
0.0
 30
0.0
  3
block 32
  1

  0
POLYLINE
  5
1DF
330
1DB
100
AcDbEntity
  8
Layer 1
 62
   178
420
    65793
370
    25
100
AcDb2dPolyline
 66
     1
 10
0.0
 20
0.0
 30
0.0
  0
VERTEX
  5
1E0
330
1DF
100
AcDbEntity
  8
Layer 1
 62
   178
420
    65793
370
    25
100
AcDbVertex
100
AcDb2dVertex
 10
86.54290458982618
 20
150.0742519081836
 30
0.0
  0
VERTEX
  5
1E1
330
1DF
100
AcDbEntity
  8
Layer 1
 62
   178
420
    65793
370
    25
100
AcDbVertex
100
AcDb2dVertex
 10
100.5429037982203
 20
150.0742519081836
 30
0.0
  0
VERTEX
  5
1E2
330
1DF
100
AcDbEntity
  8
Layer 1
 62
   178
420
    65793
370
    25
100
AcDbVertex
100
AcDb2dVertex
 10
100.5429037982203
 20
164.0742511165778
 30
0.0
  0
VERTEX
  5
1E3
330
1DF
100
AcDbEntity
  8
Layer 1
 62
   178
420
    65793
370
    25
100
AcDbVertex
100
AcDb2dVertex
 10
86.54290458982618
 20
164.0742511165778
 30
0.0
  0
VERTEX
  5
1E4
330
1DF
100
AcDbEntity
  8
Layer 1
 62
   178
420
    65793
370
    25
100
AcDbVertex
100
AcDb2dVertex
 10
86.54290458982618
 20
150.0742519081836
 30
0.0
  0
SEQEND
  5
1E5
330
1DF
100
AcDbEntity
  8
Layer 1
 62
   178
420
    65793
370
    25
  0
ENDBLK
  5
1DE
330
1DB
100
AcDbEntity
  8
0
100
AcDbBlockEnd
  0
BLOCK
  5
1E8
330
1E6
100
AcDbEntity
  8
0
100
AcDbBlockBegin
  2
block 33
 70
     0
 10
0.0
 20
0.0
 30
0.0
  3
block 33
  1

  0
POLYLINE
  5
1EA
330
1E6
100
AcDbEntity
  8
Layer 1
 62
   178
420
    65793
370
    25
100
AcDb2dPolyline
 66
     1
 10
0.0
 20
0.0
 30
0.0
  0
VERTEX
  5
1EB
330
1EA
100
AcDbEntity
  8
Layer 1
 62
   178
420
    65793
370
    25
100
AcDbVertex
100
AcDb2dVertex
 10
105.5929065644344
 20
150.0742519081836
 30
0.0
  0
VERTEX
  5
1EC
330
1EA
100
AcDbEntity
  8
Layer 1
 62
   178
420
    65793
370
    25
100
AcDbVertex
100
AcDb2dVertex
 10
119.5929057728286
 20
150.0742519081836
 30
0.0
  0
VERTEX
  5
1ED
330
1EA
100
AcDbEntity
  8
Layer 1
 62
   178
420
    65793
370
    25
100
AcDbVertex
100
AcDb2dVertex
 10
119.5929057728286
 20
164.0742511165778
 30
0.0
  0
VERTEX
  5
1EE
330
1EA
100
AcDbEntity
  8
Layer 1
 62
   178
420
    65793
370
    25
100
AcDbVertex
100
AcDb2dVertex
 10
105.5929065644344
 20
164.0742511165778
 30
0.0
  0
VERTEX
  5
1EF
330
1EA
100
AcDbEntity
  8
Layer 1
 62
   178
420
    65793
370
    25
100
AcDbVertex
100
AcDb2dVertex
 10
105.5929065644344
 20
150.0742519081836
 30
0.0
  0
SEQEND
  5
1F0
330
1EA
100
AcDbEntity
  8
Layer 1
 62
   178
420
    65793
370
    25
  0
ENDBLK
  5
1E9
330
1E6
100
AcDbEntity
  8
0
100
AcDbBlockEnd
  0
BLOCK
  5
1F3
330
1F1
100
AcDbEntity
  8
0
100
AcDbBlockBegin
  2
block 34
 70
     0
 10
0.0
 20
0.0
 30
0.0
  3
block 34
  1

  0
POLYLINE
  5
1F5
330
1F1
100
AcDbEntity
  8
Layer 1
 62
   178
420
    65793
370
    25
100
AcDb2dPolyline
 66
     1
 10
0.0
 20
0.0
 30
0.0
  0
VERTEX
  5
1F6
330
1F5
100
AcDbEntity
  8
Layer 1
 62
   178
420
    65793
370
    25
100
AcDbVertex
100
AcDb2dVertex
 10
124.6428932802545
 20
150.0742519081836
 30
0.0
  0
VERTEX
  5
1F7
330
1F5
100
AcDbEntity
  8
Layer 1
 62
   178
420
    65793
370
    25
100
AcDbVertex
100
AcDb2dVertex
 10
138.6428924886486
 20
150.0742519081836
 30
0.0
  0
VERTEX
  5
1F8
330
1F5
100
AcDbEntity
  8
Layer 1
 62
   178
420
    65793
370
    25
100
AcDbVertex
100
AcDb2dVertex
 10
138.6428924886486
 20
164.0742511165778
 30
0.0
  0
VERTEX
  5
1F9
330
1F5
100
AcDbEntity
  8
Layer 1
 62
   178
420
    65793
370
    25
100
AcDbVertex
100
AcDb2dVertex
 10
124.6428932802545
 20
164.0742511165778
 30
0.0
  0
VERTEX
  5
1FA
330
1F5
100
AcDbEntity
  8
Layer 1
 62
   178
420
    65793
370
    25
100
AcDbVertex
100
AcDb2dVertex
 10
124.6428932802545
 20
150.0742519081836
 30
0.0
  0
SEQEND
  5
1FB
330
1F5
100
AcDbEntity
  8
Layer 1
 62
   178
420
    65793
370
    25
  0
ENDBLK
  5
1F4
330
1F1
100
AcDbEntity
  8
0
100
AcDbBlockEnd
  0
BLOCK
  5
1FE
330
1FC
100
AcDbEntity
  8
0
100
AcDbBlockBegin
  2
block 35
 70
     0
 10
0.0
 20
0.0
 30
0.0
  3
block 35
  1

  0
POLYLINE
  5
200
330
1FC
100
AcDbEntity
  8
Layer 1
 62
   178
420
    65793
370
    25
100
AcDb2dPolyline
 66
     1
 10
0.0
 20
0.0
 30
0.0
  0
VERTEX
  5
201
330
200
100
AcDbEntity
  8
Layer 1
 62
   178
420
    65793
370
    25
100
AcDbVertex
100
AcDb2dVertex
 10
143.6929105136509
 20
150.0742519081836
 30
0.0
  0
VERTEX
  5
202
330
200
100
AcDbEntity
  8
Layer 1
 62
   178
420
    65793
370
    25
100
AcDbVertex
100
AcDb2dVertex
 10
157.692909722045
 20
150.0742519081836
 30
0.0
  0
VERTEX
  5
203
330
200
100
AcDbEntity
  8
Layer 1
 62
   178
420
    65793
370
    25
100
AcDbVertex
100
AcDb2dVertex
 10
157.692909722045
 20
164.0742511165778
 30
0.0
  0
VERTEX
  5
204
330
200
100
AcDbEntity
  8
Layer 1
 62
   178
420
    65793
370
    25
100
AcDbVertex
100
AcDb2dVertex
 10
143.6929105136509
 20
164.0742511165778
 30
0.0
  0
VERTEX
  5
205
330
200
100
AcDbEntity
  8
Layer 1
 62
   178
420
    65793
370
    25
100
AcDbVertex
100
AcDb2dVertex
 10
143.6929105136509
 20
150.0742519081836
 30
0.0
  0
SEQEND
  5
206
330
200
100
AcDbEntity
  8
Layer 1
 62
   178
420
    65793
370
    25
  0
ENDBLK
  5
1FF
330
1FC
100
AcDbEntity
  8
0
100
AcDbBlockEnd
  0
BLOCK
  5
209
330
207
100
AcDbEntity
  8
0
100
AcDbBlockBegin
  2
block 36
 70
     0
 10
0.0
 20
0.0
 30
0.0
  3
block 36
  1

  0
POLYLINE
  5
20B
330
207
100
AcDbEntity
  8
Layer 1
 62
   178
420
    65793
370
    25
100
AcDb2dPolyline
 66
     1
 10
0.0
 20
0.0
 30
0.0
  0
VERTEX
  5
20C
330
20B
100
AcDbEntity
  8
Layer 1
 62
   178
420
    65793
370
    25
100
AcDbVertex
100
AcDb2dVertex
 10
162.7428972294709
 20
150.0742519081836
 30
0.0
  0
VERTEX
  5
20D
330
20B
100
AcDbEntity
  8
Layer 1
 62
   178
420
    65793
370
    25
100
AcDbVertex
100
AcDb2dVertex
 10
176.7428964378651
 20
150.0742519081836
 30
0.0
  0
VERTEX
  5
20E
330
20B
100
AcDbEntity
  8
Layer 1
 62
   178
420
    65793
370
    25
100
AcDbVertex
100
AcDb2dVertex
 10
176.7428964378651
 20
164.0742511165778
 30
0.0
  0
VERTEX
  5
20F
330
20B
100
AcDbEntity
  8
Layer 1
 62
   178
420
    65793
370
    25
100
AcDbVertex
100
AcDb2dVertex
 10
162.7428972294709
 20
164.0742511165778
 30
0.0
  0
VERTEX
  5
210
330
20B
100
AcDbEntity
  8
Layer 1
 62
   178
420
    65793
370
    25
100
AcDbVertex
100
AcDb2dVertex
 10
162.7428972294709
 20
150.0742519081836
 30
0.0
  0
SEQEND
  5
211
330
20B
100
AcDbEntity
  8
Layer 1
 62
   178
420
    65793
370
    25
  0
ENDBLK
  5
20A
330
207
100
AcDbEntity
  8
0
100
AcDbBlockEnd
  0
BLOCK
  5
214
330
212
100
AcDbEntity
  8
0
100
AcDbBlockBegin
  2
block 37
 70
     0
 10
0.0
 20
0.0
 30
0.0
  3
block 37
  1

  0
POLYLINE
  5
216
330
212
100
AcDbEntity
  8
Layer 1
 62
   178
420
    65793
370
    25
100
AcDb2dPolyline
 66
     1
 10
0.0
 20
0.0
 30
0.0
  0
VERTEX
  5
217
330
216
100
AcDbEntity
  8
Layer 1
 62
   178
420
    65793
370
    25
100
AcDbVertex
100
AcDb2dVertex
 10
181.7929144628674
 20
150.0742519081836
 30
0.0
  0
VERTEX
  5
218
330
216
100
AcDbEntity
  8
Layer 1
 62
   178
420
    65793
370
    25
100
AcDbVertex
100
AcDb2dVertex
 10
195.7929136712615
 20
150.0742519081836
 30
0.0
  0
VERTEX
  5
219
330
216
100
AcDbEntity
  8
Layer 1
 62
   178
420
    65793
370
    25
100
AcDbVertex
100
AcDb2dVertex
 10
195.7929136712615
 20
164.0742511165778
 30
0.0
  0
VERTEX
  5
21A
330
216
100
AcDbEntity
  8
Layer 1
 62
   178
420
    65793
370
    25
100
AcDbVertex
100
AcDb2dVertex
 10
181.7929144628674
 20
164.0742511165778
 30
0.0
  0
VERTEX
  5
21B
330
216
100
AcDbEntity
  8
Layer 1
 62
   178
420
    65793
370
    25
100
AcDbVertex
100
AcDb2dVertex
 10
181.7929144628674
 20
150.0742519081836
 30
0.0
  0
SEQEND
  5
21C
330
216
100
AcDbEntity
  8
Layer 1
 62
   178
420
    65793
370
    25
  0
ENDBLK
  5
215
330
212
100
AcDbEntity
  8
0
100
AcDbBlockEnd
  0
BLOCK
  5
21F
330
21D
100
AcDbEntity
  8
0
100
AcDbBlockBegin
  2
block 38
 70
     0
 10
0.0
 20
0.0
 30
0.0
  3
block 38
  1

  0
POLYLINE
  5
221
330
21D
100
AcDbEntity
  8
Layer 1
 62
   178
420
    65793
370
    25
100
AcDb2dPolyline
 66
     1
 10
0.0
 20
0.0
 30
0.0
  0
VERTEX
  5
222
330
221
100
AcDbEntity
  8
Layer 1
 62
   178
420
    65793
370
    25
100
AcDbVertex
100
AcDb2dVertex
 10
72.25541455296116
 20
131.0242537482728
 30
0.0
  0
VERTEX
  5
223
330
221
100
AcDbEntity
  8
Layer 1
 62
   178
420
    65793
370
    25
100
AcDbVertex
100
AcDb2dVertex
 10
86.2554137613553
 20
131.0242537482728
 30
0.0
  0
VERTEX
  5
224
330
221
100
AcDbEntity
  8
Layer 1
 62
   178
420
    65793
370
    25
100
AcDbVertex
100
AcDb2dVertex
 10
86.2554137613553
 20
145.0242529566669
 30
0.0
  0
VERTEX
  5
225
330
221
100
AcDbEntity
  8
Layer 1
 62
   178
420
    65793
370
    25
100
AcDbVertex
100
AcDb2dVertex
 10
72.25541455296116
 20
145.0242529566669
 30
0.0
  0
VERTEX
  5
226
330
221
100
AcDbEntity
  8
Layer 1
 62
   178
420
    65793
370
    25
100
AcDbVertex
100
AcDb2dVertex
 10
72.25541455296116
 20
131.0242537482728
 30
0.0
  0
SEQEND
  5
227
330
221
100
AcDbEntity
  8
Layer 1
 62
   178
420
    65793
370
    25
  0
ENDBLK
  5
220
330
21D
100
AcDbEntity
  8
0
100
AcDbBlockEnd
  0
BLOCK
  5
22A
330
228
100
AcDbEntity
  8
0
100
AcDbBlockBegin
  2
block 39
 70
     0
 10
0.0
 20
0.0
 30
0.0
  3
block 39
  1

  0
POLYLINE
  5
22C
330
228
100
AcDbEntity
  8
Layer 1
 62
   178
420
    65793
370
    25
100
AcDb2dPolyline
 66
     1
 10
0.0
 20
0.0
 30
0.0
  0
VERTEX
  5
22D
330
22C
100
AcDbEntity
  8
Layer 1
 62
   178
420
    65793
370
    25
100
AcDbVertex
100
AcDb2dVertex
 10
91.3054012687812
 20
131.0242537482728
 30
0.0
  0
VERTEX
  5
22E
330
22C
100
AcDbEntity
  8
Layer 1
 62
   178
420
    65793
370
    25
100
AcDbVertex
100
AcDb2dVertex
 10
105.3054004771753
 20
131.0242537482728
 30
0.0
  0
VERTEX
  5
22F
330
22C
100
AcDbEntity
  8
Layer 1
 62
   178
420
    65793
370
    25
100
AcDbVertex
100
AcDb2dVertex
 10
105.3054004771753
 20
145.0242529566669
 30
0.0
  0
VERTEX
  5
230
330
22C
100
AcDbEntity
  8
Layer 1
 62
   178
420
    65793
370
    25
100
AcDbVertex
100
AcDb2dVertex
 10
91.3054012687812
 20
145.0242529566669
 30
0.0
  0
VERTEX
  5
231
330
22C
100
AcDbEntity
  8
Layer 1
 62
   178
420
    65793
370
    25
100
AcDbVertex
100
AcDb2dVertex
 10
91.3054012687812
 20
131.0242537482728
 30
0.0
  0
SEQEND
  5
232
330
22C
100
AcDbEntity
  8
Layer 1
 62
   178
420
    65793
370
    25
  0
ENDBLK
  5
22B
330
228
100
AcDbEntity
  8
0
100
AcDbBlockEnd
  0
BLOCK
  5
235
330
233
100
AcDbEntity
  8
0
100
AcDbBlockBegin
  2
block 40
 70
     0
 10
0.0
 20
0.0
 30
0.0
  3
block 40
  1

  0
POLYLINE
  5
237
330
233
100
AcDbEntity
  8
Layer 1
 62
   178
420
    65793
370
    25
100
AcDb2dPolyline
 66
     1
 10
0.0
 20
0.0
 30
0.0
  0
VERTEX
  5
238
330
237
100
AcDbEntity
  8
Layer 1
 62
   178
420
    65793
370
    25
100
AcDbVertex
100
AcDb2dVertex
 10
110.3554032433894
 20
131.0242537482728
 30
0.0
  0
VERTEX
  5
239
330
237
100
AcDbEntity
  8
Layer 1
 62
   178
420
    65793
370
    25
100
AcDbVertex
100
AcDb2dVertex
 10
124.3554177105718
 20
131.0242537482728
 30
0.0
  0
VERTEX
  5
23A
330
237
100
AcDbEntity
  8
Layer 1
 62
   178
420
    65793
370
    25
100
AcDbVertex
100
AcDb2dVertex
 10
124.3554177105718
 20
145.0242529566669
 30
0.0
  0
VERTEX
  5
23B
330
237
100
AcDbEntity
  8
Layer 1
 62
   178
420
    65793
370
    25
100
AcDbVertex
100
AcDb2dVertex
 10
110.3554032433894
 20
145.0242529566669
 30
0.0
  0
VERTEX
  5
23C
330
237
100
AcDbEntity
  8
Layer 1
 62
   178
420
    65793
370
    25
100
AcDbVertex
100
AcDb2dVertex
 10
110.3554032433894
 20
131.0242537482728
 30
0.0
  0
SEQEND
  5
23D
330
237
100
AcDbEntity
  8
Layer 1
 62
   178
420
    65793
370
    25
  0
ENDBLK
  5
236
330
233
100
AcDbEntity
  8
0
100
AcDbBlockEnd
  0
BLOCK
  5
240
330
23E
100
AcDbEntity
  8
0
100
AcDbBlockBegin
  2
block 41
 70
     0
 10
0.0
 20
0.0
 30
0.0
  3
block 41
  1

  0
POLYLINE
  5
242
330
23E
100
AcDbEntity
  8
Layer 1
 62
   178
420
    65793
370
    25
100
AcDb2dPolyline
 66
     1
 10
0.0
 20
0.0
 30
0.0
  0
VERTEX
  5
243
330
242
100
AcDbEntity
  8
Layer 1
 62
   178
420
    65793
370
    25
100
AcDbVertex
100
AcDb2dVertex
 10
129.4054052179977
 20
131.0242537482728
 30
0.0
  0
VERTEX
  5
244
330
242
100
AcDbEntity
  8
Layer 1
 62
   178
420
    65793
370
    25
100
AcDbVertex
100
AcDb2dVertex
 10
143.4054044263918
 20
131.0242537482728
 30
0.0
  0
VERTEX
  5
245
330
242
100
AcDbEntity
  8
Layer 1
 62
   178
420
    65793
370
    25
100
AcDbVertex
100
AcDb2dVertex
 10
143.4054044263918
 20
145.0242529566669
 30
0.0
  0
VERTEX
  5
246
330
242
100
AcDbEntity
  8
Layer 1
 62
   178
420
    65793
370
    25
100
AcDbVertex
100
AcDb2dVertex
 10
129.4054052179977
 20
145.0242529566669
 30
0.0
  0
VERTEX
  5
247
330
242
100
AcDbEntity
  8
Layer 1
 62
   178
420
    65793
370
    25
100
AcDbVertex
100
AcDb2dVertex
 10
129.4054052179977
 20
131.0242537482728
 30
0.0
  0
SEQEND
  5
248
330
242
100
AcDbEntity
  8
Layer 1
 62
   178
420
    65793
370
    25
  0
ENDBLK
  5
241
330
23E
100
AcDbEntity
  8
0
100
AcDbBlockEnd
  0
BLOCK
  5
24B
330
249
100
AcDbEntity
  8
0
100
AcDbBlockBegin
  2
block 42
 70
     0
 10
0.0
 20
0.0
 30
0.0
  3
block 42
  1

  0
POLYLINE
  5
24D
330
249
100
AcDbEntity
  8
Layer 1
 62
   178
420
    65793
370
    25
100
AcDb2dPolyline
 66
     1
 10
0.0
 20
0.0
 30
0.0
  0
VERTEX
  5
24E
330
24D
100
AcDbEntity
  8
Layer 1
 62
   178
420
    65793
370
    25
100
AcDbVertex
100
AcDb2dVertex
 10
148.4553919338177
 20
131.0242537482728
 30
0.0
  0
VERTEX
  5
24F
330
24D
100
AcDbEntity
  8
Layer 1
 62
   178
420
    65793
370
    25
100
AcDbVertex
100
AcDb2dVertex
 10
162.4553911422119
 20
131.0242537482728
 30
0.0
  0
VERTEX
  5
250
330
24D
100
AcDbEntity
  8
Layer 1
 62
   178
420
    65793
370
    25
100
AcDbVertex
100
AcDb2dVertex
 10
162.4553911422119
 20
145.0242529566669
 30
0.0
  0
VERTEX
  5
251
330
24D
100
AcDbEntity
  8
Layer 1
 62
   178
420
    65793
370
    25
100
AcDbVertex
100
AcDb2dVertex
 10
148.4553919338177
 20
145.0242529566669
 30
0.0
  0
VERTEX
  5
252
330
24D
100
AcDbEntity
  8
Layer 1
 62
   178
420
    65793
370
    25
100
AcDbVertex
100
AcDb2dVertex
 10
148.4553919338177
 20
131.0242537482728
 30
0.0
  0
SEQEND
  5
253
330
24D
100
AcDbEntity
  8
Layer 1
 62
   178
420
    65793
370
    25
  0
ENDBLK
  5
24C
330
249
100
AcDbEntity
  8
0
100
AcDbBlockEnd
  0
BLOCK
  5
256
330
254
100
AcDbEntity
  8
0
100
AcDbBlockBegin
  2
block 43
 70
     0
 10
0.0
 20
0.0
 30
0.0
  3
block 43
  1

  0
POLYLINE
  5
258
330
254
100
AcDbEntity
  8
Layer 1
 62
   178
420
    65793
370
    25
100
AcDb2dPolyline
 66
     1
 10
0.0
 20
0.0
 30
0.0
  0
VERTEX
  5
259
330
258
100
AcDbEntity
  8
Layer 1
 62
   178
420
    65793
370
    25
100
AcDbVertex
100
AcDb2dVertex
 10
167.5054091672142
 20
131.0242537482728
 30
0.0
  0
VERTEX
  5
25A
330
258
100
AcDbEntity
  8
Layer 1
 62
   178
420
    65793
370
    25
100
AcDbVertex
100
AcDb2dVertex
 10
181.5054083756083
 20
131.0242537482728
 30
0.0
  0
VERTEX
  5
25B
330
258
100
AcDbEntity
  8
Layer 1
 62
   178
420
    65793
370
    25
100
AcDbVertex
100
AcDb2dVertex
 10
181.5054083756083
 20
145.0242529566669
 30
0.0
  0
VERTEX
  5
25C
330
258
100
AcDbEntity
  8
Layer 1
 62
   178
420
    65793
370
    25
100
AcDbVertex
100
AcDb2dVertex
 10
167.5054091672142
 20
145.0242529566669
 30
0.0
  0
VERTEX
  5
25D
330
258
100
AcDbEntity
  8
Layer 1
 62
   178
420
    65793
370
    25
100
AcDbVertex
100
AcDb2dVertex
 10
167.5054091672142
 20
131.0242537482728
 30
0.0
  0
SEQEND
  5
25E
330
258
100
AcDbEntity
  8
Layer 1
 62
   178
420
    65793
370
    25
  0
ENDBLK
  5
257
330
254
100
AcDbEntity
  8
0
100
AcDbBlockEnd
  0
BLOCK
  5
261
330
25F
100
AcDbEntity
  8
0
100
AcDbBlockBegin
  2
block 44
 70
     0
 10
0.0
 20
0.0
 30
0.0
  3
block 44
  1

  0
POLYLINE
  5
263
330
25F
100
AcDbEntity
  8
Layer 1
 62
   178
420
    65793
370
    25
100
AcDb2dPolyline
 66
     1
 10
0.0
 20
0.0
 30
0.0
  0
VERTEX
  5
264
330
263
100
AcDbEntity
  8
Layer 1
 62
   178
420
    65793
370
    25
100
AcDbVertex
100
AcDb2dVertex
 10
81.78040791087118
 20
111.9742517736645
 30
0.0
  0
VERTEX
  5
265
330
263
100
AcDbEntity
  8
Layer 1
 62
   178
420
    65793
370
    25
100
AcDbVertex
100
AcDb2dVertex
 10
95.78040711926532
 20
111.9742517736645
 30
0.0
  0
VERTEX
  5
266
330
263
100
AcDbEntity
  8
Layer 1
 62
   178
420
    65793
370
    25
100
AcDbVertex
100
AcDb2dVertex
 10
95.78040711926532
 20
125.9742509820587
 30
0.0
  0
VERTEX
  5
267
330
263
100
AcDbEntity
  8
Layer 1
 62
   178
420
    65793
370
    25
100
AcDbVertex
100
AcDb2dVertex
 10
81.78040791087118
 20
125.9742509820587
 30
0.0
  0
VERTEX
  5
268
330
263
100
AcDbEntity
  8
Layer 1
 62
   178
420
    65793
370
    25
100
AcDbVertex
100
AcDb2dVertex
 10
81.78040791087118
 20
111.9742517736645
 30
0.0
  0
SEQEND
  5
269
330
263
100
AcDbEntity
  8
Layer 1
 62
   178
420
    65793
370
    25
  0
ENDBLK
  5
262
330
25F
100
AcDbEntity
  8
0
100
AcDbBlockEnd
  0
BLOCK
  5
26C
330
26A
100
AcDbEntity
  8
0
100
AcDbBlockBegin
  2
block 45
 70
     0
 10
0.0
 20
0.0
 30
0.0
  3
block 45
  1

  0
POLYLINE
  5
26E
330
26A
100
AcDbEntity
  8
Layer 1
 62
   178
420
    65793
370
    25
100
AcDb2dPolyline
 66
     1
 10
0.0
 20
0.0
 30
0.0
  0
VERTEX
  5
26F
330
26E
100
AcDbEntity
  8
Layer 1
 62
   178
420
    65793
370
    25
100
AcDbVertex
100
AcDb2dVertex
 10
100.8304098854794
 20
111.9742517736645
 30
0.0
  0
VERTEX
  5
270
330
26E
100
AcDbEntity
  8
Layer 1
 62
   178
420
    65793
370
    25
100
AcDbVertex
100
AcDb2dVertex
 10
114.8304090938736
 20
111.9742517736645
 30
0.0
  0
VERTEX
  5
271
330
26E
100
AcDbEntity
  8
Layer 1
 62
   178
420
    65793
370
    25
100
AcDbVertex
100
AcDb2dVertex
 10
114.8304090938736
 20
125.9742509820587
 30
0.0
  0
VERTEX
  5
272
330
26E
100
AcDbEntity
  8
Layer 1
 62
   178
420
    65793
370
    25
100
AcDbVertex
100
AcDb2dVertex
 10
100.8304098854794
 20
125.9742509820587
 30
0.0
  0
VERTEX
  5
273
330
26E
100
AcDbEntity
  8
Layer 1
 62
   178
420
    65793
370
    25
100
AcDbVertex
100
AcDb2dVertex
 10
100.8304098854794
 20
111.9742517736645
 30
0.0
  0
SEQEND
  5
274
330
26E
100
AcDbEntity
  8
Layer 1
 62
   178
420
    65793
370
    25
  0
ENDBLK
  5
26D
330
26A
100
AcDbEntity
  8
0
100
AcDbBlockEnd
  0
BLOCK
  5
277
330
275
100
AcDbEntity
  8
0
100
AcDbBlockBegin
  2
block 46
 70
     0
 10
0.0
 20
0.0
 30
0.0
  3
block 46
  1

  0
POLYLINE
  5
279
330
275
100
AcDbEntity
  8
Layer 1
 62
   178
420
    65793
370
    25
100
AcDb2dPolyline
 66
     1
 10
0.0
 20
0.0
 30
0.0
  0
VERTEX
  5
27A
330
279
100
AcDbEntity
  8
Layer 1
 62
   178
420
    65793
370
    25
100
AcDbVertex
100
AcDb2dVertex
 10
119.8804118600877
 20
111.9742517736645
 30
0.0
  0
VERTEX
  5
27B
330
279
100
AcDbEntity
  8
Layer 1
 62
   178
420
    65793
370
    25
100
AcDbVertex
100
AcDb2dVertex
 10
133.8804110684818
 20
111.9742517736645
 30
0.0
  0
VERTEX
  5
27C
330
279
100
AcDbEntity
  8
Layer 1
 62
   178
420
    65793
370
    25
100
AcDbVertex
100
AcDb2dVertex
 10
133.8804110684818
 20
125.9742509820587
 30
0.0
  0
VERTEX
  5
27D
330
279
100
AcDbEntity
  8
Layer 1
 62
   178
420
    65793
370
    25
100
AcDbVertex
100
AcDb2dVertex
 10
119.8804118600877
 20
125.9742509820587
 30
0.0
  0
VERTEX
  5
27E
330
279
100
AcDbEntity
  8
Layer 1
 62
   178
420
    65793
370
    25
100
AcDbVertex
100
AcDb2dVertex
 10
119.8804118600877
 20
111.9742517736645
 30
0.0
  0
SEQEND
  5
27F
330
279
100
AcDbEntity
  8
Layer 1
 62
   178
420
    65793
370
    25
  0
ENDBLK
  5
278
330
275
100
AcDbEntity
  8
0
100
AcDbBlockEnd
  0
BLOCK
  5
282
330
280
100
AcDbEntity
  8
0
100
AcDbBlockBegin
  2
block 47
 70
     0
 10
0.0
 20
0.0
 30
0.0
  3
block 47
  1

  0
POLYLINE
  5
284
330
280
100
AcDbEntity
  8
Layer 1
 62
   178
420
    65793
370
    25
100
AcDb2dPolyline
 66
     1
 10
0.0
 20
0.0
 30
0.0
  0
VERTEX
  5
285
330
284
100
AcDbEntity
  8
Layer 1
 62
   178
420
    65793
370
    25
100
AcDbVertex
100
AcDb2dVertex
 10
138.9303985759077
 20
111.9742517736645
 30
0.0
  0
VERTEX
  5
286
330
284
100
AcDbEntity
  8
Layer 1
 62
   178
420
    65793
370
    25
100
AcDbVertex
100
AcDb2dVertex
 10
152.9303977843018
 20
111.9742517736645
 30
0.0
  0
VERTEX
  5
287
330
284
100
AcDbEntity
  8
Layer 1
 62
   178
420
    65793
370
    25
100
AcDbVertex
100
AcDb2dVertex
 10
152.9303977843018
 20
125.9742509820587
 30
0.0
  0
VERTEX
  5
288
330
284
100
AcDbEntity
  8
Layer 1
 62
   178
420
    65793
370
    25
100
AcDbVertex
100
AcDb2dVertex
 10
138.9303985759077
 20
125.9742509820587
 30
0.0
  0
VERTEX
  5
289
330
284
100
AcDbEntity
  8
Layer 1
 62
   178
420
    65793
370
    25
100
AcDbVertex
100
AcDb2dVertex
 10
138.9303985759077
 20
111.9742517736645
 30
0.0
  0
SEQEND
  5
28A
330
284
100
AcDbEntity
  8
Layer 1
 62
   178
420
    65793
370
    25
  0
ENDBLK
  5
283
330
280
100
AcDbEntity
  8
0
100
AcDbBlockEnd
  0
ENDSEC
  0
SECTION
  2
ENTITIES
  0
INSERT
  5
42
330
1F
100
AcDbEntity
  8
Layer 1
100
AcDbBlockReference
  2
block 2
 10
0.0
 20
0.0
 30
0.0
  0
INSERT
  5
47
330
1F
100
AcDbEntity
  8
Layer 1
100
AcDbBlockReference
  2
block 3
 10
0.0
 20
0.0
 30
0.0
  0
INSERT
  5
4C
330
1F
100
AcDbEntity
  8
Layer 1
100
AcDbBlockReference
  2
block 4
 10
0.0
 20
0.0
 30
0.0
  0
INSERT
  5
51
330
1F
100
AcDbEntity
  8
Layer 1
100
AcDbBlockReference
  2
block 5
 10
0.0
 20
0.0
 30
0.0
  0
INSERT
  5
56
330
1F
100
AcDbEntity
  8
Layer 1
100
AcDbBlockReference
  2
block 6
 10
0.0
 20
0.0
 30
0.0
  0
INSERT
  5
5B
330
1F
100
AcDbEntity
  8
Layer 1
100
AcDbBlockReference
  2
block 7
 10
0.0
 20
0.0
 30
0.0
  0
INSERT
  5
60
330
1F
100
AcDbEntity
  8
Layer 1
100
AcDbBlockReference
  2
block 8
 10
0.0
 20
0.0
 30
0.0
  0
INSERT
  5
65
330
1F
100
AcDbEntity
  8
Layer 1
100
AcDbBlockReference
  2
block 9
 10
0.0
 20
0.0
 30
0.0
  0
INSERT
  5
6A
330
1F
100
AcDbEntity
  8
Layer 1
100
AcDbBlockReference
  2
block 10
 10
0.0
 20
0.0
 30
0.0
  0
INSERT
  5
6F
330
1F
100
AcDbEntity
  8
Layer 1
100
AcDbBlockReference
  2
block 11
 10
0.0
 20
0.0
 30
0.0
  0
INSERT
  5
74
330
1F
100
AcDbEntity
  8
Layer 1
100
AcDbBlockReference
  2
block 12
 10
0.0
 20
0.0
 30
0.0
  0
INSERT
  5
AA
330
1F
100
AcDbEntity
  8
Layer 1
100
AcDbBlockReference
  2
block 13
 10
0.0
 20
0.0
 30
0.0
  0
INSERT
  5
DD
330
1F
100
AcDbEntity
  8
Layer 1
100
AcDbBlockReference
  2
block 14
 10
0.0
 20
0.0
 30
0.0
  0
INSERT
  5
105
330
1F
100
AcDbEntity
  8
Layer 1
100
AcDbBlockReference
  2
block 15
 10
0.0
 20
0.0
 30
0.0
  0
INSERT
  5
124
330
1F
100
AcDbEntity
  8
Layer 1
100
AcDbBlockReference
  2
block 16
 10
0.0
 20
0.0
 30
0.0
  0
INSERT
  5
133
330
1F
100
AcDbEntity
  8
Layer 1
100
AcDbBlockReference
  2
block 17
 10
0.0
 20
0.0
 30
0.0
  0
INSERT
  5
142
330
1F
100
AcDbEntity
  8
Layer 1
100
AcDbBlockReference
  2
block 18
 10
0.0
 20
0.0
 30
0.0
  0
INSERT
  5
14D
330
1F
100
AcDbEntity
  8
Layer 1
100
AcDbBlockReference
  2
block 19
 10
0.0
 20
0.0
 30
0.0
  0
INSERT
  5
158
330
1F
100
AcDbEntity
  8
Layer 1
100
AcDbBlockReference
  2
block 20
 10
0.0
 20
0.0
 30
0.0
  0
INSERT
  5
163
330
1F
100
AcDbEntity
  8
Layer 1
100
AcDbBlockReference
  2
block 21
 10
0.0
 20
0.0
 30
0.0
  0
INSERT
  5
16E
330
1F
100
AcDbEntity
  8
Layer 1
100
AcDbBlockReference
  2
block 22
 10
0.0
 20
0.0
 30
0.0
  0
INSERT
  5
179
330
1F
100
AcDbEntity
  8
Layer 1
100
AcDbBlockReference
  2
block 23
 10
0.0
 20
0.0
 30
0.0
  0
INSERT
  5
184
330
1F
100
AcDbEntity
  8
Layer 1
100
AcDbBlockReference
  2
block 24
 10
0.0
 20
0.0
 30
0.0
  0
INSERT
  5
18F
330
1F
100
AcDbEntity
  8
Layer 1
100
AcDbBlockReference
  2
block 25
 10
0.0
 20
0.0
 30
0.0
  0
INSERT
  5
19A
330
1F
100
AcDbEntity
  8
Layer 1
100
AcDbBlockReference
  2
block 26
 10
0.0
 20
0.0
 30
0.0
  0
INSERT
  5
1A5
330
1F
100
AcDbEntity
  8
Layer 1
100
AcDbBlockReference
  2
block 27
 10
0.0
 20
0.0
 30
0.0
  0
INSERT
  5
1B0
330
1F
100
AcDbEntity
  8
Layer 1
100
AcDbBlockReference
  2
block 28
 10
0.0
 20
0.0
 30
0.0
  0
INSERT
  5
1BB
330
1F
100
AcDbEntity
  8
Layer 1
100
AcDbBlockReference
  2
block 29
 10
0.0
 20
0.0
 30
0.0
  0
INSERT
  5
1C6
330
1F
100
AcDbEntity
  8
Layer 1
100
AcDbBlockReference
  2
block 30
 10
0.0
 20
0.0
 30
0.0
  0
INSERT
  5
1D1
330
1F
100
AcDbEntity
  8
Layer 1
100
AcDbBlockReference
  2
block 31
 10
0.0
 20
0.0
 30
0.0
  0
INSERT
  5
1DC
330
1F
100
AcDbEntity
  8
Layer 1
100
AcDbBlockReference
  2
block 32
 10
0.0
 20
0.0
 30
0.0
  0
INSERT
  5
1E7
330
1F
100
AcDbEntity
  8
Layer 1
100
AcDbBlockReference
  2
block 33
 10
0.0
 20
0.0
 30
0.0
  0
INSERT
  5
1F2
330
1F
100
AcDbEntity
  8
Layer 1
100
AcDbBlockReference
  2
block 34
 10
0.0
 20
0.0
 30
0.0
  0
INSERT
  5
1FD
330
1F
100
AcDbEntity
  8
Layer 1
100
AcDbBlockReference
  2
block 35
 10
0.0
 20
0.0
 30
0.0
  0
INSERT
  5
208
330
1F
100
AcDbEntity
  8
Layer 1
100
AcDbBlockReference
  2
block 36
 10
0.0
 20
0.0
 30
0.0
  0
INSERT
  5
213
330
1F
100
AcDbEntity
  8
Layer 1
100
AcDbBlockReference
  2
block 37
 10
0.0
 20
0.0
 30
0.0
  0
INSERT
  5
21E
330
1F
100
AcDbEntity
  8
Layer 1
100
AcDbBlockReference
  2
block 38
 10
0.0
 20
0.0
 30
0.0
  0
INSERT
  5
229
330
1F
100
AcDbEntity
  8
Layer 1
100
AcDbBlockReference
  2
block 39
 10
0.0
 20
0.0
 30
0.0
  0
INSERT
  5
234
330
1F
100
AcDbEntity
  8
Layer 1
100
AcDbBlockReference
  2
block 40
 10
0.0
 20
0.0
 30
0.0
  0
INSERT
  5
23F
330
1F
100
AcDbEntity
  8
Layer 1
100
AcDbBlockReference
  2
block 41
 10
0.0
 20
0.0
 30
0.0
  0
INSERT
  5
24A
330
1F
100
AcDbEntity
  8
Layer 1
100
AcDbBlockReference
  2
block 42
 10
0.0
 20
0.0
 30
0.0
  0
INSERT
  5
255
330
1F
100
AcDbEntity
  8
Layer 1
100
AcDbBlockReference
  2
block 43
 10
0.0
 20
0.0
 30
0.0
  0
INSERT
  5
260
330
1F
100
AcDbEntity
  8
Layer 1
100
AcDbBlockReference
  2
block 44
 10
0.0
 20
0.0
 30
0.0
  0
INSERT
  5
26B
330
1F
100
AcDbEntity
  8
Layer 1
100
AcDbBlockReference
  2
block 45
 10
0.0
 20
0.0
 30
0.0
  0
INSERT
  5
276
330
1F
100
AcDbEntity
  8
Layer 1
100
AcDbBlockReference
  2
block 46
 10
0.0
 20
0.0
 30
0.0
  0
INSERT
  5
281
330
1F
100
AcDbEntity
  8
Layer 1
100
AcDbBlockReference
  2
block 47
 10
0.0
 20
0.0
 30
0.0
  0
ENDSEC
  0
SECTION
  2
OBJECTS
  0
DICTIONARY
  5
C
330
0
100
AcDbDictionary
281
     1
  3
ACAD_GROUP
350
D
  3
ACAD_LAYOUT
350
1A
  3
ACAD_MATERIAL
350
3B
  3
ACAD_MLEADERSTYLE
350
28C
  3
ACAD_MLINESTYLE
350
17
  3
ACAD_PLOTSETTINGS
350
19
  3
ACAD_PLOTSTYLENAME
350
E
  3
ACAD_TABLESTYLE
350
28B
  3
ACAD_VISUALSTYLE
350
2A
  0
SUN
  5
3F
330
29
100
AcDbSun
 90
        1
290
     0
 63
     7
421
 16777215
 40
1.0
291
     1
 91
  2455826
 92
 54000000
292
     0
 70
     2
 71
   256
280
     1
  0
DICTIONARY
  5
D
102
{ACAD_REACTORS
330
C
102
}
330
C
100
AcDbDictionary
281
     1
  0
DICTIONARY
  5
1A
102
{ACAD_REACTORS
330
C
102
}
330
C
100
AcDbDictionary
281
     1
  3
Layout1
350
1E
  3
Layout2
350
26
  3
Model
350
22
  0
DICTIONARY
  5
3B
102
{ACAD_REACTORS
330
C
102
}
330
C
100
AcDbDictionary
281
     1
  3
ByBlock
350
3D
  3
ByLayer
350
3C
  3
Global
350
3E
  0
DICTIONARY
  5
28C
102
{ACAD_REACTORS
330
C
102
}
330
C
100
AcDbDictionary
281
     1
  0
DICTIONARY
  5
17
102
{ACAD_REACTORS
330
C
102
}
330
C
100
AcDbDictionary
281
     1
  3
Standard
350
18
  0
DICTIONARY
  5
19
102
{ACAD_REACTORS
330
C
102
}
330
C
100
AcDbDictionary
281
     1
  0
ACDBDICTIONARYWDFLT
  5
E
102
{ACAD_REACTORS
330
C
102
}
330
C
100
AcDbDictionary
281
     1
  3
Normal
350
F
100
AcDbDictionaryWithDefault
340
F
  0
DICTIONARY
  5
28B
102
{ACAD_REACTORS
330
C
102
}
330
C
100
AcDbDictionary
281
     1
  0
DICTIONARY
  5
2A
102
{ACAD_REACTORS
330
C
102
}
330
C
100
AcDbDictionary
281
     1
  3
2dWireframe
350
2F
  3
3D Hidden
350
31
  3
3dWireframe
350
30
  3
Basic
350
32
  3
Brighten
350
36
  3
ColorChange
350
3A
  3
Conceptual
350
34
  3
Dim
350
35
  3
Facepattern
350
39
  3
Flat
350
2B
  3
FlatWithEdges
350
2C
  3
Gouraud
350
2D
  3
GouraudWithEdges
350
2E
  3
Linepattern
350
38
  3
Realistic
350
33
  3
Thicken
350
37
  0
LAYOUT
  5
1E
102
{ACAD_REACTORS
330
1A
102
}
330
1A
100
AcDbPlotSettings
  1

  2
none_device
  4

  6

 40
0.0
 41
0.0
 42
0.0
 43
0.0
 44
0.0
 45
0.0
 46
0.0
 47
0.0
 48
0.0
 49
0.0
140
0.0
141
0.0
142
1.0
143
1.0
 70
   688
 72
     0
 73
     0
 74
     5
  7

 75
    16
 76
     0
 77
     2
 78
   300
147
1.0
148
0.0
149
0.0
100
AcDbLayout
  1
Layout1
 70
     1
 71
     1
 10
0.0
 20
0.0
 11
12.0
 21
9.0
 12
0.0
 22
0.0
 32
0.0
 14
1.000000000000000E+20
 24
1.000000000000000E+20
 34
1.000000000000000E+20
 15
-1.000000000000000E+20
 25
-1.000000000000000E+20
 35
-1.000000000000000E+20
146
0.0
 13
0.0
 23
0.0
 33
0.0
 16
1.0
 26
0.0
 36
0.0
 17
0.0
 27
1.0
 37
0.0
 76
     0
330
1B
  0
LAYOUT
  5
26
102
{ACAD_REACTORS
330
1A
102
}
330
1A
100
AcDbPlotSettings
  1

  2
none_device
  4

  6

 40
0.0
 41
0.0
 42
0.0
 43
0.0
 44
0.0
 45
0.0
 46
0.0
 47
0.0
 48
0.0
 49
0.0
140
0.0
141
0.0
142
1.0
143
1.0
 70
   688
 72
     0
 73
     0
 74
     5
  7

 75
    16
 76
     0
 77
     2
 78
   300
147
1.0
148
0.0
149
0.0
100
AcDbLayout
  1
Layout2
 70
     1
 71
     2
 10
0.0
 20
0.0
 11
0.0
 21
0.0
 12
0.0
 22
0.0
 32
0.0
 14
0.0
 24
0.0
 34
0.0
 15
0.0
 25
0.0
 35
0.0
146
0.0
 13
0.0
 23
0.0
 33
0.0
 16
1.0
 26
0.0
 36
0.0
 17
0.0
 27
1.0
 37
0.0
 76
     0
330
23
  0
LAYOUT
  5
22
102
{ACAD_REACTORS
330
1A
102
}
330
1A
100
AcDbPlotSettings
  1

  2
none_device
  4

  6

 40
0.0
 41
0.0
 42
0.0
 43
0.0
 44
0.0
 45
0.0
 46
0.0
 47
0.0
 48
0.0
 49
0.0
140
0.0
141
0.0
142
1.0
143
1.0
 70
  1712
 72
     0
 73
     0
 74
     0
  7

 75
     0
 76
     0
 77
     2
 78
   300
147
1.0
148
0.0
149
0.0
100
AcDbLayout
  1
Model
 70
     1
 71
     0
 10
0.0
 20
0.0
 11
12.0
 21
9.0
 12
0.0
 22
0.0
 32
0.0
 14
1.000000000000000E+20
 24
1.000000000000000E+20
 34
1.000000000000000E+20
 15
-1.000000000000000E+20
 25
-1.000000000000000E+20
 35
-1.000000000000000E+20
146
0.0
 13
0.0
 23
0.0
 33
0.0
 16
1.0
 26
0.0
 36
0.0
 17
0.0
 27
1.0
 37
0.0
 76
     0
330
1F
331
29
  0
MATERIAL
  5
3D
102
{ACAD_REACTORS
330
3B
102
}
330
3B
100
AcDbMaterial
  1
ByBlock
 72
     1
 94
      127
  0
MATERIAL
  5
3C
102
{ACAD_REACTORS
330
3B
102
}
330
3B
100
AcDbMaterial
  1
ByLayer
 72
     1
 94
      127
  0
MATERIAL
  5
3E
102
{ACAD_REACTORS
330
3B
102
}
330
3B
100
AcDbMaterial
  1
Global
 72
     1
 94
      127
  0
MLINESTYLE
  5
18
102
{ACAD_REACTORS
330
17
102
}
330
17
100
AcDbMlineStyle
  2
Standard
 70
     0
  3

 62
   256
 51
90.0
 52
90.0
 71
     2
 49
0.5
 62
   256
  6
BYLAYER
 49
-0.5
 62
   256
  6
BYLAYER
  0
ACDBPLACEHOLDER
  5
F
102
{ACAD_REACTORS
330
E
102
}
330
E
  0
VISUALSTYLE
  5
2F
102
{ACAD_REACTORS
330
2A
102
}
330
2A
100
AcDbVisualStyle
  2
2dWireframe
 70
     4
177
     2
291
     0
 71
     0
176
     1
 72
     2
176
     1
 73
     0
176
     1
 90
        0
176
     1
 40
-0.6
176
     1
 41
-30.0
176
     1
 62
     5
 63
     7
421
 16777215
176
     1
 74
     1
176
     1
 91
        4
176
     1
 64
     7
176
     1
 65
   257
176
     1
 75
     1
176
     1
175
     1
176
     1
 42
1.0
176
     1
 92
        0
176
     1
 66
   257
176
     1
 43
1.0
176
     1
 76
     1
176
     1
 77
     6
176
     1
 78
     2
176
     1
 67
     7
176
     1
 79
     5
176
     1
170
     0
176
     1
171
     0
176
     1
290
     0
176
     1
 93
        1
176
     1
 44
0.0
176
     1
173
     0
176
     1
  0
VISUALSTYLE
  5
31
102
{ACAD_REACTORS
330
2A
102
}
330
2A
100
AcDbVisualStyle
  2
3D Hidden
 70
     6
177
     2
291
     0
 71
     1
176
     1
 72
     2
176
     1
 73
     2
176
     1
 90
        0
176
     1
 40
-0.6
176
     1
 41
-30.0
176
     1
 62
     5
 63
     7
421
 16777215
176
     1
 74
     2
176
     1
 91
        2
176
     1
 64
     7
176
     1
 65
   257
176
     1
 75
     2
176
     1
175
     1
176
     1
 42
40.0
176
     1
 92
        0
176
     1
 66
   257
176
     1
 43
1.0
176
     1
 76
     1
176
     1
 77
     6
176
     1
 78
     2
176
     1
 67
     7
176
     1
 79
     3
176
     1
170
     0
176
     1
171
     0
176
     1
290
     0
176
     1
 93
        1
176
     1
 44
0.0
176
     1
173
     0
176
     1
  0
VISUALSTYLE
  5
30
102
{ACAD_REACTORS
330
2A
102
}
330
2A
100
AcDbVisualStyle
  2
3dWireframe
 70
     5
177
     2
291
     0
 71
     0
176
     1
 72
     2
176
     1
 73
     0
176
     1
 90
        0
176
     1
 40
-0.6
176
     1
 41
-30.0
176
     1
 62
     5
 63
     7
421
 16777215
176
     1
 74
     1
176
     1
 91
        4
176
     1
 64
     7
176
     1
 65
   257
176
     1
 75
     1
176
     1
175
     1
176
     1
 42
1.0
176
     1
 92
        0
176
     1
 66
   257
176
     1
 43
1.0
176
     1
 76
     1
176
     1
 77
     6
176
     1
 78
     2
176
     1
 67
     7
176
     1
 79
     5
176
     1
170
     0
176
     1
171
     0
176
     1
290
     0
176
     1
 93
        1
176
     1
 44
0.0
176
     1
173
     0
176
     1
  0
VISUALSTYLE
  5
32
102
{ACAD_REACTORS
330
2A
102
}
330
2A
100
AcDbVisualStyle
  2
Basic
 70
     7
177
     2
291
     1
 71
     1
176
     1
 72
     0
176
     1
 73
     1
176
     1
 90
        0
176
     1
 40
-0.6
176
     1
 41
-30.0
176
     1
 62
     5
 63
     7
421
 16777215
176
     1
 74
     0
176
     1
 91
        4
176
     1
 64
     7
176
     1
 65
   257
176
     1
 75
     1
176
     1
175
     1
176
     1
 42
1.0
176
     1
 92
        8
176
     1
 66
     7
176
     1
 43
1.0
176
     1
 76
     1
176
     1
 77
     6
176
     1
 78
     2
176
     1
 67
     7
176
     1
 79
     5
176
     1
170
     0
176
     1
171
     0
176
     1
290
     0
176
     1
 93
        1
176
     1
 44
0.0
176
     1
173
     0
176
     1
  0
VISUALSTYLE
  5
36
102
{ACAD_REACTORS
330
2A
102
}
330
2A
100
AcDbVisualStyle
  2
Brighten
 70
    12
177
     2
291
     1
 71
     2
176
     1
 72
     2
176
     1
 73
     0
176
     1
 90
        0
176
     1
 40
-0.6
176
     1
 41
-30.0
176
     1
 62
     5
 63
     7
421
 16777215
176
     1
 74
     1
176
     1
 91
        4
176
     1
 64
     7
176
     1
 65
   257
176
     1
 75
     1
176
     1
175
     1
176
     1
 42
1.0
176
     1
 92
        8
176
     1
 66
     7
176
     1
 43
1.0
176
     1
 76
     1
176
     1
 77
     6
176
     1
 78
     2
176
     1
 67
     7
176
     1
 79
     5
176
     1
170
     0
176
     1
171
     0
176
     1
290
     0
176
     1
 93
        1
176
     1
 44
50.0
176
     1
173
     0
176
     1
  0
VISUALSTYLE
  5
3A
102
{ACAD_REACTORS
330
2A
102
}
330
2A
100
AcDbVisualStyle
  2
ColorChange
 70
    16
177
     2
291
     1
 71
     2
176
     1
 72
     2
176
     1
 73
     3
176
     1
 90
        0
176
     1
 40
-0.6
176
     1
 41
-30.0
176
     1
 62
     5
 63
     8
421
  8421504
176
     1
 74
     1
176
     1
 91
        4
176
     1
 64
     7
176
     1
 65
   257
176
     1
 75
     1
176
     1
175
     1
176
     1
 42
1.0
176
     1
 92
        8
176
     1
 66
     8
424
  8421504
176
     1
 43
1.0
176
     1
 76
     1
176
     1
 77
     6
176
     1
 78
     2
176
     1
 67
     7
176
     1
 79
     5
176
     1
170
     0
176
     1
171
     0
176
     1
290
     0
176
     1
 93
        1
176
     1
 44
0.0
176
     1
173
     0
176
     1
  0
VISUALSTYLE
  5
34
102
{ACAD_REACTORS
330
2A
102
}
330
2A
100
AcDbVisualStyle
  2
Conceptual
 70
     9
177
     2
291
     0
 71
     3
176
     1
 72
     2
176
     1
 73
     0
176
     1
 90
        0
176
     1
 40
-0.6
176
     1
 41
-30.0
176
     1
 62
     5
 63
     7
421
 16777215
176
     1
 74
     2
176
     1
 91
        2
176
     1
 64
     7
176
     1
 65
   257
176
     1
 75
     1
176
     1
175
     1
176
     1
 42
40.0
176
     1
 92
        8
176
     1
 66
     7
176
     1
 43
1.0
176
     1
 76
     1
176
     1
 77
     6
176
     1
 78
     2
176
     1
 67
     7
176
     1
 79
     3
176
     1
170
     0
176
     1
171
     0
176
     1
290
     0
176
     1
 93
        1
176
     1
 44
0.0
176
     1
173
     0
176
     1
  0
VISUALSTYLE
  5
35
102
{ACAD_REACTORS
330
2A
102
}
330
2A
100
AcDbVisualStyle
  2
Dim
 70
    11
177
     2
291
     1
 71
     2
176
     1
 72
     2
176
     1
 73
     0
176
     1
 90
        0
176
     1
 40
-0.6
176
     1
 41
-30.0
176
     1
 62
     5
 63
     7
421
 16777215
176
     1
 74
     1
176
     1
 91
        4
176
     1
 64
     7
176
     1
 65
   257
176
     1
 75
     1
176
     1
175
     1
176
     1
 42
1.0
176
     1
 92
        8
176
     1
 66
     7
176
     1
 43
1.0
176
     1
 76
     1
176
     1
 77
     6
176
     1
 78
     2
176
     1
 67
     7
176
     1
 79
     5
176
     1
170
     0
176
     1
171
     0
176
     1
290
     0
176
     1
 93
        1
176
     1
 44
-50.0
176
     1
173
     0
176
     1
  0
VISUALSTYLE
  5
39
102
{ACAD_REACTORS
330
2A
102
}
330
2A
100
AcDbVisualStyle
  2
Facepattern
 70
    15
177
     2
291
     1
 71
     2
176
     1
 72
     2
176
     1
 73
     0
176
     1
 90
        0
176
     1
 40
-0.6
176
     1
 41
-30.0
176
     1
 62
     5
 63
     7
421
 16777215
176
     1
 74
     1
176
     1
 91
        4
176
     1
 64
     7
176
     1
 65
   257
176
     1
 75
     1
176
     1
175
     1
176
     1
 42
1.0
176
     1
 92
        8
176
     1
 66
     7
176
     1
 43
1.0
176
     1
 76
     1
176
     1
 77
     6
176
     1
 78
     2
176
     1
 67
     7
176
     1
 79
     5
176
     1
170
     0
176
     1
171
     0
176
     1
290
     0
176
     1
 93
        1
176
     1
 44
0.0
176
     1
173
     0
176
     1
  0
VISUALSTYLE
  5
2B
102
{ACAD_REACTORS
330
2A
102
}
330
2A
100
AcDbVisualStyle
  2
Flat
 70
     0
177
     2
291
     1
 71
     2
176
     1
 72
     1
176
     1
 73
     1
176
     1
 90
        2
176
     1
 40
-0.6
176
     1
 41
30.0
176
     1
 62
     5
 63
     7
421
 16777215
176
     1
 74
     0
176
     1
 91
        4
176
     1
 64
     7
176
     1
 65
   257
176
     1
 75
     1
176
     1
175
     1
176
     1
 42
1.0
176
     1
 92
        8
176
     1
 66
     7
176
     1
 43
1.0
176
     1
 76
     1
176
     1
 77
     6
176
     1
 78
     2
176
     1
 67
     7
176
     1
 79
     5
176
     1
170
     0
176
     1
171
     0
176
     1
290
     0
176
     1
 93
       13
176
     1
 44
0.0
176
     1
173
     0
176
     1
  0
VISUALSTYLE
  5
2C
102
{ACAD_REACTORS
330
2A
102
}
330
2A
100
AcDbVisualStyle
  2
FlatWithEdges
 70
     1
177
     2
291
     1
 71
     2
176
     1
 72
     1
176
     1
 73
     1
176
     1
 90
        2
176
     1
 40
-0.6
176
     1
 41
30.0
176
     1
 62
     5
 63
     7
421
 16777215
176
     1
 74
     1
176
     1
 91
        4
176
     1
 64
     7
176
     1
 65
   257
176
     1
 75
     1
176
     1
175
     1
176
     1
 42
1.0
176
     1
 92
        0
176
     1
 66
   257
176
     1
 43
1.0
176
     1
 76
     1
176
     1
 77
     6
176
     1
 78
     2
176
     1
 67
     7
176
     1
 79
     5
176
     1
170
     0
176
     1
171
     0
176
     1
290
     0
176
     1
 93
       13
176
     1
 44
0.0
176
     1
173
     0
176
     1
  0
VISUALSTYLE
  5
2D
102
{ACAD_REACTORS
330
2A
102
}
330
2A
100
AcDbVisualStyle
  2
Gouraud
 70
     2
177
     2
291
     1
 71
     2
176
     1
 72
     2
176
     1
 73
     1
176
     1
 90
        2
176
     1
 40
-0.6
176
     1
 41
30.0
176
     1
 62
     5
 63
     7
421
 16777215
176
     1
 74
     0
176
     1
 91
        4
176
     1
 64
     7
176
     1
 65
   257
176
     1
 75
     1
176
     1
175
     1
176
     1
 42
1.0
176
     1
 92
        0
176
     1
 66
     7
176
     1
 43
1.0
176
     1
 76
     1
176
     1
 77
     6
176
     1
 78
     2
176
     1
 67
     7
176
     1
 79
     5
176
     1
170
     0
176
     1
171
     0
176
     1
290
     0
176
     1
 93
       13
176
     1
 44
0.0
176
     1
173
     0
176
     1
  0
VISUALSTYLE
  5
2E
102
{ACAD_REACTORS
330
2A
102
}
330
2A
100
AcDbVisualStyle
  2
GouraudWithEdges
 70
     3
177
     2
291
     1
 71
     2
176
     1
 72
     2
176
     1
 73
     1
176
     1
 90
        2
176
     1
 40
-0.6
176
     1
 41
30.0
176
     1
 62
     5
 63
     7
421
 16777215
176
     1
 74
     1
176
     1
 91
        4
176
     1
 64
     7
176
     1
 65
   257
176
     1
 75
     1
176
     1
175
     1
176
     1
 42
1.0
176
     1
 92
        0
176
     1
 66
   257
176
     1
 43
1.0
176
     1
 76
     1
176
     1
 77
     6
176
     1
 78
     2
176
     1
 67
     7
176
     1
 79
     5
176
     1
170
     0
176
     1
171
     0
176
     1
290
     0
176
     1
 93
       13
176
     1
 44
0.0
176
     1
173
     0
176
     1
  0
VISUALSTYLE
  5
38
102
{ACAD_REACTORS
330
2A
102
}
330
2A
100
AcDbVisualStyle
  2
Linepattern
 70
    14
177
     2
291
     1
 71
     2
176
     1
 72
     2
176
     1
 73
     0
176
     1
 90
        0
176
     1
 40
-0.6
176
     1
 41
-30.0
176
     1
 62
     5
 63
     7
421
 16777215
176
     1
 74
     1
176
     1
 91
        4
176
     1
 64
     7
176
     1
 65
   257
176
     1
 75
     7
176
     1
175
     7
176
     1
 42
1.0
176
     1
 92
        8
176
     1
 66
     7
176
     1
 43
1.0
176
     1
 76
     1
176
     1
 77
     6
176
     1
 78
     2
176
     1
 67
     7
176
     1
 79
     5
176
     1
170
     0
176
     1
171
     0
176
     1
290
     0
176
     1
 93
        1
176
     1
 44
0.0
176
     1
173
     0
176
     1
  0
VISUALSTYLE
  5
33
102
{ACAD_REACTORS
330
2A
102
}
330
2A
100
AcDbVisualStyle
  2
Realistic
 70
     8
177
     2
291
     0
 71
     2
176
     1
 72
     2
176
     1
 73
     0
176
     1
 90
        0
176
     1
 40
-0.6
176
     1
 41
-30.0
176
     1
 62
     5
 63
     7
421
 16777215
176
     1
 74
     1
176
     1
 91
        0
176
     1
 64
     7
176
     1
 65
   257
176
     1
 75
     1
176
     1
175
     1
176
     1
 42
1.0
176
     1
 92
        8
176
     1
 66
     8
424
  7895160
176
     1
 43
1.0
176
     1
 76
     1
176
     1
 77
     6
176
     1
 78
     2
176
     1
 67
     7
176
     1
 79
     5
176
     1
170
     0
176
     1
171
     0
176
     1
290
     0
176
     1
 93
       13
176
     1
 44
0.0
176
     1
173
     0
176
     1
  0
VISUALSTYLE
  5
37
102
{ACAD_REACTORS
330
2A
102
}
330
2A
100
AcDbVisualStyle
  2
Thicken
 70
    13
177
     2
291
     1
 71
     2
176
     1
 72
     2
176
     1
 73
     0
176
     1
 90
        0
176
     1
 40
-0.6
176
     1
 41
-30.0
176
     1
 62
     5
 63
     7
421
 16777215
176
     1
 74
     1
176
     1
 91
        4
176
     1
 64
     7
176
     1
 65
   257
176
     1
 75
     1
176
     1
175
     1
176
     1
 42
1.0
176
     1
 92
       12
176
     1
 66
     7
176
     1
 43
1.0
176
     1
 76
     1
176
     1
 77
     6
176
     1
 78
     2
176
     1
 67
     7
176
     1
 79
     5
176
     1
170
     0
176
     1
171
     0
176
     1
290
     0
176
     1
 93
        1
176
     1
 44
0.0
176
     1
173
     0
176
     1
  0
ENDSEC
  0
EOF
