  0
SECTION
  2
HEADER
  9
$ACADVER
  1
AC1024
  9
$ACADMAINTVER
 70
     6
  9
$DWGCODEPAGE
  3
UNDEFINED
  9
$INSBASE
 10
0.0
 20
0.0
 30
0.0
  9
$EXTMIN
 10
1.000000000000000E+20
 20
1.000000000000000E+20
 30
1.000000000000000E+20
  9
$EXTMAX
 10
-1.000000000000000E+20
 20
-1.000000000000000E+20
 30
-1.000000000000000E+20
  9
$LIMMIN
 10
0.0
 20
0.0
  9
$LIMMAX
 10
12.0
 20
9.0
  9
$ORTHOMODE
 70
     0
  9
$REGENMODE
 70
     1
  9
$FILLMODE
 70
     1
  9
$QTEXTMODE
 70
     0
  9
$MIRRTEXT
 70
     1
  9
$LTSCALE
 40
1.0
  9
$ATTMODE
 70
     1
  9
$TEXTSIZE
 40
0.2
  9
$TRACEWID
 40
0.05
  9
$TEXTSTYLE
  7
Standard
  9
$CLAYER
  8
0
  9
$CELTYPE
  6
ByLayer
  9
$CECOLOR
 62
   256
  9
$CELTSCALE
 40
1.0
  9
$DISPSILH
 70
     0
  9
$DIMSCALE
 40
1.0
  9
$DIMASZ
 40
0.18
  9
$DIMEXO
 40
0.0625
  9
$DIMDLI
 40
0.38
  9
$DIMRND
 40
0.0
  9
$DIMDLE
 40
0.0
  9
$DIMEXE
 40
0.18
  9
$DIMTP
 40
0.0
  9
$DIMTM
 40
0.0
  9
$DIMTXT
 40
0.18
  9
$DIMCEN
 40
0.09
  9
$DIMTSZ
 40
0.0
  9
$DIMTOL
 70
     0
  9
$DIMLIM
 70
     0
  9
$DIMTIH
 70
     1
  9
$DIMTOH
 70
     1
  9
$DIMSE1
 70
     0
  9
$DIMSE2
 70
     0
  9
$DIMTAD
 70
     0
  9
$DIMZIN
 70
     0
  9
$DIMBLK
  1

  9
$DIMASO
 70
     1
  9
$DIMSHO
 70
     1
  9
$DIMPOST
  1

  9
$DIMAPOST
  1

  9
$DIMALT
 70
     0
  9
$DIMALTD
 70
     2
  9
$DIMALTF
 40
25.4
  9
$DIMLFAC
 40
1.0
  9
$DIMTOFL
 70
     0
  9
$DIMTVP
 40
0.0
  9
$DIMTIX
 70
     0
  9
$DIMSOXD
 70
     0
  9
$DIMSAH
 70
     0
  9
$DIMBLK1
  1

  9
$DIMBLK2
  1

  9
$DIMSTYLE
  2
Standard
  9
$DIMCLRD
 70
     0
  9
$DIMCLRE
 70
     0
  9
$DIMCLRT
 70
     0
  9
$DIMTFAC
 40
1.0
  9
$DIMGAP
 40
0.09
  9
$DIMJUST
 70
     0
  9
$DIMSD1
 70
     0
  9
$DIMSD2
 70
     0
  9
$DIMTOLJ
 70
     1
  9
$DIMTZIN
 70
     0
  9
$DIMALTZ
 70
     0
  9
$DIMALTTZ
 70
     0
  9
$DIMUPT
 70
     0
  9
$DIMDEC
 70
     4
  9
$DIMTDEC
 70
     4
  9
$DIMALTU
 70
     2
  9
$DIMALTTD
 70
     2
  9
$DIMTXSTY
  7
Standard
  9
$DIMAUNIT
 70
     0
  9
$DIMADEC
 70
     0
  9
$DIMALTRND
 40
0.0
  9
$DIMAZIN
 70
     0
  9
$DIMDSEP
 70
    46
  9
$DIMATFIT
 70
     3
  9
$DIMFRAC
 70
     0
  9
$DIMLDRBLK
  1

  9
$DIMLUNIT
 70
     2
  9
$DIMLWD
 70
    -2
  9
$DIMLWE
 70
    -2
  9
$DIMTMOVE
 70
     0
  9
$DIMFXL
 40
1.0
  9
$DIMFXLON
 70
     0
  9
$DIMJOGANG
 40
0.7853981633974483
  9
$DIMTFILL
 70
     0
  9
$DIMTFILLCLR
 70
     0
  9
$DIMARCSYM
 70
     0
  9
$DIMLTYPE
  6

  9
$DIMLTEX1
  6

  9
$DIMLTEX2
  6

  9
$DIMTXTDIRECTION
 70
     0
  9
$LUNITS
 70
     2
  9
$LUPREC
 70
     4
  9
$SKETCHINC
 40
0.1
  9
$FILLETRAD
 40
0.5
  9
$AUNITS
 70
     0
  9
$AUPREC
 70
     0
  9
$MENU
  1
.
  9
$ELEVATION
 40
0.0
  9
$PELEVATION
 40
0.0
  9
$THICKNESS
 40
0.0
  9
$LIMCHECK
 70
     0
  9
$CHAMFERA
 40
0.5
  9
$CHAMFERB
 40
0.5
  9
$CHAMFERC
 40
1.0
  9
$CHAMFERD
 40
0.0
  9
$SKPOLY
 70
     0
  9
$TDCREATE
 40
2459171.757708322
  9
$TDUCREATE
 40
2459171.966041666
  9
$TDUPDATE
 40
2459171.757708322
  9
$TDUUPDATE
 40
2459171.966041666
  9
$TDINDWG
 40
0.0000000116
  9
$TDUSRTIMER
 40
0.0000000116
  9
$USRTIMER
 70
     1
  9
$ANGBASE
 50
0.0
  9
$ANGDIR
 70
     0
  9
$PDMODE
 70
     0
  9
$PDSIZE
 40
0.0
  9
$PLINEWID
 40
0.0
  9
$SPLFRAME
 70
     0
  9
$SPLINETYPE
 70
     6
  9
$SPLINESEGS
 70
     8
  9
$HANDSEED
  5
2C3
  9
$SURFTAB1
 70
     6
  9
$SURFTAB2
 70
     6
  9
$SURFTYPE
 70
     6
  9
$SURFU
 70
     6
  9
$SURFV
 70
     6
  9
$UCSBASE
  2

  9
$UCSNAME
  2

  9
$UCSORG
 10
0.0
 20
0.0
 30
0.0
  9
$UCSXDIR
 10
1.0
 20
0.0
 30
0.0
  9
$UCSYDIR
 10
0.0
 20
1.0
 30
0.0
  9
$UCSORTHOREF
  2

  9
$UCSORTHOVIEW
 70
     0
  9
$UCSORGTOP
 10
0.0
 20
0.0
 30
0.0
  9
$UCSORGBOTTOM
 10
0.0
 20
0.0
 30
0.0
  9
$UCSORGLEFT
 10
0.0
 20
0.0
 30
0.0
  9
$UCSORGRIGHT
 10
0.0
 20
0.0
 30
0.0
  9
$UCSORGFRONT
 10
0.0
 20
0.0
 30
0.0
  9
$UCSORGBACK
 10
0.0
 20
0.0
 30
0.0
  9
$PUCSBASE
  2

  9
$PUCSNAME
  2

  9
$PUCSORG
 10
0.0
 20
0.0
 30
0.0
  9
$PUCSXDIR
 10
1.0
 20
0.0
 30
0.0
  9
$PUCSYDIR
 10
0.0
 20
1.0
 30
0.0
  9
$PUCSORTHOREF
  2

  9
$PUCSORTHOVIEW
 70
     0
  9
$PUCSORGTOP
 10
0.0
 20
0.0
 30
0.0
  9
$PUCSORGBOTTOM
 10
0.0
 20
0.0
 30
0.0
  9
$PUCSORGLEFT
 10
0.0
 20
0.0
 30
0.0
  9
$PUCSORGRIGHT
 10
0.0
 20
0.0
 30
0.0
  9
$PUCSORGFRONT
 10
0.0
 20
0.0
 30
0.0
  9
$PUCSORGBACK
 10
0.0
 20
0.0
 30
0.0
  9
$USERI1
 70
     0
  9
$USERI2
 70
     0
  9
$USERI3
 70
     0
  9
$USERI4
 70
     0
  9
$USERI5
 70
     0
  9
$USERR1
 40
0.0
  9
$USERR2
 40
0.0
  9
$USERR3
 40
0.0
  9
$USERR4
 40
0.0
  9
$USERR5
 40
0.0
  9
$WORLDVIEW
 70
     1
  9
$SHADEDGE
 70
     3
  9
$SHADEDIF
 70
    70
  9
$TILEMODE
 70
     1
  9
$MAXACTVP
 70
    64
  9
$PINSBASE
 10
0.0
 20
0.0
 30
0.0
  9
$PLIMCHECK
 70
     0
  9
$PEXTMIN
 10
1.000000000000000E+20
 20
1.000000000000000E+20
 30
1.000000000000000E+20
  9
$PEXTMAX
 10
-1.000000000000000E+20
 20
-1.000000000000000E+20
 30
-1.000000000000000E+20
  9
$PLIMMIN
 10
0.0
 20
0.0
  9
$PLIMMAX
 10
12.0
 20
9.0
  9
$UNITMODE
 70
     0
  9
$VISRETAIN
 70
     1
  9
$PLINEGEN
 70
     0
  9
$PSLTSCALE
 70
     1
  9
$TREEDEPTH
 70
  3020
  9
$CMLSTYLE
  2
Standard
  9
$CMLJUST
 70
     0
  9
$CMLSCALE
 40
1.0
  9
$PROXYGRAPHICS
 70
     1
  9
$MEASUREMENT
 70
     0
  9
$CELWEIGHT
370
    -1
  9
$ENDCAPS
280
     0
  9
$JOINSTYLE
280
     0
  9
$LWDISPLAY
290
     1
  9
$INSUNITS
 70
     1
  9
$HYPERLINKBASE
  1

  9
$STYLESHEET
  1

  9
$XEDIT
290
     1
  9
$CEPSNTYPE
380
     0
  9
$PSTYLEMODE
290
     1
  9
$FINGERPRINTGUID
  2
{AFB2E5AF-CDF5-B110-BDEA-0BF344122E2F}
  9
$VERSIONGUID
  2
{FAEB1C32-E019-11D5-929B-00C0DF256EC4}
  9
$EXTNAMES
290
     1
  9
$PSVPSCALE
 40
0.0
  9
$OLESTARTUP
290
     0
  9
$SORTENTS
280
   127
  9
$INDEXCTL
280
     0
  9
$HIDETEXT
280
     1
  9
$XCLIPFRAME
280
     2
  9
$HALOGAP
280
     0
  9
$OBSCOLOR
 70
   257
  9
$OBSLTYPE
280
     0
  9
$INTERSECTIONDISPLAY
280
     0
  9
$INTERSECTIONCOLOR
 70
   257
  9
$DIMASSOC
280
     2
  9
$PROJECTNAME
  1

  9
$CAMERADISPLAY
290
     0
  9
$LENSLENGTH
 40
50.0
  9
$CAMERAHEIGHT
 40
0.0
  9
$STEPSPERSEC
 40
2.0
  9
$STEPSIZE
 40
6.0
  9
$3DDWFPREC
 40
2.0
  9
$PSOLWIDTH
 40
0.25
  9
$PSOLHEIGHT
 40
4.0
  9
$LOFTANG1
 40
1.570796326794897
  9
$LOFTANG2
 40
1.570796326794897
  9
$LOFTMAG1
 40
0.0
  9
$LOFTMAG2
 40
0.0
  9
$LOFTPARAM
 70
     7
  9
$LOFTNORMALS
280
     1
  9
$LATITUDE
 40
37.795
  9
$LONGITUDE
 40
-122.394
  9
$NORTHDIRECTION
 40
0.0
  9
$TIMEZONE
 70
 -8000
  9
$LIGHTGLYPHDISPLAY
280
     1
  9
$TILEMODELIGHTSYNCH
280
     1
  9
$CMATERIAL
347
3C
  9
$SOLIDHIST
280
     1
  9
$SHOWHIST
280
     1
  9
$DWFFRAME
280
     2
  9
$DGNFRAME
280
     2
  9
$REALWORLDSCALE
290
     1
  9
$INTERFERECOLOR
 62
   256
  9
$CSHADOW
280
     0
  9
$SHADOWPLANELOCATION
 40
0.0
  0
ENDSEC
  0
SECTION
  2
CLASSES
  0
CLASS
  1
ACDBDICTIONARYWDFLT
  2
AcDbDictionaryWithDefault
  3
ObjectDBX Classes
 90
        0
 91
        4
280
     0
281
     0
  0
CLASS
  1
VISUALSTYLE
  2
AcDbVisualStyle
  3
ObjectDBX Classes
 90
     4095
 91
        4
280
     0
281
     0
  0
CLASS
  1
MATERIAL
  2
AcDbMaterial
  3
ObjectDBX Classes
 90
     1153
 91
        4
280
     0
281
     0
  0
CLASS
  1
SUN
  2
AcDbSun
  3
SCENEOE
 90
     1024
 91
        4
280
     0
281
     0
  0
ENDSEC
  0
SECTION
  2
TABLES
  0
TABLE
  2
VPORT
  5
8
330
0
100
AcDbSymbolTable
 70
     1
  0
VPORT
  5
29
330
8
100
AcDbSymbolTableRecord
100
AcDbViewportTableRecord
  2
*Active
 70
     0
 10
0.0
 20
0.0
 11
1.0
 21
1.0
 12
0.0
 22
0.0
 13
0.0
 23
0.0
 14
0.5
 24
0.5
 15
0.5
 25
0.5
 16
0.0
 26
0.0
 36
1.0
 17
149.9999999624996
 27
149.9999999624997
 37
0.0
 40
299.9999999249995
 41
0.999999999999999
 42
50.0
 43
0.0
 44
0.0
 50
0.0
 51
0.0
 71
     0
 72
   100
 73
     1
 74
     3
 75
     0
 76
     0
 77
     0
 78
     0
281
     0
 65
     1
110
0.0
120
0.0
130
0.0
111
1.0
121
0.0
131
0.0
112
0.0
122
1.0
132
0.0
 79
     0
146
0.0
 60
     3
 61
     5
292
     1
282
     1
141
0.0
142
0.0
 63
   250
361
3F
  0
ENDTAB
  0
TABLE
  2
LTYPE
  5
5
330
0
100
AcDbSymbolTable
 70
     1
  0
LTYPE
  5
14
330
5
100
AcDbSymbolTableRecord
100
AcDbLinetypeTableRecord
  2
ByBlock
 70
     0
  3

 72
    65
 73
     0
 40
0.0
  0
LTYPE
  5
15
330
5
100
AcDbSymbolTableRecord
100
AcDbLinetypeTableRecord
  2
ByLayer
 70
     0
  3

 72
    65
 73
     0
 40
0.0
  0
LTYPE
  5
16
330
5
100
AcDbSymbolTableRecord
100
AcDbLinetypeTableRecord
  2
Continuous
 70
     0
  3
Solid line
 72
    65
 73
     0
 40
0.0
  0
ENDTAB
  0
TABLE
  2
LAYER
  5
2
330
0
100
AcDbSymbolTable
 70
     2
  0
LAYER
  5
10
330
2
100
AcDbSymbolTableRecord
100
AcDbLayerTableRecord
  2
0
 70
     0
 62
     7
  6
Continuous
370
    -3
390
F
347
3E
  0
LAYER
  5
40
330
2
100
AcDbSymbolTableRecord
100
AcDbLayerTableRecord
  2
Layer 1
 70
     0
 62
     7
  6
Continuous
370
    -3
390
F
347
3E
  0
ENDTAB
  0
TABLE
  2
STYLE
  5
3
330
0
100
AcDbSymbolTable
 70
     1
  0
STYLE
  5
11
330
3
100
AcDbSymbolTableRecord
100
AcDbTextStyleTableRecord
  2
Standard
 70
     0
 40
0.0
 41
1.0
 50
0.0
 71
     0
 42
0.2
  3
txt
  4

  0
ENDTAB
  0
TABLE
  2
VIEW
  5
6
330
0
100
AcDbSymbolTable
 70
     0
  0
ENDTAB
  0
TABLE
  2
UCS
  5
7
330
0
100
AcDbSymbolTable
 70
     0
  0
ENDTAB
  0
TABLE
  2
APPID
  5
9
330
0
100
AcDbSymbolTable
 70
     1
  0
APPID
  5
12
330
9
100
AcDbSymbolTableRecord
100
AcDbRegAppTableRecord
  2
ACAD
 70
     0
  0
ENDTAB
  0
TABLE
  2
DIMSTYLE
  5
A
330
0
100
AcDbSymbolTable
 70
     1
100
AcDbDimStyleTable
  0
DIMSTYLE
105
27
330
A
100
AcDbSymbolTableRecord
100
AcDbDimStyleTableRecord
  2
Standard
 70
     0
178
     0
340
11
  0
ENDTAB
  0
TABLE
  2
BLOCK_RECORD
  5
1
330
0
100
AcDbSymbolTable
 70
    58
  0
BLOCK_RECORD
  5
1F
330
1
100
AcDbSymbolTableRecord
100
AcDbBlockTableRecord
  2
*Model_Space
340
22
 70
     0
280
     1
281
     0
  0
BLOCK_RECORD
  5
1B
330
1
100
AcDbSymbolTableRecord
100
AcDbBlockTableRecord
  2
*Paper_Space
340
1E
 70
     0
280
     1
281
     0
  0
BLOCK_RECORD
  5
23
330
1
100
AcDbSymbolTableRecord
100
AcDbBlockTableRecord
  2
*Paper_Space0
340
26
 70
     0
280
     1
281
     0
  0
BLOCK_RECORD
  5
41
330
1
100
AcDbSymbolTableRecord
100
AcDbBlockTableRecord
  2
block 2
340
0
102
{BLKREFS
331
42
102
}
 70
     0
280
     1
281
     0
  0
BLOCK_RECORD
  5
46
330
1
100
AcDbSymbolTableRecord
100
AcDbBlockTableRecord
  2
block 3
340
0
102
{BLKREFS
331
47
102
}
 70
     0
280
     1
281
     0
  0
BLOCK_RECORD
  5
4B
330
1
100
AcDbSymbolTableRecord
100
AcDbBlockTableRecord
  2
block 4
340
0
102
{BLKREFS
331
4C
102
}
 70
     0
280
     1
281
     0
  0
BLOCK_RECORD
  5
50
330
1
100
AcDbSymbolTableRecord
100
AcDbBlockTableRecord
  2
block 5
340
0
102
{BLKREFS
331
51
102
}
 70
     0
280
     1
281
     0
  0
BLOCK_RECORD
  5
55
330
1
100
AcDbSymbolTableRecord
100
AcDbBlockTableRecord
  2
block 6
340
0
102
{BLKREFS
331
56
102
}
 70
     0
280
     1
281
     0
  0
BLOCK_RECORD
  5
5A
330
1
100
AcDbSymbolTableRecord
100
AcDbBlockTableRecord
  2
block 7
340
0
102
{BLKREFS
331
5B
102
}
 70
     0
280
     1
281
     0
  0
BLOCK_RECORD
  5
5F
330
1
100
AcDbSymbolTableRecord
100
AcDbBlockTableRecord
  2
block 8
340
0
102
{BLKREFS
331
60
102
}
 70
     0
280
     1
281
     0
  0
BLOCK_RECORD
  5
64
330
1
100
AcDbSymbolTableRecord
100
AcDbBlockTableRecord
  2
block 9
340
0
102
{BLKREFS
331
65
102
}
 70
     0
280
     1
281
     0
  0
BLOCK_RECORD
  5
69
330
1
100
AcDbSymbolTableRecord
100
AcDbBlockTableRecord
  2
block 10
340
0
102
{BLKREFS
331
6A
102
}
 70
     0
280
     1
281
     0
  0
BLOCK_RECORD
  5
6E
330
1
100
AcDbSymbolTableRecord
100
AcDbBlockTableRecord
  2
block 11
340
0
102
{BLKREFS
331
6F
102
}
 70
     0
280
     1
281
     0
  0
BLOCK_RECORD
  5
73
330
1
100
AcDbSymbolTableRecord
100
AcDbBlockTableRecord
  2
block 12
340
0
102
{BLKREFS
331
74
102
}
 70
     0
280
     1
281
     0
  0
BLOCK_RECORD
  5
A3
330
1
100
AcDbSymbolTableRecord
100
AcDbBlockTableRecord
  2
block 13
340
0
102
{BLKREFS
331
A4
102
}
 70
     0
280
     1
281
     0
  0
BLOCK_RECORD
  5
C2
330
1
100
AcDbSymbolTableRecord
100
AcDbBlockTableRecord
  2
block 14
340
0
102
{BLKREFS
331
C3
102
}
 70
     0
280
     1
281
     0
  0
BLOCK_RECORD
  5
D1
330
1
100
AcDbSymbolTableRecord
100
AcDbBlockTableRecord
  2
block 15
340
0
102
{BLKREFS
331
D2
102
}
 70
     0
280
     1
281
     0
  0
BLOCK_RECORD
  5
DC
330
1
100
AcDbSymbolTableRecord
100
AcDbBlockTableRecord
  2
block 16
340
0
102
{BLKREFS
331
DD
102
}
 70
     0
280
     1
281
     0
  0
BLOCK_RECORD
  5
EB
330
1
100
AcDbSymbolTableRecord
100
AcDbBlockTableRecord
  2
block 17
340
0
102
{BLKREFS
331
EC
102
}
 70
     0
280
     1
281
     0
  0
BLOCK_RECORD
  5
FA
330
1
100
AcDbSymbolTableRecord
100
AcDbBlockTableRecord
  2
block 18
340
0
102
{BLKREFS
331
FB
102
}
 70
     0
280
     1
281
     0
  0
BLOCK_RECORD
  5
109
330
1
100
AcDbSymbolTableRecord
100
AcDbBlockTableRecord
  2
block 19
340
0
102
{BLKREFS
331
10A
102
}
 70
     0
280
     1
281
     0
  0
BLOCK_RECORD
  5
114
330
1
100
AcDbSymbolTableRecord
100
AcDbBlockTableRecord
  2
block 20
340
0
102
{BLKREFS
331
115
102
}
 70
     0
280
     1
281
     0
  0
BLOCK_RECORD
  5
11F
330
1
100
AcDbSymbolTableRecord
100
AcDbBlockTableRecord
  2
block 21
340
0
102
{BLKREFS
331
120
102
}
 70
     0
280
     1
281
     0
  0
BLOCK_RECORD
  5
12A
330
1
100
AcDbSymbolTableRecord
100
AcDbBlockTableRecord
  2
block 22
340
0
102
{BLKREFS
331
12B
102
}
 70
     0
280
     1
281
     0
  0
BLOCK_RECORD
  5
135
330
1
100
AcDbSymbolTableRecord
100
AcDbBlockTableRecord
  2
block 23
340
0
102
{BLKREFS
331
136
102
}
 70
     0
280
     1
281
     0
  0
BLOCK_RECORD
  5
140
330
1
100
AcDbSymbolTableRecord
100
AcDbBlockTableRecord
  2
block 24
340
0
102
{BLKREFS
331
141
102
}
 70
     0
280
     1
281
     0
  0
BLOCK_RECORD
  5
14B
330
1
100
AcDbSymbolTableRecord
100
AcDbBlockTableRecord
  2
block 25
340
0
102
{BLKREFS
331
14C
102
}
 70
     0
280
     1
281
     0
  0
BLOCK_RECORD
  5
156
330
1
100
AcDbSymbolTableRecord
100
AcDbBlockTableRecord
  2
block 26
340
0
102
{BLKREFS
331
157
102
}
 70
     0
280
     1
281
     0
  0
BLOCK_RECORD
  5
161
330
1
100
AcDbSymbolTableRecord
100
AcDbBlockTableRecord
  2
block 27
340
0
102
{BLKREFS
331
162
102
}
 70
     0
280
     1
281
     0
  0
BLOCK_RECORD
  5
16C
330
1
100
AcDbSymbolTableRecord
100
AcDbBlockTableRecord
  2
block 28
340
0
102
{BLKREFS
331
16D
102
}
 70
     0
280
     1
281
     0
  0
BLOCK_RECORD
  5
177
330
1
100
AcDbSymbolTableRecord
100
AcDbBlockTableRecord
  2
block 29
340
0
102
{BLKREFS
331
178
102
}
 70
     0
280
     1
281
     0
  0
BLOCK_RECORD
  5
182
330
1
100
AcDbSymbolTableRecord
100
AcDbBlockTableRecord
  2
block 30
340
0
102
{BLKREFS
331
183
102
}
 70
     0
280
     1
281
     0
  0
BLOCK_RECORD
  5
18D
330
1
100
AcDbSymbolTableRecord
100
AcDbBlockTableRecord
  2
block 31
340
0
102
{BLKREFS
331
18E
102
}
 70
     0
280
     1
281
     0
  0
BLOCK_RECORD
  5
198
330
1
100
AcDbSymbolTableRecord
100
AcDbBlockTableRecord
  2
block 32
340
0
102
{BLKREFS
331
199
102
}
 70
     0
280
     1
281
     0
  0
BLOCK_RECORD
  5
1A3
330
1
100
AcDbSymbolTableRecord
100
AcDbBlockTableRecord
  2
block 33
340
0
102
{BLKREFS
331
1A4
102
}
 70
     0
280
     1
281
     0
  0
BLOCK_RECORD
  5
1AE
330
1
100
AcDbSymbolTableRecord
100
AcDbBlockTableRecord
  2
block 34
340
0
102
{BLKREFS
331
1AF
102
}
 70
     0
280
     1
281
     0
  0
BLOCK_RECORD
  5
1B9
330
1
100
AcDbSymbolTableRecord
100
AcDbBlockTableRecord
  2
block 35
340
0
102
{BLKREFS
331
1BA
102
}
 70
     0
280
     1
281
     0
  0
BLOCK_RECORD
  5
1C4
330
1
100
AcDbSymbolTableRecord
100
AcDbBlockTableRecord
  2
block 36
340
0
102
{BLKREFS
331
1C5
102
}
 70
     0
280
     1
281
     0
  0
BLOCK_RECORD
  5
1CF
330
1
100
AcDbSymbolTableRecord
100
AcDbBlockTableRecord
  2
block 37
340
0
102
{BLKREFS
331
1D0
102
}
 70
     0
280
     1
281
     0
  0
BLOCK_RECORD
  5
1DA
330
1
100
AcDbSymbolTableRecord
100
AcDbBlockTableRecord
  2
block 38
340
0
102
{BLKREFS
331
1DB
102
}
 70
     0
280
     1
281
     0
  0
BLOCK_RECORD
  5
1E5
330
1
100
AcDbSymbolTableRecord
100
AcDbBlockTableRecord
  2
block 39
340
0
102
{BLKREFS
331
1E6
102
}
 70
     0
280
     1
281
     0
  0
BLOCK_RECORD
  5
1F0
330
1
100
AcDbSymbolTableRecord
100
AcDbBlockTableRecord
  2
block 40
340
0
102
{BLKREFS
331
1F1
102
}
 70
     0
280
     1
281
     0
  0
BLOCK_RECORD
  5
1FB
330
1
100
AcDbSymbolTableRecord
100
AcDbBlockTableRecord
  2
block 41
340
0
102
{BLKREFS
331
1FC
102
}
 70
     0
280
     1
281
     0
  0
BLOCK_RECORD
  5
206
330
1
100
AcDbSymbolTableRecord
100
AcDbBlockTableRecord
  2
block 42
340
0
102
{BLKREFS
331
207
102
}
 70
     0
280
     1
281
     0
  0
BLOCK_RECORD
  5
211
330
1
100
AcDbSymbolTableRecord
100
AcDbBlockTableRecord
  2
block 43
340
0
102
{BLKREFS
331
212
102
}
 70
     0
280
     1
281
     0
  0
BLOCK_RECORD
  5
21C
330
1
100
AcDbSymbolTableRecord
100
AcDbBlockTableRecord
  2
block 44
340
0
102
{BLKREFS
331
21D
102
}
 70
     0
280
     1
281
     0
  0
BLOCK_RECORD
  5
227
330
1
100
AcDbSymbolTableRecord
100
AcDbBlockTableRecord
  2
block 45
340
0
102
{BLKREFS
331
228
102
}
 70
     0
280
     1
281
     0
  0
BLOCK_RECORD
  5
232
330
1
100
AcDbSymbolTableRecord
100
AcDbBlockTableRecord
  2
block 46
340
0
102
{BLKREFS
331
233
102
}
 70
     0
280
     1
281
     0
  0
BLOCK_RECORD
  5
23D
330
1
100
AcDbSymbolTableRecord
100
AcDbBlockTableRecord
  2
block 47
340
0
102
{BLKREFS
331
23E
102
}
 70
     0
280
     1
281
     0
  0
BLOCK_RECORD
  5
248
330
1
100
AcDbSymbolTableRecord
100
AcDbBlockTableRecord
  2
block 48
340
0
102
{BLKREFS
331
249
102
}
 70
     0
280
     1
281
     0
  0
BLOCK_RECORD
  5
253
330
1
100
AcDbSymbolTableRecord
100
AcDbBlockTableRecord
  2
block 49
340
0
102
{BLKREFS
331
254
102
}
 70
     0
280
     1
281
     0
  0
BLOCK_RECORD
  5
25E
330
1
100
AcDbSymbolTableRecord
100
AcDbBlockTableRecord
  2
block 50
340
0
102
{BLKREFS
331
25F
102
}
 70
     0
280
     1
281
     0
  0
BLOCK_RECORD
  5
269
330
1
100
AcDbSymbolTableRecord
100
AcDbBlockTableRecord
  2
block 51
340
0
102
{BLKREFS
331
26A
102
}
 70
     0
280
     1
281
     0
  0
BLOCK_RECORD
  5
274
330
1
100
AcDbSymbolTableRecord
100
AcDbBlockTableRecord
  2
block 52
340
0
102
{BLKREFS
331
275
102
}
 70
     0
280
     1
281
     0
  0
BLOCK_RECORD
  5
27F
330
1
100
AcDbSymbolTableRecord
100
AcDbBlockTableRecord
  2
block 53
340
0
102
{BLKREFS
331
280
102
}
 70
     0
280
     1
281
     0
  0
BLOCK_RECORD
  5
28A
330
1
100
AcDbSymbolTableRecord
100
AcDbBlockTableRecord
  2
block 54
340
0
102
{BLKREFS
331
28B
102
}
 70
     0
280
     1
281
     0
  0
BLOCK_RECORD
  5
295
330
1
100
AcDbSymbolTableRecord
100
AcDbBlockTableRecord
  2
block 55
340
0
102
{BLKREFS
331
296
102
}
 70
     0
280
     1
281
     0
  0
BLOCK_RECORD
  5
2A0
330
1
100
AcDbSymbolTableRecord
100
AcDbBlockTableRecord
  2
block 56
340
0
102
{BLKREFS
331
2A1
102
}
 70
     0
280
     1
281
     0
  0
BLOCK_RECORD
  5
2AB
330
1
100
AcDbSymbolTableRecord
100
AcDbBlockTableRecord
  2
block 57
340
0
102
{BLKREFS
331
2AC
102
}
 70
     0
280
     1
281
     0
  0
BLOCK_RECORD
  5
2B6
330
1
100
AcDbSymbolTableRecord
100
AcDbBlockTableRecord
  2
block 58
340
0
102
{BLKREFS
331
2B7
102
}
 70
     0
280
     1
281
     0
  0
ENDTAB
  0
ENDSEC
  0
SECTION
  2
BLOCKS
  0
BLOCK
  5
20
330
1F
100
AcDbEntity
  8
0
100
AcDbBlockBegin
  2
*Model_Space
 70
     0
 10
0.0
 20
0.0
 30
0.0
  3
*Model_Space
  1

  0
ENDBLK
  5
21
330
1F
100
AcDbEntity
  8
0
100
AcDbBlockEnd
  0
BLOCK
  5
1C
330
1B
100
AcDbEntity
 67
     1
  8
0
100
AcDbBlockBegin
  2
*Paper_Space
 70
     0
 10
0.0
 20
0.0
 30
0.0
  3
*Paper_Space
  1

  0
ENDBLK
  5
1D
330
1B
100
AcDbEntity
 67
     1
  8
0
100
AcDbBlockEnd
  0
BLOCK
  5
24
330
23
100
AcDbEntity
  8
0
100
AcDbBlockBegin
  2
*Paper_Space0
 70
     0
 10
0.0
 20
0.0
 30
0.0
  3
*Paper_Space0
  1

  0
ENDBLK
  5
25
330
23
100
AcDbEntity
  8
0
100
AcDbBlockEnd
  0
BLOCK
  5
43
330
41
100
AcDbEntity
  8
0
100
AcDbBlockBegin
  2
block 2
 70
     0
 10
0.0
 20
0.0
 30
0.0
  3
block 2
  1

  0
SPLINE
  5
45
330
41
100
AcDbEntity
  8
Layer 1
 62
   175
420
  4737438
370
    25
100
AcDbSpline
210
0.0
220
0.0
230
1.0
 70
    11
 71
     3
 72
    77
 73
    73
 74
     0
 42
0.0000000001
 43
0.0000000001
 12
1.0
 22
0.0
 32
0.0
 13
1.0
 23
0.0
 33
0.0
 40
0.0
 40
0.0
 40
0.0
 40
0.0
 40
1.0
 40
1.0
 40
1.0
 40
2.0
 40
2.0
 40
2.0
 40
3.0
 40
3.0
 40
3.0
 40
4.0
 40
4.0
 40
4.0
 40
5.0
 40
5.0
 40
5.0
 40
6.0
 40
6.0
 40
6.0
 40
7.0
 40
7.0
 40
7.0
 40
8.0
 40
8.0
 40
8.0
 40
9.0
 40
9.0
 40
9.0
 40
10.0
 40
10.0
 40
10.0
 40
11.0
 40
11.0
 40
11.0
 40
12.0
 40
12.0
 40
12.0
 40
13.0
 40
13.0
 40
13.0
 40
14.0
 40
14.0
 40
14.0
 40
15.0
 40
15.0
 40
15.0
 40
16.0
 40
16.0
 40
16.0
 40
17.0
 40
17.0
 40
17.0
 40
18.0
 40
18.0
 40
18.0
 40
19.0
 40
19.0
 40
19.0
 40
20.0
 40
20.0
 40
20.0
 40
21.0
 40
21.0
 40
21.0
 40
22.0
 40
22.0
 40
22.0
 40
23.0
 40
23.0
 40
23.0
 40
24.0
 40
24.0
 40
24.0
 40
24.0
 10
54.85705606144943
 20
217.4614238787923
 30
0.0
 10
54.85705606144943
 20
217.4614238787923
 30
0.0
 10
247.3568676331389
 20
217.456272999597
 30
0.0
 10
247.3568676331389
 20
217.456272999597
 30
0.0
 10
248.4614127026164
 20
217.4562434443567
 30
0.0
 10
249.3568091242822
 20
216.5608271108763
 30
0.0
 10
249.3568141169375
 20
215.4562820410151
 30
0.0
 10
249.3568141169375
 20
215.4562820410151
 30
0.0
 10
249.356939766528
 20
187.6583206828348
 30
0.0
 10
249.356939766528
 20
187.6583206828348
 30
0.0
 10
249.3569447756615
 20
186.5501299738521
 30
0.0
 10
248.4558594400173
 20
185.6532026186986
 30
0.0
 10
247.3476806070191
 20
185.658333076259
 30
0.0
 10
247.3476806070191
 20
185.658333076259
 30
0.0
 10
241.8412080106311
 20
185.6838260049457
 30
0.0
 10
241.8412080106311
 20
185.6838260049457
 30
0.0
 10
240.7330327114066
 20
185.6889564461459
 30
0.0
 10
239.8319488511017
 20
184.792034613754
 30
0.0
 10
239.8319488511017
 20
183.683847438572
 30
0.0
 10
239.8319488511017
 20
183.683847438572
 30
0.0
 10
239.8319488511017
 20
168.6386844201788
 30
0.0
 10
239.8319488511017
 20
168.6386844201788
 30
0.0
 10
239.8319488511017
 20
167.5358518287711
 30
0.0
 10
238.9392273662109
 20
166.6411424271899
 30
0.0
 10
237.8363975030078
 20
166.6386893683104
 30
0.0
 10
237.8363975030078
 20
166.6386893683104
 30
0.0
 10
232.3025002015768
 20
166.6263801478524
 30
0.0
 10
232.3025002015768
 20
166.6263801478524
 30
0.0
 10
231.1996703383737
 20
166.6239270889729
 30
0.0
 10
230.3069488534829
 20
165.7292176873914
 30
0.0
 10
230.3069488534829
 20
164.6263850959834
 30
0.0
 10
230.3069488534829
 20
164.6263850959834
 30
0.0
 10
230.3069488534829
 20
149.5719413849775
 30
0.0
 10
230.3069488534829
 20
149.5719413849775
 30
0.0
 10
230.3069488534829
 20
148.4673718855915
 30
0.0
 10
231.2023793535978
 20
147.5719413854779
 30
0.0
 10
232.3069488529825
 20
147.5719413854779
 30
0.0
 10
232.3069488529825
 20
147.5719413854779
 30
0.0
 10
233.0694488527928
 20
147.5719413854779
 30
0.0
 10
233.0694488527928
 20
147.5719413854779
 30
0.0
 10
234.1740183521775
 20
147.5719413854779
 30
0.0
 10
235.0694488522923
 20
146.6765108853631
 30
0.0
 10
235.0694488522923
 20
145.5719413859771
 30
0.0
 10
235.0694488522923
 20
145.5719413859771
 30
0.0
 10
235.0694488522923
 20
130.5109879472533
 30
0.0
 10
235.0694488522923
 20
130.5109879472533
 30
0.0
 10
235.0694488522923
 20
129.4107053329823
 30
0.0
 10
235.9581993928302
 20
128.5170605490708
 30
0.0
 10
237.0584654152815
 20
128.5110181069503
 30
0.0
 10
237.0584654152815
 20
128.5110181069503
 30
0.0
 10
242.6052885152204
 20
128.4805560579097
 30
0.0
 10
242.6052885152204
 20
128.4805560579097
 30
0.0
 10
243.7055545376717
 20
128.4745136157891
 30
0.0
 10
244.5943050782096
 20
127.5808688318776
 30
0.0
 10
244.5943050782096
 20
126.4805862176066
 30
0.0
 10
244.5943050782096
 20
126.4805862176066
 30
0.0
 10
244.5943050782096
 20
84.4302000406961
 30
0.0
 10
244.5943050782096
 20
84.4302000406961
 30
0.0
 10
244.5943050782096
 20
83.32575748304704
 30
0.0
 10
243.6990726818898
 20
82.43037957272628
 30
0.0
 10
242.5946301388285
 20
82.43020006761147
 30
0.0
 10
242.5946301388285
 20
82.43020006761147
 30
0.0
 10
54.85760480401733
 20
82.39968715735355
 30
0.0
 10
54.85760480401733
 20
82.39968715735355
 30
0.0
 10
52.64821201191744
 20
82.39932806460784
 30
0.0
 10
50.8569547830887
 20
84.19029410425811
 30
0.0
 10
50.8569546847804
 20
86.39968692553863
 30
0.0
 10
50.8569546847804
 20
86.39968692553863
 30
0.0
 10
50.85694903108877
 20
213.4614237032413
 30
0.0
 10
50.85694903108877
 20
213.4614237032413
 30
0.0
 10
50.85694893278978
 20
215.6706045699815
 30
0.0
 10
52.64787519550042
 20
217.461482991701
 30
0.0
 10
54.85705606144943
 20
217.4614238787923
 30
0.0
  0
ENDBLK
  5
44
330
41
100
AcDbEntity
  8
0
100
AcDbBlockEnd
  0
BLOCK
  5
48
330
46
100
AcDbEntity
  8
0
100
AcDbBlockBegin
  2
block 3
 70
     0
 10
0.0
 20
0.0
 30
0.0
  3
block 3
  1

  0
SPLINE
  5
4A
330
46
100
AcDbEntity
  8
Layer 1
 62
   195
420
  7949726
370
    25
100
AcDbSpline
210
0.0
220
0.0
230
1.0
 70
    11
 71
     3
 72
    17
 73
    13
 74
     0
 42
0.0000000001
 43
0.0000000001
 12
1.0
 22
0.0
 32
0.0
 13
1.0
 23
0.0
 33
0.0
 40
0.0
 40
0.0
 40
0.0
 40
0.0
 40
1.0
 40
1.0
 40
1.0
 40
2.0
 40
2.0
 40
2.0
 40
3.0
 40
3.0
 40
3.0
 40
4.0
 40
4.0
 40
4.0
 40
4.0
 10
137.6918670747608
 20
213.5865309164024
 30
0.0
 10
137.6918670747608
 20
212.9790176917747
 30
0.0
 10
137.199380299664
 20
212.4865309166773
 30
0.0
 10
136.5918670750357
 20
212.4865309166773
 30
0.0
 10
135.9843538504074
 20
212.4865309166773
 30
0.0
 10
135.4918670753106
 20
212.9790176917747
 30
0.0
 10
135.4918670753106
 20
213.5865309164024
 30
0.0
 10
135.4918670753106
 20
214.1940441410306
 30
0.0
 10
135.9843538504074
 20
214.6865309161274
 30
0.0
 10
136.5918670750357
 20
214.6865309161274
 30
0.0
 10
137.199380299664
 20
214.6865309161274
 30
0.0
 10
137.6918670747608
 20
214.1940441410306
 30
0.0
 10
137.6918670747608
 20
213.5865309164024
 30
0.0
  0
ENDBLK
  5
49
330
46
100
AcDbEntity
  8
0
100
AcDbBlockEnd
  0
BLOCK
  5
4D
330
4B
100
AcDbEntity
  8
0
100
AcDbBlockBegin
  2
block 4
 70
     0
 10
0.0
 20
0.0
 30
0.0
  3
block 4
  1

  0
SPLINE
  5
4F
330
4B
100
AcDbEntity
  8
Layer 1
 62
   195
420
  7949726
370
    25
100
AcDbSpline
210
0.0
220
0.0
230
1.0
 70
    11
 71
     3
 72
    17
 73
    13
 74
     0
 42
0.0000000001
 43
0.0000000001
 12
1.0
 22
0.0
 32
0.0
 13
1.0
 23
0.0
 33
0.0
 40
0.0
 40
0.0
 40
0.0
 40
0.0
 40
1.0
 40
1.0
 40
1.0
 40
2.0
 40
2.0
 40
2.0
 40
3.0
 40
3.0
 40
3.0
 40
4.0
 40
4.0
 40
4.0
 40
4.0
 10
241.6944488506358
 20
86.42194140076504
 30
0.0
 10
241.6944488506358
 20
85.81442817613804
 30
0.0
 10
241.2019620755389
 20
85.32194140103996
 30
0.0
 10
240.5944488509113
 20
85.32194140103996
 30
0.0
 10
239.9869356262824
 20
85.32194140103996
 30
0.0
 10
239.4944488511856
 20
85.81442817613804
 30
0.0
 10
239.4944488511856
 20
86.42194140076504
 30
0.0
 10
239.4944488511856
 20
87.02945462539331
 30
0.0
 10
239.9869356262824
 20
87.5219414004901
 30
0.0
 10
240.5944488509113
 20
87.5219414004901
 30
0.0
 10
241.2019620755389
 20
87.5219414004901
 30
0.0
 10
241.6944488506358
 20
87.02945462539331
 30
0.0
 10
241.6944488506358
 20
86.42194140076504
 30
0.0
  0
ENDBLK
  5
4E
330
4B
100
AcDbEntity
  8
0
100
AcDbBlockEnd
  0
BLOCK
  5
52
330
50
100
AcDbEntity
  8
0
100
AcDbBlockBegin
  2
block 5
 70
     0
 10
0.0
 20
0.0
 30
0.0
  3
block 5
  1

  0
SPLINE
  5
54
330
50
100
AcDbEntity
  8
Layer 1
 62
   195
420
  7949726
370
    25
100
AcDbSpline
210
0.0
220
0.0
230
1.0
 70
    11
 71
     3
 72
    17
 73
    13
 74
     0
 42
0.0000000001
 43
0.0000000001
 12
1.0
 22
0.0
 32
0.0
 13
1.0
 23
0.0
 33
0.0
 40
0.0
 40
0.0
 40
0.0
 40
0.0
 40
1.0
 40
1.0
 40
1.0
 40
2.0
 40
2.0
 40
2.0
 40
3.0
 40
3.0
 40
3.0
 40
4.0
 40
4.0
 40
4.0
 40
4.0
 10
246.4569488494451
 20
213.4615309015203
 30
0.0
 10
246.4569488494451
 20
212.8540176768933
 30
0.0
 10
245.9644620743483
 20
212.3615309017952
 30
0.0
 10
245.3569488497207
 20
212.3615309017952
 30
0.0
 10
244.7494356250918
 20
212.3615309017952
 30
0.0
 10
244.256948849995
 20
212.8540176768933
 30
0.0
 10
244.256948849995
 20
213.4615309015203
 30
0.0
 10
244.256948849995
 20
214.0690441261486
 30
0.0
 10
244.7494356250918
 20
214.5615309012454
 30
0.0
 10
245.3569488497207
 20
214.5615309012454
 30
0.0
 10
245.9644620743483
 20
214.5615309012454
 30
0.0
 10
246.4569488494451
 20
214.0690441261486
 30
0.0
 10
246.4569488494451
 20
213.4615309015203
 30
0.0
  0
ENDBLK
  5
53
330
50
100
AcDbEntity
  8
0
100
AcDbBlockEnd
  0
BLOCK
  5
57
330
55
100
AcDbEntity
  8
0
100
AcDbBlockBegin
  2
block 6
 70
     0
 10
0.0
 20
0.0
 30
0.0
  3
block 6
  1

  0
SPLINE
  5
59
330
55
100
AcDbEntity
  8
Layer 1
 62
   195
420
  7949726
370
    25
100
AcDbSpline
210
0.0
220
0.0
230
1.0
 70
    11
 71
     3
 72
    17
 73
    13
 74
     0
 42
0.0000000001
 43
0.0000000001
 12
1.0
 22
0.0
 32
0.0
 13
1.0
 23
0.0
 33
0.0
 40
0.0
 40
0.0
 40
0.0
 40
0.0
 40
1.0
 40
1.0
 40
1.0
 40
2.0
 40
2.0
 40
2.0
 40
3.0
 40
3.0
 40
3.0
 40
4.0
 40
4.0
 40
4.0
 40
4.0
 10
201.0010848790301
 20
213.4872253459576
 30
0.0
 10
201.0010848790301
 20
212.8797121213299
 30
0.0
 10
200.5085981039333
 20
212.3872253462325
 30
0.0
 10
199.901084879305
 20
212.3872253462325
 30
0.0
 10
199.2935716546768
 20
212.3872253462325
 30
0.0
 10
198.8010848795799
 20
212.8797121213299
 30
0.0
 10
198.8010848795799
 20
213.4872253459576
 30
0.0
 10
198.8010848795799
 20
214.0947385705859
 30
0.0
 10
199.2935716546768
 20
214.5872253456826
 30
0.0
 10
199.901084879305
 20
214.5872253456826
 30
0.0
 10
200.5085981039333
 20
214.5872253456826
 30
0.0
 10
201.0010848790301
 20
214.0947385705859
 30
0.0
 10
201.0010848790301
 20
213.4872253459576
 30
0.0
  0
ENDBLK
  5
58
330
55
100
AcDbEntity
  8
0
100
AcDbBlockEnd
  0
BLOCK
  5
5C
330
5A
100
AcDbEntity
  8
0
100
AcDbBlockBegin
  2
block 7
 70
     0
 10
0.0
 20
0.0
 30
0.0
  3
block 7
  1

  0
SPLINE
  5
5E
330
5A
100
AcDbEntity
  8
Layer 1
 62
   195
420
  7949726
370
    25
100
AcDbSpline
210
0.0
220
0.0
230
1.0
 70
    11
 71
     3
 72
    17
 73
    13
 74
     0
 42
0.0000000001
 43
0.0000000001
 12
1.0
 22
0.0
 32
0.0
 13
1.0
 23
0.0
 33
0.0
 40
0.0
 40
0.0
 40
0.0
 40
0.0
 40
1.0
 40
1.0
 40
1.0
 40
2.0
 40
2.0
 40
2.0
 40
3.0
 40
3.0
 40
3.0
 40
4.0
 40
4.0
 40
4.0
 40
4.0
 10
218.9540804028967
 20
213.4872253459582
 30
0.0
 10
218.9540804028967
 20
212.8797121213299
 30
0.0
 10
218.4615936277999
 20
212.3872253462325
 30
0.0
 10
217.8540804031709
 20
212.3872253462325
 30
0.0
 10
217.2465671785433
 20
212.3872253462325
 30
0.0
 10
216.7540804034465
 20
212.8797121213299
 30
0.0
 10
216.7540804034465
 20
213.4872253459582
 30
0.0
 10
216.7540804034465
 20
214.0947385705859
 30
0.0
 10
217.2465671785433
 20
214.5872253456826
 30
0.0
 10
217.8540804031709
 20
214.5872253456826
 30
0.0
 10
218.4615936277999
 20
214.5872253456826
 30
0.0
 10
218.9540804028967
 20
214.0947385705859
 30
0.0
 10
218.9540804028967
 20
213.4872253459582
 30
0.0
  0
ENDBLK
  5
5D
330
5A
100
AcDbEntity
  8
0
100
AcDbBlockEnd
  0
BLOCK
  5
61
330
5F
100
AcDbEntity
  8
0
100
AcDbBlockBegin
  2
block 8
 70
     0
 10
0.0
 20
0.0
 30
0.0
  3
block 8
  1

  0
SPLINE
  5
63
330
5F
100
AcDbEntity
  8
Layer 1
 62
   195
420
  7949726
370
    25
100
AcDbSpline
210
0.0
220
0.0
230
1.0
 70
    11
 71
     3
 72
    17
 73
    13
 74
     0
 42
0.0000000001
 43
0.0000000001
 12
1.0
 22
0.0
 32
0.0
 13
1.0
 23
0.0
 33
0.0
 40
0.0
 40
0.0
 40
0.0
 40
0.0
 40
1.0
 40
1.0
 40
1.0
 40
2.0
 40
2.0
 40
2.0
 40
3.0
 40
3.0
 40
3.0
 40
4.0
 40
4.0
 40
4.0
 40
4.0
 10
149.1944488737609
 20
86.39903092078424
 30
0.0
 10
149.1944488737609
 20
85.79151769615724
 30
0.0
 10
148.7019620986641
 20
85.29903092105917
 30
0.0
 10
148.0944488740362
 20
85.29903092105917
 30
0.0
 10
147.4869356494076
 20
85.29903092105917
 30
0.0
 10
146.9944488743108
 20
85.79151769615724
 30
0.0
 10
146.9944488743108
 20
86.39903092078424
 30
0.0
 10
146.9944488743108
 20
87.00654414541252
 30
0.0
 10
147.4869356494076
 20
87.49903092050931
 30
0.0
 10
148.0944488740362
 20
87.49903092050931
 30
0.0
 10
148.7019620986641
 20
87.49903092050931
 30
0.0
 10
149.1944488737609
 20
87.00654414541252
 30
0.0
 10
149.1944488737609
 20
86.39903092078424
 30
0.0
  0
ENDBLK
  5
62
330
5F
100
AcDbEntity
  8
0
100
AcDbBlockEnd
  0
BLOCK
  5
66
330
64
100
AcDbEntity
  8
0
100
AcDbBlockBegin
  2
block 9
 70
     0
 10
0.0
 20
0.0
 30
0.0
  3
block 9
  1

  0
SPLINE
  5
68
330
64
100
AcDbEntity
  8
Layer 1
 62
   195
420
  7949726
370
    25
100
AcDbSpline
210
0.0
220
0.0
230
1.0
 70
    11
 71
     3
 72
    17
 73
    13
 74
     0
 42
0.0000000001
 43
0.0000000001
 12
1.0
 22
0.0
 32
0.0
 13
1.0
 23
0.0
 33
0.0
 40
0.0
 40
0.0
 40
0.0
 40
0.0
 40
1.0
 40
1.0
 40
1.0
 40
2.0
 40
2.0
 40
2.0
 40
3.0
 40
3.0
 40
3.0
 40
4.0
 40
4.0
 40
4.0
 40
4.0
 10
115.5735249006938
 20
213.5865309164024
 30
0.0
 10
115.5735249006938
 20
212.9790176917747
 30
0.0
 10
115.081038125597
 20
212.4865309166773
 30
0.0
 10
114.4735249009687
 20
212.4865309166773
 30
0.0
 10
113.8660116763404
 20
212.4865309166773
 30
0.0
 10
113.3735249012437
 20
212.9790176917747
 30
0.0
 10
113.3735249012437
 20
213.5865309164024
 30
0.0
 10
113.3735249012437
 20
214.1940441410306
 30
0.0
 10
113.8660116763404
 20
214.6865309161274
 30
0.0
 10
114.4735249009687
 20
214.6865309161274
 30
0.0
 10
115.081038125597
 20
214.6865309161274
 30
0.0
 10
115.5735249006938
 20
214.1940441410306
 30
0.0
 10
115.5735249006938
 20
213.5865309164024
 30
0.0
  0
ENDBLK
  5
67
330
64
100
AcDbEntity
  8
0
100
AcDbBlockEnd
  0
BLOCK
  5
6B
330
69
100
AcDbEntity
  8
0
100
AcDbBlockBegin
  2
block 10
 70
     0
 10
0.0
 20
0.0
 30
0.0
  3
block 10
  1

  0
SPLINE
  5
6D
330
69
100
AcDbEntity
  8
Layer 1
 62
   195
420
  7949726
370
    25
100
AcDbSpline
210
0.0
220
0.0
230
1.0
 70
    11
 71
     3
 72
    17
 73
    13
 74
     0
 42
0.0000000001
 43
0.0000000001
 12
1.0
 22
0.0
 32
0.0
 13
1.0
 23
0.0
 33
0.0
 40
0.0
 40
0.0
 40
0.0
 40
0.0
 40
1.0
 40
1.0
 40
1.0
 40
2.0
 40
2.0
 40
2.0
 40
3.0
 40
3.0
 40
3.0
 40
4.0
 40
4.0
 40
4.0
 40
4.0
 10
56.65695221453192
 20
87.09903428348969
 30
0.0
 10
56.65695221453192
 20
86.49152105886269
 30
0.0
 10
56.16446543943513
 20
85.99903428376462
 30
0.0
 10
55.55695221480718
 20
85.99903428376462
 30
0.0
 10
54.94943899017857
 20
85.99903428376462
 30
0.0
 10
54.45695221508178
 20
86.49152105886269
 30
0.0
 10
54.45695221508178
 20
87.09903428348969
 30
0.0
 10
54.45695221508178
 20
87.70654750811796
 30
0.0
 10
54.94943899017857
 20
88.19903428321476
 30
0.0
 10
55.55695221480718
 20
88.19903428321476
 30
0.0
 10
56.16446543943513
 20
88.19903428321476
 30
0.0
 10
56.65695221453192
 20
87.70654750811796
 30
0.0
 10
56.65695221453192
 20
87.09903428348969
 30
0.0
  0
ENDBLK
  5
6C
330
69
100
AcDbEntity
  8
0
100
AcDbBlockEnd
  0
BLOCK
  5
70
330
6E
100
AcDbEntity
  8
0
100
AcDbBlockBegin
  2
block 11
 70
     0
 10
0.0
 20
0.0
 30
0.0
  3
block 11
  1

  0
SPLINE
  5
72
330
6E
100
AcDbEntity
  8
Layer 1
 62
   195
420
  7949726
370
    25
100
AcDbSpline
210
0.0
220
0.0
230
1.0
 70
    11
 71
     3
 72
    17
 73
    13
 74
     0
 42
0.0000000001
 43
0.0000000001
 12
1.0
 22
0.0
 32
0.0
 13
1.0
 23
0.0
 33
0.0
 40
0.0
 40
0.0
 40
0.0
 40
0.0
 40
1.0
 40
1.0
 40
1.0
 40
2.0
 40
2.0
 40
2.0
 40
3.0
 40
3.0
 40
3.0
 40
4.0
 40
4.0
 40
4.0
 40
4.0
 10
56.65694885165163
 20
212.7615309141961
 30
0.0
 10
56.65694885165163
 20
212.1540176895691
 30
0.0
 10
56.16446207655485
 20
211.661530914471
 30
0.0
 10
55.55694885192689
 20
211.661530914471
 30
0.0
 10
54.94943562729829
 20
211.661530914471
 30
0.0
 10
54.45694885220149
 20
212.1540176895691
 30
0.0
 10
54.45694885220149
 20
212.7615309141961
 30
0.0
 10
54.45694885220149
 20
213.3690441388244
 30
0.0
 10
54.94943562729829
 20
213.8615309139211
 30
0.0
 10
55.55694885192689
 20
213.8615309139211
 30
0.0
 10
56.16446207655485
 20
213.8615309139211
 30
0.0
 10
56.65694885165163
 20
213.3690441388244
 30
0.0
 10
56.65694885165163
 20
212.7615309141961
 30
0.0
  0
ENDBLK
  5
71
330
6E
100
AcDbEntity
  8
0
100
AcDbBlockEnd
  0
BLOCK
  5
75
330
73
100
AcDbEntity
  8
0
100
AcDbBlockBegin
  2
block 12
 70
     0
 10
0.0
 20
0.0
 30
0.0
  3
block 12
  1

  0
POLYLINE
  5
77
330
73
100
AcDbEntity
  8
Layer 1
 62
   178
420
    65793
370
    25
100
AcDb2dPolyline
 66
     1
 10
0.0
 20
0.0
 30
0.0
  0
VERTEX
  5
78
330
77
100
AcDbEntity
  8
Layer 1
 62
   178
420
    65793
370
    25
100
AcDbVertex
100
AcDb2dVertex
 10
182.8256941340276
 20
106.9240267492058
 30
0.0
  0
VERTEX
  5
79
330
77
100
AcDbEntity
  8
Layer 1
 62
   178
420
    65793
370
    25
100
AcDbVertex
100
AcDb2dVertex
 10
183.912692058405
 20
106.9240267492058
 30
0.0
  0
VERTEX
  5
7A
330
77
100
AcDbEntity
  8
Layer 1
 62
   178
420
    65793
370
    25
100
AcDbVertex
100
AcDb2dVertex
 10
183.912692058405
 20
110.3240280828368
 30
0.0
  0
VERTEX
  5
7B
330
77
100
AcDbEntity
  8
Layer 1
 62
   178
420
    65793
370
    25
100
AcDbVertex
100
AcDb2dVertex
 10
187.4126918605035
 20
110.3240280828368
 30
0.0
  0
VERTEX
  5
7C
330
77
100
AcDbEntity
  8
Layer 1
 62
   178
420
    65793
370
    25
100
AcDbVertex
100
AcDb2dVertex
 10
190.9126916626021
 20
110.3240280828368
 30
0.0
  0
VERTEX
  5
7D
330
77
100
AcDbEntity
  8
Layer 1
 62
   178
420
    65793
370
    25
100
AcDbVertex
100
AcDb2dVertex
 10
207.7251907119683
 20
110.3240280828368
 30
0.0
  0
VERTEX
  5
7E
330
77
100
AcDbEntity
  8
Layer 1
 62
   178
420
    65793
370
    25
100
AcDbVertex
100
AcDb2dVertex
 10
207.7886977884555
 20
110.3240280828368
 30
0.0
  0
VERTEX
  5
7F
330
77
100
AcDbEntity
  8
Layer 1
 62
   178
420
    65793
370
    25
100
AcDbVertex
100
AcDb2dVertex
 10
211.2251905140668
 20
110.3240280828368
 30
0.0
  0
VERTEX
  5
80
330
77
100
AcDbEntity
  8
Layer 1
 62
   178
420
    65793
370
    25
100
AcDbVertex
100
AcDb2dVertex
 10
211.288697590554
 20
110.3240280828368
 30
0.0
  0
VERTEX
  5
81
330
77
100
AcDbEntity
  8
Layer 1
 62
   178
420
    65793
370
    25
100
AcDbVertex
100
AcDb2dVertex
 10
214.7251903161653
 20
110.3240280828368
 30
0.0
  0
VERTEX
  5
82
330
77
100
AcDbEntity
  8
Layer 1
 62
   178
420
    65793
370
    25
100
AcDbVertex
100
AcDb2dVertex
 10
214.7886973926526
 20
110.3240280828368
 30
0.0
  0
VERTEX
  5
83
330
77
100
AcDbEntity
  8
Layer 1
 62
   178
420
    65793
370
    25
100
AcDbVertex
100
AcDb2dVertex
 10
231.6011964420187
 20
110.3240280828368
 30
0.0
  0
VERTEX
  5
84
330
77
100
AcDbEntity
  8
Layer 1
 62
   178
420
    65793
370
    25
100
AcDbVertex
100
AcDb2dVertex
 10
235.1011962441173
 20
110.3240280828368
 30
0.0
  0
VERTEX
  5
85
330
77
100
AcDbEntity
  8
Layer 1
 62
   178
420
    65793
370
    25
100
AcDbVertex
100
AcDb2dVertex
 10
238.6011960462158
 20
110.3240280828368
 30
0.0
  0
VERTEX
  5
86
330
77
100
AcDbEntity
  8
Layer 1
 62
   178
420
    65793
370
    25
100
AcDbVertex
100
AcDb2dVertex
 10
238.6011960462158
 20
106.9240267492058
 30
0.0
  0
VERTEX
  5
87
330
77
100
AcDbEntity
  8
Layer 1
 62
   178
420
    65793
370
    25
100
AcDbVertex
100
AcDb2dVertex
 10
239.6881863411991
 20
106.9240267492058
 30
0.0
  0
VERTEX
  5
88
330
77
100
AcDbEntity
  8
Layer 1
 62
   178
420
    65793
370
    25
100
AcDbVertex
100
AcDb2dVertex
 10
239.6881863411991
 20
92.92402754081165
 30
0.0
  0
VERTEX
  5
89
330
77
100
AcDbEntity
  8
Layer 1
 62
   178
420
    65793
370
    25
100
AcDbVertex
100
AcDb2dVertex
 10
238.6011960462158
 20
92.92402754081165
 30
0.0
  0
VERTEX
  5
8A
330
77
100
AcDbEntity
  8
Layer 1
 62
   178
420
    65793
370
    25
100
AcDbVertex
100
AcDb2dVertex
 10
238.6011960462158
 20
90.17402769630566
 30
0.0
  0
VERTEX
  5
8B
330
77
100
AcDbEntity
  8
Layer 1
 62
   178
420
    65793
370
    25
100
AcDbVertex
100
AcDb2dVertex
 10
231.6011964420187
 20
90.17402769630566
 30
0.0
  0
VERTEX
  5
8C
330
77
100
AcDbEntity
  8
Layer 1
 62
   178
420
    65793
370
    25
100
AcDbVertex
100
AcDb2dVertex
 10
231.6011964420187
 20
92.92402754081165
 30
0.0
  0
VERTEX
  5
8D
330
77
100
AcDbEntity
  8
Layer 1
 62
   178
420
    65793
370
    25
100
AcDbVertex
100
AcDb2dVertex
 10
230.1631929832891
 20
92.92402754081165
 30
0.0
  0
VERTEX
  5
8E
330
77
100
AcDbEntity
  8
Layer 1
 62
   178
420
    65793
370
    25
100
AcDbVertex
100
AcDb2dVertex
 10
225.688187132805
 20
92.92402754081165
 30
0.0
  0
VERTEX
  5
8F
330
77
100
AcDbEntity
  8
Layer 1
 62
   178
420
    65793
370
    25
100
AcDbVertex
100
AcDb2dVertex
 10
218.2569436565075
 20
92.92402754081165
 30
0.0
  0
VERTEX
  5
90
330
77
100
AcDbEntity
  8
Layer 1
 62
   178
420
    65793
370
    25
100
AcDbVertex
100
AcDb2dVertex
 10
216.1631937748949
 20
92.92402754081165
 30
0.0
  0
VERTEX
  5
91
330
77
100
AcDbEntity
  8
Layer 1
 62
   178
420
    65793
370
    25
100
AcDbVertex
100
AcDb2dVertex
 10
214.7886973926526
 20
92.92402754081165
 30
0.0
  0
VERTEX
  5
92
330
77
100
AcDbEntity
  8
Layer 1
 62
   178
420
    65793
370
    25
100
AcDbVertex
100
AcDb2dVertex
 10
214.7886973926526
 20
90.17402769630566
 30
0.0
  0
VERTEX
  5
93
330
77
100
AcDbEntity
  8
Layer 1
 62
   178
420
    65793
370
    25
100
AcDbVertex
100
AcDb2dVertex
 10
214.7251903161653
 20
90.17402769630566
 30
0.0
  0
VERTEX
  5
94
330
77
100
AcDbEntity
  8
Layer 1
 62
   178
420
    65793
370
    25
100
AcDbVertex
100
AcDb2dVertex
 10
207.7886977884555
 20
90.17402769630566
 30
0.0
  0
VERTEX
  5
95
330
77
100
AcDbEntity
  8
Layer 1
 62
   178
420
    65793
370
    25
100
AcDbVertex
100
AcDb2dVertex
 10
207.7251907119683
 20
90.17402769630566
 30
0.0
  0
VERTEX
  5
96
330
77
100
AcDbEntity
  8
Layer 1
 62
   178
420
    65793
370
    25
100
AcDbVertex
100
AcDb2dVertex
 10
207.7251907119683
 20
92.92402754081165
 30
0.0
  0
VERTEX
  5
97
330
77
100
AcDbEntity
  8
Layer 1
 62
   178
420
    65793
370
    25
100
AcDbVertex
100
AcDb2dVertex
 10
206.3506943297259
 20
92.92402754081165
 30
0.0
  0
VERTEX
  5
98
330
77
100
AcDbEntity
  8
Layer 1
 62
   178
420
    65793
370
    25
100
AcDbVertex
100
AcDb2dVertex
 10
204.2569444481133
 20
92.92402754081165
 30
0.0
  0
VERTEX
  5
99
330
77
100
AcDbEntity
  8
Layer 1
 62
   178
420
    65793
370
    25
100
AcDbVertex
100
AcDb2dVertex
 10
199.2069416818992
 20
92.92402754081165
 30
0.0
  0
VERTEX
  5
9A
330
77
100
AcDbEntity
  8
Layer 1
 62
   178
420
    65793
370
    25
100
AcDbVertex
100
AcDb2dVertex
 10
196.8257009718158
 20
92.92402754081165
 30
0.0
  0
VERTEX
  5
9B
330
77
100
AcDbEntity
  8
Layer 1
 62
   178
420
    65793
370
    25
100
AcDbVertex
100
AcDb2dVertex
 10
192.3506951213317
 20
92.92402754081165
 30
0.0
  0
VERTEX
  5
9C
330
77
100
AcDbEntity
  8
Layer 1
 62
   178
420
    65793
370
    25
100
AcDbVertex
100
AcDb2dVertex
 10
190.9126916626021
 20
92.92402754081165
 30
0.0
  0
VERTEX
  5
9D
330
77
100
AcDbEntity
  8
Layer 1
 62
   178
420
    65793
370
    25
100
AcDbVertex
100
AcDb2dVertex
 10
190.9126916626021
 20
90.17402769630566
 30
0.0
  0
VERTEX
  5
9E
330
77
100
AcDbEntity
  8
Layer 1
 62
   178
420
    65793
370
    25
100
AcDbVertex
100
AcDb2dVertex
 10
183.912692058405
 20
90.17402769630566
 30
0.0
  0
VERTEX
  5
9F
330
77
100
AcDbEntity
  8
Layer 1
 62
   178
420
    65793
370
    25
100
AcDbVertex
100
AcDb2dVertex
 10
183.912692058405
 20
92.92402754081165
 30
0.0
  0
VERTEX
  5
A0
330
77
100
AcDbEntity
  8
Layer 1
 62
   178
420
    65793
370
    25
100
AcDbVertex
100
AcDb2dVertex
 10
182.8256941340276
 20
92.92402754081165
 30
0.0
  0
VERTEX
  5
A1
330
77
100
AcDbEntity
  8
Layer 1
 62
   178
420
    65793
370
    25
100
AcDbVertex
100
AcDb2dVertex
 10
182.8256941340276
 20
106.9240267492058
 30
0.0
  0
SEQEND
  5
A2
330
77
100
AcDbEntity
  8
Layer 1
 62
   178
420
    65793
370
    25
  0
ENDBLK
  5
76
330
73
100
AcDbEntity
  8
0
100
AcDbBlockEnd
  0
BLOCK
  5
A5
330
A3
100
AcDbEntity
  8
0
100
AcDbBlockBegin
  2
block 13
 70
     0
 10
0.0
 20
0.0
 30
0.0
  3
block 13
  1

  0
POLYLINE
  5
A7
330
A3
100
AcDbEntity
  8
Layer 1
 62
   178
420
    65793
370
    25
100
AcDb2dPolyline
 66
     1
 10
0.0
 20
0.0
 30
0.0
  0
VERTEX
  5
A8
330
A7
100
AcDbEntity
  8
Layer 1
 62
   178
420
    65793
370
    25
100
AcDbVertex
100
AcDb2dVertex
 10
134.9131983690361
 20
125.9740210944206
 30
0.0
  0
VERTEX
  5
A9
330
A7
100
AcDbEntity
  8
Layer 1
 62
   178
420
    65793
370
    25
100
AcDbVertex
100
AcDb2dVertex
 10
132.8194484874236
 20
125.9740210944206
 30
0.0
  0
VERTEX
  5
AA
330
A7
100
AcDbEntity
  8
Layer 1
 62
   178
420
    65793
370
    25
100
AcDbVertex
100
AcDb2dVertex
 10
125.388197381732
 20
125.9740210944206
 30
0.0
  0
VERTEX
  5
AB
330
A7
100
AcDbEntity
  8
Layer 1
 62
   178
420
    65793
370
    25
100
AcDbVertex
100
AcDb2dVertex
 10
120.913199160642
 20
125.9740210944206
 30
0.0
  0
VERTEX
  5
AC
330
A7
100
AcDbEntity
  8
Layer 1
 62
   178
420
    65793
370
    25
100
AcDbVertex
100
AcDb2dVertex
 10
119.4751995166094
 20
125.9740210944206
 30
0.0
  0
VERTEX
  5
AD
330
A7
100
AcDbEntity
  8
Layer 1
 62
   178
420
    65793
370
    25
100
AcDbVertex
100
AcDb2dVertex
 10
119.4751995166094
 20
128.7240209389266
 30
0.0
  0
VERTEX
  5
AE
330
A7
100
AcDbEntity
  8
Layer 1
 62
   178
420
    65793
370
    25
100
AcDbVertex
100
AcDb2dVertex
 10
112.4751999124123
 20
128.7240209389266
 30
0.0
  0
VERTEX
  5
AF
330
A7
100
AcDbEntity
  8
Layer 1
 62
   178
420
    65793
370
    25
100
AcDbVertex
100
AcDb2dVertex
 10
112.4751999124123
 20
125.9740210944206
 30
0.0
  0
VERTEX
  5
B0
330
A7
100
AcDbEntity
  8
Layer 1
 62
   178
420
    65793
370
    25
100
AcDbVertex
100
AcDb2dVertex
 10
111.3881981733378
 20
125.9740210944206
 30
0.0
  0
VERTEX
  5
B1
330
A7
100
AcDbEntity
  8
Layer 1
 62
   178
420
    65793
370
    25
100
AcDbVertex
100
AcDb2dVertex
 10
111.3881981733378
 20
111.9740218860264
 30
0.0
  0
VERTEX
  5
B2
330
A7
100
AcDbEntity
  8
Layer 1
 62
   178
420
    65793
370
    25
100
AcDbVertex
100
AcDb2dVertex
 10
112.4751999124123
 20
111.9740218860264
 30
0.0
  0
VERTEX
  5
B3
330
A7
100
AcDbEntity
  8
Layer 1
 62
   178
420
    65793
370
    25
100
AcDbVertex
100
AcDb2dVertex
 10
112.4751999124123
 20
108.5740205523941
 30
0.0
  0
VERTEX
  5
B4
330
A7
100
AcDbEntity
  8
Layer 1
 62
   178
420
    65793
370
    25
100
AcDbVertex
100
AcDb2dVertex
 10
115.9751997145108
 20
108.5740205523941
 30
0.0
  0
VERTEX
  5
B5
330
A7
100
AcDbEntity
  8
Layer 1
 62
   178
420
    65793
370
    25
100
AcDbVertex
100
AcDb2dVertex
 10
119.4751995166094
 20
108.5740205523941
 30
0.0
  0
VERTEX
  5
B6
330
A7
100
AcDbEntity
  8
Layer 1
 62
   178
420
    65793
370
    25
100
AcDbVertex
100
AcDb2dVertex
 10
136.3512018277657
 20
108.5740205523941
 30
0.0
  0
VERTEX
  5
B7
330
A7
100
AcDbEntity
  8
Layer 1
 62
   178
420
    65793
370
    25
100
AcDbVertex
100
AcDb2dVertex
 10
139.8512016298643
 20
108.5740205523941
 30
0.0
  0
VERTEX
  5
B8
330
A7
100
AcDbEntity
  8
Layer 1
 62
   178
420
    65793
370
    25
100
AcDbVertex
100
AcDb2dVertex
 10
143.3512014319628
 20
108.5740205523941
 30
0.0
  0
VERTEX
  5
B9
330
A7
100
AcDbEntity
  8
Layer 1
 62
   178
420
    65793
370
    25
100
AcDbVertex
100
AcDb2dVertex
 10
143.3512014319628
 20
111.9740218860264
 30
0.0
  0
VERTEX
  5
BA
330
A7
100
AcDbEntity
  8
Layer 1
 62
   178
420
    65793
370
    25
100
AcDbVertex
100
AcDb2dVertex
 10
146.8194476958177
 20
111.9740218860264
 30
0.0
  0
VERTEX
  5
BB
330
A7
100
AcDbEntity
  8
Layer 1
 62
   178
420
    65793
370
    25
100
AcDbVertex
100
AcDb2dVertex
 10
146.8194476958177
 20
125.9740210944206
 30
0.0
  0
VERTEX
  5
BC
330
A7
100
AcDbEntity
  8
Layer 1
 62
   178
420
    65793
370
    25
100
AcDbVertex
100
AcDb2dVertex
 10
143.3512014319628
 20
125.9740210944206
 30
0.0
  0
VERTEX
  5
BD
330
A7
100
AcDbEntity
  8
Layer 1
 62
   178
420
    65793
370
    25
100
AcDbVertex
100
AcDb2dVertex
 10
143.3512014319628
 20
128.7240209389266
 30
0.0
  0
VERTEX
  5
BE
330
A7
100
AcDbEntity
  8
Layer 1
 62
   178
420
    65793
370
    25
100
AcDbVertex
100
AcDb2dVertex
 10
136.3512018277657
 20
128.7240209389266
 30
0.0
  0
VERTEX
  5
BF
330
A7
100
AcDbEntity
  8
Layer 1
 62
   178
420
    65793
370
    25
100
AcDbVertex
100
AcDb2dVertex
 10
136.3512018277657
 20
125.9740210944206
 30
0.0
  0
VERTEX
  5
C0
330
A7
100
AcDbEntity
  8
Layer 1
 62
   178
420
    65793
370
    25
100
AcDbVertex
100
AcDb2dVertex
 10
134.9131983690361
 20
125.9740210944206
 30
0.0
  0
SEQEND
  5
C1
330
A7
100
AcDbEntity
  8
Layer 1
 62
   178
420
    65793
370
    25
  0
ENDBLK
  5
A6
330
A3
100
AcDbEntity
  8
0
100
AcDbBlockEnd
  0
BLOCK
  5
C4
330
C2
100
AcDbEntity
  8
0
100
AcDbBlockBegin
  2
block 14
 70
     0
 10
0.0
 20
0.0
 30
0.0
  3
block 14
  1

  0
POLYLINE
  5
C6
330
C2
100
AcDbEntity
  8
Layer 1
 62
   178
420
    65793
370
    25
100
AcDb2dPolyline
 66
     1
 10
0.0
 20
0.0
 30
0.0
  0
VERTEX
  5
C7
330
C6
100
AcDbEntity
  8
Layer 1
 62
   178
420
    65793
370
    25
100
AcDbVertex
100
AcDb2dVertex
 10
111.3881981733378
 20
131.0240238606347
 30
0.0
  0
VERTEX
  5
C8
330
C6
100
AcDbEntity
  8
Layer 1
 62
   178
420
    65793
370
    25
100
AcDbVertex
100
AcDb2dVertex
 10
116.1506986669899
 20
131.0240238606347
 30
0.0
  0
VERTEX
  5
C9
330
C6
100
AcDbEntity
  8
Layer 1
 62
   178
420
    65793
370
    25
100
AcDbVertex
100
AcDb2dVertex
 10
125.388197381732
 20
131.0240238606347
 30
0.0
  0
VERTEX
  5
CA
330
C6
100
AcDbEntity
  8
Layer 1
 62
   178
420
    65793
370
    25
100
AcDbVertex
100
AcDb2dVertex
 10
130.1507016900811
 20
131.0240238606347
 30
0.0
  0
VERTEX
  5
CB
330
C6
100
AcDbEntity
  8
Layer 1
 62
   178
420
    65793
370
    25
100
AcDbVertex
100
AcDb2dVertex
 10
130.1507016900811
 20
145.0240230690288
 30
0.0
  0
VERTEX
  5
CC
330
C6
100
AcDbEntity
  8
Layer 1
 62
   178
420
    65793
370
    25
100
AcDbVertex
100
AcDb2dVertex
 10
125.388197381732
 20
145.0240230690288
 30
0.0
  0
VERTEX
  5
CD
330
C6
100
AcDbEntity
  8
Layer 1
 62
   178
420
    65793
370
    25
100
AcDbVertex
100
AcDb2dVertex
 10
116.1506986669899
 20
145.0240230690288
 30
0.0
  0
VERTEX
  5
CE
330
C6
100
AcDbEntity
  8
Layer 1
 62
   178
420
    65793
370
    25
100
AcDbVertex
100
AcDb2dVertex
 10
111.3881981733378
 20
145.0240230690288
 30
0.0
  0
VERTEX
  5
CF
330
C6
100
AcDbEntity
  8
Layer 1
 62
   178
420
    65793
370
    25
100
AcDbVertex
100
AcDb2dVertex
 10
111.3881981733378
 20
131.0240238606347
 30
0.0
  0
SEQEND
  5
D0
330
C6
100
AcDbEntity
  8
Layer 1
 62
   178
420
    65793
370
    25
  0
ENDBLK
  5
C5
330
C2
100
AcDbEntity
  8
0
100
AcDbBlockEnd
  0
BLOCK
  5
D3
330
D1
100
AcDbEntity
  8
0
100
AcDbBlockBegin
  2
block 15
 70
     0
 10
0.0
 20
0.0
 30
0.0
  3
block 15
  1

  0
POLYLINE
  5
D5
330
D1
100
AcDbEntity
  8
Layer 1
 62
   178
420
    65793
370
    25
100
AcDb2dPolyline
 66
     1
 10
0.0
 20
0.0
 30
0.0
  0
VERTEX
  5
D6
330
D5
100
AcDbEntity
  8
Layer 1
 62
   178
420
    65793
370
    25
100
AcDbVertex
100
AcDb2dVertex
 10
61.38195252673383
 20
191.4365189188352
 30
0.0
  0
VERTEX
  5
D7
330
D5
100
AcDbEntity
  8
Layer 1
 62
   178
420
    65793
370
    25
100
AcDbVertex
100
AcDb2dVertex
 10
75.38195173512797
 20
191.4365189188352
 30
0.0
  0
VERTEX
  5
D8
330
D5
100
AcDbEntity
  8
Layer 1
 62
   178
420
    65793
370
    25
100
AcDbVertex
100
AcDb2dVertex
 10
75.38195173512797
 20
207.9365179858712
 30
0.0
  0
VERTEX
  5
D9
330
D5
100
AcDbEntity
  8
Layer 1
 62
   178
420
    65793
370
    25
100
AcDbVertex
100
AcDb2dVertex
 10
61.38195252673383
 20
207.9365179858712
 30
0.0
  0
VERTEX
  5
DA
330
D5
100
AcDbEntity
  8
Layer 1
 62
   178
420
    65793
370
    25
100
AcDbVertex
100
AcDb2dVertex
 10
61.38195252673383
 20
191.4365189188352
 30
0.0
  0
SEQEND
  5
DB
330
D5
100
AcDbEntity
  8
Layer 1
 62
   178
420
    65793
370
    25
  0
ENDBLK
  5
D4
330
D1
100
AcDbEntity
  8
0
100
AcDbBlockEnd
  0
BLOCK
  5
DE
330
DC
100
AcDbEntity
  8
0
100
AcDbBlockBegin
  2
block 16
 70
     0
 10
0.0
 20
0.0
 30
0.0
  3
block 16
  1

  0
POLYLINE
  5
E0
330
DC
100
AcDbEntity
  8
Layer 1
 62
   178
420
    65793
370
    25
100
AcDb2dPolyline
 66
     1
 10
0.0
 20
0.0
 30
0.0
  0
VERTEX
  5
E1
330
E0
100
AcDbEntity
  8
Layer 1
 62
   178
420
    65793
370
    25
100
AcDbVertex
100
AcDb2dVertex
 10
135.2006968269011
 20
92.92402754081165
 30
0.0
  0
VERTEX
  5
E2
330
E0
100
AcDbEntity
  8
Layer 1
 62
   178
420
    65793
370
    25
100
AcDbVertex
100
AcDb2dVertex
 10
137.5819451663786
 20
92.92402754081165
 30
0.0
  0
VERTEX
  5
E3
330
E0
100
AcDbEntity
  8
Layer 1
 62
   178
420
    65793
370
    25
100
AcDbVertex
100
AcDb2dVertex
 10
149.2006960352952
 20
92.92402754081165
 30
0.0
  0
VERTEX
  5
E4
330
E0
100
AcDbEntity
  8
Layer 1
 62
   178
420
    65793
370
    25
100
AcDbVertex
100
AcDb2dVertex
 10
151.5819443747727
 20
92.92402754081165
 30
0.0
  0
VERTEX
  5
E5
330
E0
100
AcDbEntity
  8
Layer 1
 62
   178
420
    65793
370
    25
100
AcDbVertex
100
AcDb2dVertex
 10
151.5819443747727
 20
106.9240267492058
 30
0.0
  0
VERTEX
  5
E6
330
E0
100
AcDbEntity
  8
Layer 1
 62
   178
420
    65793
370
    25
100
AcDbVertex
100
AcDb2dVertex
 10
149.2006960352952
 20
106.9240267492058
 30
0.0
  0
VERTEX
  5
E7
330
E0
100
AcDbEntity
  8
Layer 1
 62
   178
420
    65793
370
    25
100
AcDbVertex
100
AcDb2dVertex
 10
137.5819451663786
 20
106.9240267492058
 30
0.0
  0
VERTEX
  5
E8
330
E0
100
AcDbEntity
  8
Layer 1
 62
   178
420
    65793
370
    25
100
AcDbVertex
100
AcDb2dVertex
 10
135.2006968269011
 20
106.9240267492058
 30
0.0
  0
VERTEX
  5
E9
330
E0
100
AcDbEntity
  8
Layer 1
 62
   178
420
    65793
370
    25
100
AcDbVertex
100
AcDb2dVertex
 10
135.2006968269011
 20
92.92402754081165
 30
0.0
  0
SEQEND
  5
EA
330
E0
100
AcDbEntity
  8
Layer 1
 62
   178
420
    65793
370
    25
  0
ENDBLK
  5
DF
330
DC
100
AcDbEntity
  8
0
100
AcDbBlockEnd
  0
BLOCK
  5
ED
330
EB
100
AcDbEntity
  8
0
100
AcDbBlockBegin
  2
block 17
 70
     0
 10
0.0
 20
0.0
 30
0.0
  3
block 17
  1

  0
POLYLINE
  5
EF
330
EB
100
AcDbEntity
  8
Layer 1
 62
   178
420
    65793
370
    25
100
AcDb2dPolyline
 66
     1
 10
0.0
 20
0.0
 30
0.0
  0
VERTEX
  5
F0
330
EF
100
AcDbEntity
  8
Layer 1
 62
   178
420
    65793
370
    25
100
AcDbVertex
100
AcDb2dVertex
 10
159.0131954804643
 20
92.92402754081165
 30
0.0
  0
VERTEX
  5
F1
330
EF
100
AcDbEntity
  8
Layer 1
 62
   178
420
    65793
370
    25
100
AcDbVertex
100
AcDb2dVertex
 10
161.3944438199418
 20
92.92402754081165
 30
0.0
  0
VERTEX
  5
F2
330
EF
100
AcDbEntity
  8
Layer 1
 62
   178
420
    65793
370
    25
100
AcDbVertex
100
AcDb2dVertex
 10
173.0131946888585
 20
92.92402754081165
 30
0.0
  0
VERTEX
  5
F3
330
EF
100
AcDbEntity
  8
Layer 1
 62
   178
420
    65793
370
    25
100
AcDbVertex
100
AcDb2dVertex
 10
175.394443028336
 20
92.92402754081165
 30
0.0
  0
VERTEX
  5
F4
330
EF
100
AcDbEntity
  8
Layer 1
 62
   178
420
    65793
370
    25
100
AcDbVertex
100
AcDb2dVertex
 10
175.394443028336
 20
106.9240267492058
 30
0.0
  0
VERTEX
  5
F5
330
EF
100
AcDbEntity
  8
Layer 1
 62
   178
420
    65793
370
    25
100
AcDbVertex
100
AcDb2dVertex
 10
173.0131946888585
 20
106.9240267492058
 30
0.0
  0
VERTEX
  5
F6
330
EF
100
AcDbEntity
  8
Layer 1
 62
   178
420
    65793
370
    25
100
AcDbVertex
100
AcDb2dVertex
 10
161.3944438199418
 20
106.9240267492058
 30
0.0
  0
VERTEX
  5
F7
330
EF
100
AcDbEntity
  8
Layer 1
 62
   178
420
    65793
370
    25
100
AcDbVertex
100
AcDb2dVertex
 10
159.0131954804643
 20
106.9240267492058
 30
0.0
  0
VERTEX
  5
F8
330
EF
100
AcDbEntity
  8
Layer 1
 62
   178
420
    65793
370
    25
100
AcDbVertex
100
AcDb2dVertex
 10
159.0131954804643
 20
92.92402754081165
 30
0.0
  0
SEQEND
  5
F9
330
EF
100
AcDbEntity
  8
Layer 1
 62
   178
420
    65793
370
    25
  0
ENDBLK
  5
EE
330
EB
100
AcDbEntity
  8
0
100
AcDbBlockEnd
  0
BLOCK
  5
FC
330
FA
100
AcDbEntity
  8
0
100
AcDbBlockBegin
  2
block 18
 70
     0
 10
0.0
 20
0.0
 30
0.0
  3
block 18
  1

  0
POLYLINE
  5
FE
330
FA
100
AcDbEntity
  8
Layer 1
 62
   178
420
    65793
370
    25
100
AcDb2dPolyline
 66
     1
 10
0.0
 20
0.0
 30
0.0
  0
VERTEX
  5
FF
330
FE
100
AcDbEntity
  8
Layer 1
 62
   178
420
    65793
370
    25
100
AcDbVertex
100
AcDb2dVertex
 10
111.3881981733378
 20
92.92402754081165
 30
0.0
  0
VERTEX
  5
100
330
FE
100
AcDbEntity
  8
Layer 1
 62
   178
420
    65793
370
    25
100
AcDbVertex
100
AcDb2dVertex
 10
113.7694503275124
 20
92.92402754081165
 30
0.0
  0
VERTEX
  5
101
330
FE
100
AcDbEntity
  8
Layer 1
 62
   178
420
    65793
370
    25
100
AcDbVertex
100
AcDb2dVertex
 10
125.388197381732
 20
92.92402754081165
 30
0.0
  0
VERTEX
  5
102
330
FE
100
AcDbEntity
  8
Layer 1
 62
   178
420
    65793
370
    25
100
AcDbVertex
100
AcDb2dVertex
 10
127.7694457212095
 20
92.92402754081165
 30
0.0
  0
VERTEX
  5
103
330
FE
100
AcDbEntity
  8
Layer 1
 62
   178
420
    65793
370
    25
100
AcDbVertex
100
AcDb2dVertex
 10
127.7694457212095
 20
106.9240267492058
 30
0.0
  0
VERTEX
  5
104
330
FE
100
AcDbEntity
  8
Layer 1
 62
   178
420
    65793
370
    25
100
AcDbVertex
100
AcDb2dVertex
 10
125.388197381732
 20
106.9240267492058
 30
0.0
  0
VERTEX
  5
105
330
FE
100
AcDbEntity
  8
Layer 1
 62
   178
420
    65793
370
    25
100
AcDbVertex
100
AcDb2dVertex
 10
113.7694503275124
 20
106.9240267492058
 30
0.0
  0
VERTEX
  5
106
330
FE
100
AcDbEntity
  8
Layer 1
 62
   178
420
    65793
370
    25
100
AcDbVertex
100
AcDb2dVertex
 10
111.3881981733378
 20
106.9240267492058
 30
0.0
  0
VERTEX
  5
107
330
FE
100
AcDbEntity
  8
Layer 1
 62
   178
420
    65793
370
    25
100
AcDbVertex
100
AcDb2dVertex
 10
111.3881981733378
 20
92.92402754081165
 30
0.0
  0
SEQEND
  5
108
330
FE
100
AcDbEntity
  8
Layer 1
 62
   178
420
    65793
370
    25
  0
ENDBLK
  5
FD
330
FA
100
AcDbEntity
  8
0
100
AcDbBlockEnd
  0
BLOCK
  5
10B
330
109
100
AcDbEntity
  8
0
100
AcDbBlockBegin
  2
block 19
 70
     0
 10
0.0
 20
0.0
 30
0.0
  3
block 19
  1

  0
POLYLINE
  5
10D
330
109
100
AcDbEntity
  8
Layer 1
 62
   178
420
    65793
370
    25
100
AcDb2dPolyline
 66
     1
 10
0.0
 20
0.0
 30
0.0
  0
VERTEX
  5
10E
330
10D
100
AcDbEntity
  8
Layer 1
 62
   178
420
    65793
370
    25
100
AcDbVertex
100
AcDb2dVertex
 10
109.0069498338603
 20
192.9365188340203
 30
0.0
  0
VERTEX
  5
10F
330
10D
100
AcDbEntity
  8
Layer 1
 62
   178
420
    65793
370
    25
100
AcDbVertex
100
AcDb2dVertex
 10
123.0069490422545
 20
192.9365188340203
 30
0.0
  0
VERTEX
  5
110
330
10D
100
AcDbEntity
  8
Layer 1
 62
   178
420
    65793
370
    25
100
AcDbVertex
100
AcDb2dVertex
 10
123.0069490422545
 20
206.9365180424144
 30
0.0
  0
VERTEX
  5
111
330
10D
100
AcDbEntity
  8
Layer 1
 62
   178
420
    65793
370
    25
100
AcDbVertex
100
AcDb2dVertex
 10
109.0069498338603
 20
206.9365180424144
 30
0.0
  0
VERTEX
  5
112
330
10D
100
AcDbEntity
  8
Layer 1
 62
   178
420
    65793
370
    25
100
AcDbVertex
100
AcDb2dVertex
 10
109.0069498338603
 20
192.9365188340203
 30
0.0
  0
SEQEND
  5
113
330
10D
100
AcDbEntity
  8
Layer 1
 62
   178
420
    65793
370
    25
  0
ENDBLK
  5
10C
330
109
100
AcDbEntity
  8
0
100
AcDbBlockEnd
  0
BLOCK
  5
116
330
114
100
AcDbEntity
  8
0
100
AcDbBlockBegin
  2
block 20
 70
     0
 10
0.0
 20
0.0
 30
0.0
  3
block 20
  1

  0
POLYLINE
  5
118
330
114
100
AcDbEntity
  8
Layer 1
 62
   178
420
    65793
370
    25
100
AcDb2dPolyline
 66
     1
 10
0.0
 20
0.0
 30
0.0
  0
VERTEX
  5
119
330
118
100
AcDbEntity
  8
Layer 1
 62
   178
420
    65793
370
    25
100
AcDbVertex
100
AcDb2dVertex
 10
132.8194484874236
 20
192.9365188340203
 30
0.0
  0
VERTEX
  5
11A
330
118
100
AcDbEntity
  8
Layer 1
 62
   178
420
    65793
370
    25
100
AcDbVertex
100
AcDb2dVertex
 10
146.8194476958177
 20
192.9365188340203
 30
0.0
  0
VERTEX
  5
11B
330
118
100
AcDbEntity
  8
Layer 1
 62
   178
420
    65793
370
    25
100
AcDbVertex
100
AcDb2dVertex
 10
146.8194476958177
 20
206.9365180424144
 30
0.0
  0
VERTEX
  5
11C
330
118
100
AcDbEntity
  8
Layer 1
 62
   178
420
    65793
370
    25
100
AcDbVertex
100
AcDb2dVertex
 10
132.8194484874236
 20
206.9365180424144
 30
0.0
  0
VERTEX
  5
11D
330
118
100
AcDbEntity
  8
Layer 1
 62
   178
420
    65793
370
    25
100
AcDbVertex
100
AcDb2dVertex
 10
132.8194484874236
 20
192.9365188340203
 30
0.0
  0
SEQEND
  5
11E
330
118
100
AcDbEntity
  8
Layer 1
 62
   178
420
    65793
370
    25
  0
ENDBLK
  5
117
330
114
100
AcDbEntity
  8
0
100
AcDbBlockEnd
  0
BLOCK
  5
121
330
11F
100
AcDbEntity
  8
0
100
AcDbBlockBegin
  2
block 21
 70
     0
 10
0.0
 20
0.0
 30
0.0
  3
block 21
  1

  0
POLYLINE
  5
123
330
11F
100
AcDbEntity
  8
Layer 1
 62
   178
420
    65793
370
    25
100
AcDb2dPolyline
 66
     1
 10
0.0
 20
0.0
 30
0.0
  0
VERTEX
  5
124
330
123
100
AcDbEntity
  8
Layer 1
 62
   178
420
    65793
370
    25
100
AcDbVertex
100
AcDb2dVertex
 10
151.8694504620318
 20
192.9365188340203
 30
0.0
  0
VERTEX
  5
125
330
123
100
AcDbEntity
  8
Layer 1
 62
   178
420
    65793
370
    25
100
AcDbVertex
100
AcDb2dVertex
 10
165.869449670426
 20
192.9365188340203
 30
0.0
  0
VERTEX
  5
126
330
123
100
AcDbEntity
  8
Layer 1
 62
   178
420
    65793
370
    25
100
AcDbVertex
100
AcDb2dVertex
 10
165.869449670426
 20
206.9365180424144
 30
0.0
  0
VERTEX
  5
127
330
123
100
AcDbEntity
  8
Layer 1
 62
   178
420
    65793
370
    25
100
AcDbVertex
100
AcDb2dVertex
 10
151.8694504620318
 20
206.9365180424144
 30
0.0
  0
VERTEX
  5
128
330
123
100
AcDbEntity
  8
Layer 1
 62
   178
420
    65793
370
    25
100
AcDbVertex
100
AcDb2dVertex
 10
151.8694504620318
 20
192.9365188340203
 30
0.0
  0
SEQEND
  5
129
330
123
100
AcDbEntity
  8
Layer 1
 62
   178
420
    65793
370
    25
  0
ENDBLK
  5
122
330
11F
100
AcDbEntity
  8
0
100
AcDbBlockEnd
  0
BLOCK
  5
12C
330
12A
100
AcDbEntity
  8
0
100
AcDbBlockBegin
  2
block 22
 70
     0
 10
0.0
 20
0.0
 30
0.0
  3
block 22
  1

  0
POLYLINE
  5
12E
330
12A
100
AcDbEntity
  8
Layer 1
 62
   178
420
    65793
370
    25
100
AcDb2dPolyline
 66
     1
 10
0.0
 20
0.0
 30
0.0
  0
VERTEX
  5
12F
330
12E
100
AcDbEntity
  8
Layer 1
 62
   178
420
    65793
370
    25
100
AcDbVertex
100
AcDb2dVertex
 10
170.919444807246
 20
192.9365188340203
 30
0.0
  0
VERTEX
  5
130
330
12E
100
AcDbEntity
  8
Layer 1
 62
   178
420
    65793
370
    25
100
AcDbVertex
100
AcDb2dVertex
 10
184.9194440156401
 20
192.9365188340203
 30
0.0
  0
VERTEX
  5
131
330
12E
100
AcDbEntity
  8
Layer 1
 62
   178
420
    65793
370
    25
100
AcDbVertex
100
AcDb2dVertex
 10
184.9194440156401
 20
206.9365180424144
 30
0.0
  0
VERTEX
  5
132
330
12E
100
AcDbEntity
  8
Layer 1
 62
   178
420
    65793
370
    25
100
AcDbVertex
100
AcDb2dVertex
 10
170.919444807246
 20
206.9365180424144
 30
0.0
  0
VERTEX
  5
133
330
12E
100
AcDbEntity
  8
Layer 1
 62
   178
420
    65793
370
    25
100
AcDbVertex
100
AcDb2dVertex
 10
170.919444807246
 20
192.9365188340203
 30
0.0
  0
SEQEND
  5
134
330
12E
100
AcDbEntity
  8
Layer 1
 62
   178
420
    65793
370
    25
  0
ENDBLK
  5
12D
330
12A
100
AcDbEntity
  8
0
100
AcDbBlockEnd
  0
BLOCK
  5
137
330
135
100
AcDbEntity
  8
0
100
AcDbBlockBegin
  2
block 23
 70
     0
 10
0.0
 20
0.0
 30
0.0
  3
block 23
  1

  0
POLYLINE
  5
139
330
135
100
AcDbEntity
  8
Layer 1
 62
   178
420
    65793
370
    25
100
AcDb2dPolyline
 66
     1
 10
0.0
 20
0.0
 30
0.0
  0
VERTEX
  5
13A
330
139
100
AcDbEntity
  8
Layer 1
 62
   178
420
    65793
370
    25
100
AcDbVertex
100
AcDb2dVertex
 10
189.9694391524601
 20
192.9365188340203
 30
0.0
  0
VERTEX
  5
13B
330
139
100
AcDbEntity
  8
Layer 1
 62
   178
420
    65793
370
    25
100
AcDbVertex
100
AcDb2dVertex
 10
203.9694383608542
 20
192.9365188340203
 30
0.0
  0
VERTEX
  5
13C
330
139
100
AcDbEntity
  8
Layer 1
 62
   178
420
    65793
370
    25
100
AcDbVertex
100
AcDb2dVertex
 10
203.9694383608542
 20
206.9365180424144
 30
0.0
  0
VERTEX
  5
13D
330
139
100
AcDbEntity
  8
Layer 1
 62
   178
420
    65793
370
    25
100
AcDbVertex
100
AcDb2dVertex
 10
189.9694391524601
 20
206.9365180424144
 30
0.0
  0
VERTEX
  5
13E
330
139
100
AcDbEntity
  8
Layer 1
 62
   178
420
    65793
370
    25
100
AcDbVertex
100
AcDb2dVertex
 10
189.9694391524601
 20
192.9365188340203
 30
0.0
  0
SEQEND
  5
13F
330
139
100
AcDbEntity
  8
Layer 1
 62
   178
420
    65793
370
    25
  0
ENDBLK
  5
138
330
135
100
AcDbEntity
  8
0
100
AcDbBlockEnd
  0
BLOCK
  5
142
330
140
100
AcDbEntity
  8
0
100
AcDbBlockBegin
  2
block 24
 70
     0
 10
0.0
 20
0.0
 30
0.0
  3
block 24
  1

  0
POLYLINE
  5
144
330
140
100
AcDbEntity
  8
Layer 1
 62
   178
420
    65793
370
    25
100
AcDb2dPolyline
 66
     1
 10
0.0
 20
0.0
 30
0.0
  0
VERTEX
  5
145
330
144
100
AcDbEntity
  8
Layer 1
 62
   178
420
    65793
370
    25
100
AcDbVertex
100
AcDb2dVertex
 10
213.7819378060234
 20
192.9365188340203
 30
0.0
  0
VERTEX
  5
146
330
144
100
AcDbEntity
  8
Layer 1
 62
   178
420
    65793
370
    25
100
AcDbVertex
100
AcDb2dVertex
 10
227.7819370144175
 20
192.9365188340203
 30
0.0
  0
VERTEX
  5
147
330
144
100
AcDbEntity
  8
Layer 1
 62
   178
420
    65793
370
    25
100
AcDbVertex
100
AcDb2dVertex
 10
227.7819370144175
 20
206.9365180424144
 30
0.0
  0
VERTEX
  5
148
330
144
100
AcDbEntity
  8
Layer 1
 62
   178
420
    65793
370
    25
100
AcDbVertex
100
AcDb2dVertex
 10
213.7819378060234
 20
206.9365180424144
 30
0.0
  0
VERTEX
  5
149
330
144
100
AcDbEntity
  8
Layer 1
 62
   178
420
    65793
370
    25
100
AcDbVertex
100
AcDb2dVertex
 10
213.7819378060234
 20
192.9365188340203
 30
0.0
  0
SEQEND
  5
14A
330
144
100
AcDbEntity
  8
Layer 1
 62
   178
420
    65793
370
    25
  0
ENDBLK
  5
143
330
140
100
AcDbEntity
  8
0
100
AcDbBlockEnd
  0
BLOCK
  5
14D
330
14B
100
AcDbEntity
  8
0
100
AcDbBlockBegin
  2
block 25
 70
     0
 10
0.0
 20
0.0
 30
0.0
  3
block 25
  1

  0
POLYLINE
  5
14F
330
14B
100
AcDbEntity
  8
Layer 1
 62
   178
420
    65793
370
    25
100
AcDb2dPolyline
 66
     1
 10
0.0
 20
0.0
 30
0.0
  0
VERTEX
  5
150
330
14F
100
AcDbEntity
  8
Layer 1
 62
   178
420
    65793
370
    25
100
AcDbVertex
100
AcDb2dVertex
 10
232.8319397806316
 20
192.9365188340203
 30
0.0
  0
VERTEX
  5
151
330
14F
100
AcDbEntity
  8
Layer 1
 62
   178
420
    65793
370
    25
100
AcDbVertex
100
AcDb2dVertex
 10
246.8319389890257
 20
192.9365188340203
 30
0.0
  0
VERTEX
  5
152
330
14F
100
AcDbEntity
  8
Layer 1
 62
   178
420
    65793
370
    25
100
AcDbVertex
100
AcDb2dVertex
 10
246.8319389890257
 20
206.9365180424144
 30
0.0
  0
VERTEX
  5
153
330
14F
100
AcDbEntity
  8
Layer 1
 62
   178
420
    65793
370
    25
100
AcDbVertex
100
AcDb2dVertex
 10
232.8319397806316
 20
206.9365180424144
 30
0.0
  0
VERTEX
  5
154
330
14F
100
AcDbEntity
  8
Layer 1
 62
   178
420
    65793
370
    25
100
AcDbVertex
100
AcDb2dVertex
 10
232.8319397806316
 20
192.9365188340203
 30
0.0
  0
SEQEND
  5
155
330
14F
100
AcDbEntity
  8
Layer 1
 62
   178
420
    65793
370
    25
  0
ENDBLK
  5
14E
330
14B
100
AcDbEntity
  8
0
100
AcDbBlockEnd
  0
BLOCK
  5
158
330
156
100
AcDbEntity
  8
0
100
AcDbBlockBegin
  2
block 26
 70
     0
 10
0.0
 20
0.0
 30
0.0
  3
block 26
  1

  0
POLYLINE
  5
15A
330
156
100
AcDbEntity
  8
Layer 1
 62
   178
420
    65793
370
    25
100
AcDb2dPolyline
 66
     1
 10
0.0
 20
0.0
 30
0.0
  0
VERTEX
  5
15B
330
15A
100
AcDbEntity
  8
Layer 1
 62
   178
420
    65793
370
    25
100
AcDbVertex
100
AcDb2dVertex
 10
61.38195252673383
 20
169.1240201804571
 30
0.0
  0
VERTEX
  5
15C
330
15A
100
AcDbEntity
  8
Layer 1
 62
   178
420
    65793
370
    25
100
AcDbVertex
100
AcDb2dVertex
 10
75.38195173512797
 20
169.1240201804571
 30
0.0
  0
VERTEX
  5
15D
330
15A
100
AcDbEntity
  8
Layer 1
 62
   178
420
    65793
370
    25
100
AcDbVertex
100
AcDb2dVertex
 10
75.38195173512797
 20
183.1240193888512
 30
0.0
  0
VERTEX
  5
15E
330
15A
100
AcDbEntity
  8
Layer 1
 62
   178
420
    65793
370
    25
100
AcDbVertex
100
AcDb2dVertex
 10
61.38195252673383
 20
183.1240193888512
 30
0.0
  0
VERTEX
  5
15F
330
15A
100
AcDbEntity
  8
Layer 1
 62
   178
420
    65793
370
    25
100
AcDbVertex
100
AcDb2dVertex
 10
61.38195252673383
 20
169.1240201804571
 30
0.0
  0
SEQEND
  5
160
330
15A
100
AcDbEntity
  8
Layer 1
 62
   178
420
    65793
370
    25
  0
ENDBLK
  5
159
330
156
100
AcDbEntity
  8
0
100
AcDbBlockEnd
  0
BLOCK
  5
163
330
161
100
AcDbEntity
  8
0
100
AcDbBlockBegin
  2
block 27
 70
     0
 10
0.0
 20
0.0
 30
0.0
  3
block 27
  1

  0
POLYLINE
  5
165
330
161
100
AcDbEntity
  8
Layer 1
 62
   178
420
    65793
370
    25
100
AcDb2dPolyline
 66
     1
 10
0.0
 20
0.0
 30
0.0
  0
VERTEX
  5
166
330
165
100
AcDbEntity
  8
Layer 1
 62
   178
420
    65793
370
    25
100
AcDbVertex
100
AcDb2dVertex
 10
80.43195068664502
 20
169.1240201804571
 30
0.0
  0
VERTEX
  5
167
330
165
100
AcDbEntity
  8
Layer 1
 62
   178
420
    65793
370
    25
100
AcDbVertex
100
AcDb2dVertex
 10
94.43194989503917
 20
169.1240201804571
 30
0.0
  0
VERTEX
  5
168
330
165
100
AcDbEntity
  8
Layer 1
 62
   178
420
    65793
370
    25
100
AcDbVertex
100
AcDb2dVertex
 10
94.43194989503917
 20
183.1240193888512
 30
0.0
  0
VERTEX
  5
169
330
165
100
AcDbEntity
  8
Layer 1
 62
   178
420
    65793
370
    25
100
AcDbVertex
100
AcDb2dVertex
 10
80.43195068664502
 20
183.1240193888512
 30
0.0
  0
VERTEX
  5
16A
330
165
100
AcDbEntity
  8
Layer 1
 62
   178
420
    65793
370
    25
100
AcDbVertex
100
AcDb2dVertex
 10
80.43195068664502
 20
169.1240201804571
 30
0.0
  0
SEQEND
  5
16B
330
165
100
AcDbEntity
  8
Layer 1
 62
   178
420
    65793
370
    25
  0
ENDBLK
  5
164
330
161
100
AcDbEntity
  8
0
100
AcDbBlockEnd
  0
BLOCK
  5
16E
330
16C
100
AcDbEntity
  8
0
100
AcDbBlockBegin
  2
block 28
 70
     0
 10
0.0
 20
0.0
 30
0.0
  3
block 28
  1

  0
POLYLINE
  5
170
330
16C
100
AcDbEntity
  8
Layer 1
 62
   178
420
    65793
370
    25
100
AcDb2dPolyline
 66
     1
 10
0.0
 20
0.0
 30
0.0
  0
VERTEX
  5
171
330
170
100
AcDbEntity
  8
Layer 1
 62
   178
420
    65793
370
    25
100
AcDbVertex
100
AcDb2dVertex
 10
109.0069498338603
 20
169.1240201804571
 30
0.0
  0
VERTEX
  5
172
330
170
100
AcDbEntity
  8
Layer 1
 62
   178
420
    65793
370
    25
100
AcDbVertex
100
AcDb2dVertex
 10
123.0069490422545
 20
169.1240201804571
 30
0.0
  0
VERTEX
  5
173
330
170
100
AcDbEntity
  8
Layer 1
 62
   178
420
    65793
370
    25
100
AcDbVertex
100
AcDb2dVertex
 10
123.0069490422545
 20
183.1240193888512
 30
0.0
  0
VERTEX
  5
174
330
170
100
AcDbEntity
  8
Layer 1
 62
   178
420
    65793
370
    25
100
AcDbVertex
100
AcDb2dVertex
 10
109.0069498338603
 20
183.1240193888512
 30
0.0
  0
VERTEX
  5
175
330
170
100
AcDbEntity
  8
Layer 1
 62
   178
420
    65793
370
    25
100
AcDbVertex
100
AcDb2dVertex
 10
109.0069498338603
 20
169.1240201804571
 30
0.0
  0
SEQEND
  5
176
330
170
100
AcDbEntity
  8
Layer 1
 62
   178
420
    65793
370
    25
  0
ENDBLK
  5
16F
330
16C
100
AcDbEntity
  8
0
100
AcDbBlockEnd
  0
BLOCK
  5
179
330
177
100
AcDbEntity
  8
0
100
AcDbBlockBegin
  2
block 29
 70
     0
 10
0.0
 20
0.0
 30
0.0
  3
block 29
  1

  0
POLYLINE
  5
17B
330
177
100
AcDbEntity
  8
Layer 1
 62
   178
420
    65793
370
    25
100
AcDb2dPolyline
 66
     1
 10
0.0
 20
0.0
 30
0.0
  0
VERTEX
  5
17C
330
17B
100
AcDbEntity
  8
Layer 1
 62
   178
420
    65793
370
    25
100
AcDbVertex
100
AcDb2dVertex
 10
128.0569518084686
 20
169.1240201804571
 30
0.0
  0
VERTEX
  5
17D
330
17B
100
AcDbEntity
  8
Layer 1
 62
   178
420
    65793
370
    25
100
AcDbVertex
100
AcDb2dVertex
 10
142.0569510168627
 20
169.1240201804571
 30
0.0
  0
VERTEX
  5
17E
330
17B
100
AcDbEntity
  8
Layer 1
 62
   178
420
    65793
370
    25
100
AcDbVertex
100
AcDb2dVertex
 10
142.0569510168627
 20
183.1240193888512
 30
0.0
  0
VERTEX
  5
17F
330
17B
100
AcDbEntity
  8
Layer 1
 62
   178
420
    65793
370
    25
100
AcDbVertex
100
AcDb2dVertex
 10
128.0569518084686
 20
183.1240193888512
 30
0.0
  0
VERTEX
  5
180
330
17B
100
AcDbEntity
  8
Layer 1
 62
   178
420
    65793
370
    25
100
AcDbVertex
100
AcDb2dVertex
 10
128.0569518084686
 20
169.1240201804571
 30
0.0
  0
SEQEND
  5
181
330
17B
100
AcDbEntity
  8
Layer 1
 62
   178
420
    65793
370
    25
  0
ENDBLK
  5
17A
330
177
100
AcDbEntity
  8
0
100
AcDbBlockEnd
  0
BLOCK
  5
184
330
182
100
AcDbEntity
  8
0
100
AcDbBlockBegin
  2
block 30
 70
     0
 10
0.0
 20
0.0
 30
0.0
  3
block 30
  1

  0
POLYLINE
  5
186
330
182
100
AcDbEntity
  8
Layer 1
 62
   178
420
    65793
370
    25
100
AcDb2dPolyline
 66
     1
 10
0.0
 20
0.0
 30
0.0
  0
VERTEX
  5
187
330
186
100
AcDbEntity
  8
Layer 1
 62
   178
420
    65793
370
    25
100
AcDbVertex
100
AcDb2dVertex
 10
147.1069461536827
 20
169.1240201804571
 30
0.0
  0
VERTEX
  5
188
330
186
100
AcDbEntity
  8
Layer 1
 62
   178
420
    65793
370
    25
100
AcDbVertex
100
AcDb2dVertex
 10
161.1069453620769
 20
169.1240201804571
 30
0.0
  0
VERTEX
  5
189
330
186
100
AcDbEntity
  8
Layer 1
 62
   178
420
    65793
370
    25
100
AcDbVertex
100
AcDb2dVertex
 10
161.1069453620769
 20
183.1240193888512
 30
0.0
  0
VERTEX
  5
18A
330
186
100
AcDbEntity
  8
Layer 1
 62
   178
420
    65793
370
    25
100
AcDbVertex
100
AcDb2dVertex
 10
147.1069461536827
 20
183.1240193888512
 30
0.0
  0
VERTEX
  5
18B
330
186
100
AcDbEntity
  8
Layer 1
 62
   178
420
    65793
370
    25
100
AcDbVertex
100
AcDb2dVertex
 10
147.1069461536827
 20
169.1240201804571
 30
0.0
  0
SEQEND
  5
18C
330
186
100
AcDbEntity
  8
Layer 1
 62
   178
420
    65793
370
    25
  0
ENDBLK
  5
185
330
182
100
AcDbEntity
  8
0
100
AcDbBlockEnd
  0
BLOCK
  5
18F
330
18D
100
AcDbEntity
  8
0
100
AcDbBlockBegin
  2
block 31
 70
     0
 10
0.0
 20
0.0
 30
0.0
  3
block 31
  1

  0
POLYLINE
  5
191
330
18D
100
AcDbEntity
  8
Layer 1
 62
   178
420
    65793
370
    25
100
AcDb2dPolyline
 66
     1
 10
0.0
 20
0.0
 30
0.0
  0
VERTEX
  5
192
330
191
100
AcDbEntity
  8
Layer 1
 62
   178
420
    65793
370
    25
100
AcDbVertex
100
AcDb2dVertex
 10
166.156948128291
 20
169.1240201804571
 30
0.0
  0
VERTEX
  5
193
330
191
100
AcDbEntity
  8
Layer 1
 62
   178
420
    65793
370
    25
100
AcDbVertex
100
AcDb2dVertex
 10
180.1569473366851
 20
169.1240201804571
 30
0.0
  0
VERTEX
  5
194
330
191
100
AcDbEntity
  8
Layer 1
 62
   178
420
    65793
370
    25
100
AcDbVertex
100
AcDb2dVertex
 10
180.1569473366851
 20
183.1240193888512
 30
0.0
  0
VERTEX
  5
195
330
191
100
AcDbEntity
  8
Layer 1
 62
   178
420
    65793
370
    25
100
AcDbVertex
100
AcDb2dVertex
 10
166.156948128291
 20
183.1240193888512
 30
0.0
  0
VERTEX
  5
196
330
191
100
AcDbEntity
  8
Layer 1
 62
   178
420
    65793
370
    25
100
AcDbVertex
100
AcDb2dVertex
 10
166.156948128291
 20
169.1240201804571
 30
0.0
  0
SEQEND
  5
197
330
191
100
AcDbEntity
  8
Layer 1
 62
   178
420
    65793
370
    25
  0
ENDBLK
  5
190
330
18D
100
AcDbEntity
  8
0
100
AcDbBlockEnd
  0
BLOCK
  5
19A
330
198
100
AcDbEntity
  8
0
100
AcDbBlockBegin
  2
block 32
 70
     0
 10
0.0
 20
0.0
 30
0.0
  3
block 32
  1

  0
POLYLINE
  5
19C
330
198
100
AcDbEntity
  8
Layer 1
 62
   178
420
    65793
370
    25
100
AcDb2dPolyline
 66
     1
 10
0.0
 20
0.0
 30
0.0
  0
VERTEX
  5
19D
330
19C
100
AcDbEntity
  8
Layer 1
 62
   178
420
    65793
370
    25
100
AcDbVertex
100
AcDb2dVertex
 10
185.2069424735051
 20
169.1240201804571
 30
0.0
  0
VERTEX
  5
19E
330
19C
100
AcDbEntity
  8
Layer 1
 62
   178
420
    65793
370
    25
100
AcDbVertex
100
AcDb2dVertex
 10
199.2069416818992
 20
169.1240201804571
 30
0.0
  0
VERTEX
  5
19F
330
19C
100
AcDbEntity
  8
Layer 1
 62
   178
420
    65793
370
    25
100
AcDbVertex
100
AcDb2dVertex
 10
199.2069416818992
 20
183.1240193888512
 30
0.0
  0
VERTEX
  5
1A0
330
19C
100
AcDbEntity
  8
Layer 1
 62
   178
420
    65793
370
    25
100
AcDbVertex
100
AcDb2dVertex
 10
185.2069424735051
 20
183.1240193888512
 30
0.0
  0
VERTEX
  5
1A1
330
19C
100
AcDbEntity
  8
Layer 1
 62
   178
420
    65793
370
    25
100
AcDbVertex
100
AcDb2dVertex
 10
185.2069424735051
 20
169.1240201804571
 30
0.0
  0
SEQEND
  5
1A2
330
19C
100
AcDbEntity
  8
Layer 1
 62
   178
420
    65793
370
    25
  0
ENDBLK
  5
19B
330
198
100
AcDbEntity
  8
0
100
AcDbBlockEnd
  0
BLOCK
  5
1A5
330
1A3
100
AcDbEntity
  8
0
100
AcDbBlockBegin
  2
block 33
 70
     0
 10
0.0
 20
0.0
 30
0.0
  3
block 33
  1

  0
POLYLINE
  5
1A7
330
1A3
100
AcDbEntity
  8
Layer 1
 62
   178
420
    65793
370
    25
100
AcDb2dPolyline
 66
     1
 10
0.0
 20
0.0
 30
0.0
  0
VERTEX
  5
1A8
330
1A7
100
AcDbEntity
  8
Layer 1
 62
   178
420
    65793
370
    25
100
AcDbVertex
100
AcDb2dVertex
 10
204.2569444481133
 20
169.1240201804571
 30
0.0
  0
VERTEX
  5
1A9
330
1A7
100
AcDbEntity
  8
Layer 1
 62
   178
420
    65793
370
    25
100
AcDbVertex
100
AcDb2dVertex
 10
218.2569436565075
 20
169.1240201804571
 30
0.0
  0
VERTEX
  5
1AA
330
1A7
100
AcDbEntity
  8
Layer 1
 62
   178
420
    65793
370
    25
100
AcDbVertex
100
AcDb2dVertex
 10
218.2569436565075
 20
183.1240193888512
 30
0.0
  0
VERTEX
  5
1AB
330
1A7
100
AcDbEntity
  8
Layer 1
 62
   178
420
    65793
370
    25
100
AcDbVertex
100
AcDb2dVertex
 10
204.2569444481133
 20
183.1240193888512
 30
0.0
  0
VERTEX
  5
1AC
330
1A7
100
AcDbEntity
  8
Layer 1
 62
   178
420
    65793
370
    25
100
AcDbVertex
100
AcDb2dVertex
 10
204.2569444481133
 20
169.1240201804571
 30
0.0
  0
SEQEND
  5
1AD
330
1A7
100
AcDbEntity
  8
Layer 1
 62
   178
420
    65793
370
    25
  0
ENDBLK
  5
1A6
330
1A3
100
AcDbEntity
  8
0
100
AcDbBlockEnd
  0
BLOCK
  5
1B0
330
1AE
100
AcDbEntity
  8
0
100
AcDbBlockBegin
  2
block 34
 70
     0
 10
0.0
 20
0.0
 30
0.0
  3
block 34
  1

  0
POLYLINE
  5
1B2
330
1AE
100
AcDbEntity
  8
Layer 1
 62
   178
420
    65793
370
    25
100
AcDb2dPolyline
 66
     1
 10
0.0
 20
0.0
 30
0.0
  0
VERTEX
  5
1B3
330
1B2
100
AcDbEntity
  8
Layer 1
 62
   178
420
    65793
370
    25
100
AcDbVertex
100
AcDb2dVertex
 10
223.3069464227216
 20
169.1240201804571
 30
0.0
  0
VERTEX
  5
1B4
330
1B2
100
AcDbEntity
  8
Layer 1
 62
   178
420
    65793
370
    25
100
AcDbVertex
100
AcDb2dVertex
 10
237.3069456311157
 20
169.1240201804571
 30
0.0
  0
VERTEX
  5
1B5
330
1B2
100
AcDbEntity
  8
Layer 1
 62
   178
420
    65793
370
    25
100
AcDbVertex
100
AcDb2dVertex
 10
237.3069456311157
 20
183.1240193888512
 30
0.0
  0
VERTEX
  5
1B6
330
1B2
100
AcDbEntity
  8
Layer 1
 62
   178
420
    65793
370
    25
100
AcDbVertex
100
AcDb2dVertex
 10
223.3069464227216
 20
183.1240193888512
 30
0.0
  0
VERTEX
  5
1B7
330
1B2
100
AcDbEntity
  8
Layer 1
 62
   178
420
    65793
370
    25
100
AcDbVertex
100
AcDb2dVertex
 10
223.3069464227216
 20
169.1240201804571
 30
0.0
  0
SEQEND
  5
1B8
330
1B2
100
AcDbEntity
  8
Layer 1
 62
   178
420
    65793
370
    25
  0
ENDBLK
  5
1B1
330
1AE
100
AcDbEntity
  8
0
100
AcDbBlockEnd
  0
BLOCK
  5
1BB
330
1B9
100
AcDbEntity
  8
0
100
AcDbBlockBegin
  2
block 35
 70
     0
 10
0.0
 20
0.0
 30
0.0
  3
block 35
  1

  0
POLYLINE
  5
1BD
330
1B9
100
AcDbEntity
  8
Layer 1
 62
   178
420
    65793
370
    25
100
AcDb2dPolyline
 66
     1
 10
0.0
 20
0.0
 30
0.0
  0
VERTEX
  5
1BE
330
1BD
100
AcDbEntity
  8
Layer 1
 62
   178
420
    65793
370
    25
100
AcDbVertex
100
AcDb2dVertex
 10
61.38195252673383
 20
150.0740220205455
 30
0.0
  0
VERTEX
  5
1BF
330
1BD
100
AcDbEntity
  8
Layer 1
 62
   178
420
    65793
370
    25
100
AcDbVertex
100
AcDb2dVertex
 10
75.38195173512797
 20
150.0740220205455
 30
0.0
  0
VERTEX
  5
1C0
330
1BD
100
AcDbEntity
  8
Layer 1
 62
   178
420
    65793
370
    25
100
AcDbVertex
100
AcDb2dVertex
 10
75.38195173512797
 20
164.0740212289397
 30
0.0
  0
VERTEX
  5
1C1
330
1BD
100
AcDbEntity
  8
Layer 1
 62
   178
420
    65793
370
    25
100
AcDbVertex
100
AcDb2dVertex
 10
61.38195252673383
 20
164.0740212289397
 30
0.0
  0
VERTEX
  5
1C2
330
1BD
100
AcDbEntity
  8
Layer 1
 62
   178
420
    65793
370
    25
100
AcDbVertex
100
AcDb2dVertex
 10
61.38195252673383
 20
150.0740220205455
 30
0.0
  0
SEQEND
  5
1C3
330
1BD
100
AcDbEntity
  8
Layer 1
 62
   178
420
    65793
370
    25
  0
ENDBLK
  5
1BC
330
1B9
100
AcDbEntity
  8
0
100
AcDbBlockEnd
  0
BLOCK
  5
1C6
330
1C4
100
AcDbEntity
  8
0
100
AcDbBlockBegin
  2
block 36
 70
     0
 10
0.0
 20
0.0
 30
0.0
  3
block 36
  1

  0
POLYLINE
  5
1C8
330
1C4
100
AcDbEntity
  8
Layer 1
 62
   178
420
    65793
370
    25
100
AcDb2dPolyline
 66
     1
 10
0.0
 20
0.0
 30
0.0
  0
VERTEX
  5
1C9
330
1C8
100
AcDbEntity
  8
Layer 1
 62
   178
420
    65793
370
    25
100
AcDbVertex
100
AcDb2dVertex
 10
80.43195068664502
 20
150.0740220205455
 30
0.0
  0
VERTEX
  5
1CA
330
1C8
100
AcDbEntity
  8
Layer 1
 62
   178
420
    65793
370
    25
100
AcDbVertex
100
AcDb2dVertex
 10
94.43194989503917
 20
150.0740220205455
 30
0.0
  0
VERTEX
  5
1CB
330
1C8
100
AcDbEntity
  8
Layer 1
 62
   178
420
    65793
370
    25
100
AcDbVertex
100
AcDb2dVertex
 10
94.43194989503917
 20
164.0740212289397
 30
0.0
  0
VERTEX
  5
1CC
330
1C8
100
AcDbEntity
  8
Layer 1
 62
   178
420
    65793
370
    25
100
AcDbVertex
100
AcDb2dVertex
 10
80.43195068664502
 20
164.0740212289397
 30
0.0
  0
VERTEX
  5
1CD
330
1C8
100
AcDbEntity
  8
Layer 1
 62
   178
420
    65793
370
    25
100
AcDbVertex
100
AcDb2dVertex
 10
80.43195068664502
 20
150.0740220205455
 30
0.0
  0
SEQEND
  5
1CE
330
1C8
100
AcDbEntity
  8
Layer 1
 62
   178
420
    65793
370
    25
  0
ENDBLK
  5
1C7
330
1C4
100
AcDbEntity
  8
0
100
AcDbBlockEnd
  0
BLOCK
  5
1D1
330
1CF
100
AcDbEntity
  8
0
100
AcDbBlockBegin
  2
block 37
 70
     0
 10
0.0
 20
0.0
 30
0.0
  3
block 37
  1

  0
POLYLINE
  5
1D3
330
1CF
100
AcDbEntity
  8
Layer 1
 62
   178
420
    65793
370
    25
100
AcDb2dPolyline
 66
     1
 10
0.0
 20
0.0
 30
0.0
  0
VERTEX
  5
1D4
330
1D3
100
AcDbEntity
  8
Layer 1
 62
   178
420
    65793
370
    25
100
AcDbVertex
100
AcDb2dVertex
 10
137.5819451663786
 20
150.0740220205455
 30
0.0
  0
VERTEX
  5
1D5
330
1D3
100
AcDbEntity
  8
Layer 1
 62
   178
420
    65793
370
    25
100
AcDbVertex
100
AcDb2dVertex
 10
151.5819443747727
 20
150.0740220205455
 30
0.0
  0
VERTEX
  5
1D6
330
1D3
100
AcDbEntity
  8
Layer 1
 62
   178
420
    65793
370
    25
100
AcDbVertex
100
AcDb2dVertex
 10
151.5819443747727
 20
164.0740212289397
 30
0.0
  0
VERTEX
  5
1D7
330
1D3
100
AcDbEntity
  8
Layer 1
 62
   178
420
    65793
370
    25
100
AcDbVertex
100
AcDb2dVertex
 10
137.5819451663786
 20
164.0740212289397
 30
0.0
  0
VERTEX
  5
1D8
330
1D3
100
AcDbEntity
  8
Layer 1
 62
   178
420
    65793
370
    25
100
AcDbVertex
100
AcDb2dVertex
 10
137.5819451663786
 20
150.0740220205455
 30
0.0
  0
SEQEND
  5
1D9
330
1D3
100
AcDbEntity
  8
Layer 1
 62
   178
420
    65793
370
    25
  0
ENDBLK
  5
1D2
330
1CF
100
AcDbEntity
  8
0
100
AcDbBlockEnd
  0
BLOCK
  5
1DC
330
1DA
100
AcDbEntity
  8
0
100
AcDbBlockBegin
  2
block 38
 70
     0
 10
0.0
 20
0.0
 30
0.0
  3
block 38
  1

  0
POLYLINE
  5
1DE
330
1DA
100
AcDbEntity
  8
Layer 1
 62
   178
420
    65793
370
    25
100
AcDb2dPolyline
 66
     1
 10
0.0
 20
0.0
 30
0.0
  0
VERTEX
  5
1DF
330
1DE
100
AcDbEntity
  8
Layer 1
 62
   178
420
    65793
370
    25
100
AcDbVertex
100
AcDb2dVertex
 10
156.6319471409868
 20
150.0740220205455
 30
0.0
  0
VERTEX
  5
1E0
330
1DE
100
AcDbEntity
  8
Layer 1
 62
   178
420
    65793
370
    25
100
AcDbVertex
100
AcDb2dVertex
 10
170.631946349381
 20
150.0740220205455
 30
0.0
  0
VERTEX
  5
1E1
330
1DE
100
AcDbEntity
  8
Layer 1
 62
   178
420
    65793
370
    25
100
AcDbVertex
100
AcDb2dVertex
 10
170.631946349381
 20
164.0740212289397
 30
0.0
  0
VERTEX
  5
1E2
330
1DE
100
AcDbEntity
  8
Layer 1
 62
   178
420
    65793
370
    25
100
AcDbVertex
100
AcDb2dVertex
 10
156.6319471409868
 20
164.0740212289397
 30
0.0
  0
VERTEX
  5
1E3
330
1DE
100
AcDbEntity
  8
Layer 1
 62
   178
420
    65793
370
    25
100
AcDbVertex
100
AcDb2dVertex
 10
156.6319471409868
 20
150.0740220205455
 30
0.0
  0
SEQEND
  5
1E4
330
1DE
100
AcDbEntity
  8
Layer 1
 62
   178
420
    65793
370
    25
  0
ENDBLK
  5
1DD
330
1DA
100
AcDbEntity
  8
0
100
AcDbBlockEnd
  0
BLOCK
  5
1E7
330
1E5
100
AcDbEntity
  8
0
100
AcDbBlockBegin
  2
block 39
 70
     0
 10
0.0
 20
0.0
 30
0.0
  3
block 39
  1

  0
POLYLINE
  5
1E9
330
1E5
100
AcDbEntity
  8
Layer 1
 62
   178
420
    65793
370
    25
100
AcDb2dPolyline
 66
     1
 10
0.0
 20
0.0
 30
0.0
  0
VERTEX
  5
1EA
330
1E9
100
AcDbEntity
  8
Layer 1
 62
   178
420
    65793
370
    25
100
AcDbVertex
100
AcDb2dVertex
 10
194.7319510902033
 20
150.0740220205455
 30
0.0
  0
VERTEX
  5
1EB
330
1E9
100
AcDbEntity
  8
Layer 1
 62
   178
420
    65793
370
    25
100
AcDbVertex
100
AcDb2dVertex
 10
208.7319502985975
 20
150.0740220205455
 30
0.0
  0
VERTEX
  5
1EC
330
1E9
100
AcDbEntity
  8
Layer 1
 62
   178
420
    65793
370
    25
100
AcDbVertex
100
AcDb2dVertex
 10
208.7319502985975
 20
164.0740212289397
 30
0.0
  0
VERTEX
  5
1ED
330
1E9
100
AcDbEntity
  8
Layer 1
 62
   178
420
    65793
370
    25
100
AcDbVertex
100
AcDb2dVertex
 10
194.7319510902033
 20
164.0740212289397
 30
0.0
  0
VERTEX
  5
1EE
330
1E9
100
AcDbEntity
  8
Layer 1
 62
   178
420
    65793
370
    25
100
AcDbVertex
100
AcDb2dVertex
 10
194.7319510902033
 20
150.0740220205455
 30
0.0
  0
SEQEND
  5
1EF
330
1E9
100
AcDbEntity
  8
Layer 1
 62
   178
420
    65793
370
    25
  0
ENDBLK
  5
1E8
330
1E5
100
AcDbEntity
  8
0
100
AcDbBlockEnd
  0
BLOCK
  5
1F2
330
1F0
100
AcDbEntity
  8
0
100
AcDbBlockBegin
  2
block 40
 70
     0
 10
0.0
 20
0.0
 30
0.0
  3
block 40
  1

  0
POLYLINE
  5
1F4
330
1F0
100
AcDbEntity
  8
Layer 1
 62
   178
420
    65793
370
    25
100
AcDb2dPolyline
 66
     1
 10
0.0
 20
0.0
 30
0.0
  0
VERTEX
  5
1F5
330
1F4
100
AcDbEntity
  8
Layer 1
 62
   178
420
    65793
370
    25
100
AcDbVertex
100
AcDb2dVertex
 10
213.7819378060234
 20
150.0740220205455
 30
0.0
  0
VERTEX
  5
1F6
330
1F4
100
AcDbEntity
  8
Layer 1
 62
   178
420
    65793
370
    25
100
AcDbVertex
100
AcDb2dVertex
 10
227.7819370144175
 20
150.0740220205455
 30
0.0
  0
VERTEX
  5
1F7
330
1F4
100
AcDbEntity
  8
Layer 1
 62
   178
420
    65793
370
    25
100
AcDbVertex
100
AcDb2dVertex
 10
227.7819370144175
 20
164.0740212289397
 30
0.0
  0
VERTEX
  5
1F8
330
1F4
100
AcDbEntity
  8
Layer 1
 62
   178
420
    65793
370
    25
100
AcDbVertex
100
AcDb2dVertex
 10
213.7819378060234
 20
164.0740212289397
 30
0.0
  0
VERTEX
  5
1F9
330
1F4
100
AcDbEntity
  8
Layer 1
 62
   178
420
    65793
370
    25
100
AcDbVertex
100
AcDb2dVertex
 10
213.7819378060234
 20
150.0740220205455
 30
0.0
  0
SEQEND
  5
1FA
330
1F4
100
AcDbEntity
  8
Layer 1
 62
   178
420
    65793
370
    25
  0
ENDBLK
  5
1F3
330
1F0
100
AcDbEntity
  8
0
100
AcDbBlockEnd
  0
BLOCK
  5
1FD
330
1FB
100
AcDbEntity
  8
0
100
AcDbBlockBegin
  2
block 41
 70
     0
 10
0.0
 20
0.0
 30
0.0
  3
block 41
  1

  0
POLYLINE
  5
1FF
330
1FB
100
AcDbEntity
  8
Layer 1
 62
   178
420
    65793
370
    25
100
AcDb2dPolyline
 66
     1
 10
0.0
 20
0.0
 30
0.0
  0
VERTEX
  5
200
330
1FF
100
AcDbEntity
  8
Layer 1
 62
   178
420
    65793
370
    25
100
AcDbVertex
100
AcDb2dVertex
 10
61.38195252673383
 20
131.0240238606347
 30
0.0
  0
VERTEX
  5
201
330
1FF
100
AcDbEntity
  8
Layer 1
 62
   178
420
    65793
370
    25
100
AcDbVertex
100
AcDb2dVertex
 10
75.38195173512797
 20
131.0240238606347
 30
0.0
  0
VERTEX
  5
202
330
1FF
100
AcDbEntity
  8
Layer 1
 62
   178
420
    65793
370
    25
100
AcDbVertex
100
AcDb2dVertex
 10
75.38195173512797
 20
145.0240230690288
 30
0.0
  0
VERTEX
  5
203
330
1FF
100
AcDbEntity
  8
Layer 1
 62
   178
420
    65793
370
    25
100
AcDbVertex
100
AcDb2dVertex
 10
61.38195252673383
 20
145.0240230690288
 30
0.0
  0
VERTEX
  5
204
330
1FF
100
AcDbEntity
  8
Layer 1
 62
   178
420
    65793
370
    25
100
AcDbVertex
100
AcDb2dVertex
 10
61.38195252673383
 20
131.0240238606347
 30
0.0
  0
SEQEND
  5
205
330
1FF
100
AcDbEntity
  8
Layer 1
 62
   178
420
    65793
370
    25
  0
ENDBLK
  5
1FE
330
1FB
100
AcDbEntity
  8
0
100
AcDbBlockEnd
  0
BLOCK
  5
208
330
206
100
AcDbEntity
  8
0
100
AcDbBlockBegin
  2
block 42
 70
     0
 10
0.0
 20
0.0
 30
0.0
  3
block 42
  1

  0
POLYLINE
  5
20A
330
206
100
AcDbEntity
  8
Layer 1
 62
   178
420
    65793
370
    25
100
AcDb2dPolyline
 66
     1
 10
0.0
 20
0.0
 30
0.0
  0
VERTEX
  5
20B
330
20A
100
AcDbEntity
  8
Layer 1
 62
   178
420
    65793
370
    25
100
AcDbVertex
100
AcDb2dVertex
 10
80.43195068664502
 20
131.0240238606347
 30
0.0
  0
VERTEX
  5
20C
330
20A
100
AcDbEntity
  8
Layer 1
 62
   178
420
    65793
370
    25
100
AcDbVertex
100
AcDb2dVertex
 10
94.43194989503917
 20
131.0240238606347
 30
0.0
  0
VERTEX
  5
20D
330
20A
100
AcDbEntity
  8
Layer 1
 62
   178
420
    65793
370
    25
100
AcDbVertex
100
AcDb2dVertex
 10
94.43194989503917
 20
145.0240230690288
 30
0.0
  0
VERTEX
  5
20E
330
20A
100
AcDbEntity
  8
Layer 1
 62
   178
420
    65793
370
    25
100
AcDbVertex
100
AcDb2dVertex
 10
80.43195068664502
 20
145.0240230690288
 30
0.0
  0
VERTEX
  5
20F
330
20A
100
AcDbEntity
  8
Layer 1
 62
   178
420
    65793
370
    25
100
AcDbVertex
100
AcDb2dVertex
 10
80.43195068664502
 20
131.0240238606347
 30
0.0
  0
SEQEND
  5
210
330
20A
100
AcDbEntity
  8
Layer 1
 62
   178
420
    65793
370
    25
  0
ENDBLK
  5
209
330
206
100
AcDbEntity
  8
0
100
AcDbBlockEnd
  0
BLOCK
  5
213
330
211
100
AcDbEntity
  8
0
100
AcDbBlockBegin
  2
block 43
 70
     0
 10
0.0
 20
0.0
 30
0.0
  3
block 43
  1

  0
POLYLINE
  5
215
330
211
100
AcDbEntity
  8
Layer 1
 62
   178
420
    65793
370
    25
100
AcDb2dPolyline
 66
     1
 10
0.0
 20
0.0
 30
0.0
  0
VERTEX
  5
216
330
215
100
AcDbEntity
  8
Layer 1
 62
   178
420
    65793
370
    25
100
AcDbVertex
100
AcDb2dVertex
 10
142.3444494747277
 20
131.0240238606347
 30
0.0
  0
VERTEX
  5
217
330
215
100
AcDbEntity
  8
Layer 1
 62
   178
420
    65793
370
    25
100
AcDbVertex
100
AcDb2dVertex
 10
156.3444486831218
 20
131.0240238606347
 30
0.0
  0
VERTEX
  5
218
330
215
100
AcDbEntity
  8
Layer 1
 62
   178
420
    65793
370
    25
100
AcDbVertex
100
AcDb2dVertex
 10
156.3444486831218
 20
145.0240230690288
 30
0.0
  0
VERTEX
  5
219
330
215
100
AcDbEntity
  8
Layer 1
 62
   178
420
    65793
370
    25
100
AcDbVertex
100
AcDb2dVertex
 10
142.3444494747277
 20
145.0240230690288
 30
0.0
  0
VERTEX
  5
21A
330
215
100
AcDbEntity
  8
Layer 1
 62
   178
420
    65793
370
    25
100
AcDbVertex
100
AcDb2dVertex
 10
142.3444494747277
 20
131.0240238606347
 30
0.0
  0
SEQEND
  5
21B
330
215
100
AcDbEntity
  8
Layer 1
 62
   178
420
    65793
370
    25
  0
ENDBLK
  5
214
330
211
100
AcDbEntity
  8
0
100
AcDbBlockEnd
  0
BLOCK
  5
21E
330
21C
100
AcDbEntity
  8
0
100
AcDbBlockBegin
  2
block 44
 70
     0
 10
0.0
 20
0.0
 30
0.0
  3
block 44
  1

  0
POLYLINE
  5
220
330
21C
100
AcDbEntity
  8
Layer 1
 62
   178
420
    65793
370
    25
100
AcDb2dPolyline
 66
     1
 10
0.0
 20
0.0
 30
0.0
  0
VERTEX
  5
221
330
220
100
AcDbEntity
  8
Layer 1
 62
   178
420
    65793
370
    25
100
AcDbVertex
100
AcDb2dVertex
 10
161.3944438199418
 20
131.0240238606347
 30
0.0
  0
VERTEX
  5
222
330
220
100
AcDbEntity
  8
Layer 1
 62
   178
420
    65793
370
    25
100
AcDbVertex
100
AcDb2dVertex
 10
175.394443028336
 20
131.0240238606347
 30
0.0
  0
VERTEX
  5
223
330
220
100
AcDbEntity
  8
Layer 1
 62
   178
420
    65793
370
    25
100
AcDbVertex
100
AcDb2dVertex
 10
175.394443028336
 20
145.0240230690288
 30
0.0
  0
VERTEX
  5
224
330
220
100
AcDbEntity
  8
Layer 1
 62
   178
420
    65793
370
    25
100
AcDbVertex
100
AcDb2dVertex
 10
161.3944438199418
 20
145.0240230690288
 30
0.0
  0
VERTEX
  5
225
330
220
100
AcDbEntity
  8
Layer 1
 62
   178
420
    65793
370
    25
100
AcDbVertex
100
AcDb2dVertex
 10
161.3944438199418
 20
131.0240238606347
 30
0.0
  0
SEQEND
  5
226
330
220
100
AcDbEntity
  8
Layer 1
 62
   178
420
    65793
370
    25
  0
ENDBLK
  5
21F
330
21C
100
AcDbEntity
  8
0
100
AcDbBlockEnd
  0
BLOCK
  5
229
330
227
100
AcDbEntity
  8
0
100
AcDbBlockBegin
  2
block 45
 70
     0
 10
0.0
 20
0.0
 30
0.0
  3
block 45
  1

  0
POLYLINE
  5
22B
330
227
100
AcDbEntity
  8
Layer 1
 62
   178
420
    65793
370
    25
100
AcDb2dPolyline
 66
     1
 10
0.0
 20
0.0
 30
0.0
  0
VERTEX
  5
22C
330
22B
100
AcDbEntity
  8
Layer 1
 62
   178
420
    65793
370
    25
100
AcDbVertex
100
AcDb2dVertex
 10
180.4444457945501
 20
131.0240238606347
 30
0.0
  0
VERTEX
  5
22D
330
22B
100
AcDbEntity
  8
Layer 1
 62
   178
420
    65793
370
    25
100
AcDbVertex
100
AcDb2dVertex
 10
194.4444450029442
 20
131.0240238606347
 30
0.0
  0
VERTEX
  5
22E
330
22B
100
AcDbEntity
  8
Layer 1
 62
   178
420
    65793
370
    25
100
AcDbVertex
100
AcDb2dVertex
 10
194.4444450029442
 20
145.0240230690288
 30
0.0
  0
VERTEX
  5
22F
330
22B
100
AcDbEntity
  8
Layer 1
 62
   178
420
    65793
370
    25
100
AcDbVertex
100
AcDb2dVertex
 10
180.4444457945501
 20
145.0240230690288
 30
0.0
  0
VERTEX
  5
230
330
22B
100
AcDbEntity
  8
Layer 1
 62
   178
420
    65793
370
    25
100
AcDbVertex
100
AcDb2dVertex
 10
180.4444457945501
 20
131.0240238606347
 30
0.0
  0
SEQEND
  5
231
330
22B
100
AcDbEntity
  8
Layer 1
 62
   178
420
    65793
370
    25
  0
ENDBLK
  5
22A
330
227
100
AcDbEntity
  8
0
100
AcDbBlockEnd
  0
BLOCK
  5
234
330
232
100
AcDbEntity
  8
0
100
AcDbBlockBegin
  2
block 46
 70
     0
 10
0.0
 20
0.0
 30
0.0
  3
block 46
  1

  0
POLYLINE
  5
236
330
232
100
AcDbEntity
  8
Layer 1
 62
   178
420
    65793
370
    25
100
AcDb2dPolyline
 66
     1
 10
0.0
 20
0.0
 30
0.0
  0
VERTEX
  5
237
330
236
100
AcDbEntity
  8
Layer 1
 62
   178
420
    65793
370
    25
100
AcDbVertex
100
AcDb2dVertex
 10
199.4944477691583
 20
131.0240238606347
 30
0.0
  0
VERTEX
  5
238
330
236
100
AcDbEntity
  8
Layer 1
 62
   178
420
    65793
370
    25
100
AcDbVertex
100
AcDb2dVertex
 10
213.4944469775525
 20
131.0240238606347
 30
0.0
  0
VERTEX
  5
239
330
236
100
AcDbEntity
  8
Layer 1
 62
   178
420
    65793
370
    25
100
AcDbVertex
100
AcDb2dVertex
 10
213.4944469775525
 20
145.0240230690288
 30
0.0
  0
VERTEX
  5
23A
330
236
100
AcDbEntity
  8
Layer 1
 62
   178
420
    65793
370
    25
100
AcDbVertex
100
AcDb2dVertex
 10
199.4944477691583
 20
145.0240230690288
 30
0.0
  0
VERTEX
  5
23B
330
236
100
AcDbEntity
  8
Layer 1
 62
   178
420
    65793
370
    25
100
AcDbVertex
100
AcDb2dVertex
 10
199.4944477691583
 20
131.0240238606347
 30
0.0
  0
SEQEND
  5
23C
330
236
100
AcDbEntity
  8
Layer 1
 62
   178
420
    65793
370
    25
  0
ENDBLK
  5
235
330
232
100
AcDbEntity
  8
0
100
AcDbBlockEnd
  0
BLOCK
  5
23F
330
23D
100
AcDbEntity
  8
0
100
AcDbBlockBegin
  2
block 47
 70
     0
 10
0.0
 20
0.0
 30
0.0
  3
block 47
  1

  0
POLYLINE
  5
241
330
23D
100
AcDbEntity
  8
Layer 1
 62
   178
420
    65793
370
    25
100
AcDb2dPolyline
 66
     1
 10
0.0
 20
0.0
 30
0.0
  0
VERTEX
  5
242
330
241
100
AcDbEntity
  8
Layer 1
 62
   178
420
    65793
370
    25
100
AcDbVertex
100
AcDb2dVertex
 10
218.5444497437666
 20
131.0240238606347
 30
0.0
  0
VERTEX
  5
243
330
241
100
AcDbEntity
  8
Layer 1
 62
   178
420
    65793
370
    25
100
AcDbVertex
100
AcDb2dVertex
 10
232.5444489521607
 20
131.0240238606347
 30
0.0
  0
VERTEX
  5
244
330
241
100
AcDbEntity
  8
Layer 1
 62
   178
420
    65793
370
    25
100
AcDbVertex
100
AcDb2dVertex
 10
232.5444489521607
 20
145.0240230690288
 30
0.0
  0
VERTEX
  5
245
330
241
100
AcDbEntity
  8
Layer 1
 62
   178
420
    65793
370
    25
100
AcDbVertex
100
AcDb2dVertex
 10
218.5444497437666
 20
145.0240230690288
 30
0.0
  0
VERTEX
  5
246
330
241
100
AcDbEntity
  8
Layer 1
 62
   178
420
    65793
370
    25
100
AcDbVertex
100
AcDb2dVertex
 10
218.5444497437666
 20
131.0240238606347
 30
0.0
  0
SEQEND
  5
247
330
241
100
AcDbEntity
  8
Layer 1
 62
   178
420
    65793
370
    25
  0
ENDBLK
  5
240
330
23D
100
AcDbEntity
  8
0
100
AcDbBlockEnd
  0
BLOCK
  5
24A
330
248
100
AcDbEntity
  8
0
100
AcDbBlockBegin
  2
block 48
 70
     0
 10
0.0
 20
0.0
 30
0.0
  3
block 48
  1

  0
POLYLINE
  5
24C
330
248
100
AcDbEntity
  8
Layer 1
 62
   178
420
    65793
370
    25
100
AcDb2dPolyline
 66
     1
 10
0.0
 20
0.0
 30
0.0
  0
VERTEX
  5
24D
330
24C
100
AcDbEntity
  8
Layer 1
 62
   178
420
    65793
370
    25
100
AcDbVertex
100
AcDb2dVertex
 10
61.38195252673383
 20
111.9740218860264
 30
0.0
  0
VERTEX
  5
24E
330
24C
100
AcDbEntity
  8
Layer 1
 62
   178
420
    65793
370
    25
100
AcDbVertex
100
AcDb2dVertex
 10
75.38195173512797
 20
111.9740218860264
 30
0.0
  0
VERTEX
  5
24F
330
24C
100
AcDbEntity
  8
Layer 1
 62
   178
420
    65793
370
    25
100
AcDbVertex
100
AcDb2dVertex
 10
75.38195173512797
 20
125.9740210944206
 30
0.0
  0
VERTEX
  5
250
330
24C
100
AcDbEntity
  8
Layer 1
 62
   178
420
    65793
370
    25
100
AcDbVertex
100
AcDb2dVertex
 10
61.38195252673383
 20
125.9740210944206
 30
0.0
  0
VERTEX
  5
251
330
24C
100
AcDbEntity
  8
Layer 1
 62
   178
420
    65793
370
    25
100
AcDbVertex
100
AcDb2dVertex
 10
61.38195252673383
 20
111.9740218860264
 30
0.0
  0
SEQEND
  5
252
330
24C
100
AcDbEntity
  8
Layer 1
 62
   178
420
    65793
370
    25
  0
ENDBLK
  5
24B
330
248
100
AcDbEntity
  8
0
100
AcDbBlockEnd
  0
BLOCK
  5
255
330
253
100
AcDbEntity
  8
0
100
AcDbBlockBegin
  2
block 49
 70
     0
 10
0.0
 20
0.0
 30
0.0
  3
block 49
  1

  0
POLYLINE
  5
257
330
253
100
AcDbEntity
  8
Layer 1
 62
   178
420
    65793
370
    25
100
AcDb2dPolyline
 66
     1
 10
0.0
 20
0.0
 30
0.0
  0
VERTEX
  5
258
330
257
100
AcDbEntity
  8
Layer 1
 62
   178
420
    65793
370
    25
100
AcDbVertex
100
AcDb2dVertex
 10
80.43195068664502
 20
111.9740218860264
 30
0.0
  0
VERTEX
  5
259
330
257
100
AcDbEntity
  8
Layer 1
 62
   178
420
    65793
370
    25
100
AcDbVertex
100
AcDb2dVertex
 10
94.43194989503917
 20
111.9740218860264
 30
0.0
  0
VERTEX
  5
25A
330
257
100
AcDbEntity
  8
Layer 1
 62
   178
420
    65793
370
    25
100
AcDbVertex
100
AcDb2dVertex
 10
94.43194989503917
 20
125.9740210944206
 30
0.0
  0
VERTEX
  5
25B
330
257
100
AcDbEntity
  8
Layer 1
 62
   178
420
    65793
370
    25
100
AcDbVertex
100
AcDb2dVertex
 10
80.43195068664502
 20
125.9740210944206
 30
0.0
  0
VERTEX
  5
25C
330
257
100
AcDbEntity
  8
Layer 1
 62
   178
420
    65793
370
    25
100
AcDbVertex
100
AcDb2dVertex
 10
80.43195068664502
 20
111.9740218860264
 30
0.0
  0
SEQEND
  5
25D
330
257
100
AcDbEntity
  8
Layer 1
 62
   178
420
    65793
370
    25
  0
ENDBLK
  5
256
330
253
100
AcDbEntity
  8
0
100
AcDbBlockEnd
  0
BLOCK
  5
260
330
25E
100
AcDbEntity
  8
0
100
AcDbBlockBegin
  2
block 50
 70
     0
 10
0.0
 20
0.0
 30
0.0
  3
block 50
  1

  0
POLYLINE
  5
262
330
25E
100
AcDbEntity
  8
Layer 1
 62
   178
420
    65793
370
    25
100
AcDb2dPolyline
 66
     1
 10
0.0
 20
0.0
 30
0.0
  0
VERTEX
  5
263
330
262
100
AcDbEntity
  8
Layer 1
 62
   178
420
    65793
370
    25
100
AcDbVertex
100
AcDb2dVertex
 10
151.8694504620318
 20
111.9740218860264
 30
0.0
  0
VERTEX
  5
264
330
262
100
AcDbEntity
  8
Layer 1
 62
   178
420
    65793
370
    25
100
AcDbVertex
100
AcDb2dVertex
 10
165.869449670426
 20
111.9740218860264
 30
0.0
  0
VERTEX
  5
265
330
262
100
AcDbEntity
  8
Layer 1
 62
   178
420
    65793
370
    25
100
AcDbVertex
100
AcDb2dVertex
 10
165.869449670426
 20
125.9740210944206
 30
0.0
  0
VERTEX
  5
266
330
262
100
AcDbEntity
  8
Layer 1
 62
   178
420
    65793
370
    25
100
AcDbVertex
100
AcDb2dVertex
 10
151.8694504620318
 20
125.9740210944206
 30
0.0
  0
VERTEX
  5
267
330
262
100
AcDbEntity
  8
Layer 1
 62
   178
420
    65793
370
    25
100
AcDbVertex
100
AcDb2dVertex
 10
151.8694504620318
 20
111.9740218860264
 30
0.0
  0
SEQEND
  5
268
330
262
100
AcDbEntity
  8
Layer 1
 62
   178
420
    65793
370
    25
  0
ENDBLK
  5
261
330
25E
100
AcDbEntity
  8
0
100
AcDbBlockEnd
  0
BLOCK
  5
26B
330
269
100
AcDbEntity
  8
0
100
AcDbBlockBegin
  2
block 51
 70
     0
 10
0.0
 20
0.0
 30
0.0
  3
block 51
  1

  0
POLYLINE
  5
26D
330
269
100
AcDbEntity
  8
Layer 1
 62
   178
420
    65793
370
    25
100
AcDb2dPolyline
 66
     1
 10
0.0
 20
0.0
 30
0.0
  0
VERTEX
  5
26E
330
26D
100
AcDbEntity
  8
Layer 1
 62
   178
420
    65793
370
    25
100
AcDbVertex
100
AcDb2dVertex
 10
170.919444807246
 20
111.9740218860264
 30
0.0
  0
VERTEX
  5
26F
330
26D
100
AcDbEntity
  8
Layer 1
 62
   178
420
    65793
370
    25
100
AcDbVertex
100
AcDb2dVertex
 10
184.9194440156401
 20
111.9740218860264
 30
0.0
  0
VERTEX
  5
270
330
26D
100
AcDbEntity
  8
Layer 1
 62
   178
420
    65793
370
    25
100
AcDbVertex
100
AcDb2dVertex
 10
184.9194440156401
 20
125.9740210944206
 30
0.0
  0
VERTEX
  5
271
330
26D
100
AcDbEntity
  8
Layer 1
 62
   178
420
    65793
370
    25
100
AcDbVertex
100
AcDb2dVertex
 10
170.919444807246
 20
125.9740210944206
 30
0.0
  0
VERTEX
  5
272
330
26D
100
AcDbEntity
  8
Layer 1
 62
   178
420
    65793
370
    25
100
AcDbVertex
100
AcDb2dVertex
 10
170.919444807246
 20
111.9740218860264
 30
0.0
  0
SEQEND
  5
273
330
26D
100
AcDbEntity
  8
Layer 1
 62
   178
420
    65793
370
    25
  0
ENDBLK
  5
26C
330
269
100
AcDbEntity
  8
0
100
AcDbBlockEnd
  0
BLOCK
  5
276
330
274
100
AcDbEntity
  8
0
100
AcDbBlockBegin
  2
block 52
 70
     0
 10
0.0
 20
0.0
 30
0.0
  3
block 52
  1

  0
POLYLINE
  5
278
330
274
100
AcDbEntity
  8
Layer 1
 62
   178
420
    65793
370
    25
100
AcDb2dPolyline
 66
     1
 10
0.0
 20
0.0
 30
0.0
  0
VERTEX
  5
279
330
278
100
AcDbEntity
  8
Layer 1
 62
   178
420
    65793
370
    25
100
AcDbVertex
100
AcDb2dVertex
 10
189.9694391524601
 20
111.9740218860264
 30
0.0
  0
VERTEX
  5
27A
330
278
100
AcDbEntity
  8
Layer 1
 62
   178
420
    65793
370
    25
100
AcDbVertex
100
AcDb2dVertex
 10
203.9694383608542
 20
111.9740218860264
 30
0.0
  0
VERTEX
  5
27B
330
278
100
AcDbEntity
  8
Layer 1
 62
   178
420
    65793
370
    25
100
AcDbVertex
100
AcDb2dVertex
 10
203.9694383608542
 20
125.9740210944206
 30
0.0
  0
VERTEX
  5
27C
330
278
100
AcDbEntity
  8
Layer 1
 62
   178
420
    65793
370
    25
100
AcDbVertex
100
AcDb2dVertex
 10
189.9694391524601
 20
125.9740210944206
 30
0.0
  0
VERTEX
  5
27D
330
278
100
AcDbEntity
  8
Layer 1
 62
   178
420
    65793
370
    25
100
AcDbVertex
100
AcDb2dVertex
 10
189.9694391524601
 20
111.9740218860264
 30
0.0
  0
SEQEND
  5
27E
330
278
100
AcDbEntity
  8
Layer 1
 62
   178
420
    65793
370
    25
  0
ENDBLK
  5
277
330
274
100
AcDbEntity
  8
0
100
AcDbBlockEnd
  0
BLOCK
  5
281
330
27F
100
AcDbEntity
  8
0
100
AcDbBlockBegin
  2
block 53
 70
     0
 10
0.0
 20
0.0
 30
0.0
  3
block 53
  1

  0
POLYLINE
  5
283
330
27F
100
AcDbEntity
  8
Layer 1
 62
   178
420
    65793
370
    25
100
AcDb2dPolyline
 66
     1
 10
0.0
 20
0.0
 30
0.0
  0
VERTEX
  5
284
330
283
100
AcDbEntity
  8
Layer 1
 62
   178
420
    65793
370
    25
100
AcDbVertex
100
AcDb2dVertex
 10
209.0194411270683
 20
111.9740218860264
 30
0.0
  0
VERTEX
  5
285
330
283
100
AcDbEntity
  8
Layer 1
 62
   178
420
    65793
370
    25
100
AcDbVertex
100
AcDb2dVertex
 10
223.0194403354625
 20
111.9740218860264
 30
0.0
  0
VERTEX
  5
286
330
283
100
AcDbEntity
  8
Layer 1
 62
   178
420
    65793
370
    25
100
AcDbVertex
100
AcDb2dVertex
 10
223.0194403354625
 20
125.9740210944206
 30
0.0
  0
VERTEX
  5
287
330
283
100
AcDbEntity
  8
Layer 1
 62
   178
420
    65793
370
    25
100
AcDbVertex
100
AcDb2dVertex
 10
209.0194411270683
 20
125.9740210944206
 30
0.0
  0
VERTEX
  5
288
330
283
100
AcDbEntity
  8
Layer 1
 62
   178
420
    65793
370
    25
100
AcDbVertex
100
AcDb2dVertex
 10
209.0194411270683
 20
111.9740218860264
 30
0.0
  0
SEQEND
  5
289
330
283
100
AcDbEntity
  8
Layer 1
 62
   178
420
    65793
370
    25
  0
ENDBLK
  5
282
330
27F
100
AcDbEntity
  8
0
100
AcDbBlockEnd
  0
BLOCK
  5
28C
330
28A
100
AcDbEntity
  8
0
100
AcDbBlockBegin
  2
block 54
 70
     0
 10
0.0
 20
0.0
 30
0.0
  3
block 54
  1

  0
POLYLINE
  5
28E
330
28A
100
AcDbEntity
  8
Layer 1
 62
   178
420
    65793
370
    25
100
AcDb2dPolyline
 66
     1
 10
0.0
 20
0.0
 30
0.0
  0
VERTEX
  5
28F
330
28E
100
AcDbEntity
  8
Layer 1
 62
   178
420
    65793
370
    25
100
AcDbVertex
100
AcDb2dVertex
 10
228.0694431016766
 20
111.9740218860264
 30
0.0
  0
VERTEX
  5
290
330
28E
100
AcDbEntity
  8
Layer 1
 62
   178
420
    65793
370
    25
100
AcDbVertex
100
AcDb2dVertex
 10
242.0694423100707
 20
111.9740218860264
 30
0.0
  0
VERTEX
  5
291
330
28E
100
AcDbEntity
  8
Layer 1
 62
   178
420
    65793
370
    25
100
AcDbVertex
100
AcDb2dVertex
 10
242.0694423100707
 20
125.9740210944206
 30
0.0
  0
VERTEX
  5
292
330
28E
100
AcDbEntity
  8
Layer 1
 62
   178
420
    65793
370
    25
100
AcDbVertex
100
AcDb2dVertex
 10
228.0694431016766
 20
125.9740210944206
 30
0.0
  0
VERTEX
  5
293
330
28E
100
AcDbEntity
  8
Layer 1
 62
   178
420
    65793
370
    25
100
AcDbVertex
100
AcDb2dVertex
 10
228.0694431016766
 20
111.9740218860264
 30
0.0
  0
SEQEND
  5
294
330
28E
100
AcDbEntity
  8
Layer 1
 62
   178
420
    65793
370
    25
  0
ENDBLK
  5
28D
330
28A
100
AcDbEntity
  8
0
100
AcDbBlockEnd
  0
BLOCK
  5
297
330
295
100
AcDbEntity
  8
0
100
AcDbBlockBegin
  2
block 55
 70
     0
 10
0.0
 20
0.0
 30
0.0
  3
block 55
  1

  0
POLYLINE
  5
299
330
295
100
AcDbEntity
  8
Layer 1
 62
   178
420
    65793
370
    25
100
AcDb2dPolyline
 66
     1
 10
0.0
 20
0.0
 30
0.0
  0
VERTEX
  5
29A
330
299
100
AcDbEntity
  8
Layer 1
 62
   178
420
    65793
370
    25
100
AcDbVertex
100
AcDb2dVertex
 10
61.38195252673383
 20
92.92402754081165
 30
0.0
  0
VERTEX
  5
29B
330
299
100
AcDbEntity
  8
Layer 1
 62
   178
420
    65793
370
    25
100
AcDbVertex
100
AcDb2dVertex
 10
75.38195173512797
 20
92.92402754081165
 30
0.0
  0
VERTEX
  5
29C
330
299
100
AcDbEntity
  8
Layer 1
 62
   178
420
    65793
370
    25
100
AcDbVertex
100
AcDb2dVertex
 10
75.38195173512797
 20
106.9240267492058
 30
0.0
  0
VERTEX
  5
29D
330
299
100
AcDbEntity
  8
Layer 1
 62
   178
420
    65793
370
    25
100
AcDbVertex
100
AcDb2dVertex
 10
61.38195252673383
 20
106.9240267492058
 30
0.0
  0
VERTEX
  5
29E
330
299
100
AcDbEntity
  8
Layer 1
 62
   178
420
    65793
370
    25
100
AcDbVertex
100
AcDb2dVertex
 10
61.38195252673383
 20
92.92402754081165
 30
0.0
  0
SEQEND
  5
29F
330
299
100
AcDbEntity
  8
Layer 1
 62
   178
420
    65793
370
    25
  0
ENDBLK
  5
298
330
295
100
AcDbEntity
  8
0
100
AcDbBlockEnd
  0
BLOCK
  5
2A2
330
2A0
100
AcDbEntity
  8
0
100
AcDbBlockBegin
  2
block 56
 70
     0
 10
0.0
 20
0.0
 30
0.0
  3
block 56
  1

  0
POLYLINE
  5
2A4
330
2A0
100
AcDbEntity
  8
Layer 1
 62
   178
420
    65793
370
    25
100
AcDb2dPolyline
 66
     1
 10
0.0
 20
0.0
 30
0.0
  0
VERTEX
  5
2A5
330
2A4
100
AcDbEntity
  8
Layer 1
 62
   178
420
    65793
370
    25
100
AcDbVertex
100
AcDb2dVertex
 10
80.43195068664502
 20
92.92402754081165
 30
0.0
  0
VERTEX
  5
2A6
330
2A4
100
AcDbEntity
  8
Layer 1
 62
   178
420
    65793
370
    25
100
AcDbVertex
100
AcDb2dVertex
 10
94.43194989503917
 20
92.92402754081165
 30
0.0
  0
VERTEX
  5
2A7
330
2A4
100
AcDbEntity
  8
Layer 1
 62
   178
420
    65793
370
    25
100
AcDbVertex
100
AcDb2dVertex
 10
94.43194989503917
 20
106.9240267492058
 30
0.0
  0
VERTEX
  5
2A8
330
2A4
100
AcDbEntity
  8
Layer 1
 62
   178
420
    65793
370
    25
100
AcDbVertex
100
AcDb2dVertex
 10
80.43195068664502
 20
106.9240267492058
 30
0.0
  0
VERTEX
  5
2A9
330
2A4
100
AcDbEntity
  8
Layer 1
 62
   178
420
    65793
370
    25
100
AcDbVertex
100
AcDb2dVertex
 10
80.43195068664502
 20
92.92402754081165
 30
0.0
  0
SEQEND
  5
2AA
330
2A4
100
AcDbEntity
  8
Layer 1
 62
   178
420
    65793
370
    25
  0
ENDBLK
  5
2A3
330
2A0
100
AcDbEntity
  8
0
100
AcDbBlockEnd
  0
BLOCK
  5
2AD
330
2AB
100
AcDbEntity
  8
0
100
AcDbBlockBegin
  2
block 57
 70
     0
 10
0.0
 20
0.0
 30
0.0
  3
block 57
  1

  0
POLYLINE
  5
2AF
330
2AB
100
AcDbEntity
  8
Layer 1
 62
   178
420
    65793
370
    25
100
AcDb2dPolyline
 66
     1
 10
0.0
 20
0.0
 30
0.0
  0
VERTEX
  5
2B0
330
2AF
100
AcDbEntity
  8
Layer 1
 62
   178
420
    65793
370
    25
100
AcDbVertex
100
AcDb2dVertex
 10
113.7694503275124
 20
150.0740220205455
 30
0.0
  0
VERTEX
  5
2B1
330
2AF
100
AcDbEntity
  8
Layer 1
 62
   178
420
    65793
370
    25
100
AcDbVertex
100
AcDb2dVertex
 10
127.7694457212095
 20
150.0740220205455
 30
0.0
  0
VERTEX
  5
2B2
330
2AF
100
AcDbEntity
  8
Layer 1
 62
   178
420
    65793
370
    25
100
AcDbVertex
100
AcDb2dVertex
 10
127.7694457212095
 20
164.0740212289397
 30
0.0
  0
VERTEX
  5
2B3
330
2AF
100
AcDbEntity
  8
Layer 1
 62
   178
420
    65793
370
    25
100
AcDbVertex
100
AcDb2dVertex
 10
113.7694503275124
 20
164.0740212289397
 30
0.0
  0
VERTEX
  5
2B4
330
2AF
100
AcDbEntity
  8
Layer 1
 62
   178
420
    65793
370
    25
100
AcDbVertex
100
AcDb2dVertex
 10
113.7694503275124
 20
150.0740220205455
 30
0.0
  0
SEQEND
  5
2B5
330
2AF
100
AcDbEntity
  8
Layer 1
 62
   178
420
    65793
370
    25
  0
ENDBLK
  5
2AE
330
2AB
100
AcDbEntity
  8
0
100
AcDbBlockEnd
  0
BLOCK
  5
2B8
330
2B6
100
AcDbEntity
  8
0
100
AcDbBlockBegin
  2
block 58
 70
     0
 10
0.0
 20
0.0
 30
0.0
  3
block 58
  1

  0
POLYLINE
  5
2BA
330
2B6
100
AcDbEntity
  8
Layer 1
 62
   178
420
    65793
370
    25
100
AcDb2dPolyline
 66
     1
 10
0.0
 20
0.0
 30
0.0
  0
VERTEX
  5
2BB
330
2BA
100
AcDbEntity
  8
Layer 1
 62
   178
420
    65793
370
    25
100
AcDbVertex
100
AcDb2dVertex
 10
175.6819491155951
 20
150.0740220205455
 30
0.0
  0
VERTEX
  5
2BC
330
2BA
100
AcDbEntity
  8
Layer 1
 62
   178
420
    65793
370
    25
100
AcDbVertex
100
AcDb2dVertex
 10
189.6819483239892
 20
150.0740220205455
 30
0.0
  0
VERTEX
  5
2BD
330
2BA
100
AcDbEntity
  8
Layer 1
 62
   178
420
    65793
370
    25
100
AcDbVertex
100
AcDb2dVertex
 10
189.6819483239892
 20
164.0740212289397
 30
0.0
  0
VERTEX
  5
2BE
330
2BA
100
AcDbEntity
  8
Layer 1
 62
   178
420
    65793
370
    25
100
AcDbVertex
100
AcDb2dVertex
 10
175.6819491155951
 20
164.0740212289397
 30
0.0
  0
VERTEX
  5
2BF
330
2BA
100
AcDbEntity
  8
Layer 1
 62
   178
420
    65793
370
    25
100
AcDbVertex
100
AcDb2dVertex
 10
175.6819491155951
 20
150.0740220205455
 30
0.0
  0
SEQEND
  5
2C0
330
2BA
100
AcDbEntity
  8
Layer 1
 62
   178
420
    65793
370
    25
  0
ENDBLK
  5
2B9
330
2B6
100
AcDbEntity
  8
0
100
AcDbBlockEnd
  0
ENDSEC
  0
SECTION
  2
ENTITIES
  0
INSERT
  5
42
330
1F
100
AcDbEntity
  8
Layer 1
100
AcDbBlockReference
  2
block 2
 10
0.0
 20
0.0
 30
0.0
  0
INSERT
  5
47
330
1F
100
AcDbEntity
  8
Layer 1
100
AcDbBlockReference
  2
block 3
 10
0.0
 20
0.0
 30
0.0
  0
INSERT
  5
4C
330
1F
100
AcDbEntity
  8
Layer 1
100
AcDbBlockReference
  2
block 4
 10
0.0
 20
0.0
 30
0.0
  0
INSERT
  5
51
330
1F
100
AcDbEntity
  8
Layer 1
100
AcDbBlockReference
  2
block 5
 10
0.0
 20
0.0
 30
0.0
  0
INSERT
  5
56
330
1F
100
AcDbEntity
  8
Layer 1
100
AcDbBlockReference
  2
block 6
 10
0.0
 20
0.0
 30
0.0
  0
INSERT
  5
5B
330
1F
100
AcDbEntity
  8
Layer 1
100
AcDbBlockReference
  2
block 7
 10
0.0
 20
0.0
 30
0.0
  0
INSERT
  5
60
330
1F
100
AcDbEntity
  8
Layer 1
100
AcDbBlockReference
  2
block 8
 10
0.0
 20
0.0
 30
0.0
  0
INSERT
  5
65
330
1F
100
AcDbEntity
  8
Layer 1
100
AcDbBlockReference
  2
block 9
 10
0.0
 20
0.0
 30
0.0
  0
INSERT
  5
6A
330
1F
100
AcDbEntity
  8
Layer 1
100
AcDbBlockReference
  2
block 10
 10
0.0
 20
0.0
 30
0.0
  0
INSERT
  5
6F
330
1F
100
AcDbEntity
  8
Layer 1
100
AcDbBlockReference
  2
block 11
 10
0.0
 20
0.0
 30
0.0
  0
INSERT
  5
74
330
1F
100
AcDbEntity
  8
Layer 1
100
AcDbBlockReference
  2
block 12
 10
0.0
 20
0.0
 30
0.0
  0
INSERT
  5
A4
330
1F
100
AcDbEntity
  8
Layer 1
100
AcDbBlockReference
  2
block 13
 10
0.0
 20
0.0
 30
0.0
  0
INSERT
  5
C3
330
1F
100
AcDbEntity
  8
Layer 1
100
AcDbBlockReference
  2
block 14
 10
0.0
 20
0.0
 30
0.0
  0
INSERT
  5
D2
330
1F
100
AcDbEntity
  8
Layer 1
100
AcDbBlockReference
  2
block 15
 10
0.0
 20
0.0
 30
0.0
  0
INSERT
  5
DD
330
1F
100
AcDbEntity
  8
Layer 1
100
AcDbBlockReference
  2
block 16
 10
0.0
 20
0.0
 30
0.0
  0
INSERT
  5
EC
330
1F
100
AcDbEntity
  8
Layer 1
100
AcDbBlockReference
  2
block 17
 10
0.0
 20
0.0
 30
0.0
  0
INSERT
  5
FB
330
1F
100
AcDbEntity
  8
Layer 1
100
AcDbBlockReference
  2
block 18
 10
0.0
 20
0.0
 30
0.0
  0
INSERT
  5
10A
330
1F
100
AcDbEntity
  8
Layer 1
100
AcDbBlockReference
  2
block 19
 10
0.0
 20
0.0
 30
0.0
  0
INSERT
  5
115
330
1F
100
AcDbEntity
  8
Layer 1
100
AcDbBlockReference
  2
block 20
 10
0.0
 20
0.0
 30
0.0
  0
INSERT
  5
120
330
1F
100
AcDbEntity
  8
Layer 1
100
AcDbBlockReference
  2
block 21
 10
0.0
 20
0.0
 30
0.0
  0
INSERT
  5
12B
330
1F
100
AcDbEntity
  8
Layer 1
100
AcDbBlockReference
  2
block 22
 10
0.0
 20
0.0
 30
0.0
  0
INSERT
  5
136
330
1F
100
AcDbEntity
  8
Layer 1
100
AcDbBlockReference
  2
block 23
 10
0.0
 20
0.0
 30
0.0
  0
INSERT
  5
141
330
1F
100
AcDbEntity
  8
Layer 1
100
AcDbBlockReference
  2
block 24
 10
0.0
 20
0.0
 30
0.0
  0
INSERT
  5
14C
330
1F
100
AcDbEntity
  8
Layer 1
100
AcDbBlockReference
  2
block 25
 10
0.0
 20
0.0
 30
0.0
  0
INSERT
  5
157
330
1F
100
AcDbEntity
  8
Layer 1
100
AcDbBlockReference
  2
block 26
 10
0.0
 20
0.0
 30
0.0
  0
INSERT
  5
162
330
1F
100
AcDbEntity
  8
Layer 1
100
AcDbBlockReference
  2
block 27
 10
0.0
 20
0.0
 30
0.0
  0
INSERT
  5
16D
330
1F
100
AcDbEntity
  8
Layer 1
100
AcDbBlockReference
  2
block 28
 10
0.0
 20
0.0
 30
0.0
  0
INSERT
  5
178
330
1F
100
AcDbEntity
  8
Layer 1
100
AcDbBlockReference
  2
block 29
 10
0.0
 20
0.0
 30
0.0
  0
INSERT
  5
183
330
1F
100
AcDbEntity
  8
Layer 1
100
AcDbBlockReference
  2
block 30
 10
0.0
 20
0.0
 30
0.0
  0
INSERT
  5
18E
330
1F
100
AcDbEntity
  8
Layer 1
100
AcDbBlockReference
  2
block 31
 10
0.0
 20
0.0
 30
0.0
  0
INSERT
  5
199
330
1F
100
AcDbEntity
  8
Layer 1
100
AcDbBlockReference
  2
block 32
 10
0.0
 20
0.0
 30
0.0
  0
INSERT
  5
1A4
330
1F
100
AcDbEntity
  8
Layer 1
100
AcDbBlockReference
  2
block 33
 10
0.0
 20
0.0
 30
0.0
  0
INSERT
  5
1AF
330
1F
100
AcDbEntity
  8
Layer 1
100
AcDbBlockReference
  2
block 34
 10
0.0
 20
0.0
 30
0.0
  0
INSERT
  5
1BA
330
1F
100
AcDbEntity
  8
Layer 1
100
AcDbBlockReference
  2
block 35
 10
0.0
 20
0.0
 30
0.0
  0
INSERT
  5
1C5
330
1F
100
AcDbEntity
  8
Layer 1
100
AcDbBlockReference
  2
block 36
 10
0.0
 20
0.0
 30
0.0
  0
INSERT
  5
1D0
330
1F
100
AcDbEntity
  8
Layer 1
100
AcDbBlockReference
  2
block 37
 10
0.0
 20
0.0
 30
0.0
  0
INSERT
  5
1DB
330
1F
100
AcDbEntity
  8
Layer 1
100
AcDbBlockReference
  2
block 38
 10
0.0
 20
0.0
 30
0.0
  0
INSERT
  5
1E6
330
1F
100
AcDbEntity
  8
Layer 1
100
AcDbBlockReference
  2
block 39
 10
0.0
 20
0.0
 30
0.0
  0
INSERT
  5
1F1
330
1F
100
AcDbEntity
  8
Layer 1
100
AcDbBlockReference
  2
block 40
 10
0.0
 20
0.0
 30
0.0
  0
INSERT
  5
1FC
330
1F
100
AcDbEntity
  8
Layer 1
100
AcDbBlockReference
  2
block 41
 10
0.0
 20
0.0
 30
0.0
  0
INSERT
  5
207
330
1F
100
AcDbEntity
  8
Layer 1
100
AcDbBlockReference
  2
block 42
 10
0.0
 20
0.0
 30
0.0
  0
INSERT
  5
212
330
1F
100
AcDbEntity
  8
Layer 1
100
AcDbBlockReference
  2
block 43
 10
0.0
 20
0.0
 30
0.0
  0
INSERT
  5
21D
330
1F
100
AcDbEntity
  8
Layer 1
100
AcDbBlockReference
  2
block 44
 10
0.0
 20
0.0
 30
0.0
  0
INSERT
  5
228
330
1F
100
AcDbEntity
  8
Layer 1
100
AcDbBlockReference
  2
block 45
 10
0.0
 20
0.0
 30
0.0
  0
INSERT
  5
233
330
1F
100
AcDbEntity
  8
Layer 1
100
AcDbBlockReference
  2
block 46
 10
0.0
 20
0.0
 30
0.0
  0
INSERT
  5
23E
330
1F
100
AcDbEntity
  8
Layer 1
100
AcDbBlockReference
  2
block 47
 10
0.0
 20
0.0
 30
0.0
  0
INSERT
  5
249
330
1F
100
AcDbEntity
  8
Layer 1
100
AcDbBlockReference
  2
block 48
 10
0.0
 20
0.0
 30
0.0
  0
INSERT
  5
254
330
1F
100
AcDbEntity
  8
Layer 1
100
AcDbBlockReference
  2
block 49
 10
0.0
 20
0.0
 30
0.0
  0
INSERT
  5
25F
330
1F
100
AcDbEntity
  8
Layer 1
100
AcDbBlockReference
  2
block 50
 10
0.0
 20
0.0
 30
0.0
  0
INSERT
  5
26A
330
1F
100
AcDbEntity
  8
Layer 1
100
AcDbBlockReference
  2
block 51
 10
0.0
 20
0.0
 30
0.0
  0
INSERT
  5
275
330
1F
100
AcDbEntity
  8
Layer 1
100
AcDbBlockReference
  2
block 52
 10
0.0
 20
0.0
 30
0.0
  0
INSERT
  5
280
330
1F
100
AcDbEntity
  8
Layer 1
100
AcDbBlockReference
  2
block 53
 10
0.0
 20
0.0
 30
0.0
  0
INSERT
  5
28B
330
1F
100
AcDbEntity
  8
Layer 1
100
AcDbBlockReference
  2
block 54
 10
0.0
 20
0.0
 30
0.0
  0
INSERT
  5
296
330
1F
100
AcDbEntity
  8
Layer 1
100
AcDbBlockReference
  2
block 55
 10
0.0
 20
0.0
 30
0.0
  0
INSERT
  5
2A1
330
1F
100
AcDbEntity
  8
Layer 1
100
AcDbBlockReference
  2
block 56
 10
0.0
 20
0.0
 30
0.0
  0
INSERT
  5
2AC
330
1F
100
AcDbEntity
  8
Layer 1
100
AcDbBlockReference
  2
block 57
 10
0.0
 20
0.0
 30
0.0
  0
INSERT
  5
2B7
330
1F
100
AcDbEntity
  8
Layer 1
100
AcDbBlockReference
  2
block 58
 10
0.0
 20
0.0
 30
0.0
  0
ENDSEC
  0
SECTION
  2
OBJECTS
  0
DICTIONARY
  5
C
330
0
100
AcDbDictionary
281
     1
  3
ACAD_GROUP
350
D
  3
ACAD_LAYOUT
350
1A
  3
ACAD_MATERIAL
350
3B
  3
ACAD_MLEADERSTYLE
350
2C2
  3
ACAD_MLINESTYLE
350
17
  3
ACAD_PLOTSETTINGS
350
19
  3
ACAD_PLOTSTYLENAME
350
E
  3
ACAD_TABLESTYLE
350
2C1
  3
ACAD_VISUALSTYLE
350
2A
  0
SUN
  5
3F
330
29
100
AcDbSun
 90
        1
290
     0
 63
     7
421
 16777215
 40
1.0
291
     1
 91
  2455826
 92
 54000000
292
     0
 70
     2
 71
   256
280
     1
  0
DICTIONARY
  5
D
102
{ACAD_REACTORS
330
C
102
}
330
C
100
AcDbDictionary
281
     1
  0
DICTIONARY
  5
1A
102
{ACAD_REACTORS
330
C
102
}
330
C
100
AcDbDictionary
281
     1
  3
Layout1
350
1E
  3
Layout2
350
26
  3
Model
350
22
  0
DICTIONARY
  5
3B
102
{ACAD_REACTORS
330
C
102
}
330
C
100
AcDbDictionary
281
     1
  3
ByBlock
350
3D
  3
ByLayer
350
3C
  3
Global
350
3E
  0
DICTIONARY
  5
2C2
102
{ACAD_REACTORS
330
C
102
}
330
C
100
AcDbDictionary
281
     1
  0
DICTIONARY
  5
17
102
{ACAD_REACTORS
330
C
102
}
330
C
100
AcDbDictionary
281
     1
  3
Standard
350
18
  0
DICTIONARY
  5
19
102
{ACAD_REACTORS
330
C
102
}
330
C
100
AcDbDictionary
281
     1
  0
ACDBDICTIONARYWDFLT
  5
E
102
{ACAD_REACTORS
330
C
102
}
330
C
100
AcDbDictionary
281
     1
  3
Normal
350
F
100
AcDbDictionaryWithDefault
340
F
  0
DICTIONARY
  5
2C1
102
{ACAD_REACTORS
330
C
102
}
330
C
100
AcDbDictionary
281
     1
  0
DICTIONARY
  5
2A
102
{ACAD_REACTORS
330
C
102
}
330
C
100
AcDbDictionary
281
     1
  3
2dWireframe
350
2F
  3
3D Hidden
350
31
  3
3dWireframe
350
30
  3
Basic
350
32
  3
Brighten
350
36
  3
ColorChange
350
3A
  3
Conceptual
350
34
  3
Dim
350
35
  3
Facepattern
350
39
  3
Flat
350
2B
  3
FlatWithEdges
350
2C
  3
Gouraud
350
2D
  3
GouraudWithEdges
350
2E
  3
Linepattern
350
38
  3
Realistic
350
33
  3
Thicken
350
37
  0
LAYOUT
  5
1E
102
{ACAD_REACTORS
330
1A
102
}
330
1A
100
AcDbPlotSettings
  1

  2
none_device
  4

  6

 40
0.0
 41
0.0
 42
0.0
 43
0.0
 44
0.0
 45
0.0
 46
0.0
 47
0.0
 48
0.0
 49
0.0
140
0.0
141
0.0
142
1.0
143
1.0
 70
   688
 72
     0
 73
     0
 74
     5
  7

 75
    16
 76
     0
 77
     2
 78
   300
147
1.0
148
0.0
149
0.0
100
AcDbLayout
  1
Layout1
 70
     1
 71
     1
 10
0.0
 20
0.0
 11
12.0
 21
9.0
 12
0.0
 22
0.0
 32
0.0
 14
1.000000000000000E+20
 24
1.000000000000000E+20
 34
1.000000000000000E+20
 15
-1.000000000000000E+20
 25
-1.000000000000000E+20
 35
-1.000000000000000E+20
146
0.0
 13
0.0
 23
0.0
 33
0.0
 16
1.0
 26
0.0
 36
0.0
 17
0.0
 27
1.0
 37
0.0
 76
     0
330
1B
  0
LAYOUT
  5
26
102
{ACAD_REACTORS
330
1A
102
}
330
1A
100
AcDbPlotSettings
  1

  2
none_device
  4

  6

 40
0.0
 41
0.0
 42
0.0
 43
0.0
 44
0.0
 45
0.0
 46
0.0
 47
0.0
 48
0.0
 49
0.0
140
0.0
141
0.0
142
1.0
143
1.0
 70
   688
 72
     0
 73
     0
 74
     5
  7

 75
    16
 76
     0
 77
     2
 78
   300
147
1.0
148
0.0
149
0.0
100
AcDbLayout
  1
Layout2
 70
     1
 71
     2
 10
0.0
 20
0.0
 11
0.0
 21
0.0
 12
0.0
 22
0.0
 32
0.0
 14
0.0
 24
0.0
 34
0.0
 15
0.0
 25
0.0
 35
0.0
146
0.0
 13
0.0
 23
0.0
 33
0.0
 16
1.0
 26
0.0
 36
0.0
 17
0.0
 27
1.0
 37
0.0
 76
     0
330
23
  0
LAYOUT
  5
22
102
{ACAD_REACTORS
330
1A
102
}
330
1A
100
AcDbPlotSettings
  1

  2
none_device
  4

  6

 40
0.0
 41
0.0
 42
0.0
 43
0.0
 44
0.0
 45
0.0
 46
0.0
 47
0.0
 48
0.0
 49
0.0
140
0.0
141
0.0
142
1.0
143
1.0
 70
  1712
 72
     0
 73
     0
 74
     0
  7

 75
     0
 76
     0
 77
     2
 78
   300
147
1.0
148
0.0
149
0.0
100
AcDbLayout
  1
Model
 70
     1
 71
     0
 10
0.0
 20
0.0
 11
12.0
 21
9.0
 12
0.0
 22
0.0
 32
0.0
 14
1.000000000000000E+20
 24
1.000000000000000E+20
 34
1.000000000000000E+20
 15
-1.000000000000000E+20
 25
-1.000000000000000E+20
 35
-1.000000000000000E+20
146
0.0
 13
0.0
 23
0.0
 33
0.0
 16
1.0
 26
0.0
 36
0.0
 17
0.0
 27
1.0
 37
0.0
 76
     0
330
1F
331
29
  0
MATERIAL
  5
3D
102
{ACAD_REACTORS
330
3B
102
}
330
3B
100
AcDbMaterial
  1
ByBlock
 72
     1
 94
      127
  0
MATERIAL
  5
3C
102
{ACAD_REACTORS
330
3B
102
}
330
3B
100
AcDbMaterial
  1
ByLayer
 72
     1
 94
      127
  0
MATERIAL
  5
3E
102
{ACAD_REACTORS
330
3B
102
}
330
3B
100
AcDbMaterial
  1
Global
 72
     1
 94
      127
  0
MLINESTYLE
  5
18
102
{ACAD_REACTORS
330
17
102
}
330
17
100
AcDbMlineStyle
  2
Standard
 70
     0
  3

 62
   256
 51
90.0
 52
90.0
 71
     2
 49
0.5
 62
   256
  6
BYLAYER
 49
-0.5
 62
   256
  6
BYLAYER
  0
ACDBPLACEHOLDER
  5
F
102
{ACAD_REACTORS
330
E
102
}
330
E
  0
VISUALSTYLE
  5
2F
102
{ACAD_REACTORS
330
2A
102
}
330
2A
100
AcDbVisualStyle
  2
2dWireframe
 70
     4
177
     2
291
     0
 71
     0
176
     1
 72
     2
176
     1
 73
     0
176
     1
 90
        0
176
     1
 40
-0.6
176
     1
 41
-30.0
176
     1
 62
     5
 63
     7
421
 16777215
176
     1
 74
     1
176
     1
 91
        4
176
     1
 64
     7
176
     1
 65
   257
176
     1
 75
     1
176
     1
175
     1
176
     1
 42
1.0
176
     1
 92
        0
176
     1
 66
   257
176
     1
 43
1.0
176
     1
 76
     1
176
     1
 77
     6
176
     1
 78
     2
176
     1
 67
     7
176
     1
 79
     5
176
     1
170
     0
176
     1
171
     0
176
     1
290
     0
176
     1
 93
        1
176
     1
 44
0.0
176
     1
173
     0
176
     1
  0
VISUALSTYLE
  5
31
102
{ACAD_REACTORS
330
2A
102
}
330
2A
100
AcDbVisualStyle
  2
3D Hidden
 70
     6
177
     2
291
     0
 71
     1
176
     1
 72
     2
176
     1
 73
     2
176
     1
 90
        0
176
     1
 40
-0.6
176
     1
 41
-30.0
176
     1
 62
     5
 63
     7
421
 16777215
176
     1
 74
     2
176
     1
 91
        2
176
     1
 64
     7
176
     1
 65
   257
176
     1
 75
     2
176
     1
175
     1
176
     1
 42
40.0
176
     1
 92
        0
176
     1
 66
   257
176
     1
 43
1.0
176
     1
 76
     1
176
     1
 77
     6
176
     1
 78
     2
176
     1
 67
     7
176
     1
 79
     3
176
     1
170
     0
176
     1
171
     0
176
     1
290
     0
176
     1
 93
        1
176
     1
 44
0.0
176
     1
173
     0
176
     1
  0
VISUALSTYLE
  5
30
102
{ACAD_REACTORS
330
2A
102
}
330
2A
100
AcDbVisualStyle
  2
3dWireframe
 70
     5
177
     2
291
     0
 71
     0
176
     1
 72
     2
176
     1
 73
     0
176
     1
 90
        0
176
     1
 40
-0.6
176
     1
 41
-30.0
176
     1
 62
     5
 63
     7
421
 16777215
176
     1
 74
     1
176
     1
 91
        4
176
     1
 64
     7
176
     1
 65
   257
176
     1
 75
     1
176
     1
175
     1
176
     1
 42
1.0
176
     1
 92
        0
176
     1
 66
   257
176
     1
 43
1.0
176
     1
 76
     1
176
     1
 77
     6
176
     1
 78
     2
176
     1
 67
     7
176
     1
 79
     5
176
     1
170
     0
176
     1
171
     0
176
     1
290
     0
176
     1
 93
        1
176
     1
 44
0.0
176
     1
173
     0
176
     1
  0
VISUALSTYLE
  5
32
102
{ACAD_REACTORS
330
2A
102
}
330
2A
100
AcDbVisualStyle
  2
Basic
 70
     7
177
     2
291
     1
 71
     1
176
     1
 72
     0
176
     1
 73
     1
176
     1
 90
        0
176
     1
 40
-0.6
176
     1
 41
-30.0
176
     1
 62
     5
 63
     7
421
 16777215
176
     1
 74
     0
176
     1
 91
        4
176
     1
 64
     7
176
     1
 65
   257
176
     1
 75
     1
176
     1
175
     1
176
     1
 42
1.0
176
     1
 92
        8
176
     1
 66
     7
176
     1
 43
1.0
176
     1
 76
     1
176
     1
 77
     6
176
     1
 78
     2
176
     1
 67
     7
176
     1
 79
     5
176
     1
170
     0
176
     1
171
     0
176
     1
290
     0
176
     1
 93
        1
176
     1
 44
0.0
176
     1
173
     0
176
     1
  0
VISUALSTYLE
  5
36
102
{ACAD_REACTORS
330
2A
102
}
330
2A
100
AcDbVisualStyle
  2
Brighten
 70
    12
177
     2
291
     1
 71
     2
176
     1
 72
     2
176
     1
 73
     0
176
     1
 90
        0
176
     1
 40
-0.6
176
     1
 41
-30.0
176
     1
 62
     5
 63
     7
421
 16777215
176
     1
 74
     1
176
     1
 91
        4
176
     1
 64
     7
176
     1
 65
   257
176
     1
 75
     1
176
     1
175
     1
176
     1
 42
1.0
176
     1
 92
        8
176
     1
 66
     7
176
     1
 43
1.0
176
     1
 76
     1
176
     1
 77
     6
176
     1
 78
     2
176
     1
 67
     7
176
     1
 79
     5
176
     1
170
     0
176
     1
171
     0
176
     1
290
     0
176
     1
 93
        1
176
     1
 44
50.0
176
     1
173
     0
176
     1
  0
VISUALSTYLE
  5
3A
102
{ACAD_REACTORS
330
2A
102
}
330
2A
100
AcDbVisualStyle
  2
ColorChange
 70
    16
177
     2
291
     1
 71
     2
176
     1
 72
     2
176
     1
 73
     3
176
     1
 90
        0
176
     1
 40
-0.6
176
     1
 41
-30.0
176
     1
 62
     5
 63
     8
421
  8421504
176
     1
 74
     1
176
     1
 91
        4
176
     1
 64
     7
176
     1
 65
   257
176
     1
 75
     1
176
     1
175
     1
176
     1
 42
1.0
176
     1
 92
        8
176
     1
 66
     8
424
  8421504
176
     1
 43
1.0
176
     1
 76
     1
176
     1
 77
     6
176
     1
 78
     2
176
     1
 67
     7
176
     1
 79
     5
176
     1
170
     0
176
     1
171
     0
176
     1
290
     0
176
     1
 93
        1
176
     1
 44
0.0
176
     1
173
     0
176
     1
  0
VISUALSTYLE
  5
34
102
{ACAD_REACTORS
330
2A
102
}
330
2A
100
AcDbVisualStyle
  2
Conceptual
 70
     9
177
     2
291
     0
 71
     3
176
     1
 72
     2
176
     1
 73
     0
176
     1
 90
        0
176
     1
 40
-0.6
176
     1
 41
-30.0
176
     1
 62
     5
 63
     7
421
 16777215
176
     1
 74
     2
176
     1
 91
        2
176
     1
 64
     7
176
     1
 65
   257
176
     1
 75
     1
176
     1
175
     1
176
     1
 42
40.0
176
     1
 92
        8
176
     1
 66
     7
176
     1
 43
1.0
176
     1
 76
     1
176
     1
 77
     6
176
     1
 78
     2
176
     1
 67
     7
176
     1
 79
     3
176
     1
170
     0
176
     1
171
     0
176
     1
290
     0
176
     1
 93
        1
176
     1
 44
0.0
176
     1
173
     0
176
     1
  0
VISUALSTYLE
  5
35
102
{ACAD_REACTORS
330
2A
102
}
330
2A
100
AcDbVisualStyle
  2
Dim
 70
    11
177
     2
291
     1
 71
     2
176
     1
 72
     2
176
     1
 73
     0
176
     1
 90
        0
176
     1
 40
-0.6
176
     1
 41
-30.0
176
     1
 62
     5
 63
     7
421
 16777215
176
     1
 74
     1
176
     1
 91
        4
176
     1
 64
     7
176
     1
 65
   257
176
     1
 75
     1
176
     1
175
     1
176
     1
 42
1.0
176
     1
 92
        8
176
     1
 66
     7
176
     1
 43
1.0
176
     1
 76
     1
176
     1
 77
     6
176
     1
 78
     2
176
     1
 67
     7
176
     1
 79
     5
176
     1
170
     0
176
     1
171
     0
176
     1
290
     0
176
     1
 93
        1
176
     1
 44
-50.0
176
     1
173
     0
176
     1
  0
VISUALSTYLE
  5
39
102
{ACAD_REACTORS
330
2A
102
}
330
2A
100
AcDbVisualStyle
  2
Facepattern
 70
    15
177
     2
291
     1
 71
     2
176
     1
 72
     2
176
     1
 73
     0
176
     1
 90
        0
176
     1
 40
-0.6
176
     1
 41
-30.0
176
     1
 62
     5
 63
     7
421
 16777215
176
     1
 74
     1
176
     1
 91
        4
176
     1
 64
     7
176
     1
 65
   257
176
     1
 75
     1
176
     1
175
     1
176
     1
 42
1.0
176
     1
 92
        8
176
     1
 66
     7
176
     1
 43
1.0
176
     1
 76
     1
176
     1
 77
     6
176
     1
 78
     2
176
     1
 67
     7
176
     1
 79
     5
176
     1
170
     0
176
     1
171
     0
176
     1
290
     0
176
     1
 93
        1
176
     1
 44
0.0
176
     1
173
     0
176
     1
  0
VISUALSTYLE
  5
2B
102
{ACAD_REACTORS
330
2A
102
}
330
2A
100
AcDbVisualStyle
  2
Flat
 70
     0
177
     2
291
     1
 71
     2
176
     1
 72
     1
176
     1
 73
     1
176
     1
 90
        2
176
     1
 40
-0.6
176
     1
 41
30.0
176
     1
 62
     5
 63
     7
421
 16777215
176
     1
 74
     0
176
     1
 91
        4
176
     1
 64
     7
176
     1
 65
   257
176
     1
 75
     1
176
     1
175
     1
176
     1
 42
1.0
176
     1
 92
        8
176
     1
 66
     7
176
     1
 43
1.0
176
     1
 76
     1
176
     1
 77
     6
176
     1
 78
     2
176
     1
 67
     7
176
     1
 79
     5
176
     1
170
     0
176
     1
171
     0
176
     1
290
     0
176
     1
 93
       13
176
     1
 44
0.0
176
     1
173
     0
176
     1
  0
VISUALSTYLE
  5
2C
102
{ACAD_REACTORS
330
2A
102
}
330
2A
100
AcDbVisualStyle
  2
FlatWithEdges
 70
     1
177
     2
291
     1
 71
     2
176
     1
 72
     1
176
     1
 73
     1
176
     1
 90
        2
176
     1
 40
-0.6
176
     1
 41
30.0
176
     1
 62
     5
 63
     7
421
 16777215
176
     1
 74
     1
176
     1
 91
        4
176
     1
 64
     7
176
     1
 65
   257
176
     1
 75
     1
176
     1
175
     1
176
     1
 42
1.0
176
     1
 92
        0
176
     1
 66
   257
176
     1
 43
1.0
176
     1
 76
     1
176
     1
 77
     6
176
     1
 78
     2
176
     1
 67
     7
176
     1
 79
     5
176
     1
170
     0
176
     1
171
     0
176
     1
290
     0
176
     1
 93
       13
176
     1
 44
0.0
176
     1
173
     0
176
     1
  0
VISUALSTYLE
  5
2D
102
{ACAD_REACTORS
330
2A
102
}
330
2A
100
AcDbVisualStyle
  2
Gouraud
 70
     2
177
     2
291
     1
 71
     2
176
     1
 72
     2
176
     1
 73
     1
176
     1
 90
        2
176
     1
 40
-0.6
176
     1
 41
30.0
176
     1
 62
     5
 63
     7
421
 16777215
176
     1
 74
     0
176
     1
 91
        4
176
     1
 64
     7
176
     1
 65
   257
176
     1
 75
     1
176
     1
175
     1
176
     1
 42
1.0
176
     1
 92
        0
176
     1
 66
     7
176
     1
 43
1.0
176
     1
 76
     1
176
     1
 77
     6
176
     1
 78
     2
176
     1
 67
     7
176
     1
 79
     5
176
     1
170
     0
176
     1
171
     0
176
     1
290
     0
176
     1
 93
       13
176
     1
 44
0.0
176
     1
173
     0
176
     1
  0
VISUALSTYLE
  5
2E
102
{ACAD_REACTORS
330
2A
102
}
330
2A
100
AcDbVisualStyle
  2
GouraudWithEdges
 70
     3
177
     2
291
     1
 71
     2
176
     1
 72
     2
176
     1
 73
     1
176
     1
 90
        2
176
     1
 40
-0.6
176
     1
 41
30.0
176
     1
 62
     5
 63
     7
421
 16777215
176
     1
 74
     1
176
     1
 91
        4
176
     1
 64
     7
176
     1
 65
   257
176
     1
 75
     1
176
     1
175
     1
176
     1
 42
1.0
176
     1
 92
        0
176
     1
 66
   257
176
     1
 43
1.0
176
     1
 76
     1
176
     1
 77
     6
176
     1
 78
     2
176
     1
 67
     7
176
     1
 79
     5
176
     1
170
     0
176
     1
171
     0
176
     1
290
     0
176
     1
 93
       13
176
     1
 44
0.0
176
     1
173
     0
176
     1
  0
VISUALSTYLE
  5
38
102
{ACAD_REACTORS
330
2A
102
}
330
2A
100
AcDbVisualStyle
  2
Linepattern
 70
    14
177
     2
291
     1
 71
     2
176
     1
 72
     2
176
     1
 73
     0
176
     1
 90
        0
176
     1
 40
-0.6
176
     1
 41
-30.0
176
     1
 62
     5
 63
     7
421
 16777215
176
     1
 74
     1
176
     1
 91
        4
176
     1
 64
     7
176
     1
 65
   257
176
     1
 75
     7
176
     1
175
     7
176
     1
 42
1.0
176
     1
 92
        8
176
     1
 66
     7
176
     1
 43
1.0
176
     1
 76
     1
176
     1
 77
     6
176
     1
 78
     2
176
     1
 67
     7
176
     1
 79
     5
176
     1
170
     0
176
     1
171
     0
176
     1
290
     0
176
     1
 93
        1
176
     1
 44
0.0
176
     1
173
     0
176
     1
  0
VISUALSTYLE
  5
33
102
{ACAD_REACTORS
330
2A
102
}
330
2A
100
AcDbVisualStyle
  2
Realistic
 70
     8
177
     2
291
     0
 71
     2
176
     1
 72
     2
176
     1
 73
     0
176
     1
 90
        0
176
     1
 40
-0.6
176
     1
 41
-30.0
176
     1
 62
     5
 63
     7
421
 16777215
176
     1
 74
     1
176
     1
 91
        0
176
     1
 64
     7
176
     1
 65
   257
176
     1
 75
     1
176
     1
175
     1
176
     1
 42
1.0
176
     1
 92
        8
176
     1
 66
     8
424
  7895160
176
     1
 43
1.0
176
     1
 76
     1
176
     1
 77
     6
176
     1
 78
     2
176
     1
 67
     7
176
     1
 79
     5
176
     1
170
     0
176
     1
171
     0
176
     1
290
     0
176
     1
 93
       13
176
     1
 44
0.0
176
     1
173
     0
176
     1
  0
VISUALSTYLE
  5
37
102
{ACAD_REACTORS
330
2A
102
}
330
2A
100
AcDbVisualStyle
  2
Thicken
 70
    13
177
     2
291
     1
 71
     2
176
     1
 72
     2
176
     1
 73
     0
176
     1
 90
        0
176
     1
 40
-0.6
176
     1
 41
-30.0
176
     1
 62
     5
 63
     7
421
 16777215
176
     1
 74
     1
176
     1
 91
        4
176
     1
 64
     7
176
     1
 65
   257
176
     1
 75
     1
176
     1
175
     1
176
     1
 42
1.0
176
     1
 92
       12
176
     1
 66
     7
176
     1
 43
1.0
176
     1
 76
     1
176
     1
 77
     6
176
     1
 78
     2
176
     1
 67
     7
176
     1
 79
     5
176
     1
170
     0
176
     1
171
     0
176
     1
290
     0
176
     1
 93
        1
176
     1
 44
0.0
176
     1
173
     0
176
     1
  0
ENDSEC
  0
EOF
