  0
SECTION
  2
HEADER
  9
$ACADVER
  1
AC1024
  9
$ACADMAINTVER
 70
     6
  9
$DWGCODEPAGE
  3
UNDEFINED
  9
$INSBASE
 10
0.0
 20
0.0
 30
0.0
  9
$EXTMIN
 10
1.000000000000000E+20
 20
1.000000000000000E+20
 30
1.000000000000000E+20
  9
$EXTMAX
 10
-1.000000000000000E+20
 20
-1.000000000000000E+20
 30
-1.000000000000000E+20
  9
$LIMMIN
 10
0.0
 20
0.0
  9
$LIMMAX
 10
12.0
 20
9.0
  9
$ORTHOMODE
 70
     0
  9
$REGENMODE
 70
     1
  9
$FILLMODE
 70
     1
  9
$QTEXTMODE
 70
     0
  9
$MIRRTEXT
 70
     1
  9
$LTSCALE
 40
1.0
  9
$ATTMODE
 70
     1
  9
$TEXTSIZE
 40
0.2
  9
$TRACEWID
 40
0.05
  9
$TEXTSTYLE
  7
Standard
  9
$CLAYER
  8
0
  9
$CELTYPE
  6
ByLayer
  9
$CECOLOR
 62
   256
  9
$CELTSCALE
 40
1.0
  9
$DISPSILH
 70
     0
  9
$DIMSCALE
 40
1.0
  9
$DIMASZ
 40
0.18
  9
$DIMEXO
 40
0.0625
  9
$DIMDLI
 40
0.38
  9
$DIMRND
 40
0.0
  9
$DIMDLE
 40
0.0
  9
$DIMEXE
 40
0.18
  9
$DIMTP
 40
0.0
  9
$DIMTM
 40
0.0
  9
$DIMTXT
 40
0.18
  9
$DIMCEN
 40
0.09
  9
$DIMTSZ
 40
0.0
  9
$DIMTOL
 70
     0
  9
$DIMLIM
 70
     0
  9
$DIMTIH
 70
     1
  9
$DIMTOH
 70
     1
  9
$DIMSE1
 70
     0
  9
$DIMSE2
 70
     0
  9
$DIMTAD
 70
     0
  9
$DIMZIN
 70
     0
  9
$DIMBLK
  1

  9
$DIMASO
 70
     1
  9
$DIMSHO
 70
     1
  9
$DIMPOST
  1

  9
$DIMAPOST
  1

  9
$DIMALT
 70
     0
  9
$DIMALTD
 70
     2
  9
$DIMALTF
 40
25.4
  9
$DIMLFAC
 40
1.0
  9
$DIMTOFL
 70
     0
  9
$DIMTVP
 40
0.0
  9
$DIMTIX
 70
     0
  9
$DIMSOXD
 70
     0
  9
$DIMSAH
 70
     0
  9
$DIMBLK1
  1

  9
$DIMBLK2
  1

  9
$DIMSTYLE
  2
Standard
  9
$DIMCLRD
 70
     0
  9
$DIMCLRE
 70
     0
  9
$DIMCLRT
 70
     0
  9
$DIMTFAC
 40
1.0
  9
$DIMGAP
 40
0.09
  9
$DIMJUST
 70
     0
  9
$DIMSD1
 70
     0
  9
$DIMSD2
 70
     0
  9
$DIMTOLJ
 70
     1
  9
$DIMTZIN
 70
     0
  9
$DIMALTZ
 70
     0
  9
$DIMALTTZ
 70
     0
  9
$DIMUPT
 70
     0
  9
$DIMDEC
 70
     4
  9
$DIMTDEC
 70
     4
  9
$DIMALTU
 70
     2
  9
$DIMALTTD
 70
     2
  9
$DIMTXSTY
  7
Standard
  9
$DIMAUNIT
 70
     0
  9
$DIMADEC
 70
     0
  9
$DIMALTRND
 40
0.0
  9
$DIMAZIN
 70
     0
  9
$DIMDSEP
 70
    46
  9
$DIMATFIT
 70
     3
  9
$DIMFRAC
 70
     0
  9
$DIMLDRBLK
  1

  9
$DIMLUNIT
 70
     2
  9
$DIMLWD
 70
    -2
  9
$DIMLWE
 70
    -2
  9
$DIMTMOVE
 70
     0
  9
$DIMFXL
 40
1.0
  9
$DIMFXLON
 70
     0
  9
$DIMJOGANG
 40
0.7853981633974483
  9
$DIMTFILL
 70
     0
  9
$DIMTFILLCLR
 70
     0
  9
$DIMARCSYM
 70
     0
  9
$DIMLTYPE
  6

  9
$DIMLTEX1
  6

  9
$DIMLTEX2
  6

  9
$DIMTXTDIRECTION
 70
     0
  9
$LUNITS
 70
     2
  9
$LUPREC
 70
     4
  9
$SKETCHINC
 40
0.1
  9
$FILLETRAD
 40
0.5
  9
$AUNITS
 70
     0
  9
$AUPREC
 70
     0
  9
$MENU
  1
.
  9
$ELEVATION
 40
0.0
  9
$PELEVATION
 40
0.0
  9
$THICKNESS
 40
0.0
  9
$LIMCHECK
 70
     0
  9
$CHAMFERA
 40
0.5
  9
$CHAMFERB
 40
0.5
  9
$CHAMFERC
 40
1.0
  9
$CHAMFERD
 40
0.0
  9
$SKPOLY
 70
     0
  9
$TDCREATE
 40
2458980.041620359
  9
$TDUCREATE
 40
2458980.249953703
  9
$TDUPDATE
 40
2458980.041620359
  9
$TDUUPDATE
 40
2458980.249953703
  9
$TDINDWG
 40
0.0000000116
  9
$TDUSRTIMER
 40
0.0000000116
  9
$USRTIMER
 70
     1
  9
$ANGBASE
 50
0.0
  9
$ANGDIR
 70
     0
  9
$PDMODE
 70
     0
  9
$PDSIZE
 40
0.0
  9
$PLINEWID
 40
0.0
  9
$SPLFRAME
 70
     0
  9
$SPLINETYPE
 70
     6
  9
$SPLINESEGS
 70
     8
  9
$HANDSEED
  5
53
  9
$SURFTAB1
 70
     6
  9
$SURFTAB2
 70
     6
  9
$SURFTYPE
 70
     6
  9
$SURFU
 70
     6
  9
$SURFV
 70
     6
  9
$UCSBASE
  2

  9
$UCSNAME
  2

  9
$UCSORG
 10
0.0
 20
0.0
 30
0.0
  9
$UCSXDIR
 10
1.0
 20
0.0
 30
0.0
  9
$UCSYDIR
 10
0.0
 20
1.0
 30
0.0
  9
$UCSORTHOREF
  2

  9
$UCSORTHOVIEW
 70
     0
  9
$UCSORGTOP
 10
0.0
 20
0.0
 30
0.0
  9
$UCSORGBOTTOM
 10
0.0
 20
0.0
 30
0.0
  9
$UCSORGLEFT
 10
0.0
 20
0.0
 30
0.0
  9
$UCSORGRIGHT
 10
0.0
 20
0.0
 30
0.0
  9
$UCSORGFRONT
 10
0.0
 20
0.0
 30
0.0
  9
$UCSORGBACK
 10
0.0
 20
0.0
 30
0.0
  9
$PUCSBASE
  2

  9
$PUCSNAME
  2

  9
$PUCSORG
 10
0.0
 20
0.0
 30
0.0
  9
$PUCSXDIR
 10
1.0
 20
0.0
 30
0.0
  9
$PUCSYDIR
 10
0.0
 20
1.0
 30
0.0
  9
$PUCSORTHOREF
  2

  9
$PUCSORTHOVIEW
 70
     0
  9
$PUCSORGTOP
 10
0.0
 20
0.0
 30
0.0
  9
$PUCSORGBOTTOM
 10
0.0
 20
0.0
 30
0.0
  9
$PUCSORGLEFT
 10
0.0
 20
0.0
 30
0.0
  9
$PUCSORGRIGHT
 10
0.0
 20
0.0
 30
0.0
  9
$PUCSORGFRONT
 10
0.0
 20
0.0
 30
0.0
  9
$PUCSORGBACK
 10
0.0
 20
0.0
 30
0.0
  9
$USERI1
 70
     0
  9
$USERI2
 70
     0
  9
$USERI3
 70
     0
  9
$USERI4
 70
     0
  9
$USERI5
 70
     0
  9
$USERR1
 40
0.0
  9
$USERR2
 40
0.0
  9
$USERR3
 40
0.0
  9
$USERR4
 40
0.0
  9
$USERR5
 40
0.0
  9
$WORLDVIEW
 70
     1
  9
$SHADEDGE
 70
     3
  9
$SHADEDIF
 70
    70
  9
$TILEMODE
 70
     1
  9
$MAXACTVP
 70
    64
  9
$PINSBASE
 10
0.0
 20
0.0
 30
0.0
  9
$PLIMCHECK
 70
     0
  9
$PEXTMIN
 10
1.000000000000000E+20
 20
1.000000000000000E+20
 30
1.000000000000000E+20
  9
$PEXTMAX
 10
-1.000000000000000E+20
 20
-1.000000000000000E+20
 30
-1.000000000000000E+20
  9
$PLIMMIN
 10
0.0
 20
0.0
  9
$PLIMMAX
 10
12.0
 20
9.0
  9
$UNITMODE
 70
     0
  9
$VISRETAIN
 70
     1
  9
$PLINEGEN
 70
     0
  9
$PSLTSCALE
 70
     1
  9
$TREEDEPTH
 70
  3020
  9
$CMLSTYLE
  2
Standard
  9
$CMLJUST
 70
     0
  9
$CMLSCALE
 40
1.0
  9
$PROXYGRAPHICS
 70
     1
  9
$MEASUREMENT
 70
     0
  9
$CELWEIGHT
370
    -1
  9
$ENDCAPS
280
     0
  9
$JOINSTYLE
280
     0
  9
$LWDISPLAY
290
     1
  9
$INSUNITS
 70
     1
  9
$HYPERLINKBASE
  1

  9
$STYLESHEET
  1

  9
$XEDIT
290
     1
  9
$CEPSNTYPE
380
     0
  9
$PSTYLEMODE
290
     1
  9
$FINGERPRINTGUID
  2
{B8667644-E8AF-BD15-9C55-76E8B929F104}
  9
$VERSIONGUID
  2
{FAEB1C32-E019-11D5-929B-00C0DF256EC4}
  9
$EXTNAMES
290
     1
  9
$PSVPSCALE
 40
0.0
  9
$OLESTARTUP
290
     0
  9
$SORTENTS
280
   127
  9
$INDEXCTL
280
     0
  9
$HIDETEXT
280
     1
  9
$XCLIPFRAME
280
     2
  9
$HALOGAP
280
     0
  9
$OBSCOLOR
 70
   257
  9
$OBSLTYPE
280
     0
  9
$INTERSECTIONDISPLAY
280
     0
  9
$INTERSECTIONCOLOR
 70
   257
  9
$DIMASSOC
280
     2
  9
$PROJECTNAME
  1

  9
$CAMERADISPLAY
290
     0
  9
$LENSLENGTH
 40
50.0
  9
$CAMERAHEIGHT
 40
0.0
  9
$STEPSPERSEC
 40
2.0
  9
$STEPSIZE
 40
6.0
  9
$3DDWFPREC
 40
2.0
  9
$PSOLWIDTH
 40
0.25
  9
$PSOLHEIGHT
 40
4.0
  9
$LOFTANG1
 40
1.570796326794897
  9
$LOFTANG2
 40
1.570796326794897
  9
$LOFTMAG1
 40
0.0
  9
$LOFTMAG2
 40
0.0
  9
$LOFTPARAM
 70
     7
  9
$LOFTNORMALS
280
     1
  9
$LATITUDE
 40
37.795
  9
$LONGITUDE
 40
-122.394
  9
$NORTHDIRECTION
 40
0.0
  9
$TIMEZONE
 70
 -8000
  9
$LIGHTGLYPHDISPLAY
280
     1
  9
$TILEMODELIGHTSYNCH
280
     1
  9
$CMATERIAL
347
3C
  9
$SOLIDHIST
280
     1
  9
$SHOWHIST
280
     1
  9
$DWFFRAME
280
     2
  9
$DGNFRAME
280
     2
  9
$REALWORLDSCALE
290
     1
  9
$INTERFERECOLOR
 62
   256
  9
$CSHADOW
280
     0
  9
$SHADOWPLANELOCATION
 40
0.0
  0
ENDSEC
  0
SECTION
  2
CLASSES
  0
CLASS
  1
ACDBDICTIONARYWDFLT
  2
AcDbDictionaryWithDefault
  3
ObjectDBX Classes
 90
        0
 91
        4
280
     0
281
     0
  0
CLASS
  1
VISUALSTYLE
  2
AcDbVisualStyle
  3
ObjectDBX Classes
 90
     4095
 91
        4
280
     0
281
     0
  0
CLASS
  1
MATERIAL
  2
AcDbMaterial
  3
ObjectDBX Classes
 90
     1153
 91
        4
280
     0
281
     0
  0
CLASS
  1
SUN
  2
AcDbSun
  3
SCENEOE
 90
     1024
 91
        4
280
     0
281
     0
  0
ENDSEC
  0
SECTION
  2
TABLES
  0
TABLE
  2
VPORT
  5
8
330
0
100
AcDbSymbolTable
 70
     1
  0
VPORT
  5
29
330
8
100
AcDbSymbolTableRecord
100
AcDbViewportTableRecord
  2
*Active
 70
     0
 10
0.0
 20
0.0
 11
1.0
 21
1.0
 12
0.0
 22
0.0
 13
0.0
 23
0.0
 14
0.5
 24
0.5
 15
0.5
 25
0.5
 16
0.0
 26
0.0
 36
1.0
 17
150.3002951475285
 27
-150.2623459009253
 37
0.0
 40
135.334282677299
 41
1.468585649140802
 42
50.0
 43
0.0
 44
0.0
 50
0.0
 51
0.0
 71
     0
 72
   100
 73
     1
 74
     3
 75
     0
 76
     0
 77
     0
 78
     0
281
     0
 65
     1
110
0.0
120
0.0
130
0.0
111
1.0
121
0.0
131
0.0
112
0.0
122
1.0
132
0.0
 79
     0
146
0.0
 60
     3
 61
     5
292
     1
282
     1
141
0.0
142
0.0
 63
   250
361
3F
  0
ENDTAB
  0
TABLE
  2
LTYPE
  5
5
330
0
100
AcDbSymbolTable
 70
     1
  0
LTYPE
  5
14
330
5
100
AcDbSymbolTableRecord
100
AcDbLinetypeTableRecord
  2
ByBlock
 70
     0
  3

 72
    65
 73
     0
 40
0.0
  0
LTYPE
  5
15
330
5
100
AcDbSymbolTableRecord
100
AcDbLinetypeTableRecord
  2
ByLayer
 70
     0
  3

 72
    65
 73
     0
 40
0.0
  0
LTYPE
  5
16
330
5
100
AcDbSymbolTableRecord
100
AcDbLinetypeTableRecord
  2
Continuous
 70
     0
  3
Solid line
 72
    65
 73
     0
 40
0.0
  0
ENDTAB
  0
TABLE
  2
LAYER
  5
2
330
0
100
AcDbSymbolTable
 70
     2
  0
LAYER
  5
10
330
2
100
AcDbSymbolTableRecord
100
AcDbLayerTableRecord
  2
0
 70
     0
 62
     7
  6
Continuous
370
    -3
390
F
347
3E
  0
LAYER
  5
40
330
2
100
AcDbSymbolTableRecord
100
AcDbLayerTableRecord
  2
Layer 1
 70
     0
 62
     7
  6
Continuous
370
    -3
390
F
347
3E
  0
ENDTAB
  0
TABLE
  2
STYLE
  5
3
330
0
100
AcDbSymbolTable
 70
     1
  0
STYLE
  5
11
330
3
100
AcDbSymbolTableRecord
100
AcDbTextStyleTableRecord
  2
Standard
 70
     0
 40
0.0
 41
1.0
 50
0.0
 71
     0
 42
0.2
  3
txt
  4

  0
ENDTAB
  0
TABLE
  2
VIEW
  5
6
330
0
100
AcDbSymbolTable
 70
     0
  0
ENDTAB
  0
TABLE
  2
UCS
  5
7
330
0
100
AcDbSymbolTable
 70
     0
  0
ENDTAB
  0
TABLE
  2
APPID
  5
9
330
0
100
AcDbSymbolTable
 70
     1
  0
APPID
  5
12
330
9
100
AcDbSymbolTableRecord
100
AcDbRegAppTableRecord
  2
ACAD
 70
     0
  0
ENDTAB
  0
TABLE
  2
DIMSTYLE
  5
A
330
0
100
AcDbSymbolTable
 70
     1
100
AcDbDimStyleTable
  0
DIMSTYLE
105
27
330
A
100
AcDbSymbolTableRecord
100
AcDbDimStyleTableRecord
  2
Standard
 70
     0
178
     0
340
11
  0
ENDTAB
  0
TABLE
  2
BLOCK_RECORD
  5
1
330
0
100
AcDbSymbolTable
 70
     2
  0
BLOCK_RECORD
  5
1F
330
1
100
AcDbSymbolTableRecord
100
AcDbBlockTableRecord
  2
*Model_Space
340
22
 70
     0
280
     1
281
     0
  0
BLOCK_RECORD
  5
1B
330
1
100
AcDbSymbolTableRecord
100
AcDbBlockTableRecord
  2
*Paper_Space
340
1E
 70
     0
280
     1
281
     0
  0
BLOCK_RECORD
  5
23
330
1
100
AcDbSymbolTableRecord
100
AcDbBlockTableRecord
  2
*Paper_Space0
340
26
 70
     0
280
     1
281
     0
  0
BLOCK_RECORD
  5
49
330
1
100
AcDbSymbolTableRecord
100
AcDbBlockTableRecord
  2
block 2
340
0
102
{BLKREFS
331
4A
102
}
 70
     0
280
     1
281
     0
  0
ENDTAB
  0
ENDSEC
  0
SECTION
  2
BLOCKS
  0
BLOCK
  5
20
330
1F
100
AcDbEntity
  8
0
100
AcDbBlockBegin
  2
*Model_Space
 70
     0
 10
0.0
 20
0.0
 30
0.0
  3
*Model_Space
  1

  0
ENDBLK
  5
21
330
1F
100
AcDbEntity
  8
0
100
AcDbBlockEnd
  0
BLOCK
  5
1C
330
1B
100
AcDbEntity
 67
     1
  8
0
100
AcDbBlockBegin
  2
*Paper_Space
 70
     0
 10
0.0
 20
0.0
 30
0.0
  3
*Paper_Space
  1

  0
ENDBLK
  5
1D
330
1B
100
AcDbEntity
 67
     1
  8
0
100
AcDbBlockEnd
  0
BLOCK
  5
24
330
23
100
AcDbEntity
  8
0
100
AcDbBlockBegin
  2
*Paper_Space0
 70
     0
 10
0.0
 20
0.0
 30
0.0
  3
*Paper_Space0
  1

  0
ENDBLK
  5
25
330
23
100
AcDbEntity
  8
0
100
AcDbBlockEnd
  0
BLOCK
  5
4B
330
49
100
AcDbEntity
  8
0
100
AcDbBlockBegin
  2
block 2
 70
     0
 10
0.0
 20
0.0
 30
0.0
  3
block 2
  1

  0
SPLINE
  5
4D
330
49
100
AcDbEntity
  8
Layer 1
 62
   185
420
  6440091
370
    25
100
AcDbSpline
210
0.0
220
0.0
230
1.0
 70
     8
 71
     3
 72
   179
 73
   175
 74
     0
 42
0.0000000001
 43
0.0000000001
 12
1.0
 22
0.0
 32
0.0
 13
1.0
 23
0.0
 33
0.0
 40
0.0
 40
0.0
 40
0.0
 40
0.0
 40
1.0
 40
1.0
 40
1.0
 40
2.0
 40
2.0
 40
2.0
 40
3.0
 40
3.0
 40
3.0
 40
4.0
 40
4.0
 40
4.0
 40
5.0
 40
5.0
 40
5.0
 40
6.0
 40
6.0
 40
6.0
 40
7.0
 40
7.0
 40
7.0
 40
8.0
 40
8.0
 40
8.0
 40
9.0
 40
9.0
 40
9.0
 40
10.0
 40
10.0
 40
10.0
 40
11.0
 40
11.0
 40
11.0
 40
12.0
 40
12.0
 40
12.0
 40
13.0
 40
13.0
 40
13.0
 40
14.0
 40
14.0
 40
14.0
 40
15.0
 40
15.0
 40
15.0
 40
16.0
 40
16.0
 40
16.0
 40
17.0
 40
17.0
 40
17.0
 40
18.0
 40
18.0
 40
18.0
 40
19.0
 40
19.0
 40
19.0
 40
20.0
 40
20.0
 40
20.0
 40
21.0
 40
21.0
 40
21.0
 40
22.0
 40
22.0
 40
22.0
 40
23.0
 40
23.0
 40
23.0
 40
24.0
 40
24.0
 40
24.0
 40
25.0
 40
25.0
 40
25.0
 40
26.0
 40
26.0
 40
26.0
 40
27.0
 40
27.0
 40
27.0
 40
28.0
 40
28.0
 40
28.0
 40
29.0
 40
29.0
 40
29.0
 40
30.0
 40
30.0
 40
30.0
 40
31.0
 40
31.0
 40
31.0
 40
32.0
 40
32.0
 40
32.0
 40
33.0
 40
33.0
 40
33.0
 40
34.0
 40
34.0
 40
34.0
 40
35.0
 40
35.0
 40
35.0
 40
36.0
 40
36.0
 40
36.0
 40
37.0
 40
37.0
 40
37.0
 40
38.0
 40
38.0
 40
38.0
 40
39.0
 40
39.0
 40
39.0
 40
40.0
 40
40.0
 40
40.0
 40
41.0
 40
41.0
 40
41.0
 40
42.0
 40
42.0
 40
42.0
 40
43.0
 40
43.0
 40
43.0
 40
44.0
 40
44.0
 40
44.0
 40
45.0
 40
45.0
 40
45.0
 40
46.0
 40
46.0
 40
46.0
 40
47.0
 40
47.0
 40
47.0
 40
48.0
 40
48.0
 40
48.0
 40
49.0
 40
49.0
 40
49.0
 40
50.0
 40
50.0
 40
50.0
 40
51.0
 40
51.0
 40
51.0
 40
52.0
 40
52.0
 40
52.0
 40
53.0
 40
53.0
 40
53.0
 40
54.0
 40
54.0
 40
54.0
 40
55.0
 40
55.0
 40
55.0
 40
56.0
 40
56.0
 40
56.0
 40
57.0
 40
57.0
 40
57.0
 40
58.0
 40
58.0
 40
58.0
 40
58.0
 10
222.3335744297315
 20
-112.3830277954864
 30
0.0
 10
222.0932574877885
 20
-112.4837107110429
 30
0.0
 10
221.8291693869974
 20
-112.5387891751133
 30
0.0
 10
221.5521191144429
 20
-112.5375187961531
 30
0.0
 10
221.5521191144429
 20
-112.5375187961531
 30
0.0
 10
218.0548950281319
 20
-112.5213268473724
 30
0.0
 10
218.0548950281319
 20
-112.5213268473724
 30
0.0
 10
215.8305691280803
 20
-112.5213268473724
 30
0.0
 10
214.0363633993622
 20
-114.3157048308648
 30
0.0
 10
214.0363633993622
 20
-116.5212549605218
 30
0.0
 10
214.0363633993622
 20
-116.5212549605218
 30
0.0
 10
214.0363633993622
 20
-129.5709225931928
 30
0.0
 10
214.0363633993622
 20
-129.5709225931928
 30
0.0
 10
214.0363633993622
 20
-130.6737663286428
 30
0.0
 10
213.1436245442598
 20
-131.5684803673082
 30
0.0
 10
212.0407835021371
 20
-131.5709177083607
 30
0.0
 10
212.0407835021371
 20
-131.5709177083607
 30
0.0
 10
206.5069337906707
 20
-131.5831478290814
 30
0.0
 10
206.5069337906707
 20
-131.5831478290814
 30
0.0
 10
205.4040980032321
 20
-131.5855851585207
 30
0.0
 10
204.5113634017435
 20
-132.4802949341612
 30
0.0
 10
204.5113634017435
 20
-133.5831334149148
 30
0.0
 10
204.5113634017435
 20
-133.5831334149148
 30
0.0
 10
204.5113634017435
 20
-152.6331334101527
 30
0.0
 10
204.5113634017435
 20
-152.6331334101527
 30
0.0
 10
204.5113634017435
 20
-153.7377068422297
 30
0.0
 10
205.4067970899347
 20
-154.6331405304209
 30
0.0
 10
206.5113705220117
 20
-154.6331405304209
 30
0.0
 10
206.5113705220117
 20
-154.6331405304209
 30
0.0
 10
207.2738634010527
 20
-154.6331405304209
 30
0.0
 10
207.2738634010527
 20
-154.6331405304209
 30
0.0
 10
208.378432900438
 20
-154.6331405304209
 30
0.0
 10
209.2738634005528
 20
-155.5285710305357
 30
0.0
 10
209.2738634005528
 20
-156.6331405299211
 30
0.0
 10
209.2738634005528
 20
-156.6331405299211
 30
0.0
 10
209.2738634005528
 20
-169.6940644632876
 30
0.0
 10
209.2738634005528
 20
-169.6940644632876
 30
0.0
 10
209.2738634005528
 20
-169.6940644632876
 30
0.0
 10
209.2738634005528
 20
-171.7136009685878
 30
0.0
 10
209.2738634005528
 20
-171.7136009685878
 30
0.0
 10
209.2738634005528
 20
-172.8181744006649
 30
0.0
 10
210.169297088744
 20
-173.7136080888561
 30
0.0
 10
211.2738705208211
 20
-173.7136080888561
 30
0.0
 10
211.2738705208211
 20
-173.7136080888561
 30
0.0
 10
216.8096222012948
 20
-173.7136080888561
 30
0.0
 10
216.8096222012948
 20
-173.7136080888561
 30
0.0
 10
217.9098995718964
 20
-173.7196154741085
 30
0.0
 10
218.7986911433973
 20
-174.6132732429823
 30
0.0
 10
218.7986911433973
 20
-175.7135721454307
 30
0.0
 10
218.7986911433973
 20
-175.7135721454307
 30
0.0
 10
218.7986911433973
 20
-207.7830514051728
 30
0.0
 10
218.7986911433973
 20
-207.7830514051728
 30
0.0
 10
218.7986911433973
 20
-208.8874931786458
 30
0.0
 10
217.9034600432551
 20
-209.7828708023363
 30
0.0
 10
216.7990182845733
 20
-209.7830515528542
 30
0.0
 10
216.7990182845733
 20
-209.7830515528542
 30
0.0
 10
84.68292048906538
 20
-209.8046733838657
 30
0.0
 10
84.68292048906538
 20
-209.8046733838657
 30
0.0
 10
83.58033487938174
 20
-209.8048538306097
 30
0.0
 10
82.68641767044183
 20
-208.9124243135218
 30
0.0
 10
82.6864199227663
 20
-207.8098386890746
 30
0.0
 10
82.68645088403235
 20
-192.6532998582798
 30
0.0
 10
82.68641643527096
 20
-112.0639308687813
 30
0.0
 10
82.68641377690146
 20
-92.71542772631085
 30
0.0
 10
82.68641362536583
 20
-91.61250224594254
 30
0.0
 10
83.58051395196445
 20
-90.7198751767722
 30
0.0
 10
84.68343943232153
 20
-90.71988011231856
 30
0.0
 10
84.68343943232153
 20
-90.71988011231856
 30
0.0
 10
93.6771510203346
 20
-90.71992035880896
 30
0.0
 10
93.6771510203346
 20
-90.71992035880896
 30
0.0
 10
94.22943701249298
 20
-90.71992283026565
 30
0.0
 10
94.67715458046037
 20
-90.27220726581227
 30
0.0
 10
94.67715458046037
 20
-89.7199212736478
 30
0.0
 10
94.67715458046037
 20
-89.7199212736478
 30
0.0
 10
94.67715458046037
 20
-83.73992103418482
 30
0.0
 10
94.67715458046037
 20
-83.73992103418482
 30
0.0
 10
94.67715458046037
 20
-83.18757570300582
 30
0.0
 10
94.22934562217523
 20
-82.7398349175952
 30
0.0
 10
93.67700029739878
 20
-82.73991901112204
 30
0.0
 10
93.67700029739878
 20
-82.73991901112204
 30
0.0
 10
78.68583954810805
 20
-82.74220138688102
 30
0.0
 10
78.68583954810805
 20
-82.74220138688102
 30
0.0
 10
76.4769271623131
 20
-82.74253768959743
 30
0.0
 10
74.68642819928152
 20
-84.5333092734475
 30
0.0
 10
74.68642819928152
 20
-86.74222168484336
 30
0.0
 10
74.68642819928152
 20
-86.74222168484336
 30
0.0
 10
74.68642819928152
 20
-213.8044641647166
 30
0.0
 10
74.68642819928152
 20
-213.8044641647166
 30
0.0
 10
74.68642819928152
 20
-216.013933090488
 30
0.0
 10
76.4777917242243
 20
-217.8049305740355
 30
0.0
 10
78.68726064999605
 20
-217.804478405253
 30
0.0
 10
78.68726064999605
 20
-217.804478405253
 30
0.0
 10
218.7991863758733
 20
-217.7750659025477
 30
0.0
 10
218.7991863758733
 20
-217.7750659025477
 30
0.0
 10
219.9035978610573
 20
-217.7748505840799
 30
0.0
 10
220.7987628592059
 20
-216.8794702674635
 30
0.0
 10
220.7987628592059
 20
-215.7750803141263
 30
0.0
 10
220.7987628592059
 20
-215.7750803141263
 30
0.0
 10
220.7987628592059
 20
-173.7245847842718
 30
0.0
 10
220.7987628592059
 20
-173.7245847842718
 30
0.0
 10
220.7987628592059
 20
-172.6243086092735
 30
0.0
 10
219.9100180900161
 20
-171.7306687555993
 30
0.0
 10
218.8097585126437
 20
-171.7246252741406
 30
0.0
 10
218.8097585126437
 20
-171.7246252741406
 30
0.0
 10
213.2629224774517
 20
-171.6941577359153
 30
0.0
 10
213.2629224774517
 20
-171.6941577359153
 30
0.0
 10
212.1626603851561
 20
-171.6881142406428
 30
0.0
 10
211.2739135845146
 20
-170.7944723443276
 30
0.0
 10
211.2739135845146
 20
-169.6941936543683
 30
0.0
 10
211.2739135845146
 20
-169.6941936543683
 30
0.0
 10
211.2739135845146
 20
-154.633226657808
 30
0.0
 10
211.2739135845146
 20
-154.633226657808
 30
0.0
 10
211.2739135845146
 20
-153.5286651174415
 30
0.0
 10
210.378489536459
 20
-152.6332410693866
 30
0.0
 10
209.2739279960932
 20
-152.6332410693866
 30
0.0
 10
209.2739279960932
 20
-152.6332410693866
 30
0.0
 10
208.5114207059735
 20
-152.6332410693866
 30
0.0
 10
208.5114207059735
 20
-152.6332410693866
 30
0.0
 10
207.4068472738964
 20
-152.6332410693866
 30
0.0
 10
206.5114135857053
 20
-151.7378073811954
 30
0.0
 10
206.5114135857053
 20
-150.6332339491183
 30
0.0
 10
206.5114135857053
 20
-150.6332339491183
 30
0.0
 10
206.5114135857053
 20
-135.5788017687762
 30
0.0
 10
206.5114135857053
 20
-135.5788017687762
 30
0.0
 10
206.5114135857053
 20
-134.4759694969121
 30
0.0
 10
207.4041340731288
 20
-133.5812599648895
 30
0.0
 10
208.5069636136894
 20
-133.5788055137118
 30
0.0
 10
208.5069636136894
 20
-133.5788055137118
 30
0.0
 10
214.0408742219564
 20
-133.5664892736124
 30
0.0
 10
214.0408742219564
 20
-133.5664892736124
 30
0.0
 10
215.1436978676714
 20
-133.5640348355542
 30
0.0
 10
216.036413583324
 20
-132.6693300859339
 30
0.0
 10
216.036413583324
 20
-131.5665037089306
 30
0.0
 10
216.036413583324
 20
-131.5665037089306
 30
0.0
 10
216.036413583324
 20
-116.5213404003335
 30
0.0
 10
216.036413583324
 20
-116.5213404003335
 30
0.0
 10
216.036413583324
 20
-115.4131496012586
 30
0.0
 10
216.9375004753733
 20
-114.5162248810213
 30
0.0
 10
218.0456793977089
 20
-114.5213554994875
 30
0.0
 10
218.0456793977089
 20
-114.5213554994875
 30
0.0
 10
223.5521477665579
 20
-114.5468492060783
 30
0.0
 10
223.5521477665579
 20
-114.5468492060783
 30
0.0
 10
224.6603266888935
 20
-114.5519798245444
 30
0.0
 10
225.5614135809428
 20
-113.6550551043072
 30
0.0
 10
225.5614135809428
 20
-112.5468643052322
 30
0.0
 10
225.5614135809428
 20
-112.5468643052322
 30
0.0
 10
225.5614135809428
 20
-84.72020105334786
 30
0.0
 10
225.5614135809428
 20
-84.72020105334786
 30
0.0
 10
225.5614135809428
 20
-83.61551020213847
 30
0.0
 10
224.6657958533233
 20
-82.7200282973883
 30
0.0
 10
223.5611050148196
 20
-82.72019583946899
 30
0.0
 10
223.5611050148196
 20
-82.72019583946899
 30
0.0
 10
191.0559140588631
 20
-82.72512571408622
 30
0.0
 10
191.0559140588631
 20
-82.72512571408622
 30
0.0
 10
190.5036885431545
 20
-82.72520946694145
 30
0.0
 10
190.0560657233369
 20
-83.17290018027603
 30
0.0
 10
190.0560657233369
 20
-83.72512570233515
 30
0.0
 10
190.0560657233369
 20
-83.72512570233515
 30
0.0
 10
190.0560657233369
 20
-89.72014076395189
 30
0.0
 10
190.0560657233369
 20
-89.72014076395189
 30
0.0
 10
190.0560657233369
 20
-90.27242450978244
 30
0.0
 10
190.5037794067073
 20
-90.72013934402531
 30
0.0
 10
191.0560631525359
 20
-90.72014076369845
 30
0.0
 10
191.0560631525359
 20
-90.72014076369845
 30
0.0
 10
221.5614868645008
 20
-90.72021917942631
 30
0.0
 10
221.5614868645008
 20
-90.72021917942631
 30
0.0
 10
222.6660585992672
 20
-90.72022201878349
 30
0.0
 10
223.5614877235447
 20
-91.61565830932577
 30
0.0
 10
223.56148172287
 20
-92.72023004407997
 30
0.0
 10
223.56148172287
 20
-92.72023004407997
 30
0.0
 10
223.5613849288277
 20
-110.5375547395785
 30
0.0
 10
223.5613849288277
 20
-110.5375547395785
 30
0.0
 10
223.5613849288277
 20
-110.6760691099323
 30
0.0
 10
223.5473031010318
 20
-110.8113106395748
 30
0.0
 10
223.5204959517872
 20
-110.9418797584658
 30
0.0
  0
SPLINE
  5
4E
330
49
100
AcDbEntity
  8
Layer 1
 62
   185
420
  6440091
370
    25
100
AcDbSpline
210
0.0
220
0.0
230
1.0
 70
     8
 71
     3
 72
     8
 73
     4
 74
     0
 42
0.0000000001
 43
0.0000000001
 12
1.0
 22
0.0
 32
0.0
 13
1.0
 23
0.0
 33
0.0
 40
0.0
 40
0.0
 40
0.0
 40
0.0
 40
1.0
 40
1.0
 40
1.0
 40
1.0
 10
223.318570292658
 20
-111.4935041411949
 30
0.0
 10
223.1018091910954
 20
-111.891046628346
 30
0.0
 10
222.7541129292466
 20
-112.2068542251095
 30
0.0
 10
222.3335744297315
 20
-112.3830277954864
 30
0.0
  0
SPLINE
  5
4F
330
49
100
AcDbEntity
  8
Layer 1
 62
   185
420
  6440091
370
    25
100
AcDbSpline
210
0.0
220
0.0
230
1.0
 70
     8
 71
     3
 72
     8
 73
     4
 74
     0
 42
0.0000000001
 43
0.0000000001
 12
1.0
 22
0.0
 32
0.0
 13
1.0
 23
0.0
 33
0.0
 40
0.0
 40
0.0
 40
0.0
 40
0.0
 40
1.0
 40
1.0
 40
1.0
 40
1.0
 10
223.5204959517872
 20
-110.9418797584658
 30
0.0
 10
223.4802959938437
 20
-111.1377334368022
 30
0.0
 10
223.411458679679
 20
-111.3231226376026
 30
0.0
 10
223.318570292658
 20
-111.4935041411949
 30
0.0
  0
SPLINE
  5
50
330
49
100
AcDbEntity
  8
Layer 1
 62
   185
420
  6440091
370
    25
100
AcDbSpline
210
0.0
220
0.0
230
1.0
 70
    11
 71
     3
 72
    29
 73
    25
 74
     0
 42
0.0000000001
 43
0.0000000001
 12
1.0
 22
0.0
 32
0.0
 13
1.0
 23
0.0
 33
0.0
 40
0.0
 40
0.0
 40
0.0
 40
0.0
 40
1.0
 40
1.0
 40
1.0
 40
2.0
 40
2.0
 40
2.0
 40
3.0
 40
3.0
 40
3.0
 40
4.0
 40
4.0
 40
4.0
 40
5.0
 40
5.0
 40
5.0
 40
6.0
 40
6.0
 40
6.0
 40
7.0
 40
7.0
 40
7.0
 40
8.0
 40
8.0
 40
8.0
 40
8.0
 10
179.0309226723355
 20
-82.72695817903772
 30
0.0
 10
179.0309226723355
 20
-82.72695817903772
 30
0.0
 10
109.7960158360745
 20
-82.73748461898882
 30
0.0
 10
109.7960158360745
 20
-82.73748461898882
 30
0.0
 10
109.2437904669435
 20
-82.73756857905252
 30
0.0
 10
108.796167875813
 20
-83.18525923166696
 30
0.0
 10
108.796167875813
 20
-83.73748460718063
 30
0.0
 10
108.796167875813
 20
-83.73748460718063
 30
0.0
 10
108.796167875813
 20
-89.71996805448605
 30
0.0
 10
108.796167875813
 20
-89.71996805448605
 30
0.0
 10
108.796167875813
 20
-90.272251977885
 30
0.0
 10
109.2438818363075
 20
-90.71996688567909
 30
0.0
 10
109.7961657597052
 20
-90.71996805423358
 30
0.0
 10
109.7961657597052
 20
-90.71996805423358
 30
0.0
 10
179.0310725959665
 20
-90.72011454544594
 30
0.0
 10
179.0310725959665
 20
-90.72011454544594
 30
0.0
 10
179.5833581719523
 20
-90.72011571400363
 30
0.0
 10
180.0310747115745
 20
-90.2724001216848
 30
0.0
 10
180.0310747115745
 20
-89.72011454569808
 30
0.0
 10
180.0310747115745
 20
-89.72011454569808
 30
0.0
 10
180.0310747115745
 20
-83.72695816722954
 30
0.0
 10
180.0310747115745
 20
-83.72695816722954
 30
0.0
 10
180.0310747115745
 20
-83.17461404148827
 30
0.0
 10
179.5832667916925
 20
-82.72687420091917
 30
0.0
 10
179.0309226723355
 20
-82.72695817903772
 30
0.0
  0
ENDBLK
  5
4C
330
49
100
AcDbEntity
  8
0
100
AcDbBlockEnd
  0
ENDSEC
  0
SECTION
  2
ENTITIES
  0
SPLINE
  5
41
330
1F
100
AcDbEntity
  8
Layer 1
 62
   193
420
  9992117
370
    25
100
AcDbSpline
210
0.0
220
0.0
230
1.0
 70
    11
 71
     3
 72
    17
 73
    13
 74
     0
 42
0.0000000001
 43
0.0000000001
 12
1.0
 22
0.0
 32
0.0
 13
1.0
 23
0.0
 33
0.0
 40
0.0
 40
0.0
 40
0.0
 40
0.0
 40
1.0
 40
1.0
 40
1.0
 40
2.0
 40
2.0
 40
2.0
 40
3.0
 40
3.0
 40
3.0
 40
4.0
 40
4.0
 40
4.0
 40
4.0
 10
81.03641358373635
 20
-87.44281121614091
 30
0.0
 10
81.03641358373635
 20
-88.3540810530827
 30
0.0
 10
80.29768342109084
 20
-89.09281121572788
 30
0.0
 10
79.38641358414874
 20
-89.09281121572788
 30
0.0
 10
78.475143747206
 20
-89.09281121572788
 30
0.0
 10
77.73641358456113
 20
-88.3540810530827
 30
0.0
 10
77.73641358456113
 20
-87.44281121614091
 30
0.0
 10
77.73641358456113
 20
-86.53154137919914
 30
0.0
 10
78.475143747206
 20
-85.7928112165533
 30
0.0
 10
79.38641358414874
 20
-85.7928112165533
 30
0.0
 10
80.29768342109084
 20
-85.7928112165533
 30
0.0
 10
81.03641358373635
 20
-86.53154137919914
 30
0.0
 10
81.03641358373635
 20
-87.44281121614091
 30
0.0
  0
SPLINE
  5
42
330
1F
100
AcDbEntity
  8
Layer 1
 62
   193
420
  9992117
370
    25
100
AcDbSpline
210
0.0
220
0.0
230
1.0
 70
    11
 71
     3
 72
    17
 73
    13
 74
     0
 42
0.0000000001
 43
0.0000000001
 12
1.0
 22
0.0
 32
0.0
 13
1.0
 23
0.0
 33
0.0
 40
0.0
 40
0.0
 40
0.0
 40
0.0
 40
1.0
 40
1.0
 40
1.0
 40
2.0
 40
2.0
 40
2.0
 40
3.0
 40
3.0
 40
3.0
 40
4.0
 40
4.0
 40
4.0
 40
4.0
 10
81.03641694661664
 20
-213.1053078468479
 30
0.0
 10
81.03641694661664
 20
-214.0165776837897
 30
0.0
 10
80.29768678397113
 20
-214.7553078464349
 30
0.0
 10
79.38641694702903
 20
-214.7553078464349
 30
0.0
 10
78.4751471100863
 20
-214.7553078464349
 30
0.0
 10
77.73641694744143
 20
-214.0165776837897
 30
0.0
 10
77.73641694744143
 20
-213.1053078468479
 30
0.0
 10
77.73641694744143
 20
-212.1940380099062
 30
0.0
 10
78.4751471100863
 20
-211.4553078472597
 30
0.0
 10
79.38641694702903
 20
-211.4553078472597
 30
0.0
 10
80.29768678397113
 20
-211.4553078472597
 30
0.0
 10
81.03641694661664
 20
-212.1940380099062
 30
0.0
 10
81.03641694661664
 20
-213.1053078468479
 30
0.0
  0
SPLINE
  5
43
330
1F
100
AcDbEntity
  8
Layer 1
 62
   193
420
  9992117
370
    25
100
AcDbSpline
210
0.0
220
0.0
230
1.0
 70
    11
 71
     3
 72
    17
 73
    13
 74
     0
 42
0.0000000001
 43
0.0000000001
 12
1.0
 22
0.0
 32
0.0
 13
1.0
 23
0.0
 33
0.0
 40
0.0
 40
0.0
 40
0.0
 40
0.0
 40
1.0
 40
1.0
 40
1.0
 40
2.0
 40
2.0
 40
2.0
 40
3.0
 40
3.0
 40
3.0
 40
4.0
 40
4.0
 40
4.0
 40
4.0
 10
149.9489135998458
 20
-213.7824007295713
 30
0.0
 10
149.9489135998458
 20
-214.6936705665131
 30
0.0
 10
149.2101834372003
 20
-215.4324007291583
 30
0.0
 10
148.2989136002582
 20
-215.4324007291583
 30
0.0
 10
147.3876437633155
 20
-215.4324007291583
 30
0.0
 10
146.6489136006706
 20
-214.6936705665131
 30
0.0
 10
146.6489136006706
 20
-213.7824007295713
 30
0.0
 10
146.6489136006706
 20
-212.8711308926295
 30
0.0
 10
147.3876437633155
 20
-212.1324007299837
 30
0.0
 10
148.2989136002582
 20
-212.1324007299837
 30
0.0
 10
149.2101834372003
 20
-212.1324007299837
 30
0.0
 10
149.9489135998458
 20
-212.8711308926295
 30
0.0
 10
149.9489135998458
 20
-213.7824007295713
 30
0.0
  0
SPLINE
  5
44
330
1F
100
AcDbEntity
  8
Layer 1
 62
   193
420
  9992117
370
    25
100
AcDbSpline
210
0.0
220
0.0
230
1.0
 70
    11
 71
     3
 72
    17
 73
    13
 74
     0
 42
0.0000000001
 43
0.0000000001
 12
1.0
 22
0.0
 32
0.0
 13
1.0
 23
0.0
 33
0.0
 40
0.0
 40
0.0
 40
0.0
 40
0.0
 40
1.0
 40
1.0
 40
1.0
 40
2.0
 40
2.0
 40
2.0
 40
3.0
 40
3.0
 40
3.0
 40
4.0
 40
4.0
 40
4.0
 40
4.0
 10
114.4463318068453
 20
-86.61781121393433
 30
0.0
 10
114.4463318068453
 20
-87.52908105087643
 30
0.0
 10
113.7076016442001
 20
-88.26781121352161
 30
0.0
 10
112.7963318072577
 20
-88.26781121352161
 30
0.0
 10
111.8850619703153
 20
-88.26781121352161
 30
0.0
 10
111.1463318076701
 20
-87.52908105087643
 30
0.0
 10
111.1463318076701
 20
-86.61781121393433
 30
0.0
 10
111.1463318076701
 20
-85.70654137699222
 30
0.0
 10
111.8850619703153
 20
-84.96781121434672
 30
0.0
 10
112.7963318072577
 20
-84.96781121434672
 30
0.0
 10
113.7076016442001
 20
-84.96781121434672
 30
0.0
 10
114.4463318068453
 20
-85.70654137699222
 30
0.0
 10
114.4463318068453
 20
-86.61781121393433
 30
0.0
  0
SPLINE
  5
45
330
1F
100
AcDbEntity
  8
Layer 1
 62
   193
420
  9992117
370
    25
100
AcDbSpline
210
0.0
220
0.0
230
1.0
 70
    11
 71
     3
 72
    17
 73
    13
 74
     0
 42
0.0000000001
 43
0.0000000001
 12
1.0
 22
0.0
 32
0.0
 13
1.0
 23
0.0
 33
0.0
 40
0.0
 40
0.0
 40
0.0
 40
0.0
 40
1.0
 40
1.0
 40
1.0
 40
2.0
 40
2.0
 40
2.0
 40
3.0
 40
3.0
 40
3.0
 40
4.0
 40
4.0
 40
4.0
 40
4.0
 10
218.4489135827212
 20
-213.7824007295713
 30
0.0
 10
218.4489135827212
 20
-214.6936705665131
 30
0.0
 10
217.7101834200754
 20
-215.4324007291583
 30
0.0
 10
216.798913583133
 20
-215.4324007291583
 30
0.0
 10
215.8876437461906
 20
-215.4324007291583
 30
0.0
 10
215.1489135835461
 20
-214.6936705665131
 30
0.0
 10
215.1489135835461
 20
-213.7824007295713
 30
0.0
 10
215.1489135835461
 20
-212.8711308926295
 30
0.0
 10
215.8876437461906
 20
-212.1324007299837
 30
0.0
 10
216.798913583133
 20
-212.1324007299837
 30
0.0
 10
217.7101834200754
 20
-212.1324007299837
 30
0.0
 10
218.4489135827212
 20
-212.8711308926295
 30
0.0
 10
218.4489135827212
 20
-213.7824007295713
 30
0.0
  0
SPLINE
  5
46
330
1F
100
AcDbEntity
  8
Layer 1
 62
   193
420
  9992117
370
    25
100
AcDbSpline
210
0.0
220
0.0
230
1.0
 70
    11
 71
     3
 72
    17
 73
    13
 74
     0
 42
0.0000000001
 43
0.0000000001
 12
1.0
 22
0.0
 32
0.0
 13
1.0
 23
0.0
 33
0.0
 40
0.0
 40
0.0
 40
0.0
 40
0.0
 40
1.0
 40
1.0
 40
1.0
 40
2.0
 40
2.0
 40
2.0
 40
3.0
 40
3.0
 40
3.0
 40
4.0
 40
4.0
 40
4.0
 40
4.0
 10
223.2114135815306
 20
-86.74281122881669
 30
0.0
 10
223.2114135815306
 20
-87.65408106575848
 30
0.0
 10
222.4726834188855
 20
-88.39281122840366
 30
0.0
 10
221.5614135819424
 20
-88.39281122840366
 30
0.0
 10
220.6501437450006
 20
-88.39281122840366
 30
0.0
 10
219.9114135823554
 20
-87.65408106575848
 30
0.0
 10
219.9114135823554
 20
-86.74281122881669
 30
0.0
 10
219.9114135823554
 20
-85.83154139187492
 30
0.0
 10
220.6501437450006
 20
-85.09281122922908
 30
0.0
 10
221.5614135819424
 20
-85.09281122922908
 30
0.0
 10
222.4726834188855
 20
-85.09281122922908
 30
0.0
 10
223.2114135815306
 20
-85.83154139187492
 30
0.0
 10
223.2114135815306
 20
-86.74281122881669
 30
0.0
  0
SPLINE
  5
47
330
1F
100
AcDbEntity
  8
Layer 1
 62
   193
420
  9992117
370
    25
100
AcDbSpline
210
0.0
220
0.0
230
1.0
 70
    11
 71
     3
 72
    17
 73
    13
 74
     0
 42
0.0000000001
 43
0.0000000001
 12
1.0
 22
0.0
 32
0.0
 13
1.0
 23
0.0
 33
0.0
 40
0.0
 40
0.0
 40
0.0
 40
0.0
 40
1.0
 40
1.0
 40
1.0
 40
2.0
 40
2.0
 40
2.0
 40
3.0
 40
3.0
 40
3.0
 40
4.0
 40
4.0
 40
4.0
 40
4.0
 10
177.755549611115
 20
-86.71711678437941
 30
0.0
 10
177.755549611115
 20
-87.62838662132152
 30
0.0
 10
177.0168194484698
 20
-88.36711678396638
 30
0.0
 10
176.1055496115267
 20
-88.36711678396638
 30
0.0
 10
175.1942797745849
 20
-88.36711678396638
 30
0.0
 10
174.4555496119398
 20
-87.62838662132152
 30
0.0
 10
174.4555496119398
 20
-86.71711678437941
 30
0.0
 10
174.4555496119398
 20
-85.80584694743732
 30
0.0
 10
175.1942797745849
 20
-85.0671167847918
 30
0.0
 10
176.1055496115267
 20
-85.0671167847918
 30
0.0
 10
177.0168194484698
 20
-85.0671167847918
 30
0.0
 10
177.755549611115
 20
-85.80584694743732
 30
0.0
 10
177.755549611115
 20
-86.71711678437941
 30
0.0
  0
SPLINE
  5
48
330
1F
100
AcDbEntity
  8
Layer 1
 62
   193
420
  9992117
370
    25
100
AcDbSpline
210
0.0
220
0.0
230
1.0
 70
    11
 71
     3
 72
    17
 73
    13
 74
     0
 42
0.0000000001
 43
0.0000000001
 12
1.0
 22
0.0
 32
0.0
 13
1.0
 23
0.0
 33
0.0
 40
0.0
 40
0.0
 40
0.0
 40
0.0
 40
1.0
 40
1.0
 40
1.0
 40
2.0
 40
2.0
 40
2.0
 40
3.0
 40
3.0
 40
3.0
 40
4.0
 40
4.0
 40
4.0
 40
4.0
 10
195.7085451349809
 20
-86.71711678437877
 30
0.0
 10
195.7085451349809
 20
-87.62838662132152
 30
0.0
 10
194.9698149723357
 20
-88.36711678396638
 30
0.0
 10
194.0585451353926
 20
-88.36711678396638
 30
0.0
 10
193.1472752984509
 20
-88.36711678396638
 30
0.0
 10
192.4085451358057
 20
-87.62838662132152
 30
0.0
 10
192.4085451358057
 20
-86.71711678437877
 30
0.0
 10
192.4085451358057
 20
-85.80584694743732
 30
0.0
 10
193.1472752984509
 20
-85.06711678479117
 30
0.0
 10
194.0585451353926
 20
-85.06711678479117
 30
0.0
 10
194.9698149723357
 20
-85.06711678479117
 30
0.0
 10
195.7085451349809
 20
-85.80584694743732
 30
0.0
 10
195.7085451349809
 20
-86.71711678437877
 30
0.0
  0
INSERT
  5
4A
330
1F
100
AcDbEntity
  8
Layer 1
100
AcDbBlockReference
  2
block 2
 10
0.0
 20
0.0
 30
0.0
  0
ENDSEC
  0
SECTION
  2
OBJECTS
  0
DICTIONARY
  5
C
330
0
100
AcDbDictionary
281
     1
  3
ACAD_GROUP
350
D
  3
ACAD_LAYOUT
350
1A
  3
ACAD_MATERIAL
350
3B
  3
ACAD_MLEADERSTYLE
350
52
  3
ACAD_MLINESTYLE
350
17
  3
ACAD_PLOTSETTINGS
350
19
  3
ACAD_PLOTSTYLENAME
350
E
  3
ACAD_TABLESTYLE
350
51
  3
ACAD_VISUALSTYLE
350
2A
  0
SUN
  5
3F
330
29
100
AcDbSun
 90
        1
290
     0
 63
     7
421
 16777215
 40
1.0
291
     1
 91
  2455826
 92
 54000000
292
     0
 70
     2
 71
   256
280
     1
  0
DICTIONARY
  5
D
102
{ACAD_REACTORS
330
C
102
}
330
C
100
AcDbDictionary
281
     1
  0
DICTIONARY
  5
1A
102
{ACAD_REACTORS
330
C
102
}
330
C
100
AcDbDictionary
281
     1
  3
Layout1
350
1E
  3
Layout2
350
26
  3
Model
350
22
  0
DICTIONARY
  5
3B
102
{ACAD_REACTORS
330
C
102
}
330
C
100
AcDbDictionary
281
     1
  3
ByBlock
350
3D
  3
ByLayer
350
3C
  3
Global
350
3E
  0
DICTIONARY
  5
52
102
{ACAD_REACTORS
330
C
102
}
330
C
100
AcDbDictionary
281
     1
  0
DICTIONARY
  5
17
102
{ACAD_REACTORS
330
C
102
}
330
C
100
AcDbDictionary
281
     1
  3
Standard
350
18
  0
DICTIONARY
  5
19
102
{ACAD_REACTORS
330
C
102
}
330
C
100
AcDbDictionary
281
     1
  0
ACDBDICTIONARYWDFLT
  5
E
102
{ACAD_REACTORS
330
C
102
}
330
C
100
AcDbDictionary
281
     1
  3
Normal
350
F
100
AcDbDictionaryWithDefault
340
F
  0
DICTIONARY
  5
51
102
{ACAD_REACTORS
330
C
102
}
330
C
100
AcDbDictionary
281
     1
  0
DICTIONARY
  5
2A
102
{ACAD_REACTORS
330
C
102
}
330
C
100
AcDbDictionary
281
     1
  3
2dWireframe
350
2F
  3
3D Hidden
350
31
  3
3dWireframe
350
30
  3
Basic
350
32
  3
Brighten
350
36
  3
ColorChange
350
3A
  3
Conceptual
350
34
  3
Dim
350
35
  3
Facepattern
350
39
  3
Flat
350
2B
  3
FlatWithEdges
350
2C
  3
Gouraud
350
2D
  3
GouraudWithEdges
350
2E
  3
Linepattern
350
38
  3
Realistic
350
33
  3
Thicken
350
37
  0
LAYOUT
  5
1E
102
{ACAD_REACTORS
330
1A
102
}
330
1A
100
AcDbPlotSettings
  1

  2
none_device
  4

  6

 40
0.0
 41
0.0
 42
0.0
 43
0.0
 44
0.0
 45
0.0
 46
0.0
 47
0.0
 48
0.0
 49
0.0
140
0.0
141
0.0
142
1.0
143
1.0
 70
   688
 72
     0
 73
     0
 74
     5
  7

 75
    16
 76
     0
 77
     2
 78
   300
147
1.0
148
0.0
149
0.0
100
AcDbLayout
  1
Layout1
 70
     1
 71
     1
 10
0.0
 20
0.0
 11
12.0
 21
9.0
 12
0.0
 22
0.0
 32
0.0
 14
1.000000000000000E+20
 24
1.000000000000000E+20
 34
1.000000000000000E+20
 15
-1.000000000000000E+20
 25
-1.000000000000000E+20
 35
-1.000000000000000E+20
146
0.0
 13
0.0
 23
0.0
 33
0.0
 16
1.0
 26
0.0
 36
0.0
 17
0.0
 27
1.0
 37
0.0
 76
     0
330
1B
  0
LAYOUT
  5
26
102
{ACAD_REACTORS
330
1A
102
}
330
1A
100
AcDbPlotSettings
  1

  2
none_device
  4

  6

 40
0.0
 41
0.0
 42
0.0
 43
0.0
 44
0.0
 45
0.0
 46
0.0
 47
0.0
 48
0.0
 49
0.0
140
0.0
141
0.0
142
1.0
143
1.0
 70
   688
 72
     0
 73
     0
 74
     5
  7

 75
    16
 76
     0
 77
     2
 78
   300
147
1.0
148
0.0
149
0.0
100
AcDbLayout
  1
Layout2
 70
     1
 71
     2
 10
0.0
 20
0.0
 11
0.0
 21
0.0
 12
0.0
 22
0.0
 32
0.0
 14
0.0
 24
0.0
 34
0.0
 15
0.0
 25
0.0
 35
0.0
146
0.0
 13
0.0
 23
0.0
 33
0.0
 16
1.0
 26
0.0
 36
0.0
 17
0.0
 27
1.0
 37
0.0
 76
     0
330
23
  0
LAYOUT
  5
22
102
{ACAD_REACTORS
330
1A
102
}
330
1A
100
AcDbPlotSettings
  1

  2
none_device
  4

  6

 40
0.0
 41
0.0
 42
0.0
 43
0.0
 44
0.0
 45
0.0
 46
0.0
 47
0.0
 48
0.0
 49
0.0
140
0.0
141
0.0
142
1.0
143
1.0
 70
  1712
 72
     0
 73
     0
 74
     0
  7

 75
     0
 76
     0
 77
     2
 78
   300
147
1.0
148
0.0
149
0.0
100
AcDbLayout
  1
Model
 70
     1
 71
     0
 10
0.0
 20
0.0
 11
12.0
 21
9.0
 12
0.0
 22
0.0
 32
0.0
 14
1.000000000000000E+20
 24
1.000000000000000E+20
 34
1.000000000000000E+20
 15
-1.000000000000000E+20
 25
-1.000000000000000E+20
 35
-1.000000000000000E+20
146
0.0
 13
0.0
 23
0.0
 33
0.0
 16
1.0
 26
0.0
 36
0.0
 17
0.0
 27
1.0
 37
0.0
 76
     0
330
1F
331
29
  0
MATERIAL
  5
3D
102
{ACAD_REACTORS
330
3B
102
}
330
3B
100
AcDbMaterial
  1
ByBlock
 72
     1
 94
      127
  0
MATERIAL
  5
3C
102
{ACAD_REACTORS
330
3B
102
}
330
3B
100
AcDbMaterial
  1
ByLayer
 72
     1
 94
      127
  0
MATERIAL
  5
3E
102
{ACAD_REACTORS
330
3B
102
}
330
3B
100
AcDbMaterial
  1
Global
 72
     1
 94
      127
  0
MLINESTYLE
  5
18
102
{ACAD_REACTORS
330
17
102
}
330
17
100
AcDbMlineStyle
  2
Standard
 70
     0
  3

 62
   256
 51
90.0
 52
90.0
 71
     2
 49
0.5
 62
   256
  6
BYLAYER
 49
-0.5
 62
   256
  6
BYLAYER
  0
ACDBPLACEHOLDER
  5
F
102
{ACAD_REACTORS
330
E
102
}
330
E
  0
VISUALSTYLE
  5
2F
102
{ACAD_REACTORS
330
2A
102
}
330
2A
100
AcDbVisualStyle
  2
2dWireframe
 70
     4
177
     2
291
     0
 71
     0
176
     1
 72
     2
176
     1
 73
     0
176
     1
 90
        0
176
     1
 40
-0.6
176
     1
 41
-30.0
176
     1
 62
     5
 63
     7
421
 16777215
176
     1
 74
     1
176
     1
 91
        4
176
     1
 64
     7
176
     1
 65
   257
176
     1
 75
     1
176
     1
175
     1
176
     1
 42
1.0
176
     1
 92
        0
176
     1
 66
   257
176
     1
 43
1.0
176
     1
 76
     1
176
     1
 77
     6
176
     1
 78
     2
176
     1
 67
     7
176
     1
 79
     5
176
     1
170
     0
176
     1
171
     0
176
     1
290
     0
176
     1
 93
        1
176
     1
 44
0.0
176
     1
173
     0
176
     1
  0
VISUALSTYLE
  5
31
102
{ACAD_REACTORS
330
2A
102
}
330
2A
100
AcDbVisualStyle
  2
3D Hidden
 70
     6
177
     2
291
     0
 71
     1
176
     1
 72
     2
176
     1
 73
     2
176
     1
 90
        0
176
     1
 40
-0.6
176
     1
 41
-30.0
176
     1
 62
     5
 63
     7
421
 16777215
176
     1
 74
     2
176
     1
 91
        2
176
     1
 64
     7
176
     1
 65
   257
176
     1
 75
     2
176
     1
175
     1
176
     1
 42
40.0
176
     1
 92
        0
176
     1
 66
   257
176
     1
 43
1.0
176
     1
 76
     1
176
     1
 77
     6
176
     1
 78
     2
176
     1
 67
     7
176
     1
 79
     3
176
     1
170
     0
176
     1
171
     0
176
     1
290
     0
176
     1
 93
        1
176
     1
 44
0.0
176
     1
173
     0
176
     1
  0
VISUALSTYLE
  5
30
102
{ACAD_REACTORS
330
2A
102
}
330
2A
100
AcDbVisualStyle
  2
3dWireframe
 70
     5
177
     2
291
     0
 71
     0
176
     1
 72
     2
176
     1
 73
     0
176
     1
 90
        0
176
     1
 40
-0.6
176
     1
 41
-30.0
176
     1
 62
     5
 63
     7
421
 16777215
176
     1
 74
     1
176
     1
 91
        4
176
     1
 64
     7
176
     1
 65
   257
176
     1
 75
     1
176
     1
175
     1
176
     1
 42
1.0
176
     1
 92
        0
176
     1
 66
   257
176
     1
 43
1.0
176
     1
 76
     1
176
     1
 77
     6
176
     1
 78
     2
176
     1
 67
     7
176
     1
 79
     5
176
     1
170
     0
176
     1
171
     0
176
     1
290
     0
176
     1
 93
        1
176
     1
 44
0.0
176
     1
173
     0
176
     1
  0
VISUALSTYLE
  5
32
102
{ACAD_REACTORS
330
2A
102
}
330
2A
100
AcDbVisualStyle
  2
Basic
 70
     7
177
     2
291
     1
 71
     1
176
     1
 72
     0
176
     1
 73
     1
176
     1
 90
        0
176
     1
 40
-0.6
176
     1
 41
-30.0
176
     1
 62
     5
 63
     7
421
 16777215
176
     1
 74
     0
176
     1
 91
        4
176
     1
 64
     7
176
     1
 65
   257
176
     1
 75
     1
176
     1
175
     1
176
     1
 42
1.0
176
     1
 92
        8
176
     1
 66
     7
176
     1
 43
1.0
176
     1
 76
     1
176
     1
 77
     6
176
     1
 78
     2
176
     1
 67
     7
176
     1
 79
     5
176
     1
170
     0
176
     1
171
     0
176
     1
290
     0
176
     1
 93
        1
176
     1
 44
0.0
176
     1
173
     0
176
     1
  0
VISUALSTYLE
  5
36
102
{ACAD_REACTORS
330
2A
102
}
330
2A
100
AcDbVisualStyle
  2
Brighten
 70
    12
177
     2
291
     1
 71
     2
176
     1
 72
     2
176
     1
 73
     0
176
     1
 90
        0
176
     1
 40
-0.6
176
     1
 41
-30.0
176
     1
 62
     5
 63
     7
421
 16777215
176
     1
 74
     1
176
     1
 91
        4
176
     1
 64
     7
176
     1
 65
   257
176
     1
 75
     1
176
     1
175
     1
176
     1
 42
1.0
176
     1
 92
        8
176
     1
 66
     7
176
     1
 43
1.0
176
     1
 76
     1
176
     1
 77
     6
176
     1
 78
     2
176
     1
 67
     7
176
     1
 79
     5
176
     1
170
     0
176
     1
171
     0
176
     1
290
     0
176
     1
 93
        1
176
     1
 44
50.0
176
     1
173
     0
176
     1
  0
VISUALSTYLE
  5
3A
102
{ACAD_REACTORS
330
2A
102
}
330
2A
100
AcDbVisualStyle
  2
ColorChange
 70
    16
177
     2
291
     1
 71
     2
176
     1
 72
     2
176
     1
 73
     3
176
     1
 90
        0
176
     1
 40
-0.6
176
     1
 41
-30.0
176
     1
 62
     5
 63
     8
421
  8421504
176
     1
 74
     1
176
     1
 91
        4
176
     1
 64
     7
176
     1
 65
   257
176
     1
 75
     1
176
     1
175
     1
176
     1
 42
1.0
176
     1
 92
        8
176
     1
 66
     8
424
  8421504
176
     1
 43
1.0
176
     1
 76
     1
176
     1
 77
     6
176
     1
 78
     2
176
     1
 67
     7
176
     1
 79
     5
176
     1
170
     0
176
     1
171
     0
176
     1
290
     0
176
     1
 93
        1
176
     1
 44
0.0
176
     1
173
     0
176
     1
  0
VISUALSTYLE
  5
34
102
{ACAD_REACTORS
330
2A
102
}
330
2A
100
AcDbVisualStyle
  2
Conceptual
 70
     9
177
     2
291
     0
 71
     3
176
     1
 72
     2
176
     1
 73
     0
176
     1
 90
        0
176
     1
 40
-0.6
176
     1
 41
-30.0
176
     1
 62
     5
 63
     7
421
 16777215
176
     1
 74
     2
176
     1
 91
        2
176
     1
 64
     7
176
     1
 65
   257
176
     1
 75
     1
176
     1
175
     1
176
     1
 42
40.0
176
     1
 92
        8
176
     1
 66
     7
176
     1
 43
1.0
176
     1
 76
     1
176
     1
 77
     6
176
     1
 78
     2
176
     1
 67
     7
176
     1
 79
     3
176
     1
170
     0
176
     1
171
     0
176
     1
290
     0
176
     1
 93
        1
176
     1
 44
0.0
176
     1
173
     0
176
     1
  0
VISUALSTYLE
  5
35
102
{ACAD_REACTORS
330
2A
102
}
330
2A
100
AcDbVisualStyle
  2
Dim
 70
    11
177
     2
291
     1
 71
     2
176
     1
 72
     2
176
     1
 73
     0
176
     1
 90
        0
176
     1
 40
-0.6
176
     1
 41
-30.0
176
     1
 62
     5
 63
     7
421
 16777215
176
     1
 74
     1
176
     1
 91
        4
176
     1
 64
     7
176
     1
 65
   257
176
     1
 75
     1
176
     1
175
     1
176
     1
 42
1.0
176
     1
 92
        8
176
     1
 66
     7
176
     1
 43
1.0
176
     1
 76
     1
176
     1
 77
     6
176
     1
 78
     2
176
     1
 67
     7
176
     1
 79
     5
176
     1
170
     0
176
     1
171
     0
176
     1
290
     0
176
     1
 93
        1
176
     1
 44
-50.0
176
     1
173
     0
176
     1
  0
VISUALSTYLE
  5
39
102
{ACAD_REACTORS
330
2A
102
}
330
2A
100
AcDbVisualStyle
  2
Facepattern
 70
    15
177
     2
291
     1
 71
     2
176
     1
 72
     2
176
     1
 73
     0
176
     1
 90
        0
176
     1
 40
-0.6
176
     1
 41
-30.0
176
     1
 62
     5
 63
     7
421
 16777215
176
     1
 74
     1
176
     1
 91
        4
176
     1
 64
     7
176
     1
 65
   257
176
     1
 75
     1
176
     1
175
     1
176
     1
 42
1.0
176
     1
 92
        8
176
     1
 66
     7
176
     1
 43
1.0
176
     1
 76
     1
176
     1
 77
     6
176
     1
 78
     2
176
     1
 67
     7
176
     1
 79
     5
176
     1
170
     0
176
     1
171
     0
176
     1
290
     0
176
     1
 93
        1
176
     1
 44
0.0
176
     1
173
     0
176
     1
  0
VISUALSTYLE
  5
2B
102
{ACAD_REACTORS
330
2A
102
}
330
2A
100
AcDbVisualStyle
  2
Flat
 70
     0
177
     2
291
     1
 71
     2
176
     1
 72
     1
176
     1
 73
     1
176
     1
 90
        2
176
     1
 40
-0.6
176
     1
 41
30.0
176
     1
 62
     5
 63
     7
421
 16777215
176
     1
 74
     0
176
     1
 91
        4
176
     1
 64
     7
176
     1
 65
   257
176
     1
 75
     1
176
     1
175
     1
176
     1
 42
1.0
176
     1
 92
        8
176
     1
 66
     7
176
     1
 43
1.0
176
     1
 76
     1
176
     1
 77
     6
176
     1
 78
     2
176
     1
 67
     7
176
     1
 79
     5
176
     1
170
     0
176
     1
171
     0
176
     1
290
     0
176
     1
 93
       13
176
     1
 44
0.0
176
     1
173
     0
176
     1
  0
VISUALSTYLE
  5
2C
102
{ACAD_REACTORS
330
2A
102
}
330
2A
100
AcDbVisualStyle
  2
FlatWithEdges
 70
     1
177
     2
291
     1
 71
     2
176
     1
 72
     1
176
     1
 73
     1
176
     1
 90
        2
176
     1
 40
-0.6
176
     1
 41
30.0
176
     1
 62
     5
 63
     7
421
 16777215
176
     1
 74
     1
176
     1
 91
        4
176
     1
 64
     7
176
     1
 65
   257
176
     1
 75
     1
176
     1
175
     1
176
     1
 42
1.0
176
     1
 92
        0
176
     1
 66
   257
176
     1
 43
1.0
176
     1
 76
     1
176
     1
 77
     6
176
     1
 78
     2
176
     1
 67
     7
176
     1
 79
     5
176
     1
170
     0
176
     1
171
     0
176
     1
290
     0
176
     1
 93
       13
176
     1
 44
0.0
176
     1
173
     0
176
     1
  0
VISUALSTYLE
  5
2D
102
{ACAD_REACTORS
330
2A
102
}
330
2A
100
AcDbVisualStyle
  2
Gouraud
 70
     2
177
     2
291
     1
 71
     2
176
     1
 72
     2
176
     1
 73
     1
176
     1
 90
        2
176
     1
 40
-0.6
176
     1
 41
30.0
176
     1
 62
     5
 63
     7
421
 16777215
176
     1
 74
     0
176
     1
 91
        4
176
     1
 64
     7
176
     1
 65
   257
176
     1
 75
     1
176
     1
175
     1
176
     1
 42
1.0
176
     1
 92
        0
176
     1
 66
     7
176
     1
 43
1.0
176
     1
 76
     1
176
     1
 77
     6
176
     1
 78
     2
176
     1
 67
     7
176
     1
 79
     5
176
     1
170
     0
176
     1
171
     0
176
     1
290
     0
176
     1
 93
       13
176
     1
 44
0.0
176
     1
173
     0
176
     1
  0
VISUALSTYLE
  5
2E
102
{ACAD_REACTORS
330
2A
102
}
330
2A
100
AcDbVisualStyle
  2
GouraudWithEdges
 70
     3
177
     2
291
     1
 71
     2
176
     1
 72
     2
176
     1
 73
     1
176
     1
 90
        2
176
     1
 40
-0.6
176
     1
 41
30.0
176
     1
 62
     5
 63
     7
421
 16777215
176
     1
 74
     1
176
     1
 91
        4
176
     1
 64
     7
176
     1
 65
   257
176
     1
 75
     1
176
     1
175
     1
176
     1
 42
1.0
176
     1
 92
        0
176
     1
 66
   257
176
     1
 43
1.0
176
     1
 76
     1
176
     1
 77
     6
176
     1
 78
     2
176
     1
 67
     7
176
     1
 79
     5
176
     1
170
     0
176
     1
171
     0
176
     1
290
     0
176
     1
 93
       13
176
     1
 44
0.0
176
     1
173
     0
176
     1
  0
VISUALSTYLE
  5
38
102
{ACAD_REACTORS
330
2A
102
}
330
2A
100
AcDbVisualStyle
  2
Linepattern
 70
    14
177
     2
291
     1
 71
     2
176
     1
 72
     2
176
     1
 73
     0
176
     1
 90
        0
176
     1
 40
-0.6
176
     1
 41
-30.0
176
     1
 62
     5
 63
     7
421
 16777215
176
     1
 74
     1
176
     1
 91
        4
176
     1
 64
     7
176
     1
 65
   257
176
     1
 75
     7
176
     1
175
     7
176
     1
 42
1.0
176
     1
 92
        8
176
     1
 66
     7
176
     1
 43
1.0
176
     1
 76
     1
176
     1
 77
     6
176
     1
 78
     2
176
     1
 67
     7
176
     1
 79
     5
176
     1
170
     0
176
     1
171
     0
176
     1
290
     0
176
     1
 93
        1
176
     1
 44
0.0
176
     1
173
     0
176
     1
  0
VISUALSTYLE
  5
33
102
{ACAD_REACTORS
330
2A
102
}
330
2A
100
AcDbVisualStyle
  2
Realistic
 70
     8
177
     2
291
     0
 71
     2
176
     1
 72
     2
176
     1
 73
     0
176
     1
 90
        0
176
     1
 40
-0.6
176
     1
 41
-30.0
176
     1
 62
     5
 63
     7
421
 16777215
176
     1
 74
     1
176
     1
 91
        0
176
     1
 64
     7
176
     1
 65
   257
176
     1
 75
     1
176
     1
175
     1
176
     1
 42
1.0
176
     1
 92
        8
176
     1
 66
     8
424
  7895160
176
     1
 43
1.0
176
     1
 76
     1
176
     1
 77
     6
176
     1
 78
     2
176
     1
 67
     7
176
     1
 79
     5
176
     1
170
     0
176
     1
171
     0
176
     1
290
     0
176
     1
 93
       13
176
     1
 44
0.0
176
     1
173
     0
176
     1
  0
VISUALSTYLE
  5
37
102
{ACAD_REACTORS
330
2A
102
}
330
2A
100
AcDbVisualStyle
  2
Thicken
 70
    13
177
     2
291
     1
 71
     2
176
     1
 72
     2
176
     1
 73
     0
176
     1
 90
        0
176
     1
 40
-0.6
176
     1
 41
-30.0
176
     1
 62
     5
 63
     7
421
 16777215
176
     1
 74
     1
176
     1
 91
        4
176
     1
 64
     7
176
     1
 65
   257
176
     1
 75
     1
176
     1
175
     1
176
     1
 42
1.0
176
     1
 92
       12
176
     1
 66
     7
176
     1
 43
1.0
176
     1
 76
     1
176
     1
 77
     6
176
     1
 78
     2
176
     1
 67
     7
176
     1
 79
     5
176
     1
170
     0
176
     1
171
     0
176
     1
290
     0
176
     1
 93
        1
176
     1
 44
0.0
176
     1
173
     0
176
     1
  0
ENDSEC
  0
EOF
