  0
SECTION
  2
HEADER
  9
$ACADVER
  1
AC1024
  9
$ACADMAINTVER
 70
     6
  9
$DWGCODEPAGE
  3
UNDEFINED
  9
$INSBASE
 10
0.0
 20
0.0
 30
0.0
  9
$EXTMIN
 10
1.000000000000000E+20
 20
1.000000000000000E+20
 30
1.000000000000000E+20
  9
$EXTMAX
 10
-1.000000000000000E+20
 20
-1.000000000000000E+20
 30
-1.000000000000000E+20
  9
$LIMMIN
 10
0.0
 20
0.0
  9
$LIMMAX
 10
12.0
 20
9.0
  9
$ORTHOMODE
 70
     0
  9
$REGENMODE
 70
     1
  9
$FILLMODE
 70
     1
  9
$QTEXTMODE
 70
     0
  9
$MIRRTEXT
 70
     1
  9
$LTSCALE
 40
1.0
  9
$ATTMODE
 70
     1
  9
$TEXTSIZE
 40
0.2
  9
$TRACEWID
 40
0.05
  9
$TEXTSTYLE
  7
Standard
  9
$CLAYER
  8
0
  9
$CELTYPE
  6
ByLayer
  9
$CECOLOR
 62
   256
  9
$CELTSCALE
 40
1.0
  9
$DISPSILH
 70
     0
  9
$DIMSCALE
 40
1.0
  9
$DIMASZ
 40
0.18
  9
$DIMEXO
 40
0.0625
  9
$DIMDLI
 40
0.38
  9
$DIMRND
 40
0.0
  9
$DIMDLE
 40
0.0
  9
$DIMEXE
 40
0.18
  9
$DIMTP
 40
0.0
  9
$DIMTM
 40
0.0
  9
$DIMTXT
 40
0.18
  9
$DIMCEN
 40
0.09
  9
$DIMTSZ
 40
0.0
  9
$DIMTOL
 70
     0
  9
$DIMLIM
 70
     0
  9
$DIMTIH
 70
     1
  9
$DIMTOH
 70
     1
  9
$DIMSE1
 70
     0
  9
$DIMSE2
 70
     0
  9
$DIMTAD
 70
     0
  9
$DIMZIN
 70
     0
  9
$DIMBLK
  1

  9
$DIMASO
 70
     1
  9
$DIMSHO
 70
     1
  9
$DIMPOST
  1

  9
$DIMAPOST
  1

  9
$DIMALT
 70
     0
  9
$DIMALTD
 70
     2
  9
$DIMALTF
 40
25.4
  9
$DIMLFAC
 40
1.0
  9
$DIMTOFL
 70
     0
  9
$DIMTVP
 40
0.0
  9
$DIMTIX
 70
     0
  9
$DIMSOXD
 70
     0
  9
$DIMSAH
 70
     0
  9
$DIMBLK1
  1

  9
$DIMBLK2
  1

  9
$DIMSTYLE
  2
Standard
  9
$DIMCLRD
 70
     0
  9
$DIMCLRE
 70
     0
  9
$DIMCLRT
 70
     0
  9
$DIMTFAC
 40
1.0
  9
$DIMGAP
 40
0.09
  9
$DIMJUST
 70
     0
  9
$DIMSD1
 70
     0
  9
$DIMSD2
 70
     0
  9
$DIMTOLJ
 70
     1
  9
$DIMTZIN
 70
     0
  9
$DIMALTZ
 70
     0
  9
$DIMALTTZ
 70
     0
  9
$DIMUPT
 70
     0
  9
$DIMDEC
 70
     4
  9
$DIMTDEC
 70
     4
  9
$DIMALTU
 70
     2
  9
$DIMALTTD
 70
     2
  9
$DIMTXSTY
  7
Standard
  9
$DIMAUNIT
 70
     0
  9
$DIMADEC
 70
     0
  9
$DIMALTRND
 40
0.0
  9
$DIMAZIN
 70
     0
  9
$DIMDSEP
 70
    46
  9
$DIMATFIT
 70
     3
  9
$DIMFRAC
 70
     0
  9
$DIMLDRBLK
  1

  9
$DIMLUNIT
 70
     2
  9
$DIMLWD
 70
    -2
  9
$DIMLWE
 70
    -2
  9
$DIMTMOVE
 70
     0
  9
$DIMFXL
 40
1.0
  9
$DIMFXLON
 70
     0
  9
$DIMJOGANG
 40
0.7853981633974483
  9
$DIMTFILL
 70
     0
  9
$DIMTFILLCLR
 70
     0
  9
$DIMARCSYM
 70
     0
  9
$DIMLTYPE
  6

  9
$DIMLTEX1
  6

  9
$DIMLTEX2
  6

  9
$DIMTXTDIRECTION
 70
     0
  9
$LUNITS
 70
     2
  9
$LUPREC
 70
     4
  9
$SKETCHINC
 40
0.1
  9
$FILLETRAD
 40
0.5
  9
$AUNITS
 70
     0
  9
$AUPREC
 70
     0
  9
$MENU
  1
.
  9
$ELEVATION
 40
0.0
  9
$PELEVATION
 40
0.0
  9
$THICKNESS
 40
0.0
  9
$LIMCHECK
 70
     0
  9
$CHAMFERA
 40
0.5
  9
$CHAMFERB
 40
0.5
  9
$CHAMFERC
 40
1.0
  9
$CHAMFERD
 40
0.0
  9
$SKPOLY
 70
     0
  9
$TDCREATE
 40
2458980.042384248
  9
$TDUCREATE
 40
2458980.250717592
  9
$TDUPDATE
 40
2458980.042384248
  9
$TDUUPDATE
 40
2458980.250717592
  9
$TDINDWG
 40
0.0000000116
  9
$TDUSRTIMER
 40
0.0000000116
  9
$USRTIMER
 70
     1
  9
$ANGBASE
 50
0.0
  9
$ANGDIR
 70
     0
  9
$PDMODE
 70
     0
  9
$PDSIZE
 40
0.0
  9
$PLINEWID
 40
0.0
  9
$SPLFRAME
 70
     0
  9
$SPLINETYPE
 70
     6
  9
$SPLINESEGS
 70
     8
  9
$HANDSEED
  5
4E
  9
$SURFTAB1
 70
     6
  9
$SURFTAB2
 70
     6
  9
$SURFTYPE
 70
     6
  9
$SURFU
 70
     6
  9
$SURFV
 70
     6
  9
$UCSBASE
  2

  9
$UCSNAME
  2

  9
$UCSORG
 10
0.0
 20
0.0
 30
0.0
  9
$UCSXDIR
 10
1.0
 20
0.0
 30
0.0
  9
$UCSYDIR
 10
0.0
 20
1.0
 30
0.0
  9
$UCSORTHOREF
  2

  9
$UCSORTHOVIEW
 70
     0
  9
$UCSORGTOP
 10
0.0
 20
0.0
 30
0.0
  9
$UCSORGBOTTOM
 10
0.0
 20
0.0
 30
0.0
  9
$UCSORGLEFT
 10
0.0
 20
0.0
 30
0.0
  9
$UCSORGRIGHT
 10
0.0
 20
0.0
 30
0.0
  9
$UCSORGFRONT
 10
0.0
 20
0.0
 30
0.0
  9
$UCSORGBACK
 10
0.0
 20
0.0
 30
0.0
  9
$PUCSBASE
  2

  9
$PUCSNAME
  2

  9
$PUCSORG
 10
0.0
 20
0.0
 30
0.0
  9
$PUCSXDIR
 10
1.0
 20
0.0
 30
0.0
  9
$PUCSYDIR
 10
0.0
 20
1.0
 30
0.0
  9
$PUCSORTHOREF
  2

  9
$PUCSORTHOVIEW
 70
     0
  9
$PUCSORGTOP
 10
0.0
 20
0.0
 30
0.0
  9
$PUCSORGBOTTOM
 10
0.0
 20
0.0
 30
0.0
  9
$PUCSORGLEFT
 10
0.0
 20
0.0
 30
0.0
  9
$PUCSORGRIGHT
 10
0.0
 20
0.0
 30
0.0
  9
$PUCSORGFRONT
 10
0.0
 20
0.0
 30
0.0
  9
$PUCSORGBACK
 10
0.0
 20
0.0
 30
0.0
  9
$USERI1
 70
     0
  9
$USERI2
 70
     0
  9
$USERI3
 70
     0
  9
$USERI4
 70
     0
  9
$USERI5
 70
     0
  9
$USERR1
 40
0.0
  9
$USERR2
 40
0.0
  9
$USERR3
 40
0.0
  9
$USERR4
 40
0.0
  9
$USERR5
 40
0.0
  9
$WORLDVIEW
 70
     1
  9
$SHADEDGE
 70
     3
  9
$SHADEDIF
 70
    70
  9
$TILEMODE
 70
     1
  9
$MAXACTVP
 70
    64
  9
$PINSBASE
 10
0.0
 20
0.0
 30
0.0
  9
$PLIMCHECK
 70
     0
  9
$PEXTMIN
 10
1.000000000000000E+20
 20
1.000000000000000E+20
 30
1.000000000000000E+20
  9
$PEXTMAX
 10
-1.000000000000000E+20
 20
-1.000000000000000E+20
 30
-1.000000000000000E+20
  9
$PLIMMIN
 10
0.0
 20
0.0
  9
$PLIMMAX
 10
12.0
 20
9.0
  9
$UNITMODE
 70
     0
  9
$VISRETAIN
 70
     1
  9
$PLINEGEN
 70
     0
  9
$PSLTSCALE
 70
     1
  9
$TREEDEPTH
 70
  3020
  9
$CMLSTYLE
  2
Standard
  9
$CMLJUST
 70
     0
  9
$CMLSCALE
 40
1.0
  9
$PROXYGRAPHICS
 70
     1
  9
$MEASUREMENT
 70
     0
  9
$CELWEIGHT
370
    -1
  9
$ENDCAPS
280
     0
  9
$JOINSTYLE
280
     0
  9
$LWDISPLAY
290
     1
  9
$INSUNITS
 70
     1
  9
$HYPERLINKBASE
  1

  9
$STYLESHEET
  1

  9
$XEDIT
290
     1
  9
$CEPSNTYPE
380
     0
  9
$PSTYLEMODE
290
     1
  9
$FINGERPRINTGUID
  2
{D290AFF7-69E6-7E79-1E74-9AFFE255026B}
  9
$VERSIONGUID
  2
{FAEB1C32-E019-11D5-929B-00C0DF256EC4}
  9
$EXTNAMES
290
     1
  9
$PSVPSCALE
 40
0.0
  9
$OLESTARTUP
290
     0
  9
$SORTENTS
280
   127
  9
$INDEXCTL
280
     0
  9
$HIDETEXT
280
     1
  9
$XCLIPFRAME
280
     2
  9
$HALOGAP
280
     0
  9
$OBSCOLOR
 70
   257
  9
$OBSLTYPE
280
     0
  9
$INTERSECTIONDISPLAY
280
     0
  9
$INTERSECTIONCOLOR
 70
   257
  9
$DIMASSOC
280
     2
  9
$PROJECTNAME
  1

  9
$CAMERADISPLAY
290
     0
  9
$LENSLENGTH
 40
50.0
  9
$CAMERAHEIGHT
 40
0.0
  9
$STEPSPERSEC
 40
2.0
  9
$STEPSIZE
 40
6.0
  9
$3DDWFPREC
 40
2.0
  9
$PSOLWIDTH
 40
0.25
  9
$PSOLHEIGHT
 40
4.0
  9
$LOFTANG1
 40
1.570796326794897
  9
$LOFTANG2
 40
1.570796326794897
  9
$LOFTMAG1
 40
0.0
  9
$LOFTMAG2
 40
0.0
  9
$LOFTPARAM
 70
     7
  9
$LOFTNORMALS
280
     1
  9
$LATITUDE
 40
37.795
  9
$LONGITUDE
 40
-122.394
  9
$NORTHDIRECTION
 40
0.0
  9
$TIMEZONE
 70
 -8000
  9
$LIGHTGLYPHDISPLAY
280
     1
  9
$TILEMODELIGHTSYNCH
280
     1
  9
$CMATERIAL
347
3C
  9
$SOLIDHIST
280
     1
  9
$SHOWHIST
280
     1
  9
$DWFFRAME
280
     2
  9
$DGNFRAME
280
     2
  9
$REALWORLDSCALE
290
     1
  9
$INTERFERECOLOR
 62
   256
  9
$CSHADOW
280
     0
  9
$SHADOWPLANELOCATION
 40
0.0
  0
ENDSEC
  0
SECTION
  2
CLASSES
  0
CLASS
  1
ACDBDICTIONARYWDFLT
  2
AcDbDictionaryWithDefault
  3
ObjectDBX Classes
 90
        0
 91
        4
280
     0
281
     0
  0
CLASS
  1
VISUALSTYLE
  2
AcDbVisualStyle
  3
ObjectDBX Classes
 90
     4095
 91
        4
280
     0
281
     0
  0
CLASS
  1
MATERIAL
  2
AcDbMaterial
  3
ObjectDBX Classes
 90
     1153
 91
        4
280
     0
281
     0
  0
CLASS
  1
SUN
  2
AcDbSun
  3
SCENEOE
 90
     1024
 91
        4
280
     0
281
     0
  0
ENDSEC
  0
SECTION
  2
TABLES
  0
TABLE
  2
VPORT
  5
8
330
0
100
AcDbSymbolTable
 70
     1
  0
VPORT
  5
29
330
8
100
AcDbSymbolTableRecord
100
AcDbViewportTableRecord
  2
*Active
 70
     0
 10
0.0
 20
0.0
 11
1.0
 21
1.0
 12
0.0
 22
0.0
 13
0.0
 23
0.0
 14
0.5
 24
0.5
 15
0.5
 25
0.5
 16
0.0
 26
0.0
 36
1.0
 17
150.3002951475285
 27
-150.2623459009253
 37
0.0
 40
135.334282677299
 41
1.468585649140802
 42
50.0
 43
0.0
 44
0.0
 50
0.0
 51
0.0
 71
     0
 72
   100
 73
     1
 74
     3
 75
     0
 76
     0
 77
     0
 78
     0
281
     0
 65
     1
110
0.0
120
0.0
130
0.0
111
1.0
121
0.0
131
0.0
112
0.0
122
1.0
132
0.0
 79
     0
146
0.0
 60
     3
 61
     5
292
     1
282
     1
141
0.0
142
0.0
 63
   250
361
3F
  0
ENDTAB
  0
TABLE
  2
LTYPE
  5
5
330
0
100
AcDbSymbolTable
 70
     1
  0
LTYPE
  5
14
330
5
100
AcDbSymbolTableRecord
100
AcDbLinetypeTableRecord
  2
ByBlock
 70
     0
  3

 72
    65
 73
     0
 40
0.0
  0
LTYPE
  5
15
330
5
100
AcDbSymbolTableRecord
100
AcDbLinetypeTableRecord
  2
ByLayer
 70
     0
  3

 72
    65
 73
     0
 40
0.0
  0
LTYPE
  5
16
330
5
100
AcDbSymbolTableRecord
100
AcDbLinetypeTableRecord
  2
Continuous
 70
     0
  3
Solid line
 72
    65
 73
     0
 40
0.0
  0
ENDTAB
  0
TABLE
  2
LAYER
  5
2
330
0
100
AcDbSymbolTable
 70
     2
  0
LAYER
  5
10
330
2
100
AcDbSymbolTableRecord
100
AcDbLayerTableRecord
  2
0
 70
     0
 62
     7
  6
Continuous
370
    -3
390
F
347
3E
  0
LAYER
  5
40
330
2
100
AcDbSymbolTableRecord
100
AcDbLayerTableRecord
  2
Layer 1
 70
     0
 62
     7
  6
Continuous
370
    -3
390
F
347
3E
  0
ENDTAB
  0
TABLE
  2
STYLE
  5
3
330
0
100
AcDbSymbolTable
 70
     1
  0
STYLE
  5
11
330
3
100
AcDbSymbolTableRecord
100
AcDbTextStyleTableRecord
  2
Standard
 70
     0
 40
0.0
 41
1.0
 50
0.0
 71
     0
 42
0.2
  3
txt
  4

  0
ENDTAB
  0
TABLE
  2
VIEW
  5
6
330
0
100
AcDbSymbolTable
 70
     0
  0
ENDTAB
  0
TABLE
  2
UCS
  5
7
330
0
100
AcDbSymbolTable
 70
     0
  0
ENDTAB
  0
TABLE
  2
APPID
  5
9
330
0
100
AcDbSymbolTable
 70
     1
  0
APPID
  5
12
330
9
100
AcDbSymbolTableRecord
100
AcDbRegAppTableRecord
  2
ACAD
 70
     0
  0
ENDTAB
  0
TABLE
  2
DIMSTYLE
  5
A
330
0
100
AcDbSymbolTable
 70
     1
100
AcDbDimStyleTable
  0
DIMSTYLE
105
27
330
A
100
AcDbSymbolTableRecord
100
AcDbDimStyleTableRecord
  2
Standard
 70
     0
178
     0
340
11
  0
ENDTAB
  0
TABLE
  2
BLOCK_RECORD
  5
1
330
0
100
AcDbSymbolTable
 70
     1
  0
BLOCK_RECORD
  5
1F
330
1
100
AcDbSymbolTableRecord
100
AcDbBlockTableRecord
  2
*Model_Space
340
22
 70
     0
280
     1
281
     0
  0
BLOCK_RECORD
  5
1B
330
1
100
AcDbSymbolTableRecord
100
AcDbBlockTableRecord
  2
*Paper_Space
340
1E
 70
     0
280
     1
281
     0
  0
BLOCK_RECORD
  5
23
330
1
100
AcDbSymbolTableRecord
100
AcDbBlockTableRecord
  2
*Paper_Space0
340
26
 70
     0
280
     1
281
     0
  0
ENDTAB
  0
ENDSEC
  0
SECTION
  2
BLOCKS
  0
BLOCK
  5
20
330
1F
100
AcDbEntity
  8
0
100
AcDbBlockBegin
  2
*Model_Space
 70
     0
 10
0.0
 20
0.0
 30
0.0
  3
*Model_Space
  1

  0
ENDBLK
  5
21
330
1F
100
AcDbEntity
  8
0
100
AcDbBlockEnd
  0
BLOCK
  5
1C
330
1B
100
AcDbEntity
 67
     1
  8
0
100
AcDbBlockBegin
  2
*Paper_Space
 70
     0
 10
0.0
 20
0.0
 30
0.0
  3
*Paper_Space
  1

  0
ENDBLK
  5
1D
330
1B
100
AcDbEntity
 67
     1
  8
0
100
AcDbBlockEnd
  0
BLOCK
  5
24
330
23
100
AcDbEntity
  8
0
100
AcDbBlockBegin
  2
*Paper_Space0
 70
     0
 10
0.0
 20
0.0
 30
0.0
  3
*Paper_Space0
  1

  0
ENDBLK
  5
25
330
23
100
AcDbEntity
  8
0
100
AcDbBlockEnd
  0
ENDSEC
  0
SECTION
  2
ENTITIES
  0
SPLINE
  5
41
330
1F
100
AcDbEntity
  8
Layer 1
 62
   193
420
  9992117
370
    25
100
AcDbSpline
210
0.0
220
0.0
230
1.0
 70
    11
 71
     3
 72
    17
 73
    13
 74
     0
 42
0.0000000001
 43
0.0000000001
 12
1.0
 22
0.0
 32
0.0
 13
1.0
 23
0.0
 33
0.0
 40
0.0
 40
0.0
 40
0.0
 40
0.0
 40
1.0
 40
1.0
 40
1.0
 40
2.0
 40
2.0
 40
2.0
 40
3.0
 40
3.0
 40
3.0
 40
4.0
 40
4.0
 40
4.0
 40
4.0
 10
241.447524688082
 20
-87.44281122864186
 30
0.0
 10
241.447524688082
 20
-88.35408106558363
 30
0.0
 10
240.7087945254368
 20
-89.09281122822914
 30
0.0
 10
239.7975246884951
 20
-89.09281122822914
 30
0.0
 10
238.886254851552
 20
-89.09281122822914
 30
0.0
 10
238.1475246889068
 20
-88.35408106558363
 30
0.0
 10
238.1475246889068
 20
-87.44281122864186
 30
0.0
 10
238.1475246889068
 20
-86.53154139169912
 30
0.0
 10
238.886254851552
 20
-85.79281122905425
 30
0.0
 10
239.7975246884951
 20
-85.79281122905425
 30
0.0
 10
240.7087945254368
 20
-85.79281122905425
 30
0.0
 10
241.447524688082
 20
-86.53154139169912
 30
0.0
 10
241.447524688082
 20
-87.44281122864186
 30
0.0
  0
SPLINE
  5
42
330
1F
100
AcDbEntity
  8
Layer 1
 62
   193
420
  9992117
370
    25
100
AcDbSpline
210
0.0
220
0.0
230
1.0
 70
    11
 71
     3
 72
    17
 73
    13
 74
     0
 42
0.0000000001
 43
0.0000000001
 12
1.0
 22
0.0
 32
0.0
 13
1.0
 23
0.0
 33
0.0
 40
0.0
 40
0.0
 40
0.0
 40
0.0
 40
1.0
 40
1.0
 40
1.0
 40
2.0
 40
2.0
 40
2.0
 40
3.0
 40
3.0
 40
3.0
 40
4.0
 40
4.0
 40
4.0
 40
4.0
 10
241.447524688082
 20
-213.1053111972267
 30
0.0
 10
241.447524688082
 20
-214.0165810341684
 30
0.0
 10
240.7087945254368
 20
-214.7553111968136
 30
0.0
 10
239.7975246884951
 20
-214.7553111968136
 30
0.0
 10
238.886254851552
 20
-214.7553111968136
 30
0.0
 10
238.1475246889068
 20
-214.0165810341684
 30
0.0
 10
238.1475246889068
 20
-213.1053111972267
 30
0.0
 10
238.1475246889068
 20
-212.1940413602849
 30
0.0
 10
238.886254851552
 20
-211.455311197639
 30
0.0
 10
239.7975246884951
 20
-211.455311197639
 30
0.0
 10
240.7087945254368
 20
-211.455311197639
 30
0.0
 10
241.447524688082
 20
-212.1940413602849
 30
0.0
 10
241.447524688082
 20
-213.1053111972267
 30
0.0
  0
SPLINE
  5
43
330
1F
100
AcDbEntity
  8
Layer 1
 62
   193
420
  9992117
370
    25
100
AcDbSpline
210
0.0
220
0.0
230
1.0
 70
    11
 71
     3
 72
    17
 73
    13
 74
     0
 42
0.0000000001
 43
0.0000000001
 12
1.0
 22
0.0
 32
0.0
 13
1.0
 23
0.0
 33
0.0
 40
0.0
 40
0.0
 40
0.0
 40
0.0
 40
1.0
 40
1.0
 40
1.0
 40
2.0
 40
2.0
 40
2.0
 40
3.0
 40
3.0
 40
3.0
 40
4.0
 40
4.0
 40
4.0
 40
4.0
 10
80.22255707888284
 20
-86.7427788783226
 30
0.0
 10
80.22255707888284
 20
-87.6540487152647
 30
0.0
 10
79.48382691623765
 20
-88.39277887790989
 30
0.0
 10
78.57255707929524
 20
-88.39277887790989
 30
0.0
 10
77.66128724235281
 20
-88.39277887790989
 30
0.0
 10
76.92255707970763
 20
-87.6540487152647
 30
0.0
 10
76.92255707970763
 20
-86.7427788783226
 30
0.0
 10
76.92255707970763
 20
-85.8315090413805
 30
0.0
 10
77.66128724235281
 20
-85.09277887873499
 30
0.0
 10
78.57255707929524
 20
-85.09277887873499
 30
0.0
 10
79.48382691623765
 20
-85.09277887873499
 30
0.0
 10
80.22255707888284
 20
-85.8315090413805
 30
0.0
 10
80.22255707888284
 20
-86.7427788783226
 30
0.0
  0
SPLINE
  5
44
330
1F
100
AcDbEntity
  8
Layer 1
 62
   193
420
  9992117
370
    25
100
AcDbSpline
210
0.0
220
0.0
230
1.0
 70
    11
 71
     3
 72
    17
 73
    13
 74
     0
 42
0.0000000001
 43
0.0000000001
 12
1.0
 22
0.0
 32
0.0
 13
1.0
 23
0.0
 33
0.0
 40
0.0
 40
0.0
 40
0.0
 40
0.0
 40
1.0
 40
1.0
 40
1.0
 40
2.0
 40
2.0
 40
2.0
 40
3.0
 40
3.0
 40
3.0
 40
4.0
 40
4.0
 40
4.0
 40
4.0
 10
107.6547418720481
 20
-86.7427788783226
 30
0.0
 10
107.6547418720481
 20
-87.6540487152647
 30
0.0
 10
106.9160117094029
 20
-88.39277887790989
 30
0.0
 10
106.0047418724605
 20
-88.39277887790989
 30
0.0
 10
105.0934720355181
 20
-88.39277887790989
 30
0.0
 10
104.3547418728729
 20
-87.6540487152647
 30
0.0
 10
104.3547418728729
 20
-86.7427788783226
 30
0.0
 10
104.3547418728729
 20
-85.8315090413805
 30
0.0
 10
105.0934720355181
 20
-85.09277887873499
 30
0.0
 10
106.0047418724605
 20
-85.09277887873499
 30
0.0
 10
106.9160117094029
 20
-85.09277887873499
 30
0.0
 10
107.6547418720481
 20
-85.8315090413805
 30
0.0
 10
107.6547418720481
 20
-86.7427788783226
 30
0.0
  0
SPLINE
  5
45
330
1F
100
AcDbEntity
  8
Layer 1
 62
   193
420
  9992117
370
    25
100
AcDbSpline
210
0.0
220
0.0
230
1.0
 70
    11
 71
     3
 72
    17
 73
    13
 74
     0
 42
0.0000000001
 43
0.0000000001
 12
1.0
 22
0.0
 32
0.0
 13
1.0
 23
0.0
 33
0.0
 40
0.0
 40
0.0
 40
0.0
 40
0.0
 40
1.0
 40
1.0
 40
1.0
 40
2.0
 40
2.0
 40
2.0
 40
3.0
 40
3.0
 40
3.0
 40
4.0
 40
4.0
 40
4.0
 40
4.0
 10
125.7558537186263
 20
-86.7427788783226
 30
0.0
 10
125.7558537186263
 20
-87.65404871526502
 30
0.0
 10
125.0171235559811
 20
-88.3927788779102
 30
0.0
 10
124.1058537190387
 20
-88.3927788779102
 30
0.0
 10
123.1945838820963
 20
-88.3927788779102
 30
0.0
 10
122.4558537194511
 20
-87.65404871526502
 30
0.0
 10
122.4558537194511
 20
-86.7427788783226
 30
0.0
 10
122.4558537194511
 20
-85.83150904138083
 30
0.0
 10
123.1945838820963
 20
-85.09277887873499
 30
0.0
 10
124.1058537190387
 20
-85.09277887873499
 30
0.0
 10
125.0171235559811
 20
-85.09277887873499
 30
0.0
 10
125.7558537186263
 20
-85.83150904138083
 30
0.0
 10
125.7558537186263
 20
-86.7427788783226
 30
0.0
  0
SPLINE
  5
46
330
1F
100
AcDbEntity
  8
Layer 1
 62
   193
420
  9992117
370
    25
100
AcDbSpline
210
0.0
220
0.0
230
1.0
 70
    11
 71
     3
 72
    17
 73
    13
 74
     0
 42
0.0000000001
 43
0.0000000001
 12
1.0
 22
0.0
 32
0.0
 13
1.0
 23
0.0
 33
0.0
 40
0.0
 40
0.0
 40
0.0
 40
0.0
 40
1.0
 40
1.0
 40
1.0
 40
2.0
 40
2.0
 40
2.0
 40
3.0
 40
3.0
 40
3.0
 40
4.0
 40
4.0
 40
4.0
 40
4.0
 10
165.1755447989256
 20
-86.7427788783226
 30
0.0
 10
165.1755447989256
 20
-87.65404871526502
 30
0.0
 10
164.4368146362804
 20
-88.3927788779102
 30
0.0
 10
163.5255447993373
 20
-88.3927788779102
 30
0.0
 10
162.6142749623956
 20
-88.3927788779102
 30
0.0
 10
161.8755447997504
 20
-87.65404871526502
 30
0.0
 10
161.8755447997504
 20
-86.7427788783226
 30
0.0
 10
161.8755447997504
 20
-85.83150904138083
 30
0.0
 10
162.6142749623956
 20
-85.09277887873499
 30
0.0
 10
163.5255447993373
 20
-85.09277887873499
 30
0.0
 10
164.4368146362804
 20
-85.09277887873499
 30
0.0
 10
165.1755447989256
 20
-85.83150904138083
 30
0.0
 10
165.1755447989256
 20
-86.7427788783226
 30
0.0
  0
SPLINE
  5
47
330
1F
100
AcDbEntity
  8
Layer 1
 62
   193
420
  9992117
370
    25
100
AcDbSpline
210
0.0
220
0.0
230
1.0
 70
    11
 71
     3
 72
    17
 73
    13
 74
     0
 42
0.0000000001
 43
0.0000000001
 12
1.0
 22
0.0
 32
0.0
 13
1.0
 23
0.0
 33
0.0
 40
0.0
 40
0.0
 40
0.0
 40
0.0
 40
1.0
 40
1.0
 40
1.0
 40
2.0
 40
2.0
 40
2.0
 40
3.0
 40
3.0
 40
3.0
 40
4.0
 40
4.0
 40
4.0
 40
4.0
 10
187.294968666086
 20
-86.7427788783226
 30
0.0
 10
187.294968666086
 20
-87.65404871526502
 30
0.0
 10
186.5562385034408
 20
-88.3927788779102
 30
0.0
 10
185.6449686664978
 20
-88.3927788779102
 30
0.0
 10
184.733698829556
 20
-88.3927788779102
 30
0.0
 10
183.9949686669108
 20
-87.65404871526502
 30
0.0
 10
183.9949686669108
 20
-86.7427788783226
 30
0.0
 10
183.9949686669108
 20
-85.83150904138083
 30
0.0
 10
184.733698829556
 20
-85.09277887873499
 30
0.0
 10
185.6449686664978
 20
-85.09277887873499
 30
0.0
 10
186.5562385034408
 20
-85.09277887873499
 30
0.0
 10
187.294968666086
 20
-85.83150904138083
 30
0.0
 10
187.294968666086
 20
-86.7427788783226
 30
0.0
  0
SPLINE
  5
48
330
1F
100
AcDbEntity
  8
Layer 1
 62
   193
420
  9992117
370
    25
100
AcDbSpline
210
0.0
220
0.0
230
1.0
 70
    11
 71
     3
 72
    17
 73
    13
 74
     0
 42
0.0000000001
 43
0.0000000001
 12
1.0
 22
0.0
 32
0.0
 13
1.0
 23
0.0
 33
0.0
 40
0.0
 40
0.0
 40
0.0
 40
0.0
 40
1.0
 40
1.0
 40
1.0
 40
2.0
 40
2.0
 40
2.0
 40
3.0
 40
3.0
 40
3.0
 40
4.0
 40
4.0
 40
4.0
 40
4.0
 10
75.46005708007347
 20
-213.8053435475459
 30
0.0
 10
75.46005708007347
 20
-214.7166133844877
 30
0.0
 10
74.72132691742827
 20
-215.4553435471329
 30
0.0
 10
73.81005708048586
 20
-215.4553435471329
 30
0.0
 10
72.89878724354344
 20
-215.4553435471329
 30
0.0
 10
72.16005708089826
 20
-214.7166133844877
 30
0.0
 10
72.16005708089826
 20
-213.8053435475459
 30
0.0
 10
72.16005708089826
 20
-212.8940737106041
 30
0.0
 10
72.89878724354344
 20
-212.1553435479583
 30
0.0
 10
73.81005708048586
 20
-212.1553435479583
 30
0.0
 10
74.72132691742827
 20
-212.1553435479583
 30
0.0
 10
75.46005708007347
 20
-212.8940737106041
 30
0.0
 10
75.46005708007347
 20
-213.8053435475459
 30
0.0
  0
SPLINE
  5
49
330
1F
100
AcDbEntity
  8
Layer 1
 62
   193
420
  9992117
370
    25
100
AcDbSpline
210
0.0
220
0.0
230
1.0
 70
    11
 71
     3
 72
    17
 73
    13
 74
     0
 42
0.0000000001
 43
0.0000000001
 12
1.0
 22
0.0
 32
0.0
 13
1.0
 23
0.0
 33
0.0
 40
0.0
 40
0.0
 40
0.0
 40
0.0
 40
1.0
 40
1.0
 40
1.0
 40
2.0
 40
2.0
 40
2.0
 40
3.0
 40
3.0
 40
3.0
 40
4.0
 40
4.0
 40
4.0
 40
4.0
 10
158.4600570593235
 20
-213.8053435475459
 30
0.0
 10
158.4600570593235
 20
-214.7166133844877
 30
0.0
 10
157.7213268966783
 20
-215.4553435471329
 30
0.0
 10
156.8100570597353
 20
-215.4553435471329
 30
0.0
 10
155.8987872227935
 20
-215.4553435471329
 30
0.0
 10
155.1600570601483
 20
-214.7166133844877
 30
0.0
 10
155.1600570601483
 20
-213.8053435475459
 30
0.0
 10
155.1600570601483
 20
-212.8940737106041
 30
0.0
 10
155.8987872227935
 20
-212.1553435479583
 30
0.0
 10
156.8100570597353
 20
-212.1553435479583
 30
0.0
 10
157.7213268966783
 20
-212.1553435479583
 30
0.0
 10
158.4600570593235
 20
-212.8940737106041
 30
0.0
 10
158.4600570593235
 20
-213.8053435475459
 30
0.0
  0
SPLINE
  5
4A
330
1F
100
AcDbEntity
  8
Layer 1
 62
   195
420
  7949726
370
    25
100
AcDbSpline
210
0.0
220
0.0
230
1.0
 70
    11
 71
     3
 72
    29
 73
    25
 74
     0
 42
0.0000000001
 43
0.0000000001
 12
1.0
 22
0.0
 32
0.0
 13
1.0
 23
0.0
 33
0.0
 40
0.0
 40
0.0
 40
0.0
 40
0.0
 40
1.0
 40
1.0
 40
1.0
 40
2.0
 40
2.0
 40
2.0
 40
3.0
 40
3.0
 40
3.0
 40
4.0
 40
4.0
 40
4.0
 40
5.0
 40
5.0
 40
5.0
 40
6.0
 40
6.0
 40
6.0
 40
7.0
 40
7.0
 40
7.0
 40
8.0
 40
8.0
 40
8.0
 40
8.0
 10
167.5257656733596
 20
-89.74281122806697
 30
0.0
 10
167.5257656733596
 20
-89.74281122806697
 30
0.0
 10
167.5257656733596
 20
-83.74467754901114
 30
0.0
 10
167.5257656733596
 20
-83.74467754901114
 30
0.0
 10
167.5257656733596
 20
-83.19239279931847
 30
0.0
 10
167.0780504233022
 20
-82.74467754926104
 30
0.0
 10
166.5257656736092
 20
-82.74467754926104
 30
0.0
 10
166.5257656736092
 20
-82.74467754926104
 30
0.0
 10
121.1057919300813
 20
-82.74467754926104
 30
0.0
 10
121.1057919300813
 20
-82.74467754926104
 30
0.0
 10
120.5535071803889
 20
-82.74467754926104
 30
0.0
 10
120.1057919303315
 20
-83.19239279931847
 30
0.0
 10
120.1057919303315
 20
-83.74467754901114
 30
0.0
 10
120.1057919303315
 20
-83.74467754901114
 30
0.0
 10
120.1057919303315
 20
-89.74281122806697
 30
0.0
 10
120.1057919303315
 20
-89.74281122806697
 30
0.0
 10
120.1057919303315
 20
-90.29509597775964
 30
0.0
 10
120.5535071803889
 20
-90.74281122781707
 30
0.0
 10
121.1057919300813
 20
-90.74281122781707
 30
0.0
 10
121.1057919300813
 20
-90.74281122781707
 30
0.0
 10
166.5257656736092
 20
-90.74281122781707
 30
0.0
 10
166.5257656736092
 20
-90.74281122781707
 30
0.0
 10
167.0780504233022
 20
-90.74281122781707
 30
0.0
 10
167.5257656733596
 20
-90.29509597775964
 30
0.0
 10
167.5257656733596
 20
-89.74281122806697
 30
0.0
  0
SPLINE
  5
4B
330
1F
100
AcDbEntity
  8
Layer 1
 62
   195
420
  7949726
370
    25
100
AcDbSpline
210
0.0
220
0.0
230
1.0
 70
    11
 71
     3
 72
   173
 73
   169
 74
     0
 42
0.0000000001
 43
0.0000000001
 12
1.0
 22
0.0
 32
0.0
 13
1.0
 23
0.0
 33
0.0
 40
0.0
 40
0.0
 40
0.0
 40
0.0
 40
1.0
 40
1.0
 40
1.0
 40
2.0
 40
2.0
 40
2.0
 40
3.0
 40
3.0
 40
3.0
 40
4.0
 40
4.0
 40
4.0
 40
5.0
 40
5.0
 40
5.0
 40
6.0
 40
6.0
 40
6.0
 40
7.0
 40
7.0
 40
7.0
 40
8.0
 40
8.0
 40
8.0
 40
9.0
 40
9.0
 40
9.0
 40
10.0
 40
10.0
 40
10.0
 40
11.0
 40
11.0
 40
11.0
 40
12.0
 40
12.0
 40
12.0
 40
13.0
 40
13.0
 40
13.0
 40
14.0
 40
14.0
 40
14.0
 40
15.0
 40
15.0
 40
15.0
 40
16.0
 40
16.0
 40
16.0
 40
17.0
 40
17.0
 40
17.0
 40
18.0
 40
18.0
 40
18.0
 40
19.0
 40
19.0
 40
19.0
 40
20.0
 40
20.0
 40
20.0
 40
21.0
 40
21.0
 40
21.0
 40
22.0
 40
22.0
 40
22.0
 40
23.0
 40
23.0
 40
23.0
 40
24.0
 40
24.0
 40
24.0
 40
25.0
 40
25.0
 40
25.0
 40
26.0
 40
26.0
 40
26.0
 40
27.0
 40
27.0
 40
27.0
 40
28.0
 40
28.0
 40
28.0
 40
29.0
 40
29.0
 40
29.0
 40
30.0
 40
30.0
 40
30.0
 40
31.0
 40
31.0
 40
31.0
 40
32.0
 40
32.0
 40
32.0
 40
33.0
 40
33.0
 40
33.0
 40
34.0
 40
34.0
 40
34.0
 40
35.0
 40
35.0
 40
35.0
 40
36.0
 40
36.0
 40
36.0
 40
37.0
 40
37.0
 40
37.0
 40
38.0
 40
38.0
 40
38.0
 40
39.0
 40
39.0
 40
39.0
 40
40.0
 40
40.0
 40
40.0
 40
41.0
 40
41.0
 40
41.0
 40
42.0
 40
42.0
 40
42.0
 40
43.0
 40
43.0
 40
43.0
 40
44.0
 40
44.0
 40
44.0
 40
45.0
 40
45.0
 40
45.0
 40
46.0
 40
46.0
 40
46.0
 40
47.0
 40
47.0
 40
47.0
 40
48.0
 40
48.0
 40
48.0
 40
49.0
 40
49.0
 40
49.0
 40
50.0
 40
50.0
 40
50.0
 40
51.0
 40
51.0
 40
51.0
 40
52.0
 40
52.0
 40
52.0
 40
53.0
 40
53.0
 40
53.0
 40
54.0
 40
54.0
 40
54.0
 40
55.0
 40
55.0
 40
55.0
 40
56.0
 40
56.0
 40
56.0
 40
56.0
 10
240.4974743343159
 20
-82.74467754926104
 30
0.0
 10
240.4974743343159
 20
-82.74467754926104
 30
0.0
 10
182.6447574366146
 20
-82.74467754926104
 30
0.0
 10
182.6447574366146
 20
-82.74467754926104
 30
0.0
 10
182.0924726869229
 20
-82.74467754926104
 30
0.0
 10
181.6447574368655
 20
-83.19239279931847
 30
0.0
 10
181.6447574368655
 20
-83.74467754901114
 30
0.0
 10
181.6447574368655
 20
-83.74467754901114
 30
0.0
 10
181.6447574368655
 20
-89.74281122806697
 30
0.0
 10
181.6447574368655
 20
-89.74281122806697
 30
0.0
 10
181.6447574368655
 20
-90.29509597775964
 30
0.0
 10
182.0924726869229
 20
-90.74281122781707
 30
0.0
 10
182.6447574366146
 20
-90.74281122781707
 30
0.0
 10
182.6447574366146
 20
-90.74281122781707
 30
0.0
 10
234.4975175690516
 20
-90.74281122781707
 30
0.0
 10
234.4975175690516
 20
-90.74281122781707
 30
0.0
 10
235.6020910011287
 20
-90.74281122781707
 30
0.0
 10
236.4975246893198
 20
-91.63824491600825
 30
0.0
 10
236.4975246893198
 20
-92.7428183480853
 30
0.0
 10
236.4975246893198
 20
-92.7428183480853
 30
0.0
 10
236.4975246893198
 20
-207.8053040777832
 30
0.0
 10
236.4975246893198
 20
-207.8053040777832
 30
0.0
 10
236.4975246893198
 20
-208.9098775098603
 30
0.0
 10
235.6020910011287
 20
-209.8053111980514
 30
0.0
 10
234.4975175690516
 20
-209.8053111980514
 30
0.0
 10
234.4975175690516
 20
-209.8053111980514
 30
0.0
 10
73.81025428999567
 20
-209.8053111980514
 30
0.0
 10
73.81025428999567
 20
-209.8053111980514
 30
0.0
 10
72.70568085791864
 20
-209.8053111980514
 30
0.0
 10
71.81024716972745
 20
-208.9098775098603
 30
0.0
 10
71.81024716972745
 20
-207.8053040777832
 30
0.0
 10
71.81024716972745
 20
-207.8053040777832
 30
0.0
 10
71.81024716972745
 20
-171.7071629463998
 30
0.0
 10
71.81024716972745
 20
-171.7071629463998
 30
0.0
 10
71.81024716972745
 20
-170.6025895143227
 30
0.0
 10
70.91481348153627
 20
-169.7071558261315
 30
0.0
 10
69.81024004945922
 20
-169.7071558261315
 30
0.0
 10
69.81024004945922
 20
-169.7071558261315
 30
0.0
 10
64.28525429237692
 20
-169.7071558261315
 30
0.0
 10
64.28525429237692
 20
-169.7071558261315
 30
0.0
 10
63.18068086029988
 20
-169.7071558261315
 30
0.0
 10
62.2852471721087
 20
-168.8117221379404
 30
0.0
 10
62.2852471721087
 20
-167.7071487058633
 30
0.0
 10
62.2852471721087
 20
-167.7071487058633
 30
0.0
 10
62.2852471721087
 20
-152.6571629511623
 30
0.0
 10
62.2852471721087
 20
-152.6571629511623
 30
0.0
 10
62.2852471721087
 20
-151.5525895190852
 30
0.0
 10
61.38981348391751
 20
-150.657155830894
 30
0.0
 10
60.28524005184047
 20
-150.657155830894
 30
0.0
 10
60.28524005184047
 20
-150.657155830894
 30
0.0
 10
59.52275429356755
 20
-150.657155830894
 30
0.0
 10
59.52275429356755
 20
-150.657155830894
 30
0.0
 10
58.41818086149051
 20
-150.657155830894
 30
0.0
 10
57.52274717329932
 20
-149.7617221427029
 30
0.0
 10
57.52274717329932
 20
-148.6571487106255
 30
0.0
 10
57.52274717329932
 20
-148.6571487106255
 30
0.0
 10
57.52274717329932
 20
-137.607263323848
 30
0.0
 10
57.52274717329932
 20
-137.607263323848
 30
0.0
 10
57.52274717329932
 20
-136.5026898917713
 30
0.0
 10
58.41818086149051
 20
-135.6072562035801
 30
0.0
 10
59.52275429356755
 20
-135.6072562035801
 30
0.0
 10
59.52275429356755
 20
-135.6072562035801
 30
0.0
 10
65.04774005064985
 20
-135.6072562035801
 30
0.0
 10
65.04774005064985
 20
-135.6072562035801
 30
0.0
 10
66.1523134827269
 20
-135.6072562035801
 30
0.0
 10
67.04774717091807
 20
-134.7118225153889
 30
0.0
 10
67.04774717091807
 20
-133.6072490833116
 30
0.0
 10
67.04774717091807
 20
-133.6072490833116
 30
0.0
 10
67.04774717091807
 20
-118.5572633286105
 30
0.0
 10
67.04774717091807
 20
-118.5572633286105
 30
0.0
 10
67.04774717091807
 20
-117.4526898965338
 30
0.0
 10
67.94318085910925
 20
-116.5572562083426
 30
0.0
 10
69.0477542911863
 20
-116.5572562083426
 30
0.0
 10
69.0477542911863
 20
-116.5572562083426
 30
0.0
 10
74.5727400482686
 20
-116.5572562083426
 30
0.0
 10
74.5727400482686
 20
-116.5572562083426
 30
0.0
 10
75.67731348034565
 20
-116.5572562083426
 30
0.0
 10
76.57274716853682
 20
-115.6618225201514
 30
0.0
 10
76.57274716853682
 20
-114.5572490880741
 30
0.0
 10
76.57274716853682
 20
-114.5572490880741
 30
0.0
 10
76.57274716853682
 20
-92.7428183480853
 30
0.0
 10
76.57274716853682
 20
-92.7428183480853
 30
0.0
 10
76.57274716853682
 20
-91.63824491600825
 30
0.0
 10
77.46818085672801
 20
-90.74281122781707
 30
0.0
 10
78.57275428880504
 20
-90.74281122781707
 30
0.0
 10
78.57275428880504
 20
-90.74281122781707
 30
0.0
 10
109.0047719678292
 20
-90.74281122781707
 30
0.0
 10
109.0047719678292
 20
-90.74281122781707
 30
0.0
 10
109.5570567175216
 20
-90.74281122781707
 30
0.0
 10
110.004771967579
 20
-90.29509597775964
 30
0.0
 10
110.004771967579
 20
-89.74281122806697
 30
0.0
 10
110.004771967579
 20
-89.74281122806697
 30
0.0
 10
110.004771967579
 20
-83.74467754901114
 30
0.0
 10
110.004771967579
 20
-83.74467754901114
 30
0.0
 10
110.004771967579
 20
-83.19239279931847
 30
0.0
 10
109.5570567175216
 20
-82.74467754926104
 30
0.0
 10
109.0047719678292
 20
-82.74467754926104
 30
0.0
 10
109.0047719678292
 20
-82.74467754926104
 30
0.0
 10
76.5727687003836
 20
-82.74467754926104
 30
0.0
 10
76.5727687003836
 20
-82.74467754926104
 30
0.0
 10
75.46819526830656
 20
-82.74467754926104
 30
0.0
 10
74.57276158011538
 20
-83.64011123745223
 30
0.0
 10
74.57276158011538
 20
-84.74468466952928
 30
0.0
 10
74.57276158011538
 20
-84.74468466952928
 30
0.0
 10
74.57276158011538
 20
-112.5571773722658
 30
0.0
 10
74.57276158011538
 20
-112.5571773722658
 30
0.0
 10
74.57276158011538
 20
-113.6617508043425
 30
0.0
 10
73.6773278919242
 20
-114.557184492534
 30
0.0
 10
72.57275445984715
 20
-114.557184492534
 30
0.0
 10
72.57275445984715
 20
-114.557184492534
 30
0.0
 10
67.04776870276486
 20
-114.557184492534
 30
0.0
 10
67.04776870276486
 20
-114.557184492534
 30
0.0
 10
65.94319527068781
 20
-114.557184492534
 30
0.0
 10
65.04776158249663
 20
-115.4526181807252
 30
0.0
 10
65.04776158249663
 20
-116.5571916128023
 30
0.0
 10
65.04776158249663
 20
-116.5571916128023
 30
0.0
 10
65.04776158249663
 20
-131.6071773675033
 30
0.0
 10
65.04776158249663
 20
-131.6071773675033
 30
0.0
 10
65.04776158249663
 20
-132.71175079958
 30
0.0
 10
64.15232789430544
 20
-133.6071844877715
 30
0.0
 10
63.0477544622284
 20
-133.6071844877715
 30
0.0
 10
63.0477544622284
 20
-133.6071844877715
 30
0.0
 10
57.52276870514611
 20
-133.6071844877715
 30
0.0
 10
57.52276870514611
 20
-133.6071844877715
 30
0.0
 10
56.41819527306906
 20
-133.6071844877715
 30
0.0
 10
55.52276158487788
 20
-134.5026181759627
 30
0.0
 10
55.52276158487788
 20
-135.6071916080398
 30
0.0
 10
55.52276158487788
 20
-135.6071916080398
 30
0.0
 10
55.52276158487788
 20
-150.6570697035069
 30
0.0
 10
55.52276158487788
 20
-150.6570697035069
 30
0.0
 10
55.52276158487788
 20
-151.7616312438734
 30
0.0
 10
56.41818563293284
 20
-152.6570552919283
 30
0.0
 10
57.52274717329932
 20
-152.6570552919283
 30
0.0
 10
57.52274717329932
 20
-152.6570552919283
 30
0.0
 10
58.28527599526581
 20
-152.6570552919283
 30
0.0
 10
58.28527599526581
 20
-152.6570552919283
 30
0.0
 10
59.38983753563229
 20
-152.6570552919283
 30
0.0
 10
60.28526158368725
 20
-153.5524793399833
 30
0.0
 10
60.28526158368725
 20
-154.6570408803498
 30
0.0
 10
60.28526158368725
 20
-154.6570408803498
 30
0.0
 10
60.28526158368725
 20
-169.7070481668976
 30
0.0
 10
60.28526158368725
 20
-169.7070481668976
 30
0.0
 10
60.28526158368725
 20
-170.8116215989747
 30
0.0
 10
61.18069527187843
 20
-171.7070552871658
 30
0.0
 10
62.28526870395548
 20
-171.7070552871658
 30
0.0
 10
62.28526870395548
 20
-171.7070552871658
 30
0.0
 10
67.81027599288456
 20
-171.7070552871658
 30
0.0
 10
67.81027599288456
 20
-171.7070552871658
 30
0.0
 10
68.91483753325105
 20
-171.7070552871658
 30
0.0
 10
69.81026158130601
 20
-172.6024793352208
 30
0.0
 10
69.81026158130601
 20
-173.7070408755873
 30
0.0
 10
69.81026158130601
 20
-173.7070408755873
 30
0.0
 10
69.81026158130601
 20
-215.8070551065988
 30
0.0
 10
69.81026158130601
 20
-215.8070551065988
 30
0.0
 10
69.81026158130601
 20
-216.9116285386758
 30
0.0
 10
70.70569526949718
 20
-217.807062226867
 30
0.0
 10
71.81026870157423
 20
-217.807062226867
 30
0.0
 10
71.81026870157423
 20
-217.807062226867
 30
0.0
 10
240.4974743343159
 20
-217.807062226867
 30
0.0
 10
240.4974743343159
 20
-217.807062226867
 30
0.0
 10
242.70662119847
 20
-217.807062226867
 30
0.0
 10
244.4974885748524
 20
-216.0161948504846
 30
0.0
 10
244.4974885748524
 20
-213.8070479863305
 30
0.0
 10
244.4974885748524
 20
-213.8070479863305
 30
0.0
 10
244.4974885748524
 20
-86.7446917897975
 30
0.0
 10
244.4974885748524
 20
-86.7446917897975
 30
0.0
 10
244.4974885748524
 20
-84.5355449256431
 30
0.0
 10
242.70662119847
 20
-82.74467754926104
 30
0.0
 10
240.4974743343159
 20
-82.74467754926104
 30
0.0
  0
ENDSEC
  0
SECTION
  2
OBJECTS
  0
DICTIONARY
  5
C
330
0
100
AcDbDictionary
281
     1
  3
ACAD_GROUP
350
D
  3
ACAD_LAYOUT
350
1A
  3
ACAD_MATERIAL
350
3B
  3
ACAD_MLEADERSTYLE
350
4D
  3
ACAD_MLINESTYLE
350
17
  3
ACAD_PLOTSETTINGS
350
19
  3
ACAD_PLOTSTYLENAME
350
E
  3
ACAD_TABLESTYLE
350
4C
  3
ACAD_VISUALSTYLE
350
2A
  0
SUN
  5
3F
330
29
100
AcDbSun
 90
        1
290
     0
 63
     7
421
 16777215
 40
1.0
291
     1
 91
  2455826
 92
 54000000
292
     0
 70
     2
 71
   256
280
     1
  0
DICTIONARY
  5
D
102
{ACAD_REACTORS
330
C
102
}
330
C
100
AcDbDictionary
281
     1
  0
DICTIONARY
  5
1A
102
{ACAD_REACTORS
330
C
102
}
330
C
100
AcDbDictionary
281
     1
  3
Layout1
350
1E
  3
Layout2
350
26
  3
Model
350
22
  0
DICTIONARY
  5
3B
102
{ACAD_REACTORS
330
C
102
}
330
C
100
AcDbDictionary
281
     1
  3
ByBlock
350
3D
  3
ByLayer
350
3C
  3
Global
350
3E
  0
DICTIONARY
  5
4D
102
{ACAD_REACTORS
330
C
102
}
330
C
100
AcDbDictionary
281
     1
  0
DICTIONARY
  5
17
102
{ACAD_REACTORS
330
C
102
}
330
C
100
AcDbDictionary
281
     1
  3
Standard
350
18
  0
DICTIONARY
  5
19
102
{ACAD_REACTORS
330
C
102
}
330
C
100
AcDbDictionary
281
     1
  0
ACDBDICTIONARYWDFLT
  5
E
102
{ACAD_REACTORS
330
C
102
}
330
C
100
AcDbDictionary
281
     1
  3
Normal
350
F
100
AcDbDictionaryWithDefault
340
F
  0
DICTIONARY
  5
4C
102
{ACAD_REACTORS
330
C
102
}
330
C
100
AcDbDictionary
281
     1
  0
DICTIONARY
  5
2A
102
{ACAD_REACTORS
330
C
102
}
330
C
100
AcDbDictionary
281
     1
  3
2dWireframe
350
2F
  3
3D Hidden
350
31
  3
3dWireframe
350
30
  3
Basic
350
32
  3
Brighten
350
36
  3
ColorChange
350
3A
  3
Conceptual
350
34
  3
Dim
350
35
  3
Facepattern
350
39
  3
Flat
350
2B
  3
FlatWithEdges
350
2C
  3
Gouraud
350
2D
  3
GouraudWithEdges
350
2E
  3
Linepattern
350
38
  3
Realistic
350
33
  3
Thicken
350
37
  0
LAYOUT
  5
1E
102
{ACAD_REACTORS
330
1A
102
}
330
1A
100
AcDbPlotSettings
  1

  2
none_device
  4

  6

 40
0.0
 41
0.0
 42
0.0
 43
0.0
 44
0.0
 45
0.0
 46
0.0
 47
0.0
 48
0.0
 49
0.0
140
0.0
141
0.0
142
1.0
143
1.0
 70
   688
 72
     0
 73
     0
 74
     5
  7

 75
    16
 76
     0
 77
     2
 78
   300
147
1.0
148
0.0
149
0.0
100
AcDbLayout
  1
Layout1
 70
     1
 71
     1
 10
0.0
 20
0.0
 11
12.0
 21
9.0
 12
0.0
 22
0.0
 32
0.0
 14
1.000000000000000E+20
 24
1.000000000000000E+20
 34
1.000000000000000E+20
 15
-1.000000000000000E+20
 25
-1.000000000000000E+20
 35
-1.000000000000000E+20
146
0.0
 13
0.0
 23
0.0
 33
0.0
 16
1.0
 26
0.0
 36
0.0
 17
0.0
 27
1.0
 37
0.0
 76
     0
330
1B
  0
LAYOUT
  5
26
102
{ACAD_REACTORS
330
1A
102
}
330
1A
100
AcDbPlotSettings
  1

  2
none_device
  4

  6

 40
0.0
 41
0.0
 42
0.0
 43
0.0
 44
0.0
 45
0.0
 46
0.0
 47
0.0
 48
0.0
 49
0.0
140
0.0
141
0.0
142
1.0
143
1.0
 70
   688
 72
     0
 73
     0
 74
     5
  7

 75
    16
 76
     0
 77
     2
 78
   300
147
1.0
148
0.0
149
0.0
100
AcDbLayout
  1
Layout2
 70
     1
 71
     2
 10
0.0
 20
0.0
 11
0.0
 21
0.0
 12
0.0
 22
0.0
 32
0.0
 14
0.0
 24
0.0
 34
0.0
 15
0.0
 25
0.0
 35
0.0
146
0.0
 13
0.0
 23
0.0
 33
0.0
 16
1.0
 26
0.0
 36
0.0
 17
0.0
 27
1.0
 37
0.0
 76
     0
330
23
  0
LAYOUT
  5
22
102
{ACAD_REACTORS
330
1A
102
}
330
1A
100
AcDbPlotSettings
  1

  2
none_device
  4

  6

 40
0.0
 41
0.0
 42
0.0
 43
0.0
 44
0.0
 45
0.0
 46
0.0
 47
0.0
 48
0.0
 49
0.0
140
0.0
141
0.0
142
1.0
143
1.0
 70
  1712
 72
     0
 73
     0
 74
     0
  7

 75
     0
 76
     0
 77
     2
 78
   300
147
1.0
148
0.0
149
0.0
100
AcDbLayout
  1
Model
 70
     1
 71
     0
 10
0.0
 20
0.0
 11
12.0
 21
9.0
 12
0.0
 22
0.0
 32
0.0
 14
1.000000000000000E+20
 24
1.000000000000000E+20
 34
1.000000000000000E+20
 15
-1.000000000000000E+20
 25
-1.000000000000000E+20
 35
-1.000000000000000E+20
146
0.0
 13
0.0
 23
0.0
 33
0.0
 16
1.0
 26
0.0
 36
0.0
 17
0.0
 27
1.0
 37
0.0
 76
     0
330
1F
331
29
  0
MATERIAL
  5
3D
102
{ACAD_REACTORS
330
3B
102
}
330
3B
100
AcDbMaterial
  1
ByBlock
 72
     1
 94
      127
  0
MATERIAL
  5
3C
102
{ACAD_REACTORS
330
3B
102
}
330
3B
100
AcDbMaterial
  1
ByLayer
 72
     1
 94
      127
  0
MATERIAL
  5
3E
102
{ACAD_REACTORS
330
3B
102
}
330
3B
100
AcDbMaterial
  1
Global
 72
     1
 94
      127
  0
MLINESTYLE
  5
18
102
{ACAD_REACTORS
330
17
102
}
330
17
100
AcDbMlineStyle
  2
Standard
 70
     0
  3

 62
   256
 51
90.0
 52
90.0
 71
     2
 49
0.5
 62
   256
  6
BYLAYER
 49
-0.5
 62
   256
  6
BYLAYER
  0
ACDBPLACEHOLDER
  5
F
102
{ACAD_REACTORS
330
E
102
}
330
E
  0
VISUALSTYLE
  5
2F
102
{ACAD_REACTORS
330
2A
102
}
330
2A
100
AcDbVisualStyle
  2
2dWireframe
 70
     4
177
     2
291
     0
 71
     0
176
     1
 72
     2
176
     1
 73
     0
176
     1
 90
        0
176
     1
 40
-0.6
176
     1
 41
-30.0
176
     1
 62
     5
 63
     7
421
 16777215
176
     1
 74
     1
176
     1
 91
        4
176
     1
 64
     7
176
     1
 65
   257
176
     1
 75
     1
176
     1
175
     1
176
     1
 42
1.0
176
     1
 92
        0
176
     1
 66
   257
176
     1
 43
1.0
176
     1
 76
     1
176
     1
 77
     6
176
     1
 78
     2
176
     1
 67
     7
176
     1
 79
     5
176
     1
170
     0
176
     1
171
     0
176
     1
290
     0
176
     1
 93
        1
176
     1
 44
0.0
176
     1
173
     0
176
     1
  0
VISUALSTYLE
  5
31
102
{ACAD_REACTORS
330
2A
102
}
330
2A
100
AcDbVisualStyle
  2
3D Hidden
 70
     6
177
     2
291
     0
 71
     1
176
     1
 72
     2
176
     1
 73
     2
176
     1
 90
        0
176
     1
 40
-0.6
176
     1
 41
-30.0
176
     1
 62
     5
 63
     7
421
 16777215
176
     1
 74
     2
176
     1
 91
        2
176
     1
 64
     7
176
     1
 65
   257
176
     1
 75
     2
176
     1
175
     1
176
     1
 42
40.0
176
     1
 92
        0
176
     1
 66
   257
176
     1
 43
1.0
176
     1
 76
     1
176
     1
 77
     6
176
     1
 78
     2
176
     1
 67
     7
176
     1
 79
     3
176
     1
170
     0
176
     1
171
     0
176
     1
290
     0
176
     1
 93
        1
176
     1
 44
0.0
176
     1
173
     0
176
     1
  0
VISUALSTYLE
  5
30
102
{ACAD_REACTORS
330
2A
102
}
330
2A
100
AcDbVisualStyle
  2
3dWireframe
 70
     5
177
     2
291
     0
 71
     0
176
     1
 72
     2
176
     1
 73
     0
176
     1
 90
        0
176
     1
 40
-0.6
176
     1
 41
-30.0
176
     1
 62
     5
 63
     7
421
 16777215
176
     1
 74
     1
176
     1
 91
        4
176
     1
 64
     7
176
     1
 65
   257
176
     1
 75
     1
176
     1
175
     1
176
     1
 42
1.0
176
     1
 92
        0
176
     1
 66
   257
176
     1
 43
1.0
176
     1
 76
     1
176
     1
 77
     6
176
     1
 78
     2
176
     1
 67
     7
176
     1
 79
     5
176
     1
170
     0
176
     1
171
     0
176
     1
290
     0
176
     1
 93
        1
176
     1
 44
0.0
176
     1
173
     0
176
     1
  0
VISUALSTYLE
  5
32
102
{ACAD_REACTORS
330
2A
102
}
330
2A
100
AcDbVisualStyle
  2
Basic
 70
     7
177
     2
291
     1
 71
     1
176
     1
 72
     0
176
     1
 73
     1
176
     1
 90
        0
176
     1
 40
-0.6
176
     1
 41
-30.0
176
     1
 62
     5
 63
     7
421
 16777215
176
     1
 74
     0
176
     1
 91
        4
176
     1
 64
     7
176
     1
 65
   257
176
     1
 75
     1
176
     1
175
     1
176
     1
 42
1.0
176
     1
 92
        8
176
     1
 66
     7
176
     1
 43
1.0
176
     1
 76
     1
176
     1
 77
     6
176
     1
 78
     2
176
     1
 67
     7
176
     1
 79
     5
176
     1
170
     0
176
     1
171
     0
176
     1
290
     0
176
     1
 93
        1
176
     1
 44
0.0
176
     1
173
     0
176
     1
  0
VISUALSTYLE
  5
36
102
{ACAD_REACTORS
330
2A
102
}
330
2A
100
AcDbVisualStyle
  2
Brighten
 70
    12
177
     2
291
     1
 71
     2
176
     1
 72
     2
176
     1
 73
     0
176
     1
 90
        0
176
     1
 40
-0.6
176
     1
 41
-30.0
176
     1
 62
     5
 63
     7
421
 16777215
176
     1
 74
     1
176
     1
 91
        4
176
     1
 64
     7
176
     1
 65
   257
176
     1
 75
     1
176
     1
175
     1
176
     1
 42
1.0
176
     1
 92
        8
176
     1
 66
     7
176
     1
 43
1.0
176
     1
 76
     1
176
     1
 77
     6
176
     1
 78
     2
176
     1
 67
     7
176
     1
 79
     5
176
     1
170
     0
176
     1
171
     0
176
     1
290
     0
176
     1
 93
        1
176
     1
 44
50.0
176
     1
173
     0
176
     1
  0
VISUALSTYLE
  5
3A
102
{ACAD_REACTORS
330
2A
102
}
330
2A
100
AcDbVisualStyle
  2
ColorChange
 70
    16
177
     2
291
     1
 71
     2
176
     1
 72
     2
176
     1
 73
     3
176
     1
 90
        0
176
     1
 40
-0.6
176
     1
 41
-30.0
176
     1
 62
     5
 63
     8
421
  8421504
176
     1
 74
     1
176
     1
 91
        4
176
     1
 64
     7
176
     1
 65
   257
176
     1
 75
     1
176
     1
175
     1
176
     1
 42
1.0
176
     1
 92
        8
176
     1
 66
     8
424
  8421504
176
     1
 43
1.0
176
     1
 76
     1
176
     1
 77
     6
176
     1
 78
     2
176
     1
 67
     7
176
     1
 79
     5
176
     1
170
     0
176
     1
171
     0
176
     1
290
     0
176
     1
 93
        1
176
     1
 44
0.0
176
     1
173
     0
176
     1
  0
VISUALSTYLE
  5
34
102
{ACAD_REACTORS
330
2A
102
}
330
2A
100
AcDbVisualStyle
  2
Conceptual
 70
     9
177
     2
291
     0
 71
     3
176
     1
 72
     2
176
     1
 73
     0
176
     1
 90
        0
176
     1
 40
-0.6
176
     1
 41
-30.0
176
     1
 62
     5
 63
     7
421
 16777215
176
     1
 74
     2
176
     1
 91
        2
176
     1
 64
     7
176
     1
 65
   257
176
     1
 75
     1
176
     1
175
     1
176
     1
 42
40.0
176
     1
 92
        8
176
     1
 66
     7
176
     1
 43
1.0
176
     1
 76
     1
176
     1
 77
     6
176
     1
 78
     2
176
     1
 67
     7
176
     1
 79
     3
176
     1
170
     0
176
     1
171
     0
176
     1
290
     0
176
     1
 93
        1
176
     1
 44
0.0
176
     1
173
     0
176
     1
  0
VISUALSTYLE
  5
35
102
{ACAD_REACTORS
330
2A
102
}
330
2A
100
AcDbVisualStyle
  2
Dim
 70
    11
177
     2
291
     1
 71
     2
176
     1
 72
     2
176
     1
 73
     0
176
     1
 90
        0
176
     1
 40
-0.6
176
     1
 41
-30.0
176
     1
 62
     5
 63
     7
421
 16777215
176
     1
 74
     1
176
     1
 91
        4
176
     1
 64
     7
176
     1
 65
   257
176
     1
 75
     1
176
     1
175
     1
176
     1
 42
1.0
176
     1
 92
        8
176
     1
 66
     7
176
     1
 43
1.0
176
     1
 76
     1
176
     1
 77
     6
176
     1
 78
     2
176
     1
 67
     7
176
     1
 79
     5
176
     1
170
     0
176
     1
171
     0
176
     1
290
     0
176
     1
 93
        1
176
     1
 44
-50.0
176
     1
173
     0
176
     1
  0
VISUALSTYLE
  5
39
102
{ACAD_REACTORS
330
2A
102
}
330
2A
100
AcDbVisualStyle
  2
Facepattern
 70
    15
177
     2
291
     1
 71
     2
176
     1
 72
     2
176
     1
 73
     0
176
     1
 90
        0
176
     1
 40
-0.6
176
     1
 41
-30.0
176
     1
 62
     5
 63
     7
421
 16777215
176
     1
 74
     1
176
     1
 91
        4
176
     1
 64
     7
176
     1
 65
   257
176
     1
 75
     1
176
     1
175
     1
176
     1
 42
1.0
176
     1
 92
        8
176
     1
 66
     7
176
     1
 43
1.0
176
     1
 76
     1
176
     1
 77
     6
176
     1
 78
     2
176
     1
 67
     7
176
     1
 79
     5
176
     1
170
     0
176
     1
171
     0
176
     1
290
     0
176
     1
 93
        1
176
     1
 44
0.0
176
     1
173
     0
176
     1
  0
VISUALSTYLE
  5
2B
102
{ACAD_REACTORS
330
2A
102
}
330
2A
100
AcDbVisualStyle
  2
Flat
 70
     0
177
     2
291
     1
 71
     2
176
     1
 72
     1
176
     1
 73
     1
176
     1
 90
        2
176
     1
 40
-0.6
176
     1
 41
30.0
176
     1
 62
     5
 63
     7
421
 16777215
176
     1
 74
     0
176
     1
 91
        4
176
     1
 64
     7
176
     1
 65
   257
176
     1
 75
     1
176
     1
175
     1
176
     1
 42
1.0
176
     1
 92
        8
176
     1
 66
     7
176
     1
 43
1.0
176
     1
 76
     1
176
     1
 77
     6
176
     1
 78
     2
176
     1
 67
     7
176
     1
 79
     5
176
     1
170
     0
176
     1
171
     0
176
     1
290
     0
176
     1
 93
       13
176
     1
 44
0.0
176
     1
173
     0
176
     1
  0
VISUALSTYLE
  5
2C
102
{ACAD_REACTORS
330
2A
102
}
330
2A
100
AcDbVisualStyle
  2
FlatWithEdges
 70
     1
177
     2
291
     1
 71
     2
176
     1
 72
     1
176
     1
 73
     1
176
     1
 90
        2
176
     1
 40
-0.6
176
     1
 41
30.0
176
     1
 62
     5
 63
     7
421
 16777215
176
     1
 74
     1
176
     1
 91
        4
176
     1
 64
     7
176
     1
 65
   257
176
     1
 75
     1
176
     1
175
     1
176
     1
 42
1.0
176
     1
 92
        0
176
     1
 66
   257
176
     1
 43
1.0
176
     1
 76
     1
176
     1
 77
     6
176
     1
 78
     2
176
     1
 67
     7
176
     1
 79
     5
176
     1
170
     0
176
     1
171
     0
176
     1
290
     0
176
     1
 93
       13
176
     1
 44
0.0
176
     1
173
     0
176
     1
  0
VISUALSTYLE
  5
2D
102
{ACAD_REACTORS
330
2A
102
}
330
2A
100
AcDbVisualStyle
  2
Gouraud
 70
     2
177
     2
291
     1
 71
     2
176
     1
 72
     2
176
     1
 73
     1
176
     1
 90
        2
176
     1
 40
-0.6
176
     1
 41
30.0
176
     1
 62
     5
 63
     7
421
 16777215
176
     1
 74
     0
176
     1
 91
        4
176
     1
 64
     7
176
     1
 65
   257
176
     1
 75
     1
176
     1
175
     1
176
     1
 42
1.0
176
     1
 92
        0
176
     1
 66
     7
176
     1
 43
1.0
176
     1
 76
     1
176
     1
 77
     6
176
     1
 78
     2
176
     1
 67
     7
176
     1
 79
     5
176
     1
170
     0
176
     1
171
     0
176
     1
290
     0
176
     1
 93
       13
176
     1
 44
0.0
176
     1
173
     0
176
     1
  0
VISUALSTYLE
  5
2E
102
{ACAD_REACTORS
330
2A
102
}
330
2A
100
AcDbVisualStyle
  2
GouraudWithEdges
 70
     3
177
     2
291
     1
 71
     2
176
     1
 72
     2
176
     1
 73
     1
176
     1
 90
        2
176
     1
 40
-0.6
176
     1
 41
30.0
176
     1
 62
     5
 63
     7
421
 16777215
176
     1
 74
     1
176
     1
 91
        4
176
     1
 64
     7
176
     1
 65
   257
176
     1
 75
     1
176
     1
175
     1
176
     1
 42
1.0
176
     1
 92
        0
176
     1
 66
   257
176
     1
 43
1.0
176
     1
 76
     1
176
     1
 77
     6
176
     1
 78
     2
176
     1
 67
     7
176
     1
 79
     5
176
     1
170
     0
176
     1
171
     0
176
     1
290
     0
176
     1
 93
       13
176
     1
 44
0.0
176
     1
173
     0
176
     1
  0
VISUALSTYLE
  5
38
102
{ACAD_REACTORS
330
2A
102
}
330
2A
100
AcDbVisualStyle
  2
Linepattern
 70
    14
177
     2
291
     1
 71
     2
176
     1
 72
     2
176
     1
 73
     0
176
     1
 90
        0
176
     1
 40
-0.6
176
     1
 41
-30.0
176
     1
 62
     5
 63
     7
421
 16777215
176
     1
 74
     1
176
     1
 91
        4
176
     1
 64
     7
176
     1
 65
   257
176
     1
 75
     7
176
     1
175
     7
176
     1
 42
1.0
176
     1
 92
        8
176
     1
 66
     7
176
     1
 43
1.0
176
     1
 76
     1
176
     1
 77
     6
176
     1
 78
     2
176
     1
 67
     7
176
     1
 79
     5
176
     1
170
     0
176
     1
171
     0
176
     1
290
     0
176
     1
 93
        1
176
     1
 44
0.0
176
     1
173
     0
176
     1
  0
VISUALSTYLE
  5
33
102
{ACAD_REACTORS
330
2A
102
}
330
2A
100
AcDbVisualStyle
  2
Realistic
 70
     8
177
     2
291
     0
 71
     2
176
     1
 72
     2
176
     1
 73
     0
176
     1
 90
        0
176
     1
 40
-0.6
176
     1
 41
-30.0
176
     1
 62
     5
 63
     7
421
 16777215
176
     1
 74
     1
176
     1
 91
        0
176
     1
 64
     7
176
     1
 65
   257
176
     1
 75
     1
176
     1
175
     1
176
     1
 42
1.0
176
     1
 92
        8
176
     1
 66
     8
424
  7895160
176
     1
 43
1.0
176
     1
 76
     1
176
     1
 77
     6
176
     1
 78
     2
176
     1
 67
     7
176
     1
 79
     5
176
     1
170
     0
176
     1
171
     0
176
     1
290
     0
176
     1
 93
       13
176
     1
 44
0.0
176
     1
173
     0
176
     1
  0
VISUALSTYLE
  5
37
102
{ACAD_REACTORS
330
2A
102
}
330
2A
100
AcDbVisualStyle
  2
Thicken
 70
    13
177
     2
291
     1
 71
     2
176
     1
 72
     2
176
     1
 73
     0
176
     1
 90
        0
176
     1
 40
-0.6
176
     1
 41
-30.0
176
     1
 62
     5
 63
     7
421
 16777215
176
     1
 74
     1
176
     1
 91
        4
176
     1
 64
     7
176
     1
 65
   257
176
     1
 75
     1
176
     1
175
     1
176
     1
 42
1.0
176
     1
 92
       12
176
     1
 66
     7
176
     1
 43
1.0
176
     1
 76
     1
176
     1
 77
     6
176
     1
 78
     2
176
     1
 67
     7
176
     1
 79
     5
176
     1
170
     0
176
     1
171
     0
176
     1
290
     0
176
     1
 93
        1
176
     1
 44
0.0
176
     1
173
     0
176
     1
  0
ENDSEC
  0
EOF
